<svg width="319" height="143" viewBox="0 0 319 143" fill="none" xmlns="http://www.w3.org/2000/svg">
<path d="M175 75.7969C176.188 75.7969 177.156 75.4688 177.906 74.8125C178.656 74.1562 179.031 73.4219 179.031 72.6094C179.031 72.2031 178.906 71.7969 178.656 71.3906C178.438 70.9844 178.078 70.625 177.578 70.3125C177.109 70 176.469 69.75 175.656 69.5625C174.875 69.375 173.922 69.2812 172.797 69.2812C171.328 69.2812 169.906 69.4531 168.531 69.7969C167.156 70.1406 165.766 70.5781 164.359 71.1094C165.672 72.4219 166.719 73.9531 167.5 75.7031C168.281 77.4219 168.672 79.4062 168.672 81.6562C168.672 84.9375 168.016 87.8438 166.703 90.375C165.422 92.9062 163.688 95.0312 161.5 96.75C159.344 98.4688 156.844 99.7812 154 100.688C151.156 101.562 148.203 102 145.141 102C142.078 102 139.094 101.547 136.188 100.641C133.281 99.7344 130.672 98.375 128.359 96.5625C126.078 94.75 124.234 92.4688 122.828 89.7188C121.453 86.9688 120.766 83.7656 120.766 80.1094C120.766 76.7344 121.297 73.7812 122.359 71.25C123.453 68.6875 124.844 66.5 126.531 64.6875C128.25 62.8438 130.141 61.3281 132.203 60.1406C134.266 58.9531 136.281 58.0312 138.25 57.375C137.031 56.75 135.828 55.9844 134.641 55.0781C133.484 54.1719 132.453 53.1562 131.547 52.0312C130.641 50.9062 129.906 49.6719 129.344 48.3281C128.812 46.9531 128.547 45.4844 128.547 43.9219C128.547 41.7344 129.016 39.75 129.953 37.9688C130.891 36.1875 132.109 34.6719 133.609 33.4219C135.141 32.1719 136.875 31.2188 138.812 30.5625C140.75 29.875 142.734 29.5312 144.766 29.5312C147.203 29.5312 149.297 29.8125 151.047 30.375C152.797 30.9062 154.219 31.6094 155.312 32.4844C156.406 33.3281 157.203 34.2969 157.703 35.3906C158.234 36.4844 158.5 37.5625 158.5 38.625C158.5 39.5312 158.328 40.4062 157.984 41.25C157.672 42.0938 157.203 42.8438 156.578 43.5C155.984 44.125 155.25 44.625 154.375 45C153.5 45.375 152.531 45.5625 151.469 45.5625C150.656 45.5625 149.922 45.4219 149.266 45.1406C148.609 44.8281 148.031 44.4844 147.531 44.1094C147.031 43.7344 146.625 43.3594 146.312 42.9844C146 42.6094 145.797 42.3438 145.703 42.1875L147.25 41.25C147.406 41.4062 147.625 41.5938 147.906 41.8125C148.219 42.0312 148.562 42.25 148.938 42.4688C149.312 42.6562 149.703 42.8281 150.109 42.9844C150.547 43.1094 151 43.1719 151.469 43.1719C152.719 43.1719 153.719 42.7188 154.469 41.8125C155.219 40.9062 155.594 39.8438 155.594 38.625C155.594 37.9062 155.422 37.1875 155.078 36.4688C154.766 35.7188 154.266 35.0469 153.578 34.4531C152.891 33.8281 152 33.3281 150.906 32.9531C149.844 32.5781 148.562 32.3906 147.062 32.3906C145.094 32.3906 143.359 32.75 141.859 33.4688C140.359 34.1875 139.109 35.1562 138.109 36.375C137.109 37.5625 136.344 38.9219 135.812 40.4531C135.312 41.9531 135.062 43.5 135.062 45.0938C135.062 46.2812 135.203 47.4375 135.484 48.5625C135.797 49.6875 136.234 50.75 136.797 51.75C137.391 52.7188 138.125 53.6094 139 54.4219C139.906 55.2031 140.969 55.8281 142.188 56.2969C142.812 56.1406 143.406 56.0469 143.969 56.0156C144.531 55.9531 145.047 55.9219 145.516 55.9219C146.328 55.9219 146.969 56.0469 147.438 56.2969C147.906 56.5156 148.141 56.8438 148.141 57.2812C148.141 57.9375 147.875 58.4375 147.344 58.7812C146.812 59.125 146.109 59.2969 145.234 59.2969C144.703 59.2969 144.125 59.25 143.5 59.1562C142.906 59.0625 142.266 58.9062 141.578 58.6875C139.422 59.1875 137.531 60.0625 135.906 61.3125C134.281 62.5312 132.922 64 131.828 65.7188C130.734 67.4375 129.906 69.3281 129.344 71.3906C128.812 73.4219 128.547 75.5 128.547 77.625C128.547 80.1875 128.938 82.7188 129.719 85.2188C130.531 87.7188 131.75 89.9531 133.375 91.9219C135 93.8906 137.016 95.4844 139.422 96.7031C141.828 97.9219 144.656 98.5312 147.906 98.5312C150.188 98.5312 152.391 98.1719 154.516 97.4531C156.672 96.7344 158.562 95.6719 160.188 94.2656C161.844 92.8594 163.172 91.125 164.172 89.0625C165.172 87 165.672 84.625 165.672 81.9375C165.672 79.7812 165.312 77.8906 164.594 76.2656C163.875 74.6094 162.922 73.2031 161.734 72.0469C160.453 72.5781 159.172 73.1094 157.891 73.6406C156.641 74.1719 155.344 74.6562 154 75.0938C152.688 75.5312 151.344 75.8906 149.969 76.1719C148.594 76.4219 147.172 76.5469 145.703 76.5469C144.578 76.5469 143.594 76.4062 142.75 76.125C141.938 75.8438 141.25 75.4844 140.688 75.0469C140.156 74.5781 139.75 74.0469 139.469 73.4531C139.219 72.8594 139.094 72.2344 139.094 71.5781C139.094 70.5781 139.359 69.6875 139.891 68.9062C140.453 68.125 141.203 67.4688 142.141 66.9375C143.078 66.375 144.172 65.9531 145.422 65.6719C146.703 65.3906 148.047 65.25 149.453 65.25C150.953 65.25 152.5 65.4219 154.094 65.7656C155.719 66.0781 157.312 66.5781 158.875 67.2656C160.844 66.2969 162.922 65.4375 165.109 64.6875C167.297 63.9062 169.672 63.5156 172.234 63.5156C173.953 63.5156 175.438 63.75 176.688 64.2188C177.938 64.6562 178.969 65.2344 179.781 65.9531C180.625 66.6719 181.234 67.4844 181.609 68.3906C182.016 69.2969 182.219 70.2031 182.219 71.1094C182.219 71.9531 182.062 72.7656 181.75 73.5469C181.438 74.3281 180.969 75.0312 180.344 75.6562C179.75 76.2812 179.016 76.7812 178.141 77.1562C177.266 77.5312 176.281 77.7188 175.188 77.7188L175 75.7969ZM149.453 67.4531C147.672 67.4531 146.188 67.7031 145 68.2031C143.812 68.6719 143.219 69.3125 143.219 70.125C143.219 70.625 143.5 71.0469 144.062 71.3906C144.625 71.7031 145.531 71.8594 146.781 71.8594C148.219 71.8594 149.703 71.5469 151.234 70.9219C152.797 70.2969 154.453 69.5469 156.203 68.6719C155.016 68.2344 153.844 67.9219 152.688 67.7344C151.531 67.5469 150.453 67.4531 149.453 67.4531Z" fill="#DE9C62" fill-opacity="0.22"/>
<path d="M19.7031 71C22.0469 71 24.0977 70.5781 25.8555 69.7344C27.6133 68.8906 29.1133 67.7773 30.3555 66.3945C28.8555 66.1133 27.4727 65.6211 26.207 64.918C24.9648 64.2148 23.8867 63.3477 22.9727 62.3164C22.0586 61.2617 21.3438 60.0781 20.8281 58.7656C20.3125 57.4297 20.0547 55.9883 20.0547 54.4414C20.0547 52.918 20.3242 51.5234 20.8633 50.2578C21.4023 48.9688 22.1289 47.8672 23.043 46.9531C23.957 46.0156 25.0117 45.2891 26.207 44.7734C27.4258 44.2578 28.6914 44 30.0039 44C31.2227 44 32.3945 44.2227 33.5195 44.668C34.668 45.1133 35.6758 45.7695 36.543 46.6367C37.4102 47.4805 38.1016 48.5469 38.6172 49.8359C39.1562 51.1016 39.4258 52.5664 39.4258 54.2305C39.4258 55.918 39.0625 57.6875 38.3359 59.5391C37.6094 61.3906 36.5781 63.1484 35.2422 64.8125C36.6484 64.625 37.8789 64.2266 38.9336 63.6172C39.9883 63.0078 40.9023 62.2812 41.6758 61.4375C42.4727 60.5938 43.1523 59.6914 43.7148 58.7305C44.3008 57.7461 44.8164 56.7969 45.2617 55.8828L45.6133 55.1445L47.0547 56.2344L46.7031 56.9727C45.9766 58.4258 45.168 59.75 44.2773 60.9453C43.3867 62.1406 42.4023 63.1602 41.3242 64.0039C40.2461 64.8477 39.0625 65.5039 37.7734 65.9727C36.4844 66.418 35.0898 66.6523 33.5898 66.6758C31.7852 68.5039 29.6172 69.9805 27.0859 71.1055C24.5547 72.2305 21.7305 72.793 18.6133 72.793C15.8711 72.793 13.375 72.3359 11.125 71.4219C8.875 70.5078 6.94141 69.2656 5.32422 67.6953C3.73047 66.125 2.48828 64.2969 1.59766 62.2109C0.707031 60.125 0.261719 57.8984 0.261719 55.5312C0.261719 52.8594 0.671875 50.5391 1.49219 48.5703C2.33594 46.5781 3.41406 44.8789 4.72656 43.4727C6.03906 42.0664 7.49219 40.9062 9.08594 39.9922C10.7031 39.0547 12.2969 38.3047 13.8672 37.7422C12.3672 37.1797 11.043 36.4648 9.89453 35.5977C8.74609 34.7305 7.77344 33.7695 6.97656 32.7148C6.20312 31.6367 5.60547 30.5 5.18359 29.3047C4.78516 28.0859 4.58594 26.8672 4.58594 25.6484C4.58594 23.4453 5.04297 21.5 5.95703 19.8125C6.87109 18.1016 8.05469 16.6719 9.50781 15.5234C10.9844 14.3516 12.6367 13.4727 14.4648 12.8867C16.3164 12.2773 18.1797 11.9727 20.0547 11.9727C21.6016 11.9727 23.0781 12.1602 24.4844 12.5352C25.9141 12.9102 27.1562 13.4375 28.2109 14.1172C28.7734 14 29.3594 13.918 29.9688 13.8711C30.6016 13.8008 31.2578 13.7656 31.9375 13.7656V15.207C31.5391 15.207 31.1641 15.2187 30.8125 15.2422C30.4609 15.2656 30.1211 15.3008 29.793 15.3477C30.4727 16.0039 31 16.7422 31.375 17.5625C31.75 18.3594 31.9375 19.25 31.9375 20.2344C31.9375 21.1484 31.7852 21.9805 31.4805 22.7305C31.1992 23.4805 30.7891 24.125 30.25 24.6641C29.7344 25.2031 29.125 25.625 28.4219 25.9297C27.7188 26.2109 26.9688 26.3516 26.1719 26.3516C25.2812 26.3516 24.4844 26.2109 23.7812 25.9297C23.1016 25.6484 22.5273 25.2734 22.0586 24.8047C21.5898 24.3359 21.2266 23.7852 20.9688 23.1523C20.7109 22.5195 20.582 21.8633 20.582 21.1836C20.582 20.5977 20.6758 20 20.8633 19.3906C21.0742 18.7813 21.3789 18.1953 21.7773 17.6328C22.1992 17.0703 22.7266 16.543 23.3594 16.0508C24.0156 15.5586 24.7891 15.1367 25.6797 14.7852C24.7891 14.4102 23.8516 14.1523 22.8672 14.0117C21.9062 13.8477 21.0859 13.7656 20.4062 13.7656C18.7656 13.7656 17.3125 14.0586 16.0469 14.6445C14.8047 15.207 13.7617 16.0156 12.918 17.0703C12.0742 18.125 11.4297 19.4023 10.9844 20.9023C10.5625 22.4023 10.3516 24.0781 10.3516 25.9297C10.3516 27.125 10.4922 28.3086 10.7734 29.4805C11.0547 30.6289 11.4648 31.6953 12.0039 32.6797C12.543 33.6406 13.2227 34.4844 14.043 35.2109C14.8633 35.9141 15.8125 36.4414 16.8906 36.793C17.8984 36.5352 18.8008 36.3594 19.5977 36.2656C20.3945 36.1484 21.0273 36.0898 21.4961 36.0898C22.293 36.0898 22.8672 36.2188 23.2188 36.4766C23.5703 36.7344 23.7461 37.0625 23.7461 37.4609C23.7461 37.6484 23.7109 37.8359 23.6406 38.0234C23.5703 38.1875 23.4414 38.3398 23.2539 38.4805C23.0664 38.6211 22.7969 38.7383 22.4453 38.832C22.1172 38.9258 21.6836 38.9727 21.1445 38.9727C20.4648 38.9727 19.7969 38.9492 19.1406 38.9023C18.4844 38.8555 17.8516 38.7734 17.2422 38.6562C15.6953 39.0547 14.2773 39.7227 12.9883 40.6602C11.6992 41.5977 10.5859 42.7812 9.64844 44.2109C8.73438 45.6406 8.01953 47.3047 7.50391 49.2031C6.98828 51.1016 6.73047 53.2109 6.73047 55.5312C6.73047 58.2031 7.09375 60.5117 7.82031 62.457C8.54688 64.4023 9.51953 66.0078 10.7383 67.2734C11.957 68.5391 13.3398 69.4766 14.8867 70.0859C16.4336 70.6953 18.0391 71 19.7031 71ZM34.8203 54.793C34.8203 53.3398 34.6445 52.0859 34.293 51.0312C33.9648 49.9766 33.5195 49.1094 32.957 48.4297C32.3945 47.7266 31.75 47.2109 31.0234 46.8828C30.2969 46.5547 29.5469 46.3906 28.7734 46.3906C27.9531 46.3906 27.1562 46.5781 26.3828 46.9531C25.6094 47.3047 24.9062 47.8203 24.2734 48.5C23.6641 49.1797 23.1719 50.0234 22.7969 51.0312C22.4219 52.0391 22.2344 53.1758 22.2344 54.4414C22.2344 55.8477 22.457 57.1484 22.9023 58.3438C23.3711 59.5156 24.0156 60.5586 24.8359 61.4727C25.6797 62.3633 26.6758 63.1016 27.8242 63.6875C28.9961 64.25 30.2734 64.625 31.6562 64.8125C32.7344 63.2656 33.5312 61.6133 34.0469 59.8555C34.5625 58.0977 34.8203 56.4102 34.8203 54.793ZM30.1445 20.2344C30.1445 19.2266 29.8984 18.3594 29.4062 17.6328C28.9141 16.9062 28.293 16.2852 27.543 15.7695C26.6289 16.0273 25.8438 16.3555 25.1875 16.7539C24.5312 17.1523 23.9922 17.5977 23.5703 18.0898C23.1719 18.5586 22.8672 19.0625 22.6562 19.6016C22.4688 20.1172 22.375 20.6211 22.375 21.1133C22.375 22.0508 22.7031 22.8594 23.3594 23.5391C24.0391 24.2187 24.9766 24.5586 26.1719 24.5586C27.4375 24.5586 28.4102 24.1602 29.0898 23.3633C29.793 22.543 30.1445 21.5 30.1445 20.2344ZM53.207 66.5352C53.6289 66.5352 54.1094 66.2656 54.6484 65.7266C55.2109 65.1641 55.8086 64.4023 56.4414 63.4414C57.0742 62.4805 57.7422 61.3555 58.4453 60.0664C59.1484 58.7773 59.875 57.3828 60.625 55.8828L60.9766 55.1445L62.418 56.2344L62.0664 56.9727C60.8242 59.457 59.7109 61.5898 58.7266 63.3711C57.7656 65.1289 56.8633 66.582 56.0195 67.7305C55.1758 68.8555 54.3672 69.6875 53.5938 70.2266C52.8438 70.7422 52.0703 71 51.2734 71C50.2188 71 49.3047 70.6602 48.5312 69.9805C47.7812 69.2773 47.1484 68.1172 46.6328 66.5C46.1406 64.8594 45.7773 62.7031 45.543 60.0312C45.2852 57.3594 45.1562 54.0547 45.1562 50.1172C45.1562 44.5391 45.3906 39.7578 45.8594 35.7734C46.3281 31.7656 46.9609 28.4844 47.7578 25.9297C48.5781 23.3516 49.5156 21.4648 50.5703 20.2695C51.6484 19.0508 52.7734 18.4414 53.9453 18.4414C54.6484 18.4414 55.2344 18.7344 55.7031 19.3203C56.1953 19.8828 56.4414 20.9141 56.4414 22.4141C56.4414 23.5859 56.3477 24.9219 56.1602 26.4219C55.9727 27.9219 55.7266 29.5273 55.4219 31.2383C55.1172 32.9492 54.7539 34.7305 54.332 36.582C53.9102 38.4102 53.4648 40.2383 52.9961 42.0664C52.5273 43.8711 52.0469 45.6523 51.5547 47.4102C51.0625 49.1445 50.582 50.7734 50.1133 52.2969C50.2539 55.1797 50.4062 57.5469 50.5703 59.3984C50.7578 61.2266 50.9688 62.668 51.2031 63.7227C51.4609 64.7773 51.7539 65.5156 52.082 65.9375C52.4102 66.3359 52.7852 66.5352 53.207 66.5352ZM54.1562 23.2578C54.1562 22.7656 54.0977 22.3789 53.9805 22.0977C53.8633 21.8164 53.6758 21.6758 53.418 21.6758C53.1602 21.6758 52.9023 22.0391 52.6445 22.7656C52.3867 23.4922 52.1289 24.4766 51.8711 25.7188C51.6367 26.9609 51.4141 28.4023 51.2031 30.043C51.0156 31.6836 50.8398 33.4297 50.6758 35.2812C50.5117 37.1094 50.3828 38.9844 50.2891 40.9062C50.1953 42.8281 50.1367 44.6797 50.1133 46.4609C50.6758 44.3984 51.1914 42.2891 51.6602 40.1328C52.1523 37.9531 52.5859 35.8438 52.9609 33.8047C53.3359 31.7656 53.6289 29.8438 53.8398 28.0391C54.0508 26.2109 54.1562 24.6172 54.1562 23.2578ZM68.1133 71C66.6836 71 65.4414 70.6953 64.3867 70.0859C63.3555 69.4766 62.5 68.6562 61.8203 67.625C61.1406 66.5703 60.6367 65.3633 60.3086 64.0039C59.9805 62.6445 59.8164 61.2031 59.8164 59.6797C59.8164 58.3438 59.9453 56.9844 60.2031 55.6016C60.4609 54.2188 60.8242 52.8828 61.293 51.5938C61.7852 50.2812 62.3945 49.0625 63.1211 47.9375C63.8477 46.7891 64.6797 45.793 65.6172 44.9492C66.5547 44.1055 67.5977 43.4375 68.7461 42.9453C69.918 42.4531 71.1719 42.207 72.5078 42.207C74.0312 42.207 75.3203 42.5469 76.375 43.2266C77.4531 43.9062 78.3203 44.7383 78.9766 45.7227C79 41.293 79.2227 37.3789 79.6445 33.9805C80.0664 30.582 80.6523 27.7344 81.4023 25.4375C82.1758 23.1406 83.0898 21.4062 84.1445 20.2344C85.1992 19.0391 86.3594 18.4414 87.625 18.4414C88.0703 18.4414 88.4688 18.5 88.8203 18.6172C89.1953 18.7109 89.5 18.8984 89.7344 19.1797C89.9922 19.4609 90.1797 19.8477 90.2969 20.3398C90.4375 20.8086 90.5078 21.418 90.5078 22.168C90.5078 23.7148 90.3555 25.4961 90.0508 27.5117C89.7461 29.5039 89.3125 31.6836 88.75 34.0508C88.1875 36.3945 87.4961 38.9023 86.6758 41.5742C85.8789 44.2227 84.9883 46.9766 84.0039 49.8359C84.0273 52.3438 84.0625 54.5117 84.1094 56.3398C84.1562 58.168 84.2148 59.7148 84.2852 60.9805C84.3789 62.2461 84.4844 63.2773 84.6016 64.0742C84.7422 64.8711 84.8945 65.4922 85.0586 65.9375C85.2461 66.3594 85.457 66.6523 85.6914 66.8164C85.9492 66.957 86.2305 67.0273 86.5352 67.0273C87.0742 67.0273 87.6133 66.793 88.1523 66.3242C88.7148 65.832 89.3125 65.1172 89.9453 64.1797C90.5781 63.2188 91.2578 62.0469 91.9844 60.6641C92.7344 59.2812 93.5547 57.6875 94.4453 55.8828L94.832 55.1445L96.2734 56.2344L95.8867 56.9727C94.5273 59.7148 93.332 61.9883 92.3008 63.793C91.2695 65.5742 90.3203 67.0039 89.4531 68.082C88.6094 69.1602 87.8008 69.9219 87.0273 70.3672C86.2539 70.7891 85.4453 71 84.6016 71C83.7812 71 83.0664 70.8008 82.457 70.4023C81.8711 69.9805 81.3672 69.3359 80.9453 68.4688C80.5234 67.5781 80.1836 66.4531 79.9258 65.0938C79.668 63.7109 79.4688 62.0586 79.3281 60.1367C78.5078 61.7773 77.6641 63.2656 76.7969 64.6016C75.9297 65.9375 75.0273 67.0859 74.0898 68.0469C73.1758 68.9844 72.2148 69.7109 71.207 70.2266C70.1992 70.7422 69.168 71 68.1133 71ZM73.2109 44C71.9219 44 70.7969 44.3984 69.8359 45.1953C68.875 45.9688 68.0781 46.9883 67.4453 48.2539C66.8125 49.4961 66.3438 50.9023 66.0391 52.4727C65.7344 54.043 65.582 55.6133 65.582 57.1836C65.582 58.4727 65.6758 59.7148 65.8633 60.9102C66.0742 62.082 66.3789 63.125 66.7773 64.0391C67.1992 64.9531 67.7031 65.6797 68.2891 66.2188C68.875 66.7578 69.5547 67.0273 70.3281 67.0273C71.0781 67.0273 71.8047 66.8398 72.5078 66.4648C73.2344 66.0898 73.9492 65.4922 74.6523 64.6719C75.3555 63.8281 76.0703 62.75 76.7969 61.4375C77.5234 60.1016 78.2969 58.4844 79.1172 56.5859C79.0703 55.4609 79.0352 54.2656 79.0117 53C78.9883 51.7109 78.9766 50.3398 78.9766 48.8867C78.4609 47.3633 77.6758 46.168 76.6211 45.3008C75.5898 44.4336 74.4531 44 73.2109 44ZM87.9766 23.4688C87.9766 22.3906 87.8477 21.6406 87.5898 21.2188C87.3555 20.7969 87.0742 20.5859 86.7461 20.5859C86.1836 20.5859 85.7266 21.1367 85.375 22.2383C85.0234 23.3164 84.7422 24.7812 84.5312 26.6328C84.3438 28.4844 84.2031 30.6289 84.1094 33.0664C84.0391 35.5039 84.0039 38.0703 84.0039 40.7656V44.6328C84.7305 42.2656 85.3516 40.1328 85.8672 38.2344C86.3828 36.3359 86.793 34.5664 87.0977 32.9258C87.4023 31.2852 87.625 29.7031 87.7656 28.1797C87.9062 26.6563 87.9766 25.0859 87.9766 23.4688ZM96.6602 55.5312L96.3086 56.2344L95.957 56.9727L94.5156 55.8828L94.8672 55.1445C95.4531 53.9492 95.9336 52.7539 96.3086 51.5586C96.707 50.3398 97.0234 49.2031 97.2578 48.1484C97.5156 47.0938 97.7266 46.168 97.8906 45.3711C98.0547 44.5742 98.2188 44 98.3828 43.6484C98.5234 43.3672 98.7227 43.1445 98.9805 42.9805C99.2617 42.793 99.543 42.6406 99.8242 42.5234C100.129 42.4062 100.41 42.3242 100.668 42.2773C100.949 42.2305 101.148 42.207 101.266 42.207C101.781 42.207 102.121 42.3125 102.285 42.5234C102.473 42.7344 102.566 43.1094 102.566 43.6484C102.566 43.9062 102.508 44.5508 102.391 45.582C102.297 46.5898 102.18 47.8672 102.039 49.4141C101.922 50.9375 101.805 52.6602 101.688 54.582C101.594 56.4805 101.547 58.4492 101.547 60.4883C101.547 61.9648 101.617 63.1367 101.758 64.0039C101.898 64.8477 102.074 65.4805 102.285 65.9023C102.52 66.3242 102.766 66.5938 103.023 66.7109C103.305 66.8281 103.586 66.8867 103.867 66.8867C104.242 66.8867 104.664 66.7227 105.133 66.3945C105.602 66.0664 106.152 65.4922 106.785 64.6719C107.418 63.8281 108.145 62.7031 108.965 61.2969C109.785 59.8672 110.746 58.0625 111.848 55.8828L112.234 55.1445L113.676 56.2344L113.289 56.9727C112.398 58.707 111.508 60.418 110.617 62.1055C109.75 63.793 108.859 65.293 107.945 66.6055C107.055 67.918 106.152 68.9844 105.238 69.8047C104.324 70.6016 103.41 71 102.496 71C101.535 71 100.703 70.8125 100 70.4375C99.3203 70.0391 98.7461 69.3945 98.2773 68.5039C97.832 67.6133 97.4922 66.4414 97.2578 64.9883C97.0469 63.5117 96.9414 61.6953 96.9414 59.5391C96.9414 58.9297 96.9414 58.2969 96.9414 57.6406C96.9414 56.9609 96.9648 56.2578 97.0117 55.5312H96.6602ZM103.867 35C103.867 35.8203 103.586 36.5117 103.023 37.0742C102.484 37.6133 101.805 37.8828 100.984 37.8828C100.188 37.8828 99.5078 37.6133 98.9453 37.0742C98.3828 36.5117 98.1016 35.8203 98.1016 35C98.1016 34.2031 98.3828 33.5234 98.9453 32.9609C99.5078 32.3984 100.188 32.1172 100.984 32.1172C101.805 32.1172 102.484 32.3984 103.023 32.9609C103.586 33.5234 103.867 34.2031 103.867 35ZM125.77 44.6328C125.113 44.6328 124.375 44.9258 123.555 45.5117C122.758 46.0977 121.949 46.8594 121.129 47.7969C120.309 48.7109 119.512 49.7422 118.738 50.8906C117.988 52.0391 117.332 53.1758 116.77 54.3008C116.699 56.3633 116.629 58.6133 116.559 61.0508C116.512 63.4883 116.488 66.0898 116.488 68.8555C116.488 69.207 116.324 69.5234 115.996 69.8047C115.691 70.0625 115.328 70.2852 114.906 70.4727C114.484 70.6367 114.051 70.7656 113.605 70.8594C113.16 70.9531 112.797 71 112.516 71C112.164 71 111.836 70.8945 111.531 70.6836C111.227 70.4727 111.074 70.0039 111.074 69.2773C111.074 68.9258 111.109 68.4922 111.18 67.9766C111.25 67.4375 111.344 66.8633 111.461 66.2539C111.555 65.6445 111.672 65.0234 111.812 64.3906C111.93 63.7344 112.047 63.125 112.164 62.5625V45.3711C112.164 44.9023 112.176 44.5391 112.199 44.2812C112.199 44 112.234 43.7891 112.305 43.6484C112.445 43.3203 112.691 43.0625 113.043 42.875C113.395 42.6875 113.77 42.5469 114.168 42.4531C114.566 42.3359 114.953 42.2656 115.328 42.2422C115.703 42.2188 115.996 42.207 116.207 42.207C116.605 42.207 116.875 42.3125 117.016 42.5234C117.18 42.7344 117.262 43.1094 117.262 43.6484C117.262 43.5781 117.203 44.1523 117.086 45.3711C116.992 46.5898 116.91 48.3359 116.84 50.6094C117.543 49.5078 118.305 48.4531 119.125 47.4453C119.945 46.4375 120.801 45.5469 121.691 44.7734C122.582 44 123.496 43.3789 124.434 42.9102C125.395 42.4414 126.367 42.207 127.352 42.207C129.109 42.207 130.398 42.7695 131.219 43.8945C132.039 44.9961 132.449 46.4961 132.449 48.3945C132.449 49.5898 132.367 50.9258 132.203 52.4023C132.062 53.8555 131.887 55.3438 131.676 56.8672C131.488 58.3672 131.312 59.8438 131.148 61.2969C131.008 62.7266 130.938 64.0391 130.938 65.2344C130.938 66.7812 131.418 67.5547 132.379 67.5547C132.684 67.5547 133.035 67.4023 133.434 67.0977C133.855 66.7695 134.371 66.1719 134.98 65.3047C135.613 64.4375 136.363 63.2539 137.23 61.7539C138.098 60.2305 139.129 58.2734 140.324 55.8828L140.676 55.1445L142.117 56.2344L141.766 56.9727C140.359 59.7852 139.105 62.0938 138.004 63.8984C136.926 65.7031 135.941 67.1328 135.051 68.1875C134.16 69.2422 133.328 69.9805 132.555 70.4023C131.781 70.8008 131.008 71 130.234 71C129.742 71 129.25 70.9297 128.758 70.7891C128.266 70.6484 127.832 70.4023 127.457 70.0508C127.082 69.6992 126.777 69.2305 126.543 68.6445C126.309 68.0352 126.191 67.2617 126.191 66.3242C126.191 64.918 126.285 63.3359 126.473 61.5781C126.66 59.8203 126.871 58.0625 127.105 56.3047C127.34 54.5469 127.551 52.8945 127.738 51.3477C127.926 49.7773 128.02 48.5 128.02 47.5156C128.02 46.6484 127.832 45.957 127.457 45.4414C127.082 44.9023 126.52 44.6328 125.77 44.6328Z" fill="#465B78"/>
<path d="M159.703 124C162.047 124 164.098 123.578 165.855 122.734C167.613 121.891 169.113 120.777 170.355 119.395C168.855 119.113 167.473 118.621 166.207 117.918C164.965 117.215 163.887 116.348 162.973 115.316C162.059 114.262 161.344 113.078 160.828 111.766C160.312 110.43 160.055 108.988 160.055 107.441C160.055 105.918 160.324 104.523 160.863 103.258C161.402 101.969 162.129 100.867 163.043 99.9531C163.957 99.0156 165.012 98.2891 166.207 97.7734C167.426 97.2578 168.691 97 170.004 97C171.223 97 172.395 97.2227 173.52 97.668C174.668 98.1133 175.676 98.7695 176.543 99.6367C177.41 100.48 178.102 101.547 178.617 102.836C179.156 104.102 179.426 105.566 179.426 107.23C179.426 108.918 179.062 110.688 178.336 112.539C177.609 114.391 176.578 116.148 175.242 117.812C176.648 117.625 177.879 117.227 178.934 116.617C179.988 116.008 180.902 115.281 181.676 114.438C182.473 113.594 183.152 112.691 183.715 111.73C184.301 110.746 184.816 109.797 185.262 108.883L185.613 108.145L187.055 109.234L186.703 109.973C185.977 111.426 185.168 112.75 184.277 113.945C183.387 115.141 182.402 116.16 181.324 117.004C180.246 117.848 179.062 118.504 177.773 118.973C176.484 119.418 175.09 119.652 173.59 119.676C171.785 121.504 169.617 122.98 167.086 124.105C164.555 125.23 161.73 125.793 158.613 125.793C155.871 125.793 153.375 125.336 151.125 124.422C148.875 123.508 146.941 122.266 145.324 120.695C143.73 119.125 142.488 117.297 141.598 115.211C140.707 113.125 140.262 110.898 140.262 108.531C140.262 105.859 140.672 103.539 141.492 101.57C142.336 99.5781 143.414 97.8789 144.727 96.4727C146.039 95.0664 147.492 93.9062 149.086 92.9922C150.703 92.0547 152.297 91.3047 153.867 90.7422C152.367 90.1797 151.043 89.4648 149.895 88.5977C148.746 87.7305 147.773 86.7695 146.977 85.7148C146.203 84.6367 145.605 83.5 145.184 82.3047C144.785 81.0859 144.586 79.8672 144.586 78.6484C144.586 76.4453 145.043 74.5 145.957 72.8125C146.871 71.1016 148.055 69.6719 149.508 68.5234C150.984 67.3516 152.637 66.4727 154.465 65.8867C156.316 65.2773 158.18 64.9727 160.055 64.9727C161.602 64.9727 163.078 65.1602 164.484 65.5352C165.914 65.9102 167.156 66.4375 168.211 67.1172C168.773 67 169.359 66.918 169.969 66.8711C170.602 66.8008 171.258 66.7656 171.938 66.7656V68.207C171.539 68.207 171.164 68.2188 170.812 68.2422C170.461 68.2656 170.121 68.3008 169.793 68.3477C170.473 69.0039 171 69.7422 171.375 70.5625C171.75 71.3594 171.938 72.25 171.938 73.2344C171.938 74.1484 171.785 74.9805 171.48 75.7305C171.199 76.4805 170.789 77.125 170.25 77.6641C169.734 78.2031 169.125 78.625 168.422 78.9297C167.719 79.2109 166.969 79.3516 166.172 79.3516C165.281 79.3516 164.484 79.2109 163.781 78.9297C163.102 78.6484 162.527 78.2734 162.059 77.8047C161.59 77.3359 161.227 76.7852 160.969 76.1523C160.711 75.5195 160.582 74.8633 160.582 74.1836C160.582 73.5977 160.676 73 160.863 72.3906C161.074 71.7812 161.379 71.1953 161.777 70.6328C162.199 70.0703 162.727 69.543 163.359 69.0508C164.016 68.5586 164.789 68.1367 165.68 67.7852C164.789 67.4102 163.852 67.1523 162.867 67.0117C161.906 66.8477 161.086 66.7656 160.406 66.7656C158.766 66.7656 157.312 67.0586 156.047 67.6445C154.805 68.207 153.762 69.0156 152.918 70.0703C152.074 71.125 151.43 72.4023 150.984 73.9023C150.562 75.4023 150.352 77.0781 150.352 78.9297C150.352 80.125 150.492 81.3086 150.773 82.4805C151.055 83.6289 151.465 84.6953 152.004 85.6797C152.543 86.6406 153.223 87.4844 154.043 88.2109C154.863 88.9141 155.812 89.4414 156.891 89.793C157.898 89.5352 158.801 89.3594 159.598 89.2656C160.395 89.1484 161.027 89.0898 161.496 89.0898C162.293 89.0898 162.867 89.2188 163.219 89.4766C163.57 89.7344 163.746 90.0625 163.746 90.4609C163.746 90.6484 163.711 90.8359 163.641 91.0234C163.57 91.1875 163.441 91.3398 163.254 91.4805C163.066 91.6211 162.797 91.7383 162.445 91.832C162.117 91.9258 161.684 91.9727 161.145 91.9727C160.465 91.9727 159.797 91.9492 159.141 91.9023C158.484 91.8555 157.852 91.7734 157.242 91.6562C155.695 92.0547 154.277 92.7227 152.988 93.6602C151.699 94.5977 150.586 95.7812 149.648 97.2109C148.734 98.6406 148.02 100.305 147.504 102.203C146.988 104.102 146.73 106.211 146.73 108.531C146.73 111.203 147.094 113.512 147.82 115.457C148.547 117.402 149.52 119.008 150.738 120.273C151.957 121.539 153.34 122.477 154.887 123.086C156.434 123.695 158.039 124 159.703 124ZM174.82 107.793C174.82 106.34 174.645 105.086 174.293 104.031C173.965 102.977 173.52 102.109 172.957 101.43C172.395 100.727 171.75 100.211 171.023 99.8828C170.297 99.5547 169.547 99.3906 168.773 99.3906C167.953 99.3906 167.156 99.5781 166.383 99.9531C165.609 100.305 164.906 100.82 164.273 101.5C163.664 102.18 163.172 103.023 162.797 104.031C162.422 105.039 162.234 106.176 162.234 107.441C162.234 108.848 162.457 110.148 162.902 111.344C163.371 112.516 164.016 113.559 164.836 114.473C165.68 115.363 166.676 116.102 167.824 116.688C168.996 117.25 170.273 117.625 171.656 117.812C172.734 116.266 173.531 114.613 174.047 112.855C174.562 111.098 174.82 109.41 174.82 107.793ZM170.145 73.2344C170.145 72.2266 169.898 71.3594 169.406 70.6328C168.914 69.9062 168.293 69.2852 167.543 68.7695C166.629 69.0273 165.844 69.3555 165.188 69.7539C164.531 70.1523 163.992 70.5977 163.57 71.0898C163.172 71.5586 162.867 72.0625 162.656 72.6016C162.469 73.1172 162.375 73.6211 162.375 74.1133C162.375 75.0508 162.703 75.8594 163.359 76.5391C164.039 77.2188 164.977 77.5586 166.172 77.5586C167.438 77.5586 168.41 77.1602 169.09 76.3633C169.793 75.543 170.145 74.5 170.145 73.2344ZM197.109 97.7031C196.43 97.7031 195.773 97.9492 195.141 98.4414C194.531 98.9102 193.945 99.5664 193.383 100.41C192.82 101.23 192.27 102.203 191.73 103.328C191.215 104.43 190.699 105.613 190.184 106.879V107.301C190.113 109.363 190.043 111.555 189.973 113.875C189.926 116.195 189.902 118.727 189.902 121.469C189.902 121.938 189.738 122.336 189.41 122.664C189.105 122.969 188.742 123.227 188.32 123.438C187.898 123.625 187.465 123.766 187.02 123.859C186.574 123.953 186.211 124 185.93 124C185.578 124 185.25 123.895 184.945 123.684C184.641 123.473 184.488 123.004 184.488 122.277C184.488 121.926 184.523 121.492 184.594 120.977C184.664 120.438 184.758 119.863 184.875 119.254C184.969 118.645 185.086 118.023 185.227 117.391C185.344 116.734 185.461 116.125 185.578 115.562C185.578 113.57 185.578 111.777 185.578 110.184C185.555 108.59 185.543 107.172 185.543 105.93C185.543 104.688 185.543 103.598 185.543 102.66C185.52 101.723 185.508 100.914 185.508 100.234C185.508 99.1094 185.531 98.2891 185.578 97.7734C185.602 97.2344 185.648 96.8594 185.719 96.6484C185.836 96.3203 186.047 96.0625 186.352 95.875C186.68 95.6875 187.02 95.5469 187.371 95.4531C187.723 95.3359 188.074 95.2656 188.426 95.2422C188.777 95.2188 189.047 95.207 189.234 95.207C189.68 95.207 189.973 95.3359 190.113 95.5938C190.254 95.8516 190.324 96.25 190.324 96.7891C190.324 98.0078 190.324 99.1094 190.324 100.094C190.324 101.078 190.301 102.062 190.254 103.047C190.699 101.992 191.215 100.996 191.801 100.059C192.41 99.0977 193.078 98.2656 193.805 97.5625C194.531 96.8359 195.293 96.2617 196.09 95.8398C196.91 95.418 197.754 95.207 198.621 95.207C199.676 95.207 200.543 95.4297 201.223 95.875C201.926 96.2969 202.477 96.8945 202.875 97.668C203.297 98.4414 203.602 99.3555 203.789 100.41C204 101.441 204.141 102.566 204.211 103.785C204.867 102.59 205.57 101.477 206.32 100.445C207.094 99.3906 207.902 98.4766 208.746 97.7031C209.613 96.9297 210.516 96.3203 211.453 95.875C212.414 95.4297 213.41 95.207 214.441 95.207C216.223 95.207 217.523 95.7695 218.344 96.8945C219.164 97.9961 219.574 99.4961 219.574 101.395C219.574 102.59 219.48 103.926 219.293 105.402C219.105 106.879 218.906 108.379 218.695 109.902C218.484 111.402 218.285 112.879 218.098 114.332C217.91 115.785 217.816 117.109 217.816 118.305C217.816 119.758 218.18 120.484 218.906 120.484C219.281 120.484 219.691 120.262 220.137 119.816C220.582 119.348 221.086 118.645 221.648 117.707C222.234 116.746 222.902 115.539 223.652 114.086C224.426 112.633 225.316 110.898 226.324 108.883L226.676 108.145L228.117 109.234L227.766 109.973C226.383 112.738 225.199 115.023 224.215 116.828C223.254 118.633 222.387 120.074 221.613 121.152C220.84 122.207 220.102 122.945 219.398 123.367C218.719 123.789 217.957 124 217.113 124C216.621 124 216.141 123.93 215.672 123.789C215.203 123.648 214.793 123.402 214.441 123.051C214.09 122.699 213.809 122.23 213.598 121.645C213.387 121.035 213.281 120.262 213.281 119.324C213.281 117.918 213.375 116.336 213.562 114.578C213.75 112.82 213.961 111.062 214.195 109.305C214.43 107.547 214.641 105.895 214.828 104.348C215.016 102.777 215.109 101.5 215.109 100.516C215.109 99.6484 214.922 98.957 214.547 98.4414C214.172 97.9023 213.609 97.6328 212.859 97.6328C212.109 97.6328 211.324 97.9258 210.504 98.5117C209.707 99.0977 208.922 99.8594 208.148 100.797C207.398 101.711 206.684 102.742 206.004 103.891C205.348 105.039 204.773 106.176 204.281 107.301C204.281 109.762 204.258 111.918 204.211 113.77C204.164 115.598 204.094 117.145 204 118.41C203.93 119.676 203.824 120.684 203.684 121.434C203.543 122.16 203.391 122.652 203.227 122.91C203.109 123.074 202.91 123.227 202.629 123.367C202.348 123.508 202.031 123.625 201.68 123.719C201.352 123.812 201.023 123.883 200.695 123.93C200.391 123.977 200.156 124 199.992 124C199.617 124 199.289 123.895 199.008 123.684C198.75 123.449 198.621 123.004 198.621 122.348C198.621 122.043 198.645 121.633 198.691 121.117C198.762 120.602 198.844 120.027 198.938 119.395C199.031 118.762 199.137 118.082 199.254 117.355C199.371 116.629 199.488 115.891 199.605 115.141C199.629 114.438 199.652 113.652 199.676 112.785C199.699 111.918 199.723 111.062 199.746 110.219C199.77 109.352 199.781 108.531 199.781 107.758C199.805 106.961 199.816 106.281 199.816 105.719C199.816 104.523 199.781 103.434 199.711 102.449C199.641 101.465 199.5 100.621 199.289 99.918C199.102 99.2148 198.832 98.6758 198.48 98.3008C198.129 97.9023 197.672 97.7031 197.109 97.7031ZM248.016 115.281C248.016 116.617 248.133 117.742 248.367 118.656C248.602 119.57 249.012 120.027 249.598 120.027C249.949 120.027 250.324 119.863 250.723 119.535C251.145 119.184 251.625 118.621 252.164 117.848C252.703 117.074 253.312 116.078 253.992 114.859C254.695 113.617 255.492 112.105 256.383 110.324L257.438 108.145L258.879 109.234L257.824 111.414C256.84 113.383 255.914 115.152 255.047 116.723C254.203 118.27 253.395 119.582 252.621 120.66C251.848 121.738 251.086 122.57 250.336 123.156C249.609 123.719 248.883 124 248.156 124C247.383 124 246.727 123.789 246.188 123.367C245.672 122.945 245.238 122.371 244.887 121.645C244.535 120.895 244.266 120.039 244.078 119.078C243.891 118.094 243.762 117.051 243.691 115.949C243.129 117.074 242.508 118.129 241.828 119.113C241.148 120.074 240.434 120.918 239.684 121.645C238.957 122.371 238.195 122.945 237.398 123.367C236.602 123.789 235.805 124 235.008 124C233.836 124 232.699 123.754 231.598 123.262C230.496 122.77 229.512 122.02 228.645 121.012C227.801 120.004 227.121 118.738 226.605 117.215C226.09 115.668 225.832 113.852 225.832 111.766C225.832 109.328 226.148 107.102 226.781 105.086C227.414 103.047 228.27 101.301 229.348 99.8477C230.426 98.3711 231.668 97.2344 233.074 96.4375C234.48 95.6172 235.957 95.207 237.504 95.207C238.441 95.207 239.309 95.418 240.105 95.8398C240.902 96.2617 241.594 96.7773 242.18 97.3867C242.789 97.9727 243.293 98.6055 243.691 99.2852C244.09 99.9414 244.359 100.504 244.5 100.973L244.922 97.5625C244.969 97.1172 245.18 96.7422 245.555 96.4375C245.953 96.1328 246.387 95.8984 246.855 95.7344C247.324 95.5469 247.781 95.418 248.227 95.3477C248.672 95.2539 248.988 95.207 249.176 95.207C249.457 95.207 249.645 95.2539 249.738 95.3477C249.832 95.4414 249.879 95.6289 249.879 95.9102C249.879 96.2617 249.773 96.9766 249.562 98.0547C249.375 99.1094 249.164 100.469 248.93 102.133C248.719 103.773 248.508 105.707 248.297 107.934C248.109 110.16 248.016 112.609 248.016 115.281ZM244.148 106C244.148 104.922 243.984 103.867 243.656 102.836C243.328 101.781 242.883 100.855 242.32 100.059C241.758 99.2383 241.102 98.582 240.352 98.0898C239.625 97.5977 238.852 97.3516 238.031 97.3516C237.023 97.3516 236.074 97.6445 235.184 98.2305C234.316 98.793 233.555 99.6016 232.898 100.656C232.266 101.688 231.762 102.941 231.387 104.418C231.012 105.871 230.824 107.477 230.824 109.234C230.824 112.75 231.375 115.434 232.477 117.285C233.578 119.113 235.043 120.027 236.871 120.027C237.668 120.027 238.488 119.711 239.332 119.078C240.199 118.422 240.984 117.496 241.688 116.301C242.414 115.082 243 113.605 243.445 111.871C243.914 110.137 244.148 108.18 244.148 106ZM270.973 97.6328C270.316 97.6328 269.578 97.9258 268.758 98.5117C267.961 99.0977 267.152 99.8594 266.332 100.797C265.512 101.711 264.715 102.742 263.941 103.891C263.191 105.039 262.535 106.176 261.973 107.301C261.902 109.363 261.832 111.613 261.762 114.051C261.715 116.488 261.691 119.09 261.691 121.855C261.691 122.207 261.527 122.523 261.199 122.805C260.895 123.062 260.531 123.285 260.109 123.473C259.688 123.637 259.254 123.766 258.809 123.859C258.363 123.953 258 124 257.719 124C257.367 124 257.039 123.895 256.734 123.684C256.43 123.473 256.277 123.004 256.277 122.277C256.277 121.926 256.312 121.492 256.383 120.977C256.453 120.438 256.547 119.863 256.664 119.254C256.758 118.645 256.875 118.023 257.016 117.391C257.133 116.734 257.25 116.125 257.367 115.562V98.3711C257.367 97.9023 257.379 97.5391 257.402 97.2812C257.402 97 257.438 96.7891 257.508 96.6484C257.648 96.3203 257.895 96.0625 258.246 95.875C258.598 95.6875 258.973 95.5469 259.371 95.4531C259.77 95.3359 260.156 95.2656 260.531 95.2422C260.906 95.2188 261.199 95.207 261.41 95.207C261.809 95.207 262.078 95.3125 262.219 95.5234C262.383 95.7344 262.465 96.1094 262.465 96.6484C262.465 96.5781 262.406 97.1523 262.289 98.3711C262.195 99.5898 262.113 101.336 262.043 103.609C262.746 102.508 263.508 101.453 264.328 100.445C265.148 99.4375 266.004 98.5469 266.895 97.7734C267.785 97 268.699 96.3789 269.637 95.9102C270.598 95.4414 271.57 95.207 272.555 95.207C274.312 95.207 275.602 95.7695 276.422 96.8945C277.242 97.9961 277.652 99.4961 277.652 101.395C277.652 102.59 277.57 103.926 277.406 105.402C277.266 106.855 277.09 108.344 276.879 109.867C276.691 111.367 276.516 112.844 276.352 114.297C276.211 115.727 276.141 117.039 276.141 118.234C276.141 119.781 276.621 120.555 277.582 120.555C277.887 120.555 278.238 120.402 278.637 120.098C279.059 119.77 279.574 119.172 280.184 118.305C280.816 117.438 281.566 116.254 282.434 114.754C283.301 113.23 284.332 111.273 285.527 108.883L285.879 108.145L287.32 109.234L286.969 109.973C285.562 112.785 284.309 115.094 283.207 116.898C282.129 118.703 281.145 120.133 280.254 121.188C279.363 122.242 278.531 122.98 277.758 123.402C276.984 123.801 276.211 124 275.438 124C274.945 124 274.453 123.93 273.961 123.789C273.469 123.648 273.035 123.402 272.66 123.051C272.285 122.699 271.98 122.23 271.746 121.645C271.512 121.035 271.395 120.262 271.395 119.324C271.395 117.918 271.488 116.336 271.676 114.578C271.863 112.82 272.074 111.062 272.309 109.305C272.543 107.547 272.754 105.895 272.941 104.348C273.129 102.777 273.223 101.5 273.223 100.516C273.223 99.6484 273.035 98.957 272.66 98.4414C272.285 97.9023 271.723 97.6328 270.973 97.6328ZM307.219 115.281C307.219 116.617 307.336 117.742 307.57 118.656C307.805 119.57 308.215 120.027 308.801 120.027C309.152 120.027 309.527 119.863 309.926 119.535C310.348 119.184 310.828 118.621 311.367 117.848C311.906 117.074 312.516 116.078 313.195 114.859C313.898 113.617 314.695 112.105 315.586 110.324L316.641 108.145L318.082 109.234L317.027 111.414C316.043 113.383 315.117 115.152 314.25 116.723C313.406 118.27 312.598 119.582 311.824 120.66C311.051 121.738 310.289 122.57 309.539 123.156C308.812 123.719 308.086 124 307.359 124C306.586 124 305.93 123.789 305.391 123.367C304.875 122.945 304.441 122.371 304.09 121.645C303.738 120.895 303.469 120.039 303.281 119.078C303.094 118.094 302.965 117.051 302.895 115.949C302.332 117.074 301.711 118.129 301.031 119.113C300.352 120.074 299.637 120.918 298.887 121.645C298.16 122.371 297.398 122.945 296.602 123.367C295.805 123.789 295.008 124 294.211 124C293.039 124 291.902 123.754 290.801 123.262C289.699 122.77 288.715 122.02 287.848 121.012C287.004 120.004 286.324 118.738 285.809 117.215C285.293 115.668 285.035 113.852 285.035 111.766C285.035 109.328 285.352 107.102 285.984 105.086C286.617 103.047 287.473 101.301 288.551 99.8477C289.629 98.3711 290.871 97.2344 292.277 96.4375C293.684 95.6172 295.16 95.207 296.707 95.207C297.645 95.207 298.512 95.418 299.309 95.8398C300.105 96.2617 300.797 96.7773 301.383 97.3867C301.992 97.9727 302.496 98.6055 302.895 99.2852C303.293 99.9414 303.562 100.504 303.703 100.973L304.125 97.5625C304.172 97.1172 304.383 96.7422 304.758 96.4375C305.156 96.1328 305.59 95.8984 306.059 95.7344C306.527 95.5469 306.984 95.418 307.43 95.3477C307.875 95.2539 308.191 95.207 308.379 95.207C308.66 95.207 308.848 95.2539 308.941 95.3477C309.035 95.4414 309.082 95.6289 309.082 95.9102C309.082 96.2617 308.977 96.9766 308.766 98.0547C308.578 99.1094 308.367 100.469 308.133 102.133C307.922 103.773 307.711 105.707 307.5 107.934C307.312 110.16 307.219 112.609 307.219 115.281ZM303.352 106C303.352 104.922 303.188 103.867 302.859 102.836C302.531 101.781 302.086 100.855 301.523 100.059C300.961 99.2383 300.305 98.582 299.555 98.0898C298.828 97.5977 298.055 97.3516 297.234 97.3516C296.227 97.3516 295.277 97.6445 294.387 98.2305C293.52 98.793 292.758 99.6016 292.102 100.656C291.469 101.688 290.965 102.941 290.59 104.418C290.215 105.871 290.027 107.477 290.027 109.234C290.027 112.75 290.578 115.434 291.68 117.285C292.781 119.113 294.246 120.027 296.074 120.027C296.871 120.027 297.691 119.711 298.535 119.078C299.402 118.422 300.188 117.496 300.891 116.301C301.617 115.082 302.203 113.605 302.648 111.871C303.117 110.137 303.352 108.18 303.352 106Z" fill="#465B78"/>
</svg>
