<svg width="553" height="551" viewBox="0 0 553 551" fill="none" xmlns="http://www.w3.org/2000/svg">
<path d="M215.835 291.891L218.084 359.353C217.584 367.598 215.236 386.188 209.839 394.583C204.442 402.978 211.588 415.571 215.835 420.818L195.042 488.28" stroke="black" stroke-width="1.49915"/>
<path d="M203.281 489.029C199.783 465.793 194.84 419.169 194.84 400.58C194.84 381.99 198.838 358.853 200.837 349.609C198.838 345.861 194.84 334.917 194.84 321.125C194.84 303.885 182.847 264.157 180.599 256.661M198.033 489.779C171.798 450.301 119.433 371.196 117.634 355.605C115.386 336.116 117.634 254.413 95.8967 218.433" stroke="black" stroke-width="1.49915"/>
<path d="M205.339 292.644C196.844 275.903 195.445 240.623 257.81 233.427C246.816 240.923 220.93 263.26 205.339 292.644Z" fill="#233254"/>
<path d="M257.81 233.427C258.559 250.418 249.115 286.048 205.339 292.644C220.93 263.26 246.816 240.923 257.81 233.427Z" fill="#1F2C4D"/>
<path d="M183.865 264.433C165.206 266.497 131.689 255.396 146.892 194.486C150.041 207.414 161.845 239.503 183.865 264.433Z" fill="#233254"/>
<path d="M146.892 194.486C163.06 199.761 193.09 221.136 183.865 264.433C161.845 239.503 150.041 207.414 146.892 194.486Z" fill="#1F2C4D"/>
<path d="M205.298 420.071C196.803 403.331 195.403 368.051 257.768 360.855C246.774 368.35 220.889 390.688 205.298 420.071Z" fill="#233254"/>
<path d="M257.768 360.855C258.518 377.845 249.073 413.475 205.298 420.071C220.889 390.688 246.774 368.35 257.768 360.855Z" fill="#1F2C4D"/>
<path d="M214.32 360.852C190.334 342.862 200.727 303.843 263.315 298.952C252.052 306.037 230.984 332.064 214.32 360.852Z" fill="#233254"/>
<path d="M263.315 298.952C263.437 315.959 269.801 333.118 214.32 360.852C230.984 332.064 252.052 306.037 263.315 298.952Z" fill="#1F2C4D"/>
<path d="M175.353 318.878C183.748 336.867 166.358 339.866 156.614 339.116C150.867 337.867 126.78 327.873 76.4088 297.89C26.0374 267.907 9.9465 232.926 8.1975 219.184C15.1935 216.686 41.4786 216.036 90.6507 233.426C152.116 255.164 164.859 296.39 175.353 318.878Z" fill="#2C4F6A"/>
<path d="M8.1975 219.934L174.603 333.869C167.107 343.614 134.876 337.617 73.4105 295.641C24.2384 262.06 9.44679 231.177 8.1975 219.934Z" fill="url(#paint0_linear_31_1842)"/>
<path d="M211.591 477.838C213.98 498.386 195.632 498.776 184.384 477.038C179.272 474.061 155.778 453.305 116.952 408.135C78.1265 362.964 80.1687 342.042 82.8108 327.746C90.2965 327.343 115.796 320.475 157.429 352.666C209.471 392.905 208.604 452.153 211.591 477.838Z" fill="url(#paint1_linear_31_1842)"/>
<path d="M82.5753 328.497C82.5753 328.497 126.697 357.163 153.681 393.143C180.666 429.123 206.163 492.635 206.163 492.635C195.922 500.149 162.636 469.403 116.952 408.884C80.4055 360.469 80.2396 340.139 82.5753 328.497Z" fill="url(#paint2_linear_31_1842)"/>
<path d="M100.12 208.51C102.767 223.88 90.0875 223.433 83.4171 221.289C79.6275 219.395 64.5947 207.746 34.7806 176.306C4.96644 144.866 -0.0167992 115.018 1.21835 104.024C6.55021 103.196 25.0208 106.898 56.2485 128.328C95.2831 155.116 96.812 189.298 100.12 208.51Z" fill="#2C4F6A"/>
<path d="M1.08436 104.608L96.9168 220.078C89.9408 226.475 68.5057 216.64 33.0889 174.073C4.75534 140.019 -0.0530995 113.574 1.08436 104.608Z" fill="url(#paint3_linear_31_1842)"/>
<g filter="url(#filter0_f_31_1842)">
<ellipse cx="351.186" cy="496.227" rx="137.913" ry="23.4318" transform="rotate(-2.85395 351.186 496.227)" fill="black"/>
</g>
<mask id="mask0_31_1842" style="mask-type:alpha" maskUnits="userSpaceOnUse" x="217" y="0" width="336" height="286">
<path d="M218.205 188.919C222.489 240.871 260.159 274.836 278.458 285.325H488.005C496.262 274.39 516.257 247.834 530.182 229.088C564.995 193.74 551.829 136.7 540.894 112.599C532.414 93.1837 496.44 45.5168 420.387 10.1682C344.334 -25.1803 272.209 40.0717 245.653 77.1162C234.718 92.7374 213.92 136.968 218.205 188.919Z" fill="url(#paint4_linear_31_1842)"/>
</mask>
<g mask="url(#mask0_31_1842)">
<path d="M218.205 188.919C222.489 240.871 260.159 274.836 278.458 285.325H488.005C496.262 274.39 516.257 247.834 530.182 229.088C564.995 193.74 551.829 136.7 540.894 112.599C532.414 93.1837 496.44 45.5168 420.387 10.1682C344.334 -25.1803 272.209 40.0717 245.653 77.1162C234.718 92.7374 213.92 136.968 218.205 188.919Z" fill="url(#paint5_linear_31_1842)"/>
<g filter="url(#filter1_f_31_1842)">
<path d="M253.115 106.447C238.831 174.098 166.665 263.892 118.55 253.733C70.4349 243.574 65.0025 137.276 79.2865 69.6257C93.5704 1.97516 354.963 -53.0063 403.078 -42.8471C451.193 -32.6879 267.399 38.7965 253.115 106.447Z" fill="#7AE1EE"/>
</g>
</g>
<path d="M453.289 27.4488C447.264 26.1095 421.775 17.8381 383.749 52.1155C336.216 94.9622 324.835 163.919 324.835 186.681C324.835 209.443 332.868 246.934 295.377 260.324C265.385 271.036 259.672 272.374 260.564 271.705" stroke="url(#paint6_linear_31_1842)" stroke-width="1.33896"/>
<path d="M458.644 31.4646C446.594 29.4564 425.791 20.6878 387.765 54.9652C340.232 97.8119 328.851 166.768 328.851 189.531C328.851 212.293 336.884 249.784 299.393 263.174C269.401 273.885 263.688 275.224 264.581 274.555" stroke="url(#paint7_linear_31_1842)" stroke-width="1.33896"/>
<mask id="mask1_31_1842" style="mask-type:alpha" maskUnits="userSpaceOnUse" x="403" y="72" width="149" height="189">
<path d="M497.403 256.764C507.579 255.157 521.131 237.887 528.272 230.299C553.712 194.147 551.63 178.431 551.632 169.062C551.633 159.692 549.817 131.984 530.28 105.776C502.832 68.9548 476.722 71.6344 459.985 72.9726C432.536 76.32 416.396 86.0432 407.023 96.0854C397.65 106.128 411.04 238.688 414.387 252.077C417.734 265.467 484.682 258.772 497.403 256.764Z" fill="#011003"/>
</mask>
<g mask="url(#mask1_31_1842)">
<path d="M497.402 256.764C507.578 255.157 524.404 239.58 531.545 231.993C550.826 205.749 551.63 178.431 551.631 169.062C551.632 159.692 550.097 126.262 532.958 101.09C511.533 69.6242 475.381 66.9433 459.984 67.6157C444.587 68.2881 409.103 81.6747 399.73 91.7169C390.358 101.759 411.039 238.688 414.386 252.077C417.734 265.467 484.682 258.772 497.402 256.764Z" fill="#011003"/>
<g filter="url(#filter2_f_31_1842)">
<path d="M552.748 313.916C561.582 317.5 582.973 312.467 592.564 309.502C621.481 296.615 636.453 273.836 641.373 265.89C646.292 257.943 658.881 232.433 658.637 202.752C658.331 165.652 629.064 150.675 616.62 143.761C604.176 136.848 560.435 118.496 557.058 131.216C525.599 249.715 483.416 241.011 478.729 270.468C476.574 284.006 541.705 309.437 552.748 313.916Z" fill="#005430"/>
</g>
</g>
<mask id="mask2_31_1842" style="mask-type:alpha" maskUnits="userSpaceOnUse" x="352" y="78" width="182" height="208">
<path d="M372.87 128.866C330.546 180.804 365.729 256.29 384.92 284.854H487.35C498.508 273.92 498.361 262.817 520.214 223.609C549.694 170.717 522.245 105.108 477.368 85.0251C431.151 66.9508 398.23 97.7434 372.87 128.866Z" fill="#D9D9D9" stroke="url(#paint8_linear_31_1842)" stroke-width="1.33896"/>
</mask>
<g mask="url(#mask2_31_1842)">
<path d="M372.869 128.865C336.449 185.101 365.728 256.289 384.919 284.854H487.349C498.507 273.919 504.146 261.099 532.873 226.609C579.982 170.05 534.272 83.6868 487.349 73.9673C464.364 68.8346 409.288 72.6283 372.869 128.865Z" stroke="url(#paint9_linear_31_1842)" stroke-width="1.33896"/>
<path d="M372.869 128.864C336.449 185.1 365.728 256.288 384.919 284.853H487.349C498.507 273.918 486.8 263.453 515.527 228.963C562.636 172.404 513.579 90.728 466.655 81.0085C443.67 75.8758 409.288 72.6273 372.869 128.864Z" fill="url(#paint10_linear_31_1842)"/>
<g filter="url(#filter3_f_31_1842)">
<path d="M516.196 119.169C472.278 79.5357 400.153 95.5139 369.58 108.457C361.1 93.5055 353.111 55.7021 388.995 24.1026C424.879 -7.49684 526.239 39.5007 572.433 66.9494C571.986 100.87 560.114 158.802 516.196 119.169Z" fill="#492B18"/>
<path d="M516.196 119.169C472.278 79.5357 400.153 95.5139 369.58 108.457C361.1 93.5055 353.111 55.7021 388.995 24.1026C424.879 -7.49684 526.239 39.5007 572.433 66.9494C571.986 100.87 560.114 158.802 516.196 119.169Z" stroke="black" stroke-width="1.33896"/>
</g>
</g>
<mask id="mask3_31_1842" style="mask-type:alpha" maskUnits="userSpaceOnUse" x="356" y="208" width="188" height="78">
<path d="M356.884 208.877C476.721 221.597 543.669 210.885 543.669 210.885C542.062 215.17 506.847 261.766 489.441 284.528L385.002 285.197C364.917 256.41 355.545 212.894 356.884 208.877Z" fill="url(#paint11_linear_31_1842)"/>
</mask>
<g mask="url(#mask3_31_1842)">
<path d="M356.884 208.877C476.721 221.597 543.669 210.885 543.669 210.885C542.062 215.17 506.847 261.766 489.441 284.528L385.002 285.197C364.917 256.41 355.545 212.894 356.884 208.877Z" fill="url(#paint12_linear_31_1842)"/>
<g filter="url(#filter4_f_31_1842)">
<path d="M545.678 216.911C488.906 227.623 394.822 219.143 354.876 213.564L352.868 204.191C361.125 205.083 387.279 207.538 425.841 210.216C464.403 212.894 525.817 209.1 551.703 206.869L545.678 216.911Z" fill="#2DB3DD"/>
</g>
</g>
<g filter="url(#filter5_di_31_1842)">
<mask id="mask4_31_1842" style="mask-type:alpha" maskUnits="userSpaceOnUse" x="405" y="102" width="70" height="98">
<path d="M428.613 103.422C440.017 100.447 450.94 106.728 454.659 110.24C460.609 115.694 465.815 121.397 469.534 131.313C473.253 141.23 475.484 149.412 474.492 164.783C473.501 180.154 462.716 190.814 450.32 197.632C444.329 199.078 428.627 203.21 416.222 189.575C406.052 178.396 403.132 156.105 406.308 135.652C407.754 126.355 417.209 106.397 428.613 103.422Z" fill="#D9D9D9"/>
</mask>
<g mask="url(#mask4_31_1842)">
<path d="M428.613 103.422C440.017 100.447 450.94 106.728 454.659 110.24C460.609 115.694 465.815 121.397 469.534 131.313C473.253 141.23 475.484 149.412 474.492 164.783C473.501 180.154 462.716 190.814 450.32 197.632C444.329 199.078 428.627 203.21 416.222 189.575C406.052 178.396 403.132 156.105 406.308 135.652C407.754 126.355 417.209 106.397 428.613 103.422Z" fill="#B1E7F3"/>
<mask id="mask5_31_1842" style="mask-type:alpha" maskUnits="userSpaceOnUse" x="410" y="104" width="67" height="99">
<path d="M430.38 104.882C442.699 101.668 453.812 108.452 457.829 112.246C464.256 118.138 470.772 129.876 473.227 135.009C474.789 140.364 477.645 155.227 476.574 171.83C475.503 188.433 460.953 198.832 453.812 201.957C447.34 203.519 431.719 203.563 421.008 191.245C410.296 178.926 409.403 151.299 410.296 139.025C411.858 128.983 418.062 108.095 430.38 104.882Z" fill="#1D281A"/>
</mask>
<g mask="url(#mask5_31_1842)">
<path d="M430.38 104.882C442.699 101.668 453.812 108.452 457.829 112.246C464.256 118.138 470.772 129.876 473.227 135.009C474.789 140.364 477.645 155.227 476.574 171.83C475.503 188.433 460.953 198.832 453.812 201.957C447.34 203.519 431.719 203.563 421.008 191.245C410.296 178.926 409.403 151.299 410.296 139.025C411.858 128.983 418.062 108.095 430.38 104.882Z" fill="#1D281A"/>
<g filter="url(#filter6_f_31_1842)">
<path d="M439.463 101.703C451.249 101.68 459.636 110.339 462.356 114.671C466.749 121.442 469.866 133.474 470.876 138.644C471.033 143.806 470.145 157.79 465.334 172.422C460.522 187.054 445.069 192.999 437.944 194.143C431.781 194.041 417.771 190.458 411.028 176.932C404.285 163.407 409.894 138.438 413.541 127.645C417.271 119.007 427.677 101.725 439.463 101.703Z" fill="#594C3C"/>
</g>
<g filter="url(#filter7_f_31_1842)">
<path d="M444.156 147.655C439.742 141.099 427.081 128.22 419.345 119.38L413.767 116.281C413.561 112.563 414.387 105.621 419.345 107.604C424.199 109.546 439.314 138.47 444.156 147.655C444.693 148.454 445.108 149.158 445.378 149.75C446.05 151.229 445.497 150.2 444.156 147.655Z" fill="#413A2C"/>
</g>
<g filter="url(#filter8_d_31_1842)">
<ellipse cx="460.714" cy="127.073" rx="10.5366" ry="11.7762" transform="rotate(-8.94065 460.714 127.073)" fill="#FBFFFF"/>
</g>
</g>
</g>
</g>
<g filter="url(#filter9_di_31_1842)">
<mask id="mask6_31_1842" style="mask-type:alpha" maskUnits="userSpaceOnUse" x="488" y="103" width="49" height="92">
<path d="M496.802 104.992C503.322 100.915 511.131 105.592 514.024 108.475C518.626 112.933 522.812 117.708 526.802 126.611C530.793 135.515 533.569 142.954 535.59 157.512C537.611 172.071 532.789 183.302 526.315 191.102C522.87 193.135 513.899 198.782 503.917 187.359C495.734 177.994 490.117 157.371 488.572 137.79C487.871 128.889 490.281 109.069 496.802 104.992Z" fill="#D9D9D9"/>
</mask>
<g mask="url(#mask6_31_1842)">
<path d="M496.802 104.992C503.322 100.915 511.131 105.592 514.024 108.475C518.626 112.933 522.812 117.708 526.802 126.611C530.793 135.515 533.569 142.954 535.59 157.512C537.611 172.071 532.789 183.302 526.315 191.102C522.87 193.135 513.899 198.782 503.917 187.359C495.734 177.994 490.117 157.371 488.572 137.79C487.871 128.889 490.281 109.069 496.802 104.992Z" fill="#B1E7F3"/>
<mask id="mask7_31_1842" style="mask-type:alpha" maskUnits="userSpaceOnUse" x="491" y="102" width="73" height="97">
<path d="M505.62 104.84C517.163 99.47 529.313 104.152 533.945 107.164C541.324 111.808 549.838 122.189 553.173 126.798C555.67 131.787 561.144 145.897 563.066 162.423C564.989 178.95 552.538 191.788 546.073 196.142C539.986 198.839 524.626 201.683 511.88 191.484C499.133 181.285 493.303 154.265 491.981 142.03C491.718 131.871 494.077 110.209 505.62 104.84Z" fill="#1D281A"/>
</mask>
<g mask="url(#mask7_31_1842)">
<path d="M505.62 104.84C517.163 99.47 529.313 104.152 533.945 107.164C541.324 111.808 549.838 122.189 553.173 126.798C555.67 131.787 561.144 145.897 563.066 162.423C564.989 178.95 552.538 191.788 546.073 196.142C539.986 198.839 524.626 201.683 511.88 191.484C499.133 181.285 493.303 154.265 491.981 142.03C491.718 131.871 494.077 110.209 505.62 104.84Z" fill="#1D281A"/>
<g filter="url(#filter10_f_31_1842)">
<path d="M503.192 102.156C510.453 100.812 517.105 108.008 519.524 111.774C523.392 117.645 527.374 128.604 528.881 133.349C529.862 138.184 531.71 151.427 531.249 165.72C530.789 180.013 522.281 187.336 518.085 189.211C514.269 189.808 505.019 188.013 498.546 176.058C492.074 164.103 491.256 140.005 491.656 129.451C492.475 120.913 495.93 103.501 503.192 102.156Z" fill="#594C3C"/>
</g>
<g filter="url(#filter11_d_31_1842)">
<ellipse cx="6.70667" cy="11.173" rx="6.70667" ry="11.173" transform="matrix(0.914853 -0.403788 0.279268 0.960213 511.38 115.595)" fill="#FBFFFF"/>
</g>
</g>
</g>
</g>
<ellipse cx="373.625" cy="498.093" rx="14.0591" ry="9.37272" fill="url(#paint13_radial_31_1842)"/>
<path d="M358.897 494.745C358.897 499.922 313.772 503.449 306.008 503.449C298.243 503.449 288.601 481.846 288.601 476.669C288.601 471.493 294.896 467.297 302.66 467.297C310.425 467.297 358.897 489.569 358.897 494.745Z" fill="black"/>
<mask id="mask8_31_1842" style="mask-type:alpha" maskUnits="userSpaceOnUse" x="307" y="457" width="64" height="45">
<path d="M369.051 493.407C372.8 486.444 368.382 474.884 365.704 469.975L363.025 463.949C360.571 464.619 354.054 465.824 347.627 465.288C341.2 464.753 328.435 460.156 322.856 457.924C319.732 462.834 312.681 473.724 309.467 478.008C305.451 483.364 308.129 493.407 309.467 496.084C310.539 498.227 334.461 500.548 346.289 501.44C352.314 501.663 365.302 500.369 369.051 493.407Z" fill="#D9D9D9"/>
</mask>
<g mask="url(#mask8_31_1842)">
<path d="M369.051 493.407C372.8 486.444 368.382 474.884 365.704 469.975L363.025 463.949C360.571 464.619 354.054 465.824 347.627 465.288C341.2 464.753 328.435 460.156 322.856 457.924C319.732 462.834 312.681 473.724 309.467 478.008C305.451 483.364 308.129 493.407 309.467 496.084C310.539 498.227 334.461 500.548 346.289 501.44C352.314 501.663 365.302 500.369 369.051 493.407Z" fill="url(#paint14_linear_31_1842)"/>
<path d="M369.051 493.407C372.8 486.444 368.382 474.884 365.704 469.975L363.025 463.949C360.571 464.619 354.054 465.824 347.627 465.288C341.2 464.753 328.435 460.156 322.856 457.924C319.732 462.834 312.681 473.724 309.467 478.008C305.451 483.364 308.129 493.407 309.467 496.084C310.539 498.227 334.461 500.548 346.289 501.44C352.314 501.663 365.302 500.369 369.051 493.407Z" fill="url(#paint15_linear_31_1842)"/>
<path d="M369.051 493.407C372.8 486.444 368.382 474.884 365.704 469.975L363.025 463.949C360.571 464.619 354.054 465.824 347.627 465.288C341.2 464.753 328.435 460.156 322.856 457.924C319.732 462.834 312.681 473.724 309.467 478.008C305.451 483.364 308.129 493.407 309.467 496.084C310.539 498.227 334.461 500.548 346.289 501.44C352.314 501.663 365.302 500.369 369.051 493.407Z" fill="url(#paint16_linear_31_1842)"/>
<path d="M369.051 493.407C372.8 486.444 368.382 474.884 365.704 469.975L363.025 463.949C360.571 464.619 354.054 465.824 347.627 465.288C341.2 464.753 328.435 460.156 322.856 457.924C319.732 462.834 312.681 473.724 309.467 478.008C305.451 483.364 308.129 493.407 309.467 496.084C310.539 498.227 334.461 500.548 346.289 501.44C352.314 501.663 365.302 500.369 369.051 493.407Z" fill="url(#paint17_linear_31_1842)"/>
<g filter="url(#filter12_f_31_1842)">
<path d="M365.704 469.975C368.382 474.884 378.712 472.385 374.962 479.347C371.213 486.31 348.183 485.596 342.158 485.373C333.293 484.704 316.881 481.352 308.765 478.812C305.134 482.294 302.74 474.151 303.999 476.67C304.268 477.206 306.053 477.964 308.765 478.812C308.995 478.593 309.229 478.327 309.467 478.008C312.681 473.724 319.732 462.834 322.856 457.924C328.435 460.156 341.2 464.753 347.627 465.288C354.054 465.824 360.57 464.619 363.025 463.949L365.704 469.975Z" fill="black"/>
</g>
<g filter="url(#filter13_f_31_1842)">
<path d="M333.457 497.424C328.101 496.888 314.265 494.523 308.016 493.407C307.347 495.192 306.41 499.432 308.016 502.11C310.025 505.458 327.431 497.424 332.117 500.102C336.803 502.78 354.21 500.102 361.574 497.424C367.466 495.281 374.741 491.398 376.303 487.382C372.286 489.39 363.851 493.407 362.244 493.407C360.236 493.407 340.151 498.093 333.457 497.424Z" fill="#2095BA"/>
</g>
</g>
<path d="M470.695 484.704C470.695 489.88 442.977 492.068 435.212 492.068C427.447 492.068 411.78 481.846 411.78 476.669C411.78 471.493 418.075 467.297 425.839 467.297C433.604 467.297 470.695 479.527 470.695 484.704Z" fill="black"/>
<mask id="mask9_31_1842" style="mask-type:alpha" maskUnits="userSpaceOnUse" x="430" y="457" width="46" height="34">
<path d="M474.711 486.712C478.46 479.749 466.007 481.58 463.329 476.67L468.685 465.958C466.23 466.628 465.07 458.46 458.643 457.924C452.216 457.389 451.614 460.156 446.035 457.924C442.911 462.834 434.409 466.36 431.195 470.645C427.178 476.001 436.551 481.356 437.89 484.034C438.961 486.177 442.8 488.498 454.627 489.39C460.653 489.613 470.961 493.674 474.711 486.712Z" fill="#D9D9D9"/>
</mask>
<g mask="url(#mask9_31_1842)">
<path d="M476.526 484.402C479.326 479.202 476.026 470.568 474.026 466.902L472.025 462.402C470.192 462.902 465.325 463.802 460.525 463.402C455.725 463.002 446.192 459.568 442.025 457.902C439.692 461.568 434.426 469.702 432.026 472.902C429.026 476.902 431.026 484.402 432.026 486.402C432.826 488.002 450.693 489.735 459.526 490.402C464.026 490.568 473.726 489.602 476.526 484.402Z" fill="url(#paint18_linear_31_1842)"/>
<path d="M476.526 484.402C479.326 479.202 476.026 470.568 474.026 466.902L472.025 462.402C470.192 462.902 465.325 463.802 460.525 463.402C455.725 463.002 446.192 459.568 442.025 457.902C439.692 461.568 434.426 469.702 432.026 472.902C429.026 476.902 431.026 484.402 432.026 486.402C432.826 488.002 450.693 489.735 459.526 490.402C464.026 490.568 473.726 489.602 476.526 484.402Z" fill="url(#paint19_linear_31_1842)"/>
<path d="M476.526 484.402C479.326 479.202 476.026 470.568 474.026 466.902L472.025 462.402C470.192 462.902 465.325 463.802 460.525 463.402C455.725 463.002 446.192 459.568 442.025 457.902C439.692 461.568 434.426 469.702 432.026 472.902C429.026 476.902 431.026 484.402 432.026 486.402C432.826 488.002 450.693 489.735 459.526 490.402C464.026 490.568 473.726 489.602 476.526 484.402Z" fill="url(#paint20_linear_31_1842)"/>
<path d="M476.526 484.402C479.326 479.202 476.026 470.568 474.026 466.902L472.025 462.402C470.192 462.902 465.325 463.802 460.525 463.402C455.725 463.002 446.192 459.568 442.025 457.902C439.692 461.568 434.426 469.702 432.026 472.902C429.026 476.902 431.026 484.402 432.026 486.402C432.826 488.002 450.693 489.735 459.526 490.402C464.026 490.568 473.726 489.602 476.526 484.402Z" fill="url(#paint21_linear_31_1842)"/>
<g filter="url(#filter14_f_31_1842)">
<path d="M474.026 466.902C476.026 470.568 483.741 468.702 480.941 473.902C478.141 479.102 460.941 478.568 456.441 478.402C449.82 477.902 437.563 475.399 431.502 473.502C428.789 476.102 427.001 470.02 427.942 471.902C428.142 472.302 429.476 472.868 431.502 473.502C431.673 473.338 431.848 473.139 432.026 472.902C434.426 469.702 439.692 461.568 442.025 457.902C446.192 459.568 455.725 463.002 460.525 463.402C465.325 463.802 470.192 462.902 472.025 462.402L474.026 466.902Z" fill="black"/>
</g>
<g filter="url(#filter15_f_31_1842)">
<path d="M449.941 487.402C445.941 487.002 435.608 485.235 430.941 484.402C430.441 485.735 429.741 488.902 430.941 490.902C432.441 493.402 445.441 487.402 448.941 489.402C452.441 491.402 465.441 489.402 470.941 487.402C475.341 485.802 480.775 482.902 481.941 479.902C478.941 481.402 472.641 484.402 471.441 484.402C469.941 484.402 454.941 487.902 449.941 487.402Z" fill="#2095BA"/>
</g>
</g>
<mask id="mask10_31_1842" style="mask-type:alpha" maskUnits="userSpaceOnUse" x="455" y="479" width="35" height="19">
<path d="M489.44 491.398C489.44 496.575 482.476 497.424 474.711 497.424C466.947 497.424 455.966 496.575 455.966 491.398C455.966 486.222 468.955 479.348 476.72 479.348C484.484 479.348 489.44 486.222 489.44 491.398Z" fill="url(#paint22_radial_31_1842)"/>
</mask>
<g mask="url(#mask10_31_1842)">
<ellipse cx="474.712" cy="488.721" rx="20.0844" ry="13.3896" fill="url(#paint23_radial_31_1842)"/>
<g filter="url(#filter16_f_31_1842)">
<ellipse cx="460.652" cy="482.026" rx="14.0591" ry="9.37272" fill="black"/>
</g>
</g>
<mask id="mask11_31_1842" style="mask-type:alpha" maskUnits="userSpaceOnUse" x="339" y="289" width="163" height="182">
<path d="M413.966 470.689C342.197 470.689 335.413 457.3 340.992 450.605L347.688 293.946C393.883 290.376 487.342 285.377 491.627 293.946C495.911 302.516 499.66 353.753 500.999 378.301V456.63C501.892 461.316 485.734 470.689 413.966 470.689Z" fill="url(#paint24_linear_31_1842)"/>
</mask>
<g mask="url(#mask11_31_1842)">
<path d="M413.966 470.689C342.197 470.689 335.413 457.3 340.992 450.605L347.688 293.946C393.883 290.376 487.342 285.377 491.627 293.946C495.911 302.516 499.66 353.753 500.999 378.301V456.63C501.892 461.316 485.734 470.689 413.966 470.689Z" fill="url(#paint25_linear_31_1842)"/>
<mask id="mask12_31_1842" style="mask-type:alpha" maskUnits="userSpaceOnUse" x="426" y="319" width="72" height="43">
<path d="M429.187 326.108L429.205 324.769L427.774 324.75L427.85 326.179L429.559 358.269L429.625 359.502L430.859 359.536L430.896 358.197C430.859 359.536 430.859 359.536 430.859 359.536L430.86 359.536L430.864 359.536L430.877 359.536L430.931 359.538L431.141 359.543C431.325 359.548 431.596 359.556 431.943 359.565C432.637 359.583 433.637 359.608 434.86 359.637C437.306 359.696 440.645 359.77 444.213 359.831C451.327 359.954 459.429 360.03 463.164 359.831C466.898 359.632 474.947 358.696 482.007 357.818C485.549 357.378 488.86 356.95 491.286 356.632C492.499 356.473 493.491 356.342 494.179 356.25C494.524 356.204 494.792 356.168 494.975 356.143L495.183 356.116L495.236 356.108L495.249 356.107L495.253 356.106L495.254 356.106C495.254 356.106 495.254 356.106 495.075 354.779L495.254 356.106L496.478 355.941L496.412 354.708L494.703 322.618L494.627 321.189L493.206 321.36L493.366 322.689C493.206 321.36 493.206 321.36 493.206 321.36L493.205 321.36L493.202 321.36L493.192 321.362L493.149 321.367L492.98 321.387C492.832 321.405 492.612 321.431 492.327 321.464C491.759 321.531 490.932 321.627 489.903 321.745C487.845 321.98 484.975 322.3 481.73 322.641C475.232 323.322 467.257 324.08 461.276 324.399C455.296 324.717 447.285 324.81 440.752 324.823C437.489 324.83 434.601 324.816 432.529 324.801C431.494 324.793 430.662 324.785 430.089 324.779C429.803 324.776 429.582 324.774 429.432 324.772L429.262 324.77L429.219 324.769L429.208 324.769L429.205 324.769L429.205 324.769C429.205 324.769 429.205 324.769 429.187 326.108Z" fill="#D9D9D9" stroke="#4BBD85" stroke-width="2.67792"/>
</mask>
<g mask="url(#mask12_31_1842)">
<path d="M429.187 326.108L429.205 324.769L427.774 324.75L427.85 326.179L429.559 358.269L429.625 359.502L430.859 359.536L430.896 358.197C430.859 359.536 430.859 359.536 430.859 359.536L430.86 359.536L430.864 359.536L430.877 359.536L430.931 359.538L431.141 359.543C431.325 359.548 431.596 359.556 431.943 359.565C432.637 359.583 433.637 359.608 434.86 359.637C437.306 359.696 440.645 359.77 444.213 359.831C451.327 359.954 459.429 360.03 463.164 359.831C466.898 359.632 474.947 358.696 482.007 357.818C485.549 357.378 488.86 356.95 491.286 356.632C492.499 356.473 493.491 356.342 494.179 356.25C494.524 356.204 494.792 356.168 494.975 356.143L495.183 356.116L495.236 356.108L495.249 356.107L495.253 356.106L495.254 356.106C495.254 356.106 495.254 356.106 495.075 354.779L495.254 356.106L496.478 355.941L496.412 354.708L494.703 322.618L494.627 321.189L493.206 321.36L493.366 322.689C493.206 321.36 493.206 321.36 493.206 321.36L493.205 321.36L493.202 321.36L493.192 321.362L493.149 321.367L492.98 321.387C492.832 321.405 492.612 321.431 492.327 321.464C491.759 321.531 490.932 321.627 489.903 321.745C487.845 321.98 484.975 322.3 481.73 322.641C475.232 323.322 467.257 324.08 461.276 324.399C455.296 324.717 447.285 324.81 440.752 324.823C437.489 324.83 434.601 324.816 432.529 324.801C431.494 324.793 430.662 324.785 430.089 324.779C429.803 324.776 429.582 324.774 429.432 324.772L429.262 324.77L429.219 324.769L429.208 324.769L429.205 324.769L429.205 324.769C429.205 324.769 429.205 324.769 429.187 326.108Z" fill="#494D47" stroke="#4B8DBD" stroke-width="2.67792"/>
<path d="M496.805 328.715C484.531 330.723 455.966 334.606 439.899 334.071M498.813 338.087C482.746 340.096 448.468 343.979 439.899 343.443M498.813 348.13C482.076 349.915 446.46 353.218 437.89 352.146" stroke="#4B8DBD" stroke-width="1.33896"/>
</g>
<mask id="mask13_31_1842" style="mask-type:alpha" maskUnits="userSpaceOnUse" x="424" y="385" width="86" height="42">
<path d="M427.846 391.716L427.835 390.379L426.418 390.363L426.509 391.776L428.565 423.865L428.645 425.114L429.898 425.143L429.902 423.806C429.898 425.143 429.898 425.143 429.898 425.143L429.899 425.143L429.903 425.143L429.92 425.144L429.984 425.145L430.236 425.151C430.458 425.156 430.783 425.163 431.201 425.172C432.036 425.19 433.239 425.215 434.709 425.245C437.651 425.303 441.665 425.377 445.956 425.438C454.519 425.561 464.246 425.637 468.717 425.439C473.187 425.241 482.849 424.307 491.348 423.429C495.607 422.988 499.589 422.56 502.507 422.243C503.965 422.084 505.158 421.952 505.986 421.861C506.4 421.815 506.723 421.779 506.942 421.754L507.192 421.726L507.256 421.719L507.273 421.717L507.277 421.717L507.278 421.717C507.278 421.717 507.278 421.717 507.103 420.388L507.278 421.717L508.52 421.577L508.44 420.328L506.384 388.239L506.294 386.826L504.887 386.967L505.047 388.298C504.887 386.967 504.887 386.967 504.887 386.967L504.886 386.967L504.883 386.968L504.87 386.969L504.818 386.974L504.615 386.994C504.436 387.012 504.171 387.038 503.829 387.071C503.144 387.138 502.15 387.235 500.912 387.352C498.434 387.588 494.98 387.908 491.075 388.248C483.258 388.93 473.654 389.689 466.447 390.008C459.24 390.327 449.592 390.42 441.733 390.433C437.806 390.44 434.331 390.426 431.837 390.411C430.591 390.403 429.59 390.395 428.901 390.389C428.556 390.386 428.289 390.384 428.109 390.382L427.904 390.38L427.852 390.379L427.839 390.379L427.836 390.379L427.835 390.379C427.835 390.379 427.835 390.379 427.846 391.716Z" fill="#D9D9D9" stroke="#4BBD85" stroke-width="2.67792"/>
</mask>
<g mask="url(#mask13_31_1842)">
<path d="M427.846 391.716L427.835 390.379L426.418 390.363L426.509 391.776L428.565 423.865L428.645 425.114L429.898 425.143L429.902 423.806C429.898 425.143 429.898 425.143 429.898 425.143L429.899 425.143L429.903 425.143L429.92 425.144L429.984 425.145L430.236 425.151C430.458 425.156 430.783 425.163 431.201 425.172C432.036 425.19 433.239 425.215 434.709 425.245C437.651 425.303 441.665 425.377 445.956 425.438C454.519 425.561 464.246 425.637 468.717 425.439C473.187 425.241 482.849 424.307 491.348 423.429C495.607 422.988 499.589 422.56 502.507 422.243C503.965 422.084 505.158 421.952 505.986 421.861C506.4 421.815 506.723 421.779 506.942 421.754L507.192 421.726L507.256 421.719L507.273 421.717L507.277 421.717L507.278 421.717C507.278 421.717 507.278 421.717 507.103 420.388L507.278 421.717L508.52 421.577L508.44 420.328L506.384 388.239L506.294 386.826L504.887 386.967L505.047 388.298C504.887 386.967 504.887 386.967 504.887 386.967L504.886 386.967L504.883 386.968L504.87 386.969L504.818 386.974L504.615 386.994C504.436 387.012 504.171 387.038 503.829 387.071C503.144 387.138 502.15 387.235 500.912 387.352C498.434 387.588 494.98 387.908 491.075 388.248C483.258 388.93 473.654 389.689 466.447 390.008C459.24 390.327 449.592 390.42 441.733 390.433C437.806 390.44 434.331 390.426 431.837 390.411C430.591 390.403 429.59 390.395 428.901 390.389C428.556 390.386 428.289 390.384 428.109 390.382L427.904 390.38L427.852 390.379L427.839 390.379L427.836 390.379L427.835 390.379C427.835 390.379 427.835 390.379 427.846 391.716Z" fill="#494D47" stroke="#4B8DBD" stroke-width="2.67792"/>
<path d="M509.183 394.324C494.419 396.332 460.059 400.215 440.731 399.68M511.599 403.697C492.271 405.705 451.039 409.588 440.731 409.052M511.599 413.739C491.466 415.524 448.623 418.827 438.315 417.756" stroke="#4B8DBD" stroke-width="1.33896"/>
</g>
</g>
<path d="M500.153 461.941V455.246L504.17 394.324L506.848 378.926C508.633 395.663 512.338 432.216 512.873 444.535C513.409 456.853 511.311 468.859 510.195 473.322L500.153 461.941Z" fill="url(#paint26_linear_31_1842)"/>
<g filter="url(#filter17_d_31_1842)">
<path d="M497.474 461.272C500.152 393.788 493.457 312.87 489.44 289.215C494.261 289.215 499.483 305.283 501.491 313.317C504.615 338.311 510.73 391.78 510.194 405.705C509.659 419.63 503.723 455.023 501.491 463.28L497.474 461.272Z" fill="#00ACD2"/>
</g>
<mask id="mask14_31_1842" style="mask-type:alpha" maskUnits="userSpaceOnUse" x="251" y="289" width="141" height="179">
<path d="M391.027 430.241V290.989C358.892 289.65 290.739 287.776 275.207 290.989C259.675 294.203 252.668 381.146 251.106 424.216C253.338 426.224 269.851 436.133 318.054 459.698C366.257 483.264 386.787 449.879 391.027 430.241Z" fill="#03C087"/>
</mask>
<g mask="url(#mask14_31_1842)">
<path d="M391.027 430.241V290.989C358.892 289.65 290.739 287.776 275.207 290.989C259.675 294.203 252.668 381.146 251.106 424.216C253.338 426.224 269.851 436.133 318.054 459.698C366.257 483.264 386.787 449.879 391.027 430.241Z" fill="#0393C0"/>
<g filter="url(#filter18_f_31_1842)">
<path d="M387.01 407.043V279.842H393.705V336.748V401.688C394.598 410.837 395.848 430.475 393.705 435.831C391.027 442.526 375.629 461.941 368.265 467.297C362.374 471.581 342.155 477.116 332.782 479.347C326.98 479.124 323.276 475.33 354.875 461.941C386.475 448.551 389.465 419.764 387.01 407.043Z" fill="#4AC3DE"/>
</g>
</g>
<g filter="url(#filter19_d_31_1842)">
<path d="M271.272 281.181C271.272 281.181 412.014 288.068 492.037 281.181C492.037 281.181 498.251 288.067 492.037 293.576C393.387 301.84 271.272 293.576 271.272 293.576C265.067 288.067 271.272 281.181 271.272 281.181Z" fill="#D9D9D9"/>
</g>
<g filter="url(#filter20_d_31_1842)">
<path d="M271.272 281.181C271.272 281.181 412.014 288.068 492.037 281.181C492.037 281.181 498.251 288.067 492.037 293.576C393.387 301.84 271.272 293.576 271.272 293.576C265.067 288.067 271.272 281.181 271.272 281.181Z" fill="url(#paint27_linear_31_1842)"/>
</g>
<mask id="mask15_31_1842" style="mask-type:alpha" maskUnits="userSpaceOnUse" x="268" y="281" width="227" height="17">
<path d="M271.272 281.182C271.272 281.182 412.015 288.068 492.038 281.182C492.038 281.182 498.251 288.068 492.038 293.576C393.388 301.84 271.272 293.576 271.272 293.576C265.068 288.068 271.272 281.182 271.272 281.182Z" fill="#D9D9D9"/>
</mask>
<g mask="url(#mask15_31_1842)">
<g filter="url(#filter21_f_31_1842)">
<path d="M362.242 290.554C314.575 291.625 277.218 286.091 264.498 283.19C262.713 278.95 259.544 269.934 261.15 267.792C263.159 265.114 295.963 264.444 323.412 270.47C345.371 275.29 454.407 272.478 506.18 270.47C507.965 274.71 510.063 283.592 504.172 285.198C496.807 287.207 421.826 289.215 362.242 290.554Z" fill="#69E1FC"/>
</g>
</g>
<g clip-path="url(#clip0_31_1842)">
<path d="M328.036 385.847L328.46 380.16C328.627 377.918 326.96 375.784 324.744 375.403C322.528 375.022 320.589 376.537 320.422 378.779L320.04 383.913C319.579 390.1 316.884 395.654 312.451 399.55L306.338 404.922C305.825 405.373 305.806 406.201 306.297 406.771C306.788 407.341 307.602 407.437 308.116 406.986L314.228 401.614C319.121 397.313 322.096 391.184 322.605 384.354L322.988 379.22C323.048 378.409 323.749 377.861 324.551 377.999C325.352 378.136 325.955 378.908 325.895 379.719L325.471 385.406C324.904 393.02 321.573 399.837 316.091 404.601L310.138 409.776C309.622 410.224 309.599 411.052 310.088 411.624C310.316 411.892 310.617 412.057 310.925 412.109C311.273 412.169 311.632 412.086 311.906 411.848L317.859 406.673C323.807 401.504 327.421 394.108 328.036 385.847Z" fill="white" fill-opacity="0.69"/>
<path d="M333.929 381.101C334.323 375.806 330.387 370.766 325.153 369.867C319.92 368.967 315.341 372.544 314.947 377.839L314.564 382.974C314.206 387.791 312.107 392.114 308.656 395.147L304.31 398.967C303.797 399.418 303.778 400.246 304.269 400.816C304.76 401.386 305.574 401.482 306.088 401.031L310.433 397.211C314.345 393.774 316.723 388.874 317.13 383.414L317.512 378.28C317.8 374.416 321.141 371.806 324.96 372.462C328.779 373.118 331.652 376.796 331.364 380.66L330.94 386.347C330.27 395.341 326.335 403.394 319.86 409.022L314.837 413.388C314.321 413.837 314.298 414.664 314.786 415.237C315.015 415.505 315.316 415.669 315.623 415.722C315.972 415.782 316.33 415.699 316.605 415.46L321.628 411.094C328.569 405.061 332.787 396.429 333.505 386.788L333.929 381.101V381.101Z" fill="white" fill-opacity="0.69"/>
<path d="M304.004 375.959C303.951 376.676 304.482 377.355 305.19 377.477C305.899 377.599 306.516 377.116 306.57 376.399C306.895 372.029 308.778 368.077 311.87 365.271C314.934 362.491 318.965 361.022 323.219 361.133C323.928 361.152 324.464 360.577 324.416 359.851C324.368 359.124 323.754 358.52 323.046 358.501C318.178 358.374 313.569 360.054 310.066 363.231C306.53 366.44 304.377 370.96 304.004 375.959Z" fill="white" fill-opacity="0.69"/>
<path d="M306.185 381.533C306.238 380.816 305.707 380.137 304.999 380.015C304.29 379.893 303.673 380.376 303.619 381.092C303.465 383.169 302.56 385.033 301.072 386.34L297.592 389.399C297.079 389.851 297.06 390.678 297.551 391.249C297.78 391.514 298.078 391.677 298.384 391.729C298.735 391.789 299.095 391.704 299.369 391.463L302.85 388.405C304.798 386.692 305.982 384.252 306.185 381.533Z" fill="white" fill-opacity="0.69"/>
<path d="M333.307 364.446C333.479 364.563 333.664 364.635 333.848 364.667C334.328 364.749 334.808 364.555 335.062 364.126C335.415 363.531 335.201 362.71 334.585 362.292C332.803 361.084 330.884 360.146 328.88 359.504C328.185 359.282 327.5 359.662 327.346 360.354C327.193 361.046 327.63 361.788 328.324 362.01C330.074 362.572 331.751 363.391 333.307 364.446Z" fill="white" fill-opacity="0.69"/>
<path d="M326.391 353.255C325.911 353.173 325.425 353.103 324.945 353.047C324.235 352.965 323.648 353.484 323.633 354.207C323.619 354.929 324.183 355.584 324.894 355.663C325.326 355.713 325.765 355.776 326.198 355.85C339.069 358.062 348.751 370.457 347.781 383.481L347.357 389.168C347.304 389.884 347.835 390.564 348.543 390.686C349.252 390.807 349.869 390.325 349.923 389.608L350.346 383.922C351.423 369.467 340.677 355.71 326.391 353.255Z" fill="white" fill-opacity="0.69"/>
<path d="M311.845 357.887C312.097 357.93 312.358 357.899 312.593 357.78C314.839 356.645 317.266 355.927 319.807 355.645C320.504 355.567 320.954 354.918 320.813 354.196C320.672 353.473 319.993 352.95 319.297 353.027C316.475 353.34 313.78 354.138 311.288 355.397C310.676 355.706 310.472 356.49 310.832 357.148C311.054 357.554 311.439 357.817 311.845 357.887Z" fill="white" fill-opacity="0.69"/>
<path d="M300.715 380.593L301.097 375.459C301.547 369.421 304.235 364.06 308.665 360.362C309.19 359.924 309.228 359.098 308.749 358.518C308.27 357.938 307.456 357.823 306.932 358.261C302.014 362.365 299.031 368.316 298.532 375.018L298.149 380.152C298.097 380.859 297.789 381.493 297.283 381.937L295.569 383.443C295.056 383.895 295.037 384.723 295.528 385.293C295.757 385.558 296.055 385.721 296.361 385.773C296.712 385.834 297.072 385.749 297.347 385.508L299.061 384.001C300.027 383.152 300.614 381.942 300.715 380.593Z" fill="white" fill-opacity="0.69"/>
<path d="M354.942 374.477C353.851 370.005 351.9 365.8 349.144 361.977C348.704 361.367 347.895 361.192 347.337 361.588C346.78 361.983 346.684 362.798 347.124 363.408C349.656 366.92 351.447 370.782 352.45 374.887C352.59 375.46 353.064 375.888 353.599 375.98C353.735 376.003 353.874 376.005 354.014 375.982C354.702 375.869 355.118 375.195 354.942 374.477Z" fill="white" fill-opacity="0.69"/>
<path d="M336.813 351.158C336.16 350.811 335.404 351.047 335.124 351.686C334.844 352.325 335.147 353.124 335.8 353.471C338.555 354.936 341.104 356.811 343.378 359.044C343.595 359.257 343.858 359.387 344.125 359.433C344.515 359.5 344.915 359.386 345.192 359.088C345.659 358.587 345.603 357.753 345.067 357.227C342.592 354.796 339.815 352.754 336.813 351.158Z" fill="white" fill-opacity="0.69"/>
<path d="M306.08 355.006C311.865 350.699 319.157 349.032 326.613 350.313C327.998 350.551 329.382 350.891 330.729 351.324C331.423 351.548 332.109 351.166 332.263 350.474C332.417 349.782 331.98 349.041 331.287 348.818C329.821 348.347 328.313 347.977 326.807 347.718C318.686 346.322 310.744 348.137 304.445 352.827C298.165 357.503 294.172 364.54 293.201 372.641C293.116 373.352 293.618 374.052 294.324 374.206C294.343 374.21 294.363 374.214 294.382 374.217C295.064 374.335 295.672 373.889 295.755 373.198C296.646 365.761 300.313 359.3 306.08 355.006Z" fill="white" fill-opacity="0.69"/>
<path d="M327.216 342.181C324.347 341.688 321.464 341.533 318.646 341.721C317.945 341.768 317.466 342.394 317.578 343.119C317.689 343.844 318.348 344.395 319.05 344.348C321.671 344.174 324.353 344.318 327.022 344.776C336.427 346.392 344.924 351.692 350.947 359.699C351.179 360.008 351.505 360.199 351.842 360.257C352.162 360.312 352.491 360.247 352.757 360.048C353.305 359.639 353.383 358.82 352.93 358.219C349.792 354.047 346.002 350.538 341.666 347.79C337.175 344.944 332.313 343.057 327.216 342.181Z" fill="white" fill-opacity="0.69"/>
<path d="M297.205 353.392C297.426 353.618 297.698 353.756 297.975 353.804C298.356 353.869 298.745 353.763 299.023 353.48C303.03 349.383 308.118 346.505 313.737 345.154C314.412 344.992 314.779 344.286 314.557 343.578C314.335 342.869 313.607 342.425 312.933 342.588C306.894 344.039 301.427 347.132 297.122 351.532C296.643 352.022 296.681 352.854 297.205 353.392Z" fill="white" fill-opacity="0.69"/>
<path d="M309.348 340.289C309.535 340.321 309.728 340.312 309.914 340.255C315.511 338.544 321.406 338.203 327.437 339.239C330.58 339.779 333.682 340.691 336.658 341.95C337.333 342.235 338.058 341.926 338.276 341.257C338.494 340.589 338.122 339.815 337.445 339.529C334.278 338.189 330.975 337.218 327.631 336.644C321.21 335.54 314.933 335.904 308.973 337.726C308.312 337.928 307.987 338.658 308.247 339.356C308.433 339.858 308.871 340.207 309.348 340.289Z" fill="white" fill-opacity="0.69"/>
<path d="M341.887 344.593C343.17 345.353 344.433 346.191 345.642 347.082C345.825 347.217 346.027 347.301 346.23 347.336C346.689 347.415 347.152 347.241 347.415 346.841C347.794 346.264 347.614 345.438 347.013 344.995C345.727 344.046 344.382 343.154 343.016 342.345C342.377 341.967 341.607 342.163 341.296 342.784C340.984 343.405 341.249 344.215 341.887 344.593Z" fill="white" fill-opacity="0.69"/>
<path fill-rule="evenodd" clip-rule="evenodd" d="M339.235 366.438C338.744 365.868 337.93 365.772 337.416 366.224C336.903 366.676 336.885 367.504 337.376 368.073C340.893 372.153 342.692 377.426 342.311 382.541L341.887 388.227C341.79 389.536 341.638 390.841 341.433 392.13C342.29 392.056 343.175 392.044 344.077 392.097C344.241 390.962 344.367 389.816 344.452 388.668L344.876 382.981C345.312 377.132 343.256 371.102 339.235 366.438ZM331.408 403.952C331.717 404.984 332.196 405.964 332.797 406.873C330.775 410.09 328.295 413 325.402 415.514L324.012 416.723C323.738 416.961 323.38 417.044 323.031 416.984C322.723 416.932 322.423 416.767 322.194 416.499C321.705 415.927 321.728 415.099 322.244 414.651L323.634 413.442C326.759 410.727 329.37 407.521 331.408 403.952ZM335.354 394.01C336.264 393.454 337.251 393.027 338.323 392.709C338.634 391.08 338.854 389.418 338.98 387.728L339.404 382.041C340.026 373.692 333.819 365.747 325.568 364.329C317.317 362.911 310.099 368.55 309.477 376.899L309.095 382.033C308.838 385.48 307.336 388.574 304.867 390.744L300.954 394.183C300.44 394.634 300.422 395.462 300.913 396.032C301.403 396.602 302.218 396.698 302.731 396.247L306.644 392.808C309.574 390.233 311.355 386.563 311.66 382.474L312.042 377.339C312.557 370.422 318.538 365.75 325.375 366.925C332.211 368.099 337.354 374.683 336.839 381.6L336.415 387.287C336.244 389.587 335.887 391.835 335.354 394.01Z" fill="white" fill-opacity="0.69"/>
<path fill-rule="evenodd" clip-rule="evenodd" d="M357.125 405.192C356.796 409.617 351.315 412.308 344.885 411.203C338.454 410.098 333.508 405.616 333.838 401.191C334.167 396.766 339.648 394.075 346.078 395.18C352.509 396.285 357.455 400.768 357.125 405.192ZM343.153 402.792C343.095 403.572 342.422 404.098 341.65 403.965C340.879 403.833 340.3 403.092 340.358 402.311C340.417 401.531 341.089 401.005 341.861 401.138C342.633 401.27 343.211 402.011 343.153 402.792ZM350.034 405.406C350.805 405.538 351.478 405.013 351.536 404.232C351.594 403.451 351.016 402.711 350.244 402.578C349.473 402.446 348.8 402.971 348.742 403.752C348.684 404.533 349.262 405.273 350.034 405.406Z" fill="white" fill-opacity="0.69"/>
</g>
<defs>
<filter id="filter0_f_31_1842" x="183.982" y="442.374" width="334.408" height="107.706" filterUnits="userSpaceOnUse" color-interpolation-filters="sRGB">
<feFlood flood-opacity="0" result="BackgroundImageFix"/>
<feBlend mode="normal" in="SourceGraphic" in2="BackgroundImageFix" result="shape"/>
<feGaussianBlur stdDeviation="14.7286" result="effect1_foregroundBlur_31_1842"/>
</filter>
<filter id="filter1_f_31_1842" x="41.574" y="-74.8576" width="400.309" height="360.178" filterUnits="userSpaceOnUse" color-interpolation-filters="sRGB">
<feFlood flood-opacity="0" result="BackgroundImageFix"/>
<feBlend mode="normal" in="SourceGraphic" in2="BackgroundImageFix" result="shape"/>
<feGaussianBlur stdDeviation="15.398" result="effect1_foregroundBlur_31_1842"/>
</filter>
<filter id="filter2_f_31_1842" x="450.558" y="98.7184" width="236.2" height="244.555" filterUnits="userSpaceOnUse" color-interpolation-filters="sRGB">
<feFlood flood-opacity="0" result="BackgroundImageFix"/>
<feBlend mode="normal" in="SourceGraphic" in2="BackgroundImageFix" result="shape"/>
<feGaussianBlur stdDeviation="14.0591" result="effect1_foregroundBlur_31_1842"/>
</filter>
<filter id="filter3_f_31_1842" x="341.609" y="-7.18115" width="251.582" height="160.462" filterUnits="userSpaceOnUse" color-interpolation-filters="sRGB">
<feFlood flood-opacity="0" result="BackgroundImageFix"/>
<feBlend mode="normal" in="SourceGraphic" in2="BackgroundImageFix" result="shape"/>
<feGaussianBlur stdDeviation="10.0422" result="effect1_foregroundBlur_31_1842"/>
</filter>
<filter id="filter4_f_31_1842" x="347.512" y="198.835" width="209.547" height="28.5734" filterUnits="userSpaceOnUse" color-interpolation-filters="sRGB">
<feFlood flood-opacity="0" result="BackgroundImageFix"/>
<feBlend mode="normal" in="SourceGraphic" in2="BackgroundImageFix" result="shape"/>
<feGaussianBlur stdDeviation="2.67792" result="effect1_foregroundBlur_31_1842"/>
</filter>
<filter id="filter5_di_31_1842" x="385.002" y="97.2894" width="93.7424" height="120.817" filterUnits="userSpaceOnUse" color-interpolation-filters="sRGB">
<feFlood flood-opacity="0" result="BackgroundImageFix"/>
<feColorMatrix in="SourceAlpha" type="matrix" values="0 0 0 0 0 0 0 0 0 0 0 0 0 0 0 0 0 0 127 0" result="hardAlpha"/>
<feOffset dx="-8.03376" dy="6.6948"/>
<feGaussianBlur stdDeviation="6.02532"/>
<feComposite in2="hardAlpha" operator="out"/>
<feColorMatrix type="matrix" values="0 0 0 0 0.67451 0 0 0 0 0.427451 0 0 0 0 0.294118 0 0 0 0.74 0"/>
<feBlend mode="normal" in2="BackgroundImageFix" result="effect1_dropShadow_31_1842"/>
<feBlend mode="normal" in="SourceGraphic" in2="effect1_dropShadow_31_1842" result="shape"/>
<feColorMatrix in="SourceAlpha" type="matrix" values="0 0 0 0 0 0 0 0 0 0 0 0 0 0 0 0 0 0 127 0" result="hardAlpha"/>
<feOffset dx="1.2396"/>
<feGaussianBlur stdDeviation="1.2396"/>
<feComposite in2="hardAlpha" operator="arithmetic" k2="-1" k3="1"/>
<feColorMatrix type="matrix" values="0 0 0 0 0 0 0 0 0 0 0 0 0 0 0 0 0 0 0.67 0"/>
<feBlend mode="normal" in2="shape" result="effect2_innerShadow_31_1842"/>
</filter>
<filter id="filter6_f_31_1842" x="400.433" y="94.2653" width="77.8964" height="107.315" filterUnits="userSpaceOnUse" color-interpolation-filters="sRGB">
<feFlood flood-opacity="0" result="BackgroundImageFix"/>
<feBlend mode="normal" in="SourceGraphic" in2="BackgroundImageFix" result="shape"/>
<feGaussianBlur stdDeviation="3.7188" result="effect1_foregroundBlur_31_1842"/>
</filter>
<filter id="filter7_f_31_1842" x="410.02" y="103.536" width="39.3629" height="50.6153" filterUnits="userSpaceOnUse" color-interpolation-filters="sRGB">
<feFlood flood-opacity="0" result="BackgroundImageFix"/>
<feBlend mode="normal" in="SourceGraphic" in2="BackgroundImageFix" result="shape"/>
<feGaussianBlur stdDeviation="1.8594" result="effect1_foregroundBlur_31_1842"/>
</filter>
<filter id="filter8_d_31_1842" x="445.185" y="114.084" width="31.0569" height="33.4153" filterUnits="userSpaceOnUse" color-interpolation-filters="sRGB">
<feFlood flood-opacity="0" result="BackgroundImageFix"/>
<feColorMatrix in="SourceAlpha" type="matrix" values="0 0 0 0 0 0 0 0 0 0 0 0 0 0 0 0 0 0 127 0" result="hardAlpha"/>
<feOffset dy="3.7188"/>
<feGaussianBlur stdDeviation="2.4792"/>
<feComposite in2="hardAlpha" operator="out"/>
<feColorMatrix type="matrix" values="0 0 0 0 0 0 0 0 0 0 0 0 0 0 0 0 0 0 0.68 0"/>
<feBlend mode="normal" in2="BackgroundImageFix" result="effect1_dropShadow_31_1842"/>
<feBlend mode="normal" in="SourceGraphic" in2="effect1_dropShadow_31_1842" result="shape"/>
</filter>
<filter id="filter9_di_31_1842" x="483.099" y="103.395" width="58.313" height="106.973" filterUnits="userSpaceOnUse" color-interpolation-filters="sRGB">
<feFlood flood-opacity="0" result="BackgroundImageFix"/>
<feColorMatrix in="SourceAlpha" type="matrix" values="0 0 0 0 0 0 0 0 0 0 0 0 0 0 0 0 0 0 127 0" result="hardAlpha"/>
<feOffset dy="10.7117"/>
<feGaussianBlur stdDeviation="2.67792"/>
<feComposite in2="hardAlpha" operator="out"/>
<feColorMatrix type="matrix" values="0 0 0 0 0.698039 0 0 0 0 0.545098 0 0 0 0 0.380392 0 0 0 1 0"/>
<feBlend mode="normal" in2="BackgroundImageFix" result="effect1_dropShadow_31_1842"/>
<feBlend mode="normal" in="SourceGraphic" in2="effect1_dropShadow_31_1842" result="shape"/>
<feColorMatrix in="SourceAlpha" type="matrix" values="0 0 0 0 0 0 0 0 0 0 0 0 0 0 0 0 0 0 127 0" result="hardAlpha"/>
<feOffset dx="1.2396"/>
<feGaussianBlur stdDeviation="1.2396"/>
<feComposite in2="hardAlpha" operator="arithmetic" k2="-1" k3="1"/>
<feColorMatrix type="matrix" values="0 0 0 0 0 0 0 0 0 0 0 0 0 0 0 0 0 0 0.67 0"/>
<feBlend mode="normal" in2="shape" result="effect2_innerShadow_31_1842"/>
</filter>
<filter id="filter10_f_31_1842" x="484.134" y="94.5536" width="54.6255" height="102.195" filterUnits="userSpaceOnUse" color-interpolation-filters="sRGB">
<feFlood flood-opacity="0" result="BackgroundImageFix"/>
<feBlend mode="normal" in="SourceGraphic" in2="BackgroundImageFix" result="shape"/>
<feGaussianBlur stdDeviation="3.7188" result="effect1_foregroundBlur_31_1842"/>
</filter>
<filter id="filter11_d_31_1842" x="508.793" y="111.308" width="23.6868" height="32.0521" filterUnits="userSpaceOnUse" color-interpolation-filters="sRGB">
<feFlood flood-opacity="0" result="BackgroundImageFix"/>
<feColorMatrix in="SourceAlpha" type="matrix" values="0 0 0 0 0 0 0 0 0 0 0 0 0 0 0 0 0 0 127 0" result="hardAlpha"/>
<feOffset dy="3.7188"/>
<feGaussianBlur stdDeviation="2.4792"/>
<feComposite in2="hardAlpha" operator="out"/>
<feColorMatrix type="matrix" values="0 0 0 0 0 0 0 0 0 0 0 0 0 0 0 0 0 0 0.68 0"/>
<feBlend mode="normal" in2="BackgroundImageFix" result="effect1_dropShadow_31_1842"/>
<feBlend mode="normal" in="SourceGraphic" in2="effect1_dropShadow_31_1842" result="shape"/>
</filter>
<filter id="filter12_f_31_1842" x="299.643" y="453.907" width="80.1461" height="35.6152" filterUnits="userSpaceOnUse" color-interpolation-filters="sRGB">
<feFlood flood-opacity="0" result="BackgroundImageFix"/>
<feBlend mode="normal" in="SourceGraphic" in2="BackgroundImageFix" result="shape"/>
<feGaussianBlur stdDeviation="2.00844" result="effect1_foregroundBlur_31_1842"/>
</filter>
<filter id="filter13_f_31_1842" x="301.773" y="482.026" width="79.8858" height="26.2705" filterUnits="userSpaceOnUse" color-interpolation-filters="sRGB">
<feFlood flood-opacity="0" result="BackgroundImageFix"/>
<feBlend mode="normal" in="SourceGraphic" in2="BackgroundImageFix" result="shape"/>
<feGaussianBlur stdDeviation="2.67792" result="effect1_foregroundBlur_31_1842"/>
</filter>
<filter id="filter14_f_31_1842" x="424.689" y="454.902" width="59.8569" height="26.5991" filterUnits="userSpaceOnUse" color-interpolation-filters="sRGB">
<feFlood flood-opacity="0" result="BackgroundImageFix"/>
<feBlend mode="normal" in="SourceGraphic" in2="BackgroundImageFix" result="shape"/>
<feGaussianBlur stdDeviation="1.5" result="effect1_foregroundBlur_31_1842"/>
</filter>
<filter id="filter15_f_31_1842" x="426.279" y="475.902" width="59.6626" height="19.6201" filterUnits="userSpaceOnUse" color-interpolation-filters="sRGB">
<feFlood flood-opacity="0" result="BackgroundImageFix"/>
<feBlend mode="normal" in="SourceGraphic" in2="BackgroundImageFix" result="shape"/>
<feGaussianBlur stdDeviation="2" result="effect1_foregroundBlur_31_1842"/>
</filter>
<filter id="filter16_f_31_1842" x="441.237" y="467.297" width="38.8298" height="29.4572" filterUnits="userSpaceOnUse" color-interpolation-filters="sRGB">
<feFlood flood-opacity="0" result="BackgroundImageFix"/>
<feBlend mode="normal" in="SourceGraphic" in2="BackgroundImageFix" result="shape"/>
<feGaussianBlur stdDeviation="2.67792" result="effect1_foregroundBlur_31_1842"/>
</filter>
<filter id="filter17_d_31_1842" x="486.763" y="287.876" width="23.4648" height="176.743" filterUnits="userSpaceOnUse" color-interpolation-filters="sRGB">
<feFlood flood-opacity="0" result="BackgroundImageFix"/>
<feColorMatrix in="SourceAlpha" type="matrix" values="0 0 0 0 0 0 0 0 0 0 0 0 0 0 0 0 0 0 127 0" result="hardAlpha"/>
<feOffset dx="-1.33896"/>
<feGaussianBlur stdDeviation="0.66948"/>
<feComposite in2="hardAlpha" operator="out"/>
<feColorMatrix type="matrix" values="0 0 0 0 0 0 0 0 0 0 0 0 0 0 0 0 0 0 0.25 0"/>
<feBlend mode="normal" in2="BackgroundImageFix" result="effect1_dropShadow_31_1842"/>
<feBlend mode="normal" in="SourceGraphic" in2="effect1_dropShadow_31_1842" result="shape"/>
</filter>
<filter id="filter18_f_31_1842" x="324.864" y="275.825" width="74.0411" height="207.539" filterUnits="userSpaceOnUse" color-interpolation-filters="sRGB">
<feFlood flood-opacity="0" result="BackgroundImageFix"/>
<feBlend mode="normal" in="SourceGraphic" in2="BackgroundImageFix" result="shape"/>
<feGaussianBlur stdDeviation="2.00844" result="effect1_foregroundBlur_31_1842"/>
</filter>
<filter id="filter19_d_31_1842" x="261.819" y="279.842" width="239.674" height="29.4571" filterUnits="userSpaceOnUse" color-interpolation-filters="sRGB">
<feFlood flood-opacity="0" result="BackgroundImageFix"/>
<feColorMatrix in="SourceAlpha" type="matrix" values="0 0 0 0 0 0 0 0 0 0 0 0 0 0 0 0 0 0 127 0" result="hardAlpha"/>
<feOffset dy="5.35584"/>
<feGaussianBlur stdDeviation="3.3474"/>
<feComposite in2="hardAlpha" operator="out"/>
<feColorMatrix type="matrix" values="0 0 0 0 0 0 0 0 0 0 0 0 0 0 0 0 0 0 0.44 0"/>
<feBlend mode="normal" in2="BackgroundImageFix" result="effect1_dropShadow_31_1842"/>
<feBlend mode="normal" in="SourceGraphic" in2="effect1_dropShadow_31_1842" result="shape"/>
</filter>
<filter id="filter20_d_31_1842" x="265.836" y="277.165" width="231.64" height="21.4233" filterUnits="userSpaceOnUse" color-interpolation-filters="sRGB">
<feFlood flood-opacity="0" result="BackgroundImageFix"/>
<feColorMatrix in="SourceAlpha" type="matrix" values="0 0 0 0 0 0 0 0 0 0 0 0 0 0 0 0 0 0 127 0" result="hardAlpha"/>
<feOffset dy="-1.33896"/>
<feGaussianBlur stdDeviation="1.33896"/>
<feComposite in2="hardAlpha" operator="out"/>
<feColorMatrix type="matrix" values="0 0 0 0 0 0 0 0 0 0 0 0 0 0 0 0 0 0 0.41 0"/>
<feBlend mode="normal" in2="BackgroundImageFix" result="effect1_dropShadow_31_1842"/>
<feBlend mode="normal" in="SourceGraphic" in2="effect1_dropShadow_31_1842" result="shape"/>
</filter>
<filter id="filter21_f_31_1842" x="254.015" y="259.128" width="260.735" height="38.2568" filterUnits="userSpaceOnUse" color-interpolation-filters="sRGB">
<feFlood flood-opacity="0" result="BackgroundImageFix"/>
<feBlend mode="normal" in="SourceGraphic" in2="BackgroundImageFix" result="shape"/>
<feGaussianBlur stdDeviation="3.3474" result="effect1_foregroundBlur_31_1842"/>
</filter>
<linearGradient id="paint0_linear_31_1842" x1="168.606" y1="336.867" x2="5.94878" y2="225.93" gradientUnits="userSpaceOnUse">
<stop stop-color="#1F2A4B"/>
<stop offset="1" stop-color="#2C4C6D"/>
</linearGradient>
<linearGradient id="paint1_linear_31_1842" x1="85.4881" y1="327.725" x2="205.809" y2="488.913" gradientUnits="userSpaceOnUse">
<stop stop-color="#2C4F6A"/>
<stop offset="0.0001" stop-color="#263456"/>
<stop offset="1" stop-color="#283B5F"/>
</linearGradient>
<linearGradient id="paint2_linear_31_1842" x1="199.477" y1="493.839" x2="72.0305" y2="339.194" gradientUnits="userSpaceOnUse">
<stop stop-color="#1B2340"/>
<stop offset="1" stop-color="#212E50"/>
</linearGradient>
<linearGradient id="paint3_linear_31_1842" x1="92.1935" y1="221.456" x2="-12.0252" y2="119.637" gradientUnits="userSpaceOnUse">
<stop stop-color="#1F2A4B"/>
<stop offset="1" stop-color="#2C4C6D"/>
</linearGradient>
<linearGradient id="paint4_linear_31_1842" x1="385.002" y1="5.73334e-06" x2="309.35" y2="285.199" gradientUnits="userSpaceOnUse">
<stop stop-color="#40E3B8"/>
<stop offset="1" stop-color="#005840"/>
</linearGradient>
<linearGradient id="paint5_linear_31_1842" x1="385.002" y1="5.73334e-06" x2="309.35" y2="285.199" gradientUnits="userSpaceOnUse">
<stop stop-color="#40BCE3"/>
<stop offset="1" stop-color="#004358"/>
</linearGradient>
<linearGradient id="paint6_linear_31_1842" x1="454.628" y1="28.7874" x2="260.479" y2="269.8" gradientUnits="userSpaceOnUse">
<stop stop-color="#1D96B0"/>
<stop offset="1" stop-color="#00303A"/>
</linearGradient>
<linearGradient id="paint7_linear_31_1842" x1="458.644" y1="31.6378" x2="264.495" y2="272.651" gradientUnits="userSpaceOnUse">
<stop stop-color="#1D8DB0"/>
<stop offset="1" stop-color="#002C3A"/>
</linearGradient>
<linearGradient id="paint8_linear_31_1842" x1="552.796" y1="76.1313" x2="394.039" y2="309.302" gradientUnits="userSpaceOnUse">
<stop stop-color="#1DB084"/>
<stop offset="1" stop-color="#003A28"/>
</linearGradient>
<linearGradient id="paint9_linear_31_1842" x1="552.773" y1="76.1339" x2="394.015" y2="309.304" gradientUnits="userSpaceOnUse">
<stop stop-color="#1D8DB0"/>
<stop offset="1" stop-color="#002C3A"/>
</linearGradient>
<linearGradient id="paint10_linear_31_1842" x1="459.291" y1="130.55" x2="393.012" y2="281.183" gradientUnits="userSpaceOnUse">
<stop stop-color="#FDECCA"/>
<stop offset="1" stop-color="#E3A578"/>
</linearGradient>
<linearGradient id="paint11_linear_31_1842" x1="529.61" y1="241.012" x2="360.9" y2="245.029" gradientUnits="userSpaceOnUse">
<stop stop-color="#04764E"/>
<stop offset="0.510682" stop-color="#009968"/>
<stop offset="1" stop-color="#04764E"/>
</linearGradient>
<linearGradient id="paint12_linear_31_1842" x1="529.61" y1="241.012" x2="360.9" y2="245.029" gradientUnits="userSpaceOnUse">
<stop stop-color="#04764E"/>
<stop offset="0.0001" stop-color="#045B76"/>
<stop offset="0.510682" stop-color="#007D99"/>
<stop offset="1" stop-color="#046876"/>
</linearGradient>
<radialGradient id="paint13_radial_31_1842" cx="0" cy="0" r="1" gradientUnits="userSpaceOnUse" gradientTransform="translate(373.625 498.093) rotate(90) scale(9.37272 14.0591)">
<stop stop-color="#A3784E"/>
<stop offset="1" stop-color="#62482A"/>
</radialGradient>
<linearGradient id="paint14_linear_31_1842" x1="313.371" y1="482.025" x2="367.599" y2="492.068" gradientUnits="userSpaceOnUse">
<stop stop-color="#001617"/>
<stop offset="1" stop-color="#005E6B"/>
</linearGradient>
<linearGradient id="paint15_linear_31_1842" x1="313.371" y1="482.025" x2="367.599" y2="492.068" gradientUnits="userSpaceOnUse">
<stop stop-color="#001617"/>
<stop offset="1" stop-color="#005E6B"/>
</linearGradient>
<linearGradient id="paint16_linear_31_1842" x1="313.371" y1="482.025" x2="367.599" y2="492.068" gradientUnits="userSpaceOnUse">
<stop stop-color="#001617"/>
<stop offset="1" stop-color="#005E6B"/>
</linearGradient>
<linearGradient id="paint17_linear_31_1842" x1="313.371" y1="482.025" x2="367.599" y2="492.068" gradientUnits="userSpaceOnUse">
<stop stop-color="#001617"/>
<stop offset="1" stop-color="#005E6B"/>
</linearGradient>
<linearGradient id="paint18_linear_31_1842" x1="434.941" y1="475.902" x2="475.441" y2="483.402" gradientUnits="userSpaceOnUse">
<stop stop-color="#001617"/>
<stop offset="1" stop-color="#005E6B"/>
</linearGradient>
<linearGradient id="paint19_linear_31_1842" x1="434.941" y1="475.902" x2="475.441" y2="483.402" gradientUnits="userSpaceOnUse">
<stop stop-color="#001617"/>
<stop offset="1" stop-color="#005E6B"/>
</linearGradient>
<linearGradient id="paint20_linear_31_1842" x1="434.941" y1="475.902" x2="475.441" y2="483.402" gradientUnits="userSpaceOnUse">
<stop stop-color="#001617"/>
<stop offset="1" stop-color="#005E6B"/>
</linearGradient>
<linearGradient id="paint21_linear_31_1842" x1="434.941" y1="475.902" x2="475.441" y2="483.402" gradientUnits="userSpaceOnUse">
<stop stop-color="#001617"/>
<stop offset="1" stop-color="#005E6B"/>
</linearGradient>
<radialGradient id="paint22_radial_31_1842" cx="0" cy="0" r="1" gradientUnits="userSpaceOnUse" gradientTransform="translate(474.711 491.398) rotate(90) scale(9.37272 14.0591)">
<stop stop-color="#A3784E"/>
<stop offset="1" stop-color="#62482A"/>
</radialGradient>
<radialGradient id="paint23_radial_31_1842" cx="0" cy="0" r="1" gradientUnits="userSpaceOnUse" gradientTransform="translate(474.712 488.721) rotate(90) scale(13.3896 20.0844)">
<stop stop-color="#A3784E"/>
<stop offset="1" stop-color="#62482A"/>
</radialGradient>
<linearGradient id="paint24_linear_31_1842" x1="497.474" y1="326.036" x2="366.256" y2="465.288" gradientUnits="userSpaceOnUse">
<stop stop-color="#4F433B"/>
<stop offset="1" stop-color="#141B13"/>
</linearGradient>
<linearGradient id="paint25_linear_31_1842" x1="497.474" y1="326.036" x2="366.256" y2="465.288" gradientUnits="userSpaceOnUse">
<stop stop-color="#4F433B"/>
<stop offset="1" stop-color="#141B13"/>
</linearGradient>
<linearGradient id="paint26_linear_31_1842" x1="506.848" y1="454.577" x2="511.534" y2="470.644" gradientUnits="userSpaceOnUse">
<stop stop-color="#004A2D"/>
<stop offset="1" stop-color="#00724D"/>
</linearGradient>
<linearGradient id="paint27_linear_31_1842" x1="493.46" y1="287.207" x2="268.514" y2="291.224" gradientUnits="userSpaceOnUse">
<stop stop-color="#119ECA"/>
<stop offset="1" stop-color="#00596C"/>
</linearGradient>
<clipPath id="clip0_31_1842">
<rect width="80.3376" height="80.3376" fill="white" transform="matrix(0.985556 0.16935 -0.0742825 0.997237 287.269 329.709)"/>
</clipPath>
</defs>
</svg>
