<svg width="553" height="551" viewBox="0 0 553 551" fill="none" xmlns="http://www.w3.org/2000/svg">
<path d="M215.835 291.891L218.084 359.353C217.584 367.598 215.236 386.188 209.839 394.583C204.442 402.978 211.588 415.571 215.835 420.818L195.042 488.28" stroke="black" stroke-width="1.49915"/>
<path d="M203.281 489.03C199.783 465.793 194.841 419.169 194.841 400.58C194.841 381.99 198.839 358.853 200.838 349.609C198.839 345.861 194.841 334.917 194.841 321.125C194.841 303.885 182.848 264.157 180.599 256.661M198.034 489.779C171.799 450.301 119.434 371.196 117.635 355.605C115.386 336.116 117.635 254.413 95.8974 218.433" stroke="black" stroke-width="1.49915"/>
<path d="M205.339 292.644C196.844 275.903 195.444 240.623 257.809 233.427C246.815 240.923 220.93 263.26 205.339 292.644Z" fill="#233254"/>
<path d="M257.809 233.427C258.559 250.418 249.114 286.047 205.339 292.644C220.93 263.26 246.815 240.923 257.809 233.427Z" fill="#1F2C4D"/>
<path d="M183.865 264.434C165.206 266.497 131.689 255.396 146.892 194.486C150.041 207.414 161.845 239.503 183.865 264.434Z" fill="#233254"/>
<path d="M146.892 194.486C163.06 199.761 193.09 221.136 183.865 264.434C161.845 239.503 150.041 207.414 146.892 194.486Z" fill="#1F2C4D"/>
<path d="M205.298 420.071C196.803 403.331 195.403 368.051 257.768 360.855C246.774 368.351 220.889 390.688 205.298 420.071Z" fill="#233254"/>
<path d="M257.768 360.855C258.518 377.845 249.073 413.475 205.298 420.071C220.889 390.688 246.774 368.351 257.768 360.855Z" fill="#1F2C4D"/>
<path d="M214.321 360.852C190.334 342.862 200.727 303.843 263.315 298.952C252.052 306.037 230.985 332.064 214.321 360.852Z" fill="#233254"/>
<path d="M263.315 298.952C263.438 315.959 269.802 333.118 214.321 360.852C230.985 332.064 252.052 306.037 263.315 298.952Z" fill="#1F2C4D"/>
<path d="M175.353 318.878C183.748 336.868 166.358 339.866 156.613 339.116C150.866 337.867 126.78 327.873 76.4085 297.89C26.0371 267.907 9.94626 232.927 8.19725 219.184C15.1933 216.686 41.4783 216.036 90.6504 233.426C152.116 255.164 164.859 296.391 175.353 318.878Z" fill="#2C4F6A"/>
<path d="M8.19725 219.934L174.603 333.869C167.107 343.614 134.875 337.617 73.4102 295.641C24.2381 262.06 9.44655 231.178 8.19725 219.934Z" fill="url(#paint0_linear_4034_1026)"/>
<path d="M211.591 477.838C213.98 498.385 195.631 498.776 184.384 477.038C179.272 474.061 155.778 453.304 116.952 408.134C78.1262 362.964 80.1685 342.042 82.8105 327.746C90.2962 327.343 115.796 320.474 157.429 352.666C209.471 392.905 208.604 452.153 211.591 477.838Z" fill="url(#paint1_linear_4034_1026)"/>
<path d="M82.5751 328.497C82.5751 328.497 126.696 357.163 153.681 393.143C180.666 429.122 206.163 492.635 206.163 492.635C195.922 500.148 162.635 469.403 116.952 408.884C80.4052 360.469 80.2394 340.139 82.5751 328.497Z" fill="url(#paint2_linear_4034_1026)"/>
<path d="M100.121 208.51C102.767 223.88 90.088 223.433 83.4176 221.289C79.628 219.395 64.5952 207.746 34.781 176.306C4.96693 144.866 -0.016309 115.018 1.21884 104.024C6.55069 103.196 25.0213 106.897 56.249 128.328C95.2836 155.116 96.8125 189.298 100.121 208.51Z" fill="#2C4F6A"/>
<path d="M1.08485 104.608L96.9173 220.078C89.9413 226.475 68.5062 216.64 33.0893 174.073C4.75583 140.019 -0.0526098 113.574 1.08485 104.608Z" fill="url(#paint3_linear_4034_1026)"/>
<g filter="url(#filter0_f_4034_1026)">
<ellipse cx="351.186" cy="496.227" rx="137.913" ry="23.4318" transform="rotate(-2.85395 351.186 496.227)" fill="black"/>
</g>
<mask id="mask0_4034_1026" style="mask-type:alpha" maskUnits="userSpaceOnUse" x="217" y="0" width="336" height="286">
<path d="M218.204 188.919C222.488 240.871 260.158 274.836 278.457 285.325H488.004C496.261 274.39 516.256 247.834 530.181 229.088C564.994 193.74 551.828 136.7 540.893 112.599C532.413 93.1837 496.44 45.5168 420.387 10.1682C344.334 -25.1803 272.208 40.0717 245.652 77.1162C234.718 92.7374 213.919 136.968 218.204 188.919Z" fill="url(#paint4_linear_4034_1026)"/>
</mask>
<g mask="url(#mask0_4034_1026)">
<path d="M218.204 188.919C222.488 240.871 260.158 274.836 278.457 285.325H488.004C496.261 274.39 516.256 247.834 530.181 229.088C564.994 193.74 551.828 136.7 540.893 112.599C532.413 93.1837 496.44 45.5168 420.387 10.1682C344.334 -25.1803 272.208 40.0717 245.652 77.1162C234.718 92.7374 213.919 136.968 218.204 188.919Z" fill="url(#paint5_linear_4034_1026)"/>
<g filter="url(#filter1_f_4034_1026)">
<path d="M253.115 106.447C238.831 174.097 166.665 263.892 118.55 253.733C70.4349 243.574 65.0025 137.276 79.2865 69.6256C93.5704 1.97506 354.963 -53.0064 403.078 -42.8472C451.193 -32.688 267.399 38.7964 253.115 106.447Z" fill="#7AE1EE"/>
</g>
</g>
<path d="M453.289 27.4488C447.264 26.1095 421.775 17.8381 383.749 52.1155C336.215 94.9622 324.834 163.919 324.834 186.681C324.834 209.443 332.868 246.934 295.377 260.324C265.384 271.036 259.672 272.374 260.564 271.705" stroke="url(#paint6_linear_4034_1026)" stroke-width="1.33896"/>
<path d="M458.643 31.4646C446.593 29.4564 425.791 20.6878 387.764 54.9652C340.231 97.8119 328.85 166.768 328.85 189.531C328.85 212.293 336.884 249.784 299.393 263.174C269.4 273.885 263.687 275.224 264.58 274.555" stroke="url(#paint7_linear_4034_1026)" stroke-width="1.33896"/>
<mask id="mask1_4034_1026" style="mask-type:alpha" maskUnits="userSpaceOnUse" x="403" y="72" width="149" height="189">
<path d="M497.402 256.763C507.578 255.157 521.13 237.886 528.271 230.299C553.712 194.147 551.63 178.431 551.631 169.061C551.632 159.691 549.816 131.983 530.28 105.776C502.831 68.9546 476.721 71.6342 459.984 72.9724C432.536 76.3198 416.395 86.043 407.022 96.0852C397.65 106.127 411.039 238.687 414.387 252.077C417.734 265.467 484.682 258.772 497.402 256.763Z" fill="#011003"/>
</mask>
<g mask="url(#mask1_4034_1026)">
<path d="M497.402 256.763C507.579 255.156 524.405 239.58 531.546 231.992C550.826 205.749 551.63 178.431 551.631 169.061C551.632 159.691 550.098 126.262 532.958 101.089C511.534 69.6238 475.382 66.9429 459.985 67.6153C444.588 68.2877 409.104 81.6743 399.731 91.7166C390.358 101.759 411.04 238.687 414.387 252.077C417.734 265.466 484.682 258.772 497.402 256.763Z" fill="#011003"/>
<g filter="url(#filter2_f_4034_1026)">
<path d="M552.747 313.916C561.582 317.499 582.972 312.466 592.563 309.502C621.48 296.615 636.453 273.836 641.372 265.889C646.292 257.943 658.881 232.433 658.636 202.752C658.33 165.651 629.063 150.674 616.619 143.761C604.175 136.848 560.435 118.495 557.058 131.215C525.599 249.715 483.415 241.01 478.728 270.467C476.574 284.006 541.704 309.437 552.747 313.916Z" fill="#005430"/>
</g>
</g>
<mask id="mask2_4034_1026" style="mask-type:alpha" maskUnits="userSpaceOnUse" x="352" y="78" width="182" height="208">
<path d="M372.869 128.865C330.546 180.804 365.728 256.29 384.92 284.854H487.349C498.507 273.919 498.361 262.817 520.214 223.609C549.694 170.717 522.245 105.107 477.367 85.0249C431.151 66.9506 398.23 97.7433 372.869 128.865Z" fill="#D9D9D9" stroke="url(#paint8_linear_4034_1026)" stroke-width="1.33896"/>
</mask>
<g mask="url(#mask2_4034_1026)">
<path d="M372.869 128.864C336.449 185.101 365.728 256.289 384.92 284.853H487.349C498.507 273.918 504.146 261.099 532.874 226.608C579.982 170.049 534.273 83.6863 487.349 73.9668C464.364 68.8342 409.289 72.6279 372.869 128.864Z" stroke="url(#paint9_linear_4034_1026)" stroke-width="1.33896"/>
<path d="M372.869 128.864C336.449 185.1 365.728 256.288 384.92 284.853H487.349C498.507 273.918 486.8 263.453 515.527 228.963C562.636 172.404 513.579 90.7279 466.655 81.0084C443.67 75.8757 409.289 72.6273 372.869 128.864Z" fill="url(#paint10_linear_4034_1026)"/>
<g filter="url(#filter3_f_4034_1026)">
<path d="M516.195 119.169C472.277 79.5357 400.152 95.5139 369.579 108.457C361.099 93.5055 353.11 55.7021 388.994 24.1026C424.878 -7.49684 526.238 39.5007 572.432 66.9494C571.985 100.87 560.113 158.802 516.195 119.169Z" fill="#492B18"/>
<path d="M516.195 119.169C472.277 79.5357 400.152 95.5139 369.579 108.457C361.099 93.5055 353.11 55.7021 388.994 24.1026C424.878 -7.49684 526.238 39.5007 572.432 66.9494C571.985 100.87 560.113 158.802 516.195 119.169Z" stroke="black" stroke-width="1.33896"/>
</g>
</g>
<mask id="mask3_4034_1026" style="mask-type:alpha" maskUnits="userSpaceOnUse" x="356" y="208" width="188" height="78">
<path d="M356.883 208.876C476.72 221.597 543.668 210.885 543.668 210.885C542.062 215.17 506.847 261.765 489.44 284.528L385.002 285.197C364.917 256.41 355.544 212.893 356.883 208.876Z" fill="url(#paint11_linear_4034_1026)"/>
</mask>
<g mask="url(#mask3_4034_1026)">
<path d="M356.883 208.876C476.72 221.597 543.668 210.885 543.668 210.885C542.062 215.17 506.847 261.765 489.44 284.528L385.002 285.197C364.917 256.41 355.544 212.893 356.883 208.876Z" fill="url(#paint12_linear_4034_1026)"/>
<g filter="url(#filter4_f_4034_1026)">
<path d="M545.678 216.911C488.906 227.622 394.821 219.142 354.876 213.563L352.867 204.19C361.124 205.083 387.278 207.538 425.841 210.216C464.403 212.894 525.816 209.1 551.703 206.868L545.678 216.911Z" fill="#2DDDB2"/>
</g>
</g>
<g filter="url(#filter5_di_4034_1026)">
<mask id="mask4_4034_1026" style="mask-type:alpha" maskUnits="userSpaceOnUse" x="405" y="102" width="70" height="98">
<path d="M428.612 103.423C440.016 100.448 450.939 106.728 454.658 110.24C460.608 115.695 465.814 121.397 469.533 131.314C473.252 141.231 475.483 149.412 474.491 164.783C473.5 180.154 462.715 190.815 450.319 197.632C444.328 199.079 428.626 203.211 416.221 189.575C406.051 178.396 403.132 156.106 406.307 135.652C407.753 126.355 417.208 106.398 428.612 103.423Z" fill="#D9D9D9"/>
</mask>
<g mask="url(#mask4_4034_1026)">
<path d="M428.612 103.423C440.016 100.448 450.939 106.728 454.658 110.24C460.608 115.695 465.814 121.397 469.533 131.314C473.252 141.231 475.483 149.412 474.491 164.783C473.5 180.154 462.715 190.815 450.319 197.632C444.328 199.079 428.626 203.211 416.221 189.575C406.051 178.396 403.132 156.106 406.307 135.652C407.753 126.355 417.208 106.398 428.612 103.423Z" fill="#B1F3D0"/>
<mask id="mask5_4034_1026" style="mask-type:alpha" maskUnits="userSpaceOnUse" x="410" y="104" width="67" height="99">
<path d="M430.379 104.882C442.698 101.668 453.811 108.452 457.828 112.246C464.255 118.138 470.771 129.876 473.226 135.009C474.788 140.364 477.644 155.227 476.573 171.83C475.502 188.433 460.952 198.832 453.811 201.957C447.339 203.519 431.718 203.563 421.007 191.245C410.295 178.926 409.402 151.299 410.295 139.025C411.857 128.983 418.061 108.095 430.379 104.882Z" fill="#1D281A"/>
</mask>
<g mask="url(#mask5_4034_1026)">
<path d="M430.379 104.882C442.698 101.668 453.811 108.452 457.828 112.246C464.255 118.138 470.771 129.876 473.226 135.009C474.788 140.364 477.644 155.227 476.573 171.83C475.502 188.433 460.952 198.832 453.811 201.957C447.339 203.519 431.718 203.563 421.007 191.245C410.295 178.926 409.402 151.299 410.295 139.025C411.857 128.983 418.061 108.095 430.379 104.882Z" fill="#1D281A"/>
<g filter="url(#filter6_f_4034_1026)">
<path d="M439.462 101.703C451.248 101.68 459.635 110.339 462.355 114.671C466.749 121.442 469.866 133.474 470.875 138.644C471.033 143.806 470.145 157.79 465.333 172.422C460.522 187.054 445.069 192.999 437.944 194.142C431.781 194.041 417.77 190.457 411.027 176.932C404.285 163.406 409.894 138.438 413.541 127.645C417.271 119.007 427.676 101.725 439.462 101.703Z" fill="#594C3C"/>
</g>
<g filter="url(#filter7_f_4034_1026)">
<path d="M444.155 147.655C439.741 141.099 427.081 128.221 419.345 119.381L413.767 116.282C413.56 112.563 414.387 105.621 419.345 107.604C424.198 109.546 439.313 138.47 444.155 147.655C444.693 148.454 445.108 149.158 445.377 149.751C446.049 151.23 445.497 150.2 444.155 147.655Z" fill="#413A2C"/>
</g>
<g filter="url(#filter8_d_4034_1026)">
<ellipse cx="460.713" cy="127.073" rx="10.5366" ry="11.7762" transform="rotate(-8.94065 460.713 127.073)" fill="#FBFFFF"/>
</g>
</g>
</g>
</g>
<g filter="url(#filter9_di_4034_1026)">
<mask id="mask6_4034_1026" style="mask-type:alpha" maskUnits="userSpaceOnUse" x="488" y="103" width="49" height="92">
<path d="M496.801 104.992C503.321 100.915 511.13 105.592 514.024 108.475C518.625 112.933 522.811 117.708 526.802 126.611C530.792 135.514 533.569 142.953 535.59 157.512C537.61 172.071 532.788 183.302 526.315 191.102C522.869 193.134 513.898 198.781 503.916 187.358C495.733 177.994 490.116 157.371 488.571 137.79C487.87 128.889 490.281 109.069 496.801 104.992Z" fill="#D9D9D9"/>
</mask>
<g mask="url(#mask6_4034_1026)">
<path d="M496.801 104.992C503.321 100.915 511.13 105.592 514.024 108.475C518.625 112.933 522.811 117.708 526.802 126.611C530.792 135.514 533.569 142.953 535.59 157.512C537.61 172.071 532.788 183.302 526.315 191.102C522.869 193.134 513.898 198.781 503.916 187.358C495.733 177.994 490.116 157.371 488.571 137.79C487.87 128.889 490.281 109.069 496.801 104.992Z" fill="#B1F3D0"/>
<mask id="mask7_4034_1026" style="mask-type:alpha" maskUnits="userSpaceOnUse" x="491" y="102" width="73" height="97">
<path d="M505.62 104.84C517.163 99.47 529.312 104.152 533.944 107.164C541.323 111.808 549.838 122.189 553.173 126.798C555.67 131.787 561.144 145.897 563.066 162.423C564.988 178.95 552.538 191.788 546.072 196.142C539.986 198.839 524.626 201.683 511.879 191.484C499.133 181.285 493.303 154.265 491.981 142.03C491.718 131.871 494.077 110.209 505.62 104.84Z" fill="#1D281A"/>
</mask>
<g mask="url(#mask7_4034_1026)">
<path d="M505.62 104.84C517.163 99.47 529.312 104.152 533.944 107.164C541.323 111.808 549.838 122.189 553.173 126.798C555.67 131.787 561.144 145.897 563.066 162.423C564.988 178.95 552.538 191.788 546.072 196.142C539.986 198.839 524.626 201.683 511.879 191.484C499.133 181.285 493.303 154.265 491.981 142.03C491.718 131.871 494.077 110.209 505.62 104.84Z" fill="#1D281A"/>
<g filter="url(#filter10_f_4034_1026)">
<path d="M503.19 102.156C510.452 100.812 517.104 108.008 519.523 111.774C523.39 117.645 527.372 128.604 528.88 133.349C529.861 138.184 531.708 151.427 531.248 165.72C530.788 180.013 522.28 187.336 518.084 189.211C514.268 189.808 505.018 188.013 498.545 176.058C492.073 164.103 491.254 140.005 491.654 129.451C492.474 120.913 495.929 103.501 503.19 102.156Z" fill="#594C3C"/>
</g>
<g filter="url(#filter11_d_4034_1026)">
<ellipse cx="6.70667" cy="11.173" rx="6.70667" ry="11.173" transform="matrix(0.914853 -0.403788 0.279268 0.960213 511.381 115.595)" fill="#FBFFFF"/>
</g>
</g>
</g>
</g>
<ellipse cx="373.624" cy="498.092" rx="14.0591" ry="9.37272" fill="url(#paint13_radial_4034_1026)"/>
<path d="M358.895 494.745C358.895 499.921 313.771 503.448 306.006 503.448C298.241 503.448 288.6 481.846 288.6 476.669C288.6 471.493 294.894 467.296 302.659 467.296C310.423 467.296 358.895 489.569 358.895 494.745Z" fill="black"/>
<mask id="mask8_4034_1026" style="mask-type:alpha" maskUnits="userSpaceOnUse" x="307" y="457" width="64" height="45">
<path d="M369.049 493.406C372.798 486.444 368.38 474.884 365.702 469.974L363.023 463.949C360.568 464.619 354.052 465.824 347.625 465.288C341.198 464.753 328.433 460.155 322.854 457.924C319.73 462.833 312.679 473.724 309.465 478.008C305.448 483.364 308.126 493.406 309.465 496.084C310.536 498.227 334.459 500.547 346.287 501.44C352.312 501.663 365.3 500.369 369.049 493.406Z" fill="#D9D9D9"/>
</mask>
<g mask="url(#mask8_4034_1026)">
<path d="M369.049 493.406C372.798 486.444 368.38 474.884 365.702 469.974L363.023 463.949C360.568 464.619 354.052 465.824 347.625 465.288C341.198 464.753 328.433 460.155 322.854 457.924C319.73 462.833 312.679 473.724 309.465 478.008C305.448 483.364 308.126 493.406 309.465 496.084C310.536 498.227 334.459 500.547 346.287 501.44C352.312 501.663 365.3 500.369 369.049 493.406Z" fill="url(#paint14_linear_4034_1026)"/>
<path d="M369.049 493.406C372.798 486.444 368.38 474.884 365.702 469.974L363.023 463.949C360.568 464.619 354.052 465.824 347.625 465.288C341.198 464.753 328.433 460.155 322.854 457.924C319.73 462.833 312.679 473.724 309.465 478.008C305.448 483.364 308.126 493.406 309.465 496.084C310.536 498.227 334.459 500.547 346.287 501.44C352.312 501.663 365.3 500.369 369.049 493.406Z" fill="url(#paint15_linear_4034_1026)"/>
<path d="M369.049 493.406C372.798 486.444 368.38 474.884 365.702 469.974L363.023 463.949C360.568 464.619 354.052 465.824 347.625 465.288C341.198 464.753 328.433 460.155 322.854 457.924C319.73 462.833 312.679 473.724 309.465 478.008C305.448 483.364 308.126 493.406 309.465 496.084C310.536 498.227 334.459 500.547 346.287 501.44C352.312 501.663 365.3 500.369 369.049 493.406Z" fill="url(#paint16_linear_4034_1026)"/>
<path d="M369.049 493.406C372.798 486.444 368.38 474.884 365.702 469.974L363.023 463.949C360.568 464.619 354.052 465.824 347.625 465.288C341.198 464.753 328.433 460.155 322.854 457.924C319.73 462.833 312.679 473.724 309.465 478.008C305.448 483.364 308.126 493.406 309.465 496.084C310.536 498.227 334.459 500.547 346.287 501.44C352.312 501.663 365.3 500.369 369.049 493.406Z" fill="url(#paint17_linear_4034_1026)"/>
<g filter="url(#filter12_f_4034_1026)">
<path d="M365.702 469.974C368.38 474.884 378.71 472.385 374.96 479.347C371.211 486.31 348.181 485.596 342.156 485.373C333.291 484.703 316.879 481.351 308.763 478.812C305.132 482.293 302.738 474.15 303.997 476.669C304.266 477.206 306.051 477.964 308.763 478.812C308.993 478.592 309.227 478.326 309.465 478.008C312.679 473.724 319.73 462.833 322.854 457.924C328.433 460.155 341.198 464.753 347.625 465.288C354.052 465.824 360.569 464.619 363.023 463.949L365.702 469.974Z" fill="black"/>
</g>
<g filter="url(#filter13_f_4034_1026)">
<path d="M333.454 497.424C328.099 496.888 314.263 494.522 308.014 493.407C307.345 495.192 306.407 499.432 308.014 502.11C310.023 505.457 327.428 497.424 332.115 500.101C336.801 502.779 354.208 500.101 361.572 497.424C367.463 495.281 374.739 491.398 376.301 487.381C372.284 489.39 363.849 493.407 362.242 493.407C360.234 493.407 340.149 498.093 333.454 497.424Z" fill="#20BA7B"/>
</g>
</g>
<path d="M470.694 484.704C470.694 489.88 442.976 492.068 435.211 492.068C427.446 492.068 411.779 481.846 411.779 476.67C411.779 471.493 418.074 467.297 425.838 467.297C433.603 467.297 470.694 479.528 470.694 484.704Z" fill="black"/>
<mask id="mask9_4034_1026" style="mask-type:alpha" maskUnits="userSpaceOnUse" x="430" y="457" width="46" height="34">
<path d="M474.71 486.712C478.459 479.749 466.007 481.58 463.329 476.67L468.685 465.958C466.23 466.628 465.07 458.46 458.643 457.924C452.216 457.389 451.614 460.156 446.035 457.924C442.911 462.834 434.408 466.36 431.195 470.645C427.178 476.001 436.551 481.356 437.89 484.034C438.961 486.177 442.799 488.498 454.627 489.39C460.652 489.613 470.961 493.674 474.71 486.712Z" fill="#D9D9D9"/>
</mask>
<g mask="url(#mask9_4034_1026)">
<path d="M476.526 484.402C479.326 479.202 476.026 470.569 474.026 466.902L472.025 462.402C470.192 462.902 465.325 463.802 460.525 463.402C455.725 463.002 446.192 459.569 442.025 457.902C439.692 461.569 434.426 469.702 432.026 472.902C429.026 476.902 431.026 484.402 432.026 486.402C432.826 488.002 450.693 489.735 459.526 490.402C464.026 490.569 473.726 489.602 476.526 484.402Z" fill="url(#paint18_linear_4034_1026)"/>
<path d="M476.526 484.402C479.326 479.202 476.026 470.569 474.026 466.902L472.025 462.402C470.192 462.902 465.325 463.802 460.525 463.402C455.725 463.002 446.192 459.569 442.025 457.902C439.692 461.569 434.426 469.702 432.026 472.902C429.026 476.902 431.026 484.402 432.026 486.402C432.826 488.002 450.693 489.735 459.526 490.402C464.026 490.569 473.726 489.602 476.526 484.402Z" fill="url(#paint19_linear_4034_1026)"/>
<path d="M476.526 484.402C479.326 479.202 476.026 470.569 474.026 466.902L472.025 462.402C470.192 462.902 465.325 463.802 460.525 463.402C455.725 463.002 446.192 459.569 442.025 457.902C439.692 461.569 434.426 469.702 432.026 472.902C429.026 476.902 431.026 484.402 432.026 486.402C432.826 488.002 450.693 489.735 459.526 490.402C464.026 490.569 473.726 489.602 476.526 484.402Z" fill="url(#paint20_linear_4034_1026)"/>
<path d="M476.526 484.402C479.326 479.202 476.026 470.569 474.026 466.902L472.025 462.402C470.192 462.902 465.325 463.802 460.525 463.402C455.725 463.002 446.192 459.569 442.025 457.902C439.692 461.569 434.426 469.702 432.026 472.902C429.026 476.902 431.026 484.402 432.026 486.402C432.826 488.002 450.693 489.735 459.526 490.402C464.026 490.569 473.726 489.602 476.526 484.402Z" fill="url(#paint21_linear_4034_1026)"/>
<g filter="url(#filter14_f_4034_1026)">
<path d="M474.025 466.902C476.025 470.569 483.739 468.702 480.939 473.902C478.139 479.102 460.939 478.569 456.439 478.402C449.819 477.902 437.562 475.399 431.5 473.502C428.788 476.102 427 470.021 427.941 471.902C428.141 472.303 429.475 472.869 431.5 473.502C431.672 473.338 431.847 473.139 432.025 472.902C434.425 469.702 439.691 461.569 442.024 457.902C446.191 459.569 455.724 463.002 460.524 463.402C465.324 463.802 470.191 462.902 472.024 462.402L474.025 466.902Z" fill="black"/>
</g>
<g filter="url(#filter15_f_4034_1026)">
<path d="M449.942 487.402C445.942 487.002 435.609 485.235 430.942 484.402C430.442 485.735 429.742 488.902 430.942 490.902C432.442 493.402 445.441 487.402 448.941 489.402C452.441 491.402 465.441 489.402 470.941 487.402C475.341 485.802 480.775 482.902 481.942 479.902C478.942 481.402 472.642 484.402 471.442 484.402C469.942 484.402 454.942 487.902 449.942 487.402Z" fill="#20BA7B"/>
</g>
</g>
<mask id="mask10_4034_1026" style="mask-type:alpha" maskUnits="userSpaceOnUse" x="455" y="479" width="35" height="19">
<path d="M489.439 491.398C489.439 496.575 482.475 497.424 474.71 497.424C466.946 497.424 455.965 496.575 455.965 491.398C455.965 486.222 468.954 479.348 476.719 479.348C484.483 479.348 489.439 486.222 489.439 491.398Z" fill="url(#paint22_radial_4034_1026)"/>
</mask>
<g mask="url(#mask10_4034_1026)">
<ellipse cx="474.711" cy="488.721" rx="20.0844" ry="13.3896" fill="url(#paint23_radial_4034_1026)"/>
<g filter="url(#filter16_f_4034_1026)">
<ellipse cx="460.651" cy="482.026" rx="14.0591" ry="9.37272" fill="black"/>
</g>
</g>
<mask id="mask11_4034_1026" style="mask-type:alpha" maskUnits="userSpaceOnUse" x="339" y="289" width="163" height="182">
<path d="M413.966 470.689C342.197 470.689 335.413 457.3 340.992 450.605L347.688 293.946C393.882 290.376 487.342 285.377 491.626 293.946C495.911 302.516 499.66 353.753 500.999 378.301V456.63C501.891 461.316 485.734 470.689 413.966 470.689Z" fill="url(#paint24_linear_4034_1026)"/>
</mask>
<g mask="url(#mask11_4034_1026)">
<path d="M413.966 470.689C342.197 470.689 335.413 457.3 340.992 450.605L347.688 293.946C393.882 290.376 487.342 285.377 491.626 293.946C495.911 302.516 499.66 353.753 500.999 378.301V456.63C501.891 461.316 485.734 470.689 413.966 470.689Z" fill="url(#paint25_linear_4034_1026)"/>
<mask id="mask12_4034_1026" style="mask-type:alpha" maskUnits="userSpaceOnUse" x="426" y="319" width="72" height="43">
<path d="M429.188 326.108L429.205 324.769L427.774 324.75L427.85 326.179L429.56 358.269L429.625 359.502L430.86 359.536L430.897 358.197C430.86 359.536 430.86 359.536 430.86 359.536L430.861 359.536L430.864 359.536L430.878 359.536L430.932 359.538L431.141 359.544C431.326 359.549 431.596 359.556 431.944 359.565C432.638 359.583 433.638 359.608 434.861 359.637C437.307 359.696 440.645 359.77 444.214 359.831C451.327 359.954 459.43 360.03 463.164 359.831C466.899 359.632 474.947 358.696 482.007 357.818C485.549 357.378 488.861 356.95 491.287 356.632C492.5 356.473 493.491 356.342 494.18 356.25C494.524 356.204 494.793 356.168 494.975 356.144L495.183 356.116L495.237 356.109L495.25 356.107L495.254 356.106L495.255 356.106C495.255 356.106 495.255 356.106 495.076 354.779L495.255 356.106L496.479 355.941L496.413 354.708L494.704 322.618L494.628 321.189L493.207 321.36L493.367 322.69C493.207 321.36 493.207 321.36 493.206 321.36L493.206 321.36L493.203 321.361L493.193 321.362L493.15 321.367L492.981 321.387C492.832 321.405 492.612 321.431 492.328 321.464C491.759 321.531 490.933 321.628 489.904 321.745C487.846 321.98 484.976 322.301 481.73 322.641C475.233 323.322 467.257 324.08 461.277 324.399C455.297 324.717 447.286 324.81 440.753 324.823C437.49 324.83 434.602 324.816 432.53 324.801C431.494 324.793 430.663 324.785 430.09 324.779C429.804 324.776 429.582 324.774 429.433 324.772L429.263 324.77L429.22 324.769L429.209 324.769L429.206 324.769L429.206 324.769C429.205 324.769 429.205 324.769 429.188 326.108Z" fill="#D9D9D9" stroke="#4BBD85" stroke-width="2.67792"/>
</mask>
<g mask="url(#mask12_4034_1026)">
<path d="M429.188 326.108L429.205 324.769L427.774 324.75L427.85 326.179L429.56 358.269L429.625 359.502L430.86 359.536L430.897 358.197C430.86 359.536 430.86 359.536 430.86 359.536L430.861 359.536L430.864 359.536L430.878 359.536L430.932 359.538L431.141 359.544C431.326 359.549 431.596 359.556 431.944 359.565C432.638 359.583 433.638 359.608 434.861 359.637C437.307 359.696 440.645 359.77 444.214 359.831C451.327 359.954 459.43 360.03 463.164 359.831C466.899 359.632 474.947 358.696 482.007 357.818C485.549 357.378 488.861 356.95 491.287 356.632C492.5 356.473 493.491 356.342 494.18 356.25C494.524 356.204 494.793 356.168 494.975 356.144L495.183 356.116L495.237 356.109L495.25 356.107L495.254 356.106L495.255 356.106C495.255 356.106 495.255 356.106 495.076 354.779L495.255 356.106L496.479 355.941L496.413 354.708L494.704 322.618L494.628 321.189L493.207 321.36L493.367 322.69C493.207 321.36 493.207 321.36 493.206 321.36L493.206 321.36L493.203 321.361L493.193 321.362L493.15 321.367L492.981 321.387C492.832 321.405 492.612 321.431 492.328 321.464C491.759 321.531 490.933 321.628 489.904 321.745C487.846 321.98 484.976 322.301 481.73 322.641C475.233 323.322 467.257 324.08 461.277 324.399C455.297 324.717 447.286 324.81 440.753 324.823C437.49 324.83 434.602 324.816 432.53 324.801C431.494 324.793 430.663 324.785 430.09 324.779C429.804 324.776 429.582 324.774 429.433 324.772L429.263 324.77L429.22 324.769L429.209 324.769L429.206 324.769L429.206 324.769C429.205 324.769 429.205 324.769 429.188 326.108Z" fill="#494D47" stroke="#4BBD85" stroke-width="2.67792"/>
<path d="M496.805 328.715C484.531 330.723 455.967 334.606 439.899 334.071M498.813 338.088C482.746 340.096 448.468 343.979 439.899 343.443M498.813 348.13C482.076 349.915 446.46 353.218 437.891 352.147" stroke="#4BBD85" stroke-width="1.33896"/>
</g>
<mask id="mask13_4034_1026" style="mask-type:alpha" maskUnits="userSpaceOnUse" x="424" y="385" width="86" height="42">
<path d="M427.846 391.716L427.834 390.379L426.418 390.363L426.508 391.776L428.564 423.865L428.644 425.114L429.897 425.143L429.902 423.806C429.897 425.143 429.897 425.143 429.897 425.143L429.898 425.143L429.903 425.143L429.919 425.144L429.983 425.145L430.236 425.151C430.457 425.156 430.783 425.163 431.2 425.172C432.035 425.19 433.238 425.215 434.709 425.245C437.65 425.303 441.664 425.377 445.956 425.438C454.518 425.561 464.245 425.637 468.716 425.439C473.187 425.241 482.849 424.307 491.347 423.429C495.606 422.988 499.589 422.56 502.506 422.243C503.965 422.084 505.157 421.952 505.985 421.861C506.399 421.815 506.722 421.779 506.942 421.754L507.192 421.726L507.256 421.719L507.272 421.717L507.276 421.717L507.277 421.717C507.277 421.717 507.277 421.717 507.102 420.388L507.277 421.717L508.52 421.577L508.44 420.328L506.384 388.239L506.293 386.826L504.886 386.967L505.046 388.298C504.886 386.967 504.886 386.967 504.886 386.967L504.885 386.967L504.882 386.968L504.869 386.969L504.818 386.974L504.614 386.994C504.435 387.012 504.17 387.038 503.828 387.071C503.144 387.138 502.149 387.235 500.911 387.352C498.433 387.588 494.98 387.908 491.074 388.248C483.257 388.93 473.653 389.689 466.446 390.008C459.239 390.327 449.592 390.42 441.732 390.433C437.805 390.44 434.33 390.426 431.837 390.411C430.59 390.403 429.589 390.395 428.9 390.389C428.555 390.386 428.289 390.384 428.108 390.382L427.904 390.38L427.852 390.379L427.839 390.379L427.835 390.379L427.835 390.379C427.834 390.379 427.834 390.379 427.846 391.716Z" fill="#D9D9D9" stroke="#4BBD85" stroke-width="2.67792"/>
</mask>
<g mask="url(#mask13_4034_1026)">
<path d="M427.846 391.716L427.834 390.379L426.418 390.363L426.508 391.776L428.564 423.865L428.644 425.114L429.897 425.143L429.902 423.806C429.897 425.143 429.897 425.143 429.897 425.143L429.898 425.143L429.903 425.143L429.919 425.144L429.983 425.145L430.236 425.151C430.457 425.156 430.783 425.163 431.2 425.172C432.035 425.19 433.238 425.215 434.709 425.245C437.65 425.303 441.664 425.377 445.956 425.438C454.518 425.561 464.245 425.637 468.716 425.439C473.187 425.241 482.849 424.307 491.347 423.429C495.606 422.988 499.589 422.56 502.506 422.243C503.965 422.084 505.157 421.952 505.985 421.861C506.399 421.815 506.722 421.779 506.942 421.754L507.192 421.726L507.256 421.719L507.272 421.717L507.276 421.717L507.277 421.717C507.277 421.717 507.277 421.717 507.102 420.388L507.277 421.717L508.52 421.577L508.44 420.328L506.384 388.239L506.293 386.826L504.886 386.967L505.046 388.298C504.886 386.967 504.886 386.967 504.886 386.967L504.885 386.967L504.882 386.968L504.869 386.969L504.818 386.974L504.614 386.994C504.435 387.012 504.17 387.038 503.828 387.071C503.144 387.138 502.149 387.235 500.911 387.352C498.433 387.588 494.98 387.908 491.074 388.248C483.257 388.93 473.653 389.689 466.446 390.008C459.239 390.327 449.592 390.42 441.732 390.433C437.805 390.44 434.33 390.426 431.837 390.411C430.59 390.403 429.589 390.395 428.9 390.389C428.555 390.386 428.289 390.384 428.108 390.382L427.904 390.38L427.852 390.379L427.839 390.379L427.835 390.379L427.835 390.379C427.834 390.379 427.834 390.379 427.846 391.716Z" fill="#494D47" stroke="#4BBD85" stroke-width="2.67792"/>
<path d="M509.182 394.324C494.418 396.332 460.058 400.215 440.73 399.68M511.598 403.696C492.27 405.705 451.038 409.588 440.73 409.052M511.598 413.739C491.465 415.524 448.622 418.827 438.314 417.756" stroke="#4BBD85" stroke-width="1.33896"/>
</g>
</g>
<path d="M500.152 461.941V455.246L504.169 394.323L506.847 378.925C508.632 395.662 512.337 432.216 512.872 444.534C513.408 456.853 511.31 468.859 510.195 473.322L500.152 461.941Z" fill="url(#paint26_linear_4034_1026)"/>
<g filter="url(#filter17_d_4034_1026)">
<path d="M497.473 461.272C500.151 393.788 493.456 312.87 489.439 289.215C494.26 289.215 499.482 305.283 501.49 313.317C504.614 338.311 510.729 391.78 510.193 405.705C509.658 419.63 503.722 455.023 501.49 463.28L497.473 461.272Z" fill="#00D29F"/>
</g>
<mask id="mask14_4034_1026" style="mask-type:alpha" maskUnits="userSpaceOnUse" x="251" y="289" width="141" height="179">
<path d="M391.027 430.241V290.989C358.892 289.65 290.739 287.776 275.207 290.989C259.675 294.203 252.668 381.146 251.105 424.216C253.337 426.224 269.851 436.133 318.053 459.698C366.256 483.264 386.787 449.879 391.027 430.241Z" fill="#03C087"/>
</mask>
<g mask="url(#mask14_4034_1026)">
<path d="M391.027 430.241V290.989C358.892 289.65 290.739 287.776 275.207 290.989C259.675 294.203 252.668 381.146 251.105 424.216C253.337 426.224 269.851 436.133 318.053 459.698C366.256 483.264 386.787 449.879 391.027 430.241Z" fill="#03C087"/>
<g filter="url(#filter18_f_4034_1026)">
<path d="M387.01 407.044V279.842H393.705V336.748V401.688C394.598 410.837 395.848 430.475 393.705 435.831C391.027 442.526 375.629 461.941 368.265 467.297C362.374 471.581 342.155 477.116 332.782 479.347C326.98 479.124 323.276 475.331 354.875 461.941C386.475 448.551 389.465 419.764 387.01 407.044Z" fill="#4ADEB6"/>
</g>
</g>
<g filter="url(#filter19_d_4034_1026)">
<path d="M271.271 281.182C271.271 281.182 412.014 288.068 492.036 281.182C492.036 281.182 498.25 288.068 492.036 293.577C393.387 301.84 271.271 293.577 271.271 293.577C265.067 288.068 271.271 281.182 271.271 281.182Z" fill="#D9D9D9"/>
</g>
<g filter="url(#filter20_d_4034_1026)">
<path d="M271.271 281.182C271.271 281.182 412.014 288.068 492.036 281.182C492.036 281.182 498.25 288.068 492.036 293.577C393.387 301.84 271.271 293.577 271.271 293.577C265.067 288.068 271.271 281.182 271.271 281.182Z" fill="url(#paint27_linear_4034_1026)"/>
</g>
<mask id="mask15_4034_1026" style="mask-type:alpha" maskUnits="userSpaceOnUse" x="268" y="281" width="227" height="17">
<path d="M271.271 281.182C271.271 281.182 412.014 288.068 492.036 281.182C492.036 281.182 498.25 288.068 492.036 293.577C393.387 301.84 271.271 293.577 271.271 293.577C265.067 288.068 271.271 281.182 271.271 281.182Z" fill="#D9D9D9"/>
</mask>
<g mask="url(#mask15_4034_1026)">
<g filter="url(#filter21_f_4034_1026)">
<path d="M362.241 290.554C314.574 291.625 277.217 286.091 264.497 283.19C262.712 278.95 259.543 269.934 261.15 267.792C263.158 265.114 295.963 264.445 323.412 270.47C345.371 275.29 454.407 272.478 506.18 270.47C507.965 274.71 510.063 283.592 504.171 285.198C496.807 287.207 421.825 289.215 362.241 290.554Z" fill="#69FCDE"/>
</g>
</g>
<g clip-path="url(#clip0_4034_1026)">
<path d="M328.038 385.846L328.461 380.16C328.628 377.918 326.961 375.784 324.745 375.403C322.53 375.022 320.591 376.537 320.424 378.779L320.041 383.913C319.581 390.1 316.885 395.654 312.452 399.55L306.34 404.922C305.826 405.373 305.808 406.201 306.299 406.771C306.789 407.341 307.603 407.437 308.117 406.986L314.229 401.614C319.123 397.313 322.098 391.183 322.607 384.354L322.989 379.22C323.049 378.408 323.751 377.861 324.552 377.998C325.354 378.136 325.957 378.908 325.896 379.719L325.473 385.406C324.905 393.02 321.574 399.837 316.093 404.601L310.139 409.776C309.623 410.224 309.601 411.052 310.089 411.624C310.318 411.892 310.618 412.056 310.926 412.109C311.275 412.169 311.633 412.086 311.907 411.848L317.861 406.673C323.808 401.504 327.422 394.108 328.038 385.846Z" fill="white" fill-opacity="0.69"/>
<path d="M333.931 381.101C334.325 375.806 330.389 370.766 325.155 369.867C319.922 368.967 315.343 372.544 314.949 377.839L314.566 382.974C314.208 387.791 312.109 392.114 308.658 395.147L304.312 398.966C303.799 399.418 303.78 400.246 304.271 400.816C304.762 401.386 305.576 401.481 306.09 401.031L310.435 397.211C314.347 393.774 316.725 388.874 317.132 383.414L317.514 378.28C317.802 374.416 321.143 371.806 324.962 372.462C328.781 373.118 331.654 376.796 331.366 380.66L330.942 386.347C330.272 395.341 326.337 403.394 319.862 409.022L314.839 413.388C314.323 413.837 314.3 414.664 314.788 415.236C315.017 415.505 315.318 415.669 315.625 415.722C315.974 415.782 316.332 415.699 316.607 415.46L321.63 411.094C328.571 405.061 332.789 396.429 333.507 386.788L333.931 381.101Z" fill="white" fill-opacity="0.69"/>
<path d="M304.006 375.958C303.952 376.675 304.483 377.355 305.192 377.477C305.9 377.598 306.517 377.116 306.571 376.399C306.896 372.029 308.779 368.077 311.872 365.271C314.936 362.491 318.966 361.022 323.22 361.133C323.929 361.151 324.465 360.577 324.417 359.851C324.369 359.124 323.755 358.52 323.047 358.501C318.179 358.374 313.57 360.053 310.068 363.231C306.531 366.44 304.378 370.96 304.006 375.958Z" fill="white" fill-opacity="0.69"/>
<path d="M306.185 381.533C306.238 380.816 305.707 380.137 304.999 380.015C304.291 379.893 303.673 380.375 303.62 381.092C303.465 383.169 302.56 385.033 301.073 386.34L297.592 389.399C297.079 389.85 297.06 390.678 297.551 391.248C297.78 391.514 298.078 391.676 298.384 391.729C298.735 391.789 299.095 391.704 299.37 391.463L302.85 388.404C304.798 386.692 305.982 384.252 306.185 381.533Z" fill="white" fill-opacity="0.69"/>
<path d="M333.307 364.446C333.479 364.562 333.664 364.635 333.848 364.667C334.328 364.749 334.808 364.555 335.062 364.126C335.415 363.531 335.201 362.71 334.585 362.292C332.803 361.084 330.884 360.146 328.88 359.504C328.185 359.282 327.5 359.662 327.346 360.354C327.193 361.046 327.63 361.788 328.324 362.01C330.074 362.571 331.751 363.391 333.307 364.446Z" fill="white" fill-opacity="0.69"/>
<path d="M326.391 353.255C325.911 353.173 325.425 353.103 324.945 353.047C324.235 352.965 323.648 353.484 323.633 354.206C323.619 354.929 324.183 355.584 324.894 355.663C325.326 355.713 325.765 355.776 326.198 355.85C339.069 358.062 348.751 370.457 347.781 383.481L347.357 389.167C347.304 389.884 347.835 390.564 348.543 390.686C349.252 390.807 349.869 390.325 349.923 389.608L350.346 383.922C351.423 369.467 340.677 355.71 326.391 353.255Z" fill="white" fill-opacity="0.69"/>
<path d="M311.846 357.887C312.099 357.93 312.36 357.898 312.594 357.78C314.84 356.645 317.267 355.927 319.808 355.644C320.505 355.567 320.955 354.918 320.814 354.195C320.673 353.473 319.994 352.95 319.299 353.027C316.476 353.34 313.781 354.138 311.289 355.397C310.677 355.706 310.473 356.49 310.834 357.148C311.056 357.554 311.44 357.817 311.846 357.887Z" fill="white" fill-opacity="0.69"/>
<path d="M300.716 380.593L301.099 375.459C301.548 369.421 304.236 364.06 308.667 360.362C309.192 359.924 309.229 359.098 308.75 358.518C308.271 357.938 307.458 357.823 306.933 358.261C302.016 362.365 299.033 368.316 298.533 375.018L298.151 380.152C298.098 380.859 297.791 381.493 297.285 381.937L295.571 383.443C295.057 383.895 295.039 384.723 295.53 385.293C295.758 385.558 296.057 385.721 296.362 385.773C296.713 385.834 297.074 385.749 297.348 385.508L299.062 384.001C300.028 383.152 300.616 381.942 300.716 380.593Z" fill="white" fill-opacity="0.69"/>
<path d="M354.944 374.477C353.852 370.005 351.901 365.8 349.145 361.977C348.705 361.367 347.896 361.192 347.339 361.588C346.781 361.983 346.685 362.798 347.125 363.408C349.657 366.92 351.449 370.782 352.451 374.887C352.591 375.46 353.065 375.888 353.6 375.98C353.736 376.003 353.876 376.005 354.015 375.982C354.703 375.869 355.119 375.195 354.944 374.477Z" fill="white" fill-opacity="0.69"/>
<path d="M336.814 351.158C336.161 350.811 335.405 351.047 335.125 351.686C334.845 352.325 335.148 353.124 335.801 353.471C338.556 354.936 341.105 356.811 343.379 359.044C343.596 359.257 343.859 359.387 344.126 359.433C344.516 359.5 344.916 359.386 345.193 359.088C345.66 358.587 345.604 357.753 345.068 357.227C342.593 354.796 339.816 352.754 336.814 351.158Z" fill="white" fill-opacity="0.69"/>
<path d="M306.082 355.006C311.867 350.699 319.159 349.032 326.615 350.313C327.999 350.551 329.384 350.891 330.73 351.324C331.424 351.548 332.111 351.166 332.265 350.474C332.419 349.782 331.982 349.041 331.288 348.818C329.822 348.347 328.315 347.977 326.808 347.718C318.688 346.322 310.746 348.137 304.446 352.827C298.166 357.503 294.173 364.54 293.203 372.641C293.117 373.352 293.62 374.052 294.325 374.206C294.345 374.21 294.364 374.214 294.384 374.218C295.066 374.335 295.674 373.889 295.756 373.198C296.647 365.761 300.314 359.3 306.082 355.006Z" fill="white" fill-opacity="0.69"/>
<path d="M327.216 342.181C324.348 341.688 321.465 341.533 318.647 341.721C317.946 341.767 317.467 342.394 317.578 343.119C317.69 343.844 318.349 344.395 319.05 344.348C321.671 344.174 324.354 344.317 327.023 344.776C336.428 346.392 344.924 351.692 350.947 359.699C351.179 360.008 351.506 360.199 351.843 360.257C352.162 360.312 352.491 360.247 352.758 360.048C353.306 359.639 353.383 358.82 352.931 358.219C349.793 354.047 346.003 350.538 341.667 347.79C337.176 344.944 332.314 343.056 327.216 342.181Z" fill="white" fill-opacity="0.69"/>
<path d="M297.206 353.392C297.427 353.618 297.699 353.756 297.975 353.804C298.356 353.869 298.746 353.763 299.023 353.48C303.03 349.383 308.118 346.505 313.737 345.154C314.412 344.992 314.779 344.286 314.557 343.578C314.335 342.869 313.608 342.425 312.933 342.588C306.895 344.039 301.428 347.132 297.123 351.532C296.644 352.022 296.681 352.854 297.206 353.392Z" fill="white" fill-opacity="0.69"/>
<path d="M309.349 340.289C309.536 340.321 309.729 340.312 309.915 340.255C315.512 338.544 321.408 338.203 327.439 339.239C330.581 339.779 333.684 340.691 336.659 341.95C337.335 342.235 338.06 341.926 338.277 341.257C338.495 340.589 338.123 339.815 337.447 339.529C334.279 338.189 330.977 337.218 327.632 336.644C321.212 335.54 314.934 335.904 308.974 337.726C308.313 337.928 307.988 338.658 308.248 339.356C308.434 339.858 308.872 340.207 309.349 340.289Z" fill="white" fill-opacity="0.69"/>
<path d="M341.888 344.593C343.17 345.353 344.433 346.191 345.642 347.082C345.826 347.218 346.027 347.302 346.23 347.336C346.69 347.415 347.153 347.241 347.416 346.841C347.794 346.265 347.615 345.438 347.014 344.995C345.727 344.046 344.382 343.154 343.016 342.345C342.378 341.967 341.608 342.164 341.296 342.784C340.984 343.405 341.249 344.215 341.888 344.593Z" fill="white" fill-opacity="0.69"/>
<path fill-rule="evenodd" clip-rule="evenodd" d="M339.237 366.438C338.746 365.868 337.931 365.772 337.418 366.224C336.905 366.676 336.887 367.503 337.378 368.073C340.895 372.153 342.694 377.426 342.313 382.54L341.889 388.227C341.792 389.536 341.64 390.841 341.435 392.13C342.292 392.056 343.177 392.044 344.079 392.097C344.243 390.962 344.369 389.816 344.454 388.668L344.878 382.981C345.314 377.132 343.257 371.102 339.237 366.438ZM331.41 403.952C331.718 404.984 332.198 405.964 332.799 406.873C330.777 410.09 328.297 412.999 325.404 415.514L324.014 416.723C323.74 416.961 323.382 417.044 323.033 416.984C322.725 416.931 322.424 416.767 322.196 416.499C321.707 415.927 321.73 415.099 322.246 414.651L323.636 413.442C326.761 410.727 329.372 407.521 331.41 403.952ZM335.356 394.01C336.265 393.454 337.253 393.027 338.325 392.709C338.636 391.08 338.856 389.417 338.982 387.728L339.406 382.041C340.028 373.692 333.821 365.747 325.57 364.329C317.319 362.911 310.101 368.55 309.479 376.899L309.097 382.033C308.84 385.48 307.338 388.574 304.869 390.744L300.956 394.183C300.442 394.634 300.424 395.462 300.915 396.032C301.405 396.602 302.22 396.698 302.733 396.247L306.646 392.808C309.576 390.233 311.357 386.563 311.662 382.474L312.044 377.339C312.559 370.422 318.54 365.75 325.377 366.925C332.213 368.099 337.356 374.683 336.841 381.6L336.417 387.287C336.246 389.587 335.889 391.834 335.356 394.01Z" fill="white" fill-opacity="0.69"/>
<path fill-rule="evenodd" clip-rule="evenodd" d="M357.126 405.192C356.797 409.617 351.316 412.308 344.886 411.203C338.455 410.098 333.509 405.615 333.839 401.191C334.168 396.766 339.649 394.075 346.079 395.18C352.51 396.285 357.456 400.768 357.126 405.192ZM343.154 402.791C343.096 403.572 342.423 404.098 341.651 403.965C340.88 403.832 340.301 403.092 340.359 402.311C340.417 401.53 341.09 401.005 341.862 401.137C342.634 401.27 343.212 402.011 343.154 402.791ZM350.035 405.406C350.806 405.538 351.479 405.013 351.537 404.232C351.595 403.451 351.017 402.711 350.245 402.578C349.474 402.445 348.801 402.971 348.743 403.752C348.685 404.533 349.263 405.273 350.035 405.406Z" fill="white" fill-opacity="0.69"/>
</g>
<defs>
<filter id="filter0_f_4034_1026" x="183.982" y="442.374" width="334.408" height="107.706" filterUnits="userSpaceOnUse" color-interpolation-filters="sRGB">
<feFlood flood-opacity="0" result="BackgroundImageFix"/>
<feBlend mode="normal" in="SourceGraphic" in2="BackgroundImageFix" result="shape"/>
<feGaussianBlur stdDeviation="14.7286" result="effect1_foregroundBlur_4034_1026"/>
</filter>
<filter id="filter1_f_4034_1026" x="41.575" y="-74.8576" width="400.309" height="360.178" filterUnits="userSpaceOnUse" color-interpolation-filters="sRGB">
<feFlood flood-opacity="0" result="BackgroundImageFix"/>
<feBlend mode="normal" in="SourceGraphic" in2="BackgroundImageFix" result="shape"/>
<feGaussianBlur stdDeviation="15.398" result="effect1_foregroundBlur_4034_1026"/>
</filter>
<filter id="filter2_f_4034_1026" x="450.558" y="98.7183" width="236.199" height="244.555" filterUnits="userSpaceOnUse" color-interpolation-filters="sRGB">
<feFlood flood-opacity="0" result="BackgroundImageFix"/>
<feBlend mode="normal" in="SourceGraphic" in2="BackgroundImageFix" result="shape"/>
<feGaussianBlur stdDeviation="14.0591" result="effect1_foregroundBlur_4034_1026"/>
</filter>
<filter id="filter3_f_4034_1026" x="341.609" y="-7.18109" width="251.581" height="160.462" filterUnits="userSpaceOnUse" color-interpolation-filters="sRGB">
<feFlood flood-opacity="0" result="BackgroundImageFix"/>
<feBlend mode="normal" in="SourceGraphic" in2="BackgroundImageFix" result="shape"/>
<feGaussianBlur stdDeviation="10.0422" result="effect1_foregroundBlur_4034_1026"/>
</filter>
<filter id="filter4_f_4034_1026" x="347.511" y="198.835" width="209.548" height="28.5735" filterUnits="userSpaceOnUse" color-interpolation-filters="sRGB">
<feFlood flood-opacity="0" result="BackgroundImageFix"/>
<feBlend mode="normal" in="SourceGraphic" in2="BackgroundImageFix" result="shape"/>
<feGaussianBlur stdDeviation="2.67792" result="effect1_foregroundBlur_4034_1026"/>
</filter>
<filter id="filter5_di_4034_1026" x="385.002" y="97.2897" width="93.7419" height="120.818" filterUnits="userSpaceOnUse" color-interpolation-filters="sRGB">
<feFlood flood-opacity="0" result="BackgroundImageFix"/>
<feColorMatrix in="SourceAlpha" type="matrix" values="0 0 0 0 0 0 0 0 0 0 0 0 0 0 0 0 0 0 127 0" result="hardAlpha"/>
<feOffset dx="-8.03376" dy="6.6948"/>
<feGaussianBlur stdDeviation="6.02532"/>
<feComposite in2="hardAlpha" operator="out"/>
<feColorMatrix type="matrix" values="0 0 0 0 0.67451 0 0 0 0 0.427451 0 0 0 0 0.294118 0 0 0 0.74 0"/>
<feBlend mode="normal" in2="BackgroundImageFix" result="effect1_dropShadow_4034_1026"/>
<feBlend mode="normal" in="SourceGraphic" in2="effect1_dropShadow_4034_1026" result="shape"/>
<feColorMatrix in="SourceAlpha" type="matrix" values="0 0 0 0 0 0 0 0 0 0 0 0 0 0 0 0 0 0 127 0" result="hardAlpha"/>
<feOffset dx="1.2396"/>
<feGaussianBlur stdDeviation="1.2396"/>
<feComposite in2="hardAlpha" operator="arithmetic" k2="-1" k3="1"/>
<feColorMatrix type="matrix" values="0 0 0 0 0 0 0 0 0 0 0 0 0 0 0 0 0 0 0.67 0"/>
<feBlend mode="normal" in2="shape" result="effect2_innerShadow_4034_1026"/>
</filter>
<filter id="filter6_f_4034_1026" x="400.433" y="94.265" width="77.8967" height="107.315" filterUnits="userSpaceOnUse" color-interpolation-filters="sRGB">
<feFlood flood-opacity="0" result="BackgroundImageFix"/>
<feBlend mode="normal" in="SourceGraphic" in2="BackgroundImageFix" result="shape"/>
<feGaussianBlur stdDeviation="3.7188" result="effect1_foregroundBlur_4034_1026"/>
</filter>
<filter id="filter7_f_4034_1026" x="410.019" y="103.536" width="39.3634" height="50.6153" filterUnits="userSpaceOnUse" color-interpolation-filters="sRGB">
<feFlood flood-opacity="0" result="BackgroundImageFix"/>
<feBlend mode="normal" in="SourceGraphic" in2="BackgroundImageFix" result="shape"/>
<feGaussianBlur stdDeviation="1.8594" result="effect1_foregroundBlur_4034_1026"/>
</filter>
<filter id="filter8_d_4034_1026" x="445.184" y="114.085" width="31.0574" height="33.4153" filterUnits="userSpaceOnUse" color-interpolation-filters="sRGB">
<feFlood flood-opacity="0" result="BackgroundImageFix"/>
<feColorMatrix in="SourceAlpha" type="matrix" values="0 0 0 0 0 0 0 0 0 0 0 0 0 0 0 0 0 0 127 0" result="hardAlpha"/>
<feOffset dy="3.7188"/>
<feGaussianBlur stdDeviation="2.4792"/>
<feComposite in2="hardAlpha" operator="out"/>
<feColorMatrix type="matrix" values="0 0 0 0 0 0 0 0 0 0 0 0 0 0 0 0 0 0 0.68 0"/>
<feBlend mode="normal" in2="BackgroundImageFix" result="effect1_dropShadow_4034_1026"/>
<feBlend mode="normal" in="SourceGraphic" in2="effect1_dropShadow_4034_1026" result="shape"/>
</filter>
<filter id="filter9_di_4034_1026" x="483.097" y="103.395" width="58.3132" height="106.973" filterUnits="userSpaceOnUse" color-interpolation-filters="sRGB">
<feFlood flood-opacity="0" result="BackgroundImageFix"/>
<feColorMatrix in="SourceAlpha" type="matrix" values="0 0 0 0 0 0 0 0 0 0 0 0 0 0 0 0 0 0 127 0" result="hardAlpha"/>
<feOffset dy="10.7117"/>
<feGaussianBlur stdDeviation="2.67792"/>
<feComposite in2="hardAlpha" operator="out"/>
<feColorMatrix type="matrix" values="0 0 0 0 0.698039 0 0 0 0 0.545098 0 0 0 0 0.380392 0 0 0 1 0"/>
<feBlend mode="normal" in2="BackgroundImageFix" result="effect1_dropShadow_4034_1026"/>
<feBlend mode="normal" in="SourceGraphic" in2="effect1_dropShadow_4034_1026" result="shape"/>
<feColorMatrix in="SourceAlpha" type="matrix" values="0 0 0 0 0 0 0 0 0 0 0 0 0 0 0 0 0 0 127 0" result="hardAlpha"/>
<feOffset dx="1.2396"/>
<feGaussianBlur stdDeviation="1.2396"/>
<feComposite in2="hardAlpha" operator="arithmetic" k2="-1" k3="1"/>
<feColorMatrix type="matrix" values="0 0 0 0 0 0 0 0 0 0 0 0 0 0 0 0 0 0 0.67 0"/>
<feBlend mode="normal" in2="shape" result="effect2_innerShadow_4034_1026"/>
</filter>
<filter id="filter10_f_4034_1026" x="484.133" y="94.5536" width="54.6252" height="102.195" filterUnits="userSpaceOnUse" color-interpolation-filters="sRGB">
<feFlood flood-opacity="0" result="BackgroundImageFix"/>
<feBlend mode="normal" in="SourceGraphic" in2="BackgroundImageFix" result="shape"/>
<feGaussianBlur stdDeviation="3.7188" result="effect1_foregroundBlur_4034_1026"/>
</filter>
<filter id="filter11_d_4034_1026" x="508.794" y="111.308" width="23.6863" height="32.0521" filterUnits="userSpaceOnUse" color-interpolation-filters="sRGB">
<feFlood flood-opacity="0" result="BackgroundImageFix"/>
<feColorMatrix in="SourceAlpha" type="matrix" values="0 0 0 0 0 0 0 0 0 0 0 0 0 0 0 0 0 0 127 0" result="hardAlpha"/>
<feOffset dy="3.7188"/>
<feGaussianBlur stdDeviation="2.4792"/>
<feComposite in2="hardAlpha" operator="out"/>
<feColorMatrix type="matrix" values="0 0 0 0 0 0 0 0 0 0 0 0 0 0 0 0 0 0 0.68 0"/>
<feBlend mode="normal" in2="BackgroundImageFix" result="effect1_dropShadow_4034_1026"/>
<feBlend mode="normal" in="SourceGraphic" in2="effect1_dropShadow_4034_1026" result="shape"/>
</filter>
<filter id="filter12_f_4034_1026" x="299.641" y="453.907" width="80.147" height="35.6153" filterUnits="userSpaceOnUse" color-interpolation-filters="sRGB">
<feFlood flood-opacity="0" result="BackgroundImageFix"/>
<feBlend mode="normal" in="SourceGraphic" in2="BackgroundImageFix" result="shape"/>
<feGaussianBlur stdDeviation="2.00844" result="effect1_foregroundBlur_4034_1026"/>
</filter>
<filter id="filter13_f_4034_1026" x="301.771" y="482.026" width="79.8855" height="26.2708" filterUnits="userSpaceOnUse" color-interpolation-filters="sRGB">
<feFlood flood-opacity="0" result="BackgroundImageFix"/>
<feBlend mode="normal" in="SourceGraphic" in2="BackgroundImageFix" result="shape"/>
<feGaussianBlur stdDeviation="2.67792" result="effect1_foregroundBlur_4034_1026"/>
</filter>
<filter id="filter14_f_4034_1026" x="424.688" y="454.902" width="59.8574" height="26.5991" filterUnits="userSpaceOnUse" color-interpolation-filters="sRGB">
<feFlood flood-opacity="0" result="BackgroundImageFix"/>
<feBlend mode="normal" in="SourceGraphic" in2="BackgroundImageFix" result="shape"/>
<feGaussianBlur stdDeviation="1.5" result="effect1_foregroundBlur_4034_1026"/>
</filter>
<filter id="filter15_f_4034_1026" x="426.279" y="475.902" width="59.6621" height="19.6201" filterUnits="userSpaceOnUse" color-interpolation-filters="sRGB">
<feFlood flood-opacity="0" result="BackgroundImageFix"/>
<feBlend mode="normal" in="SourceGraphic" in2="BackgroundImageFix" result="shape"/>
<feGaussianBlur stdDeviation="2" result="effect1_foregroundBlur_4034_1026"/>
</filter>
<filter id="filter16_f_4034_1026" x="441.236" y="467.297" width="38.8308" height="29.4573" filterUnits="userSpaceOnUse" color-interpolation-filters="sRGB">
<feFlood flood-opacity="0" result="BackgroundImageFix"/>
<feBlend mode="normal" in="SourceGraphic" in2="BackgroundImageFix" result="shape"/>
<feGaussianBlur stdDeviation="2.67792" result="effect1_foregroundBlur_4034_1026"/>
</filter>
<filter id="filter17_d_4034_1026" x="486.762" y="287.876" width="23.465" height="176.743" filterUnits="userSpaceOnUse" color-interpolation-filters="sRGB">
<feFlood flood-opacity="0" result="BackgroundImageFix"/>
<feColorMatrix in="SourceAlpha" type="matrix" values="0 0 0 0 0 0 0 0 0 0 0 0 0 0 0 0 0 0 127 0" result="hardAlpha"/>
<feOffset dx="-1.33896"/>
<feGaussianBlur stdDeviation="0.66948"/>
<feComposite in2="hardAlpha" operator="out"/>
<feColorMatrix type="matrix" values="0 0 0 0 0 0 0 0 0 0 0 0 0 0 0 0 0 0 0.25 0"/>
<feBlend mode="normal" in2="BackgroundImageFix" result="effect1_dropShadow_4034_1026"/>
<feBlend mode="normal" in="SourceGraphic" in2="effect1_dropShadow_4034_1026" result="shape"/>
</filter>
<filter id="filter18_f_4034_1026" x="324.864" y="275.825" width="74.0416" height="207.539" filterUnits="userSpaceOnUse" color-interpolation-filters="sRGB">
<feFlood flood-opacity="0" result="BackgroundImageFix"/>
<feBlend mode="normal" in="SourceGraphic" in2="BackgroundImageFix" result="shape"/>
<feGaussianBlur stdDeviation="2.00844" result="effect1_foregroundBlur_4034_1026"/>
</filter>
<filter id="filter19_d_4034_1026" x="261.819" y="279.843" width="239.675" height="29.457" filterUnits="userSpaceOnUse" color-interpolation-filters="sRGB">
<feFlood flood-opacity="0" result="BackgroundImageFix"/>
<feColorMatrix in="SourceAlpha" type="matrix" values="0 0 0 0 0 0 0 0 0 0 0 0 0 0 0 0 0 0 127 0" result="hardAlpha"/>
<feOffset dy="5.35584"/>
<feGaussianBlur stdDeviation="3.3474"/>
<feComposite in2="hardAlpha" operator="out"/>
<feColorMatrix type="matrix" values="0 0 0 0 0 0 0 0 0 0 0 0 0 0 0 0 0 0 0.44 0"/>
<feBlend mode="normal" in2="BackgroundImageFix" result="effect1_dropShadow_4034_1026"/>
<feBlend mode="normal" in="SourceGraphic" in2="effect1_dropShadow_4034_1026" result="shape"/>
</filter>
<filter id="filter20_d_4034_1026" x="265.836" y="277.165" width="231.641" height="21.4232" filterUnits="userSpaceOnUse" color-interpolation-filters="sRGB">
<feFlood flood-opacity="0" result="BackgroundImageFix"/>
<feColorMatrix in="SourceAlpha" type="matrix" values="0 0 0 0 0 0 0 0 0 0 0 0 0 0 0 0 0 0 127 0" result="hardAlpha"/>
<feOffset dy="-1.33896"/>
<feGaussianBlur stdDeviation="1.33896"/>
<feComposite in2="hardAlpha" operator="out"/>
<feColorMatrix type="matrix" values="0 0 0 0 0 0 0 0 0 0 0 0 0 0 0 0 0 0 0.41 0"/>
<feBlend mode="normal" in2="BackgroundImageFix" result="effect1_dropShadow_4034_1026"/>
<feBlend mode="normal" in="SourceGraphic" in2="effect1_dropShadow_4034_1026" result="shape"/>
</filter>
<filter id="filter21_f_4034_1026" x="254.014" y="259.128" width="260.735" height="38.2568" filterUnits="userSpaceOnUse" color-interpolation-filters="sRGB">
<feFlood flood-opacity="0" result="BackgroundImageFix"/>
<feBlend mode="normal" in="SourceGraphic" in2="BackgroundImageFix" result="shape"/>
<feGaussianBlur stdDeviation="3.3474" result="effect1_foregroundBlur_4034_1026"/>
</filter>
<linearGradient id="paint0_linear_4034_1026" x1="168.606" y1="336.868" x2="5.94853" y2="225.931" gradientUnits="userSpaceOnUse">
<stop stop-color="#1F2A4B"/>
<stop offset="1" stop-color="#2C4C6D"/>
</linearGradient>
<linearGradient id="paint1_linear_4034_1026" x1="85.4879" y1="327.725" x2="205.809" y2="488.913" gradientUnits="userSpaceOnUse">
<stop stop-color="#2C4F6A"/>
<stop offset="0.0001" stop-color="#263456"/>
<stop offset="1" stop-color="#283B5F"/>
</linearGradient>
<linearGradient id="paint2_linear_4034_1026" x1="199.477" y1="493.839" x2="72.0303" y2="339.193" gradientUnits="userSpaceOnUse">
<stop stop-color="#1B2340"/>
<stop offset="1" stop-color="#212E50"/>
</linearGradient>
<linearGradient id="paint3_linear_4034_1026" x1="92.194" y1="221.456" x2="-12.0247" y2="119.637" gradientUnits="userSpaceOnUse">
<stop stop-color="#1F2A4B"/>
<stop offset="1" stop-color="#2C4C6D"/>
</linearGradient>
<linearGradient id="paint4_linear_4034_1026" x1="385.001" y1="5.73334e-06" x2="309.35" y2="285.199" gradientUnits="userSpaceOnUse">
<stop stop-color="#40E3B8"/>
<stop offset="1" stop-color="#005840"/>
</linearGradient>
<linearGradient id="paint5_linear_4034_1026" x1="385.001" y1="5.73334e-06" x2="309.35" y2="285.199" gradientUnits="userSpaceOnUse">
<stop stop-color="#40E3B8"/>
<stop offset="1" stop-color="#005840"/>
</linearGradient>
<linearGradient id="paint6_linear_4034_1026" x1="454.628" y1="28.7874" x2="260.478" y2="269.8" gradientUnits="userSpaceOnUse">
<stop stop-color="#1DB084"/>
<stop offset="1" stop-color="#003A28"/>
</linearGradient>
<linearGradient id="paint7_linear_4034_1026" x1="458.643" y1="31.6378" x2="264.494" y2="272.651" gradientUnits="userSpaceOnUse">
<stop stop-color="#1DB084"/>
<stop offset="1" stop-color="#003A28"/>
</linearGradient>
<linearGradient id="paint8_linear_4034_1026" x1="552.796" y1="76.1312" x2="394.038" y2="309.302" gradientUnits="userSpaceOnUse">
<stop stop-color="#1DB084"/>
<stop offset="1" stop-color="#003A28"/>
</linearGradient>
<linearGradient id="paint9_linear_4034_1026" x1="552.773" y1="76.1335" x2="394.016" y2="309.304" gradientUnits="userSpaceOnUse">
<stop stop-color="#1DB084"/>
<stop offset="1" stop-color="#003A28"/>
</linearGradient>
<linearGradient id="paint10_linear_4034_1026" x1="459.291" y1="130.55" x2="393.012" y2="281.183" gradientUnits="userSpaceOnUse">
<stop stop-color="#FDECCA"/>
<stop offset="1" stop-color="#E3A578"/>
</linearGradient>
<linearGradient id="paint11_linear_4034_1026" x1="529.609" y1="241.012" x2="360.9" y2="245.029" gradientUnits="userSpaceOnUse">
<stop stop-color="#04764E"/>
<stop offset="0.510682" stop-color="#009968"/>
<stop offset="1" stop-color="#04764E"/>
</linearGradient>
<linearGradient id="paint12_linear_4034_1026" x1="529.609" y1="241.012" x2="360.9" y2="245.029" gradientUnits="userSpaceOnUse">
<stop stop-color="#04764E"/>
<stop offset="0.510682" stop-color="#009968"/>
<stop offset="1" stop-color="#04764E"/>
</linearGradient>
<radialGradient id="paint13_radial_4034_1026" cx="0" cy="0" r="1" gradientUnits="userSpaceOnUse" gradientTransform="translate(373.624 498.092) rotate(90) scale(9.37272 14.0591)">
<stop stop-color="#A3784E"/>
<stop offset="1" stop-color="#62482A"/>
</radialGradient>
<linearGradient id="paint14_linear_4034_1026" x1="313.369" y1="482.025" x2="367.597" y2="492.067" gradientUnits="userSpaceOnUse">
<stop stop-color="#001708"/>
<stop offset="1" stop-color="#006B3D"/>
</linearGradient>
<linearGradient id="paint15_linear_4034_1026" x1="313.369" y1="482.025" x2="367.597" y2="492.067" gradientUnits="userSpaceOnUse">
<stop stop-color="#001708"/>
<stop offset="1" stop-color="#006B3D"/>
</linearGradient>
<linearGradient id="paint16_linear_4034_1026" x1="313.369" y1="482.025" x2="367.597" y2="492.067" gradientUnits="userSpaceOnUse">
<stop stop-color="#001708"/>
<stop offset="1" stop-color="#006B3D"/>
</linearGradient>
<linearGradient id="paint17_linear_4034_1026" x1="313.369" y1="482.025" x2="367.597" y2="492.067" gradientUnits="userSpaceOnUse">
<stop stop-color="#001708"/>
<stop offset="1" stop-color="#006B3D"/>
</linearGradient>
<linearGradient id="paint18_linear_4034_1026" x1="434.941" y1="475.902" x2="475.441" y2="483.402" gradientUnits="userSpaceOnUse">
<stop stop-color="#001708"/>
<stop offset="1" stop-color="#006B3D"/>
</linearGradient>
<linearGradient id="paint19_linear_4034_1026" x1="434.941" y1="475.902" x2="475.441" y2="483.402" gradientUnits="userSpaceOnUse">
<stop stop-color="#001708"/>
<stop offset="1" stop-color="#006B3D"/>
</linearGradient>
<linearGradient id="paint20_linear_4034_1026" x1="434.941" y1="475.902" x2="475.441" y2="483.402" gradientUnits="userSpaceOnUse">
<stop stop-color="#001708"/>
<stop offset="1" stop-color="#006B3D"/>
</linearGradient>
<linearGradient id="paint21_linear_4034_1026" x1="434.941" y1="475.902" x2="475.441" y2="483.402" gradientUnits="userSpaceOnUse">
<stop stop-color="#001708"/>
<stop offset="1" stop-color="#006B3D"/>
</linearGradient>
<radialGradient id="paint22_radial_4034_1026" cx="0" cy="0" r="1" gradientUnits="userSpaceOnUse" gradientTransform="translate(474.71 491.398) rotate(90) scale(9.37272 14.0591)">
<stop stop-color="#A3784E"/>
<stop offset="1" stop-color="#62482A"/>
</radialGradient>
<radialGradient id="paint23_radial_4034_1026" cx="0" cy="0" r="1" gradientUnits="userSpaceOnUse" gradientTransform="translate(474.711 488.721) rotate(90) scale(13.3896 20.0844)">
<stop stop-color="#A3784E"/>
<stop offset="1" stop-color="#62482A"/>
</radialGradient>
<linearGradient id="paint24_linear_4034_1026" x1="497.474" y1="326.036" x2="366.256" y2="465.288" gradientUnits="userSpaceOnUse">
<stop stop-color="#4F433B"/>
<stop offset="1" stop-color="#141B13"/>
</linearGradient>
<linearGradient id="paint25_linear_4034_1026" x1="497.474" y1="326.036" x2="366.256" y2="465.288" gradientUnits="userSpaceOnUse">
<stop stop-color="#4F433B"/>
<stop offset="1" stop-color="#141B13"/>
</linearGradient>
<linearGradient id="paint26_linear_4034_1026" x1="506.847" y1="454.577" x2="511.534" y2="470.644" gradientUnits="userSpaceOnUse">
<stop stop-color="#004A2D"/>
<stop offset="1" stop-color="#00724D"/>
</linearGradient>
<linearGradient id="paint27_linear_4034_1026" x1="493.459" y1="287.207" x2="268.514" y2="291.224" gradientUnits="userSpaceOnUse">
<stop stop-color="#11CA8A"/>
<stop offset="1" stop-color="#006C4D"/>
</linearGradient>
<clipPath id="clip0_4034_1026">
<rect width="80.3376" height="80.3376" fill="white" transform="matrix(0.985556 0.16935 -0.0742825 0.997237 287.27 329.709)"/>
</clipPath>
</defs>
</svg>
