<svg width="25" height="31" viewBox="0 0 25 31" fill="none" xmlns="http://www.w3.org/2000/svg">
<path d="M20.4973 16.4324C20.5118 15.3084 20.8104 14.2063 21.3653 13.2287C21.9201 12.2511 22.7132 11.4297 23.6708 10.841C23.0625 9.97214 22.26 9.25714 21.327 8.75274C20.394 8.24835 19.3562 7.96845 18.2961 7.93528C16.0347 7.69792 13.8424 9.28845 12.6901 9.28845C11.5154 9.28845 9.74116 7.95885 7.83061 7.99816C6.59481 8.03808 5.39042 8.39745 4.3348 9.04123C3.27918 9.68502 2.40832 10.5913 1.80708 11.6717C-0.797371 16.1809 1.14531 22.8079 3.64016 26.4528C4.88839 28.2376 6.3472 30.2313 8.25603 30.1606C10.1239 30.0831 10.8216 28.9695 13.0763 28.9695C15.3101 28.9695 15.9646 30.1606 17.9122 30.1156C19.9165 30.0831 21.1794 28.3229 22.3838 26.5212C23.2806 25.2494 23.9708 23.8439 24.4286 22.3566C23.2641 21.8641 22.2704 21.0397 21.5713 19.9862C20.8722 18.9327 20.4987 17.6967 20.4973 16.4324Z" fill="#ECD79F"/>
<path d="M16.8193 5.5381C17.9121 4.22617 18.4506 2.5399 18.3202 0.837402C16.6505 1.01277 15.1083 1.81074 14.0006 3.07234C13.4591 3.68866 13.0443 4.40568 12.78 5.18239C12.5158 5.95911 12.4072 6.7803 12.4604 7.59901C13.2956 7.60761 14.1218 7.4266 14.8768 7.06962C15.6318 6.71263 16.296 6.18898 16.8193 5.5381Z" fill="#ECD79F"/>
</svg>
