<svg width="579" height="606" viewBox="0 0 579 606" fill="none" xmlns="http://www.w3.org/2000/svg">
<g filter="url(#filter0_f_4059_1417)">
<ellipse cx="155.828" cy="26.4314" rx="155.828" ry="26.4314" transform="matrix(-0.998764 -0.049707 -0.0498737 0.998756 547.082 526.203)" fill="black"/>
</g>
<mask id="mask0_4059_1417" style="mask-type:alpha" maskUnits="userSpaceOnUse" x="178" y="0" width="364" height="307">
<path d="M540.413 198.209C535.774 256.811 494.986 295.124 475.172 306.955H248.28C239.339 294.62 217.689 264.665 202.611 243.52C164.917 203.646 179.173 139.305 191.013 112.118C200.195 90.218 240.74 29.2232 329.377 6.53674C424.13 -17.7152 481.938 30.3071 510.692 72.0938C522.532 89.7147 545.052 139.607 540.413 198.209Z" fill="url(#paint0_linear_4059_1417)"/>
</mask>
<g mask="url(#mask0_4059_1417)">
<path d="M540.413 198.209C535.774 256.811 494.986 295.124 475.172 306.955H248.28C239.339 294.62 217.689 264.664 202.611 243.519C164.917 203.646 179.173 139.304 191.013 112.118C200.195 90.2177 239.146 36.4489 321.494 -3.42468C403.843 -43.2982 481.938 30.3067 510.692 72.0934C522.532 89.7143 545.052 139.607 540.413 198.209Z" fill="url(#paint1_linear_4059_1417)"/>
<g filter="url(#filter1_f_4059_1417)">
<path d="M502.612 105.179C518.079 181.489 596.218 282.779 648.315 271.319C700.413 259.859 706.295 139.954 690.829 63.6439C675.363 -12.6666 392.334 -74.6863 340.236 -63.2266C288.138 -51.767 487.146 28.8683 502.612 105.179Z" fill="#7AE1EE"/>
</g>
</g>
<mask id="mask1_4059_1417" style="mask-type:alpha" maskUnits="userSpaceOnUse" x="182" y="66" width="149" height="213">
<path d="M237.034 274.737C226.853 272.925 213.293 253.444 206.148 244.885C180.694 204.105 182.777 186.378 182.776 175.808C182.775 165.239 184.592 133.984 204.139 104.422C231.602 62.8869 257.726 65.9095 274.472 67.419C301.935 71.1949 318.085 82.1628 327.462 93.4905C336.84 104.818 323.443 254.347 320.094 269.451C316.745 284.555 249.761 277.003 237.034 274.737Z" fill="#011003"/>
</mask>
<g mask="url(#mask1_4059_1417)">
<path d="M237.034 274.737C226.853 272.925 210.017 255.354 202.872 246.795C183.582 217.192 182.777 186.377 182.776 175.808C182.775 165.239 184.311 127.53 201.46 99.1351C222.895 63.6417 259.067 60.6176 274.472 61.3761C289.877 62.1345 325.38 77.2348 334.758 88.5625C344.136 99.8903 323.443 254.347 320.094 269.451C316.745 284.554 249.761 277.002 237.034 274.737Z" fill="#011003"/>
<g filter="url(#filter2_f_4059_1417)">
<path d="M181.659 339.206C172.82 343.248 151.418 337.571 141.822 334.227C112.89 319.69 97.9092 293.995 92.9869 285.032C88.0645 276.068 75.469 247.292 75.7138 213.812C76.0199 171.962 105.302 155.068 117.753 147.269C130.204 139.471 173.968 118.77 177.347 133.118C208.822 266.787 251.028 256.968 255.718 290.195C257.873 305.467 192.708 334.154 181.659 339.206Z" fill="#005430"/>
</g>
</g>
<mask id="mask2_4059_1417" style="mask-type:alpha" maskUnits="userSpaceOnUse" x="196" y="74" width="193" height="234">
<path d="M366.833 130.805C411.766 189.335 374.415 274.399 354.039 306.588H245.294C233.448 294.266 233.603 281.755 210.403 237.571C179.106 177.967 208.247 104.032 255.892 81.4011C304.958 61.0332 339.909 95.7334 366.833 130.805Z" fill="#D9D9D9" stroke="url(#paint2_linear_4059_1417)" stroke-width="1.51036"/>
</mask>
<g mask="url(#mask2_4059_1417)">
<path d="M365.628 130.466C406.778 193.901 373.696 274.202 352.011 306.423H236.276C223.669 294.088 217.297 279.628 184.837 240.722C131.609 176.923 183.257 79.5046 236.276 68.5409C262.247 62.7512 324.477 67.0305 365.628 130.466Z" stroke="url(#paint3_linear_4059_1417)" stroke-width="1.51036"/>
<path d="M367.425 130.168C405.955 193.77 374.98 274.283 354.676 306.589H246.312C234.507 294.221 246.893 282.386 216.501 243.378C166.662 179.411 218.562 87.037 268.204 76.0444C292.521 70.2394 328.895 66.5655 367.425 130.168Z" fill="url(#paint4_linear_4059_1417)"/>
<g filter="url(#filter3_f_4059_1417)">
<path d="M203.682 119.529C253.305 74.8224 334.8 92.8461 369.345 107.446C378.926 90.5805 387.953 47.9379 347.408 12.2933C306.862 -23.3512 192.335 29.6625 140.14 60.6249C140.645 98.8875 154.059 164.236 203.682 119.529Z" fill="#492B18"/>
<path d="M203.682 119.529C253.305 74.8224 334.8 92.8461 369.345 107.446C378.926 90.5805 387.953 47.9379 347.408 12.2933C306.862 -23.3512 192.335 29.6625 140.14 60.6249C140.645 98.8875 154.059 164.236 203.682 119.529Z" stroke="black" stroke-width="1.51036"/>
</g>
</g>
<mask id="mask3_4059_1417" style="mask-type:alpha" maskUnits="userSpaceOnUse" x="188" y="220" width="196" height="87">
<path d="M383.701 220.72C258.385 235.069 188.376 222.986 188.376 222.986C190.056 227.819 226.88 280.38 245.083 306.056L354.297 306.811C375.3 274.338 385.101 225.251 383.701 220.72Z" fill="url(#paint5_linear_4059_1417)"/>
</mask>
<g mask="url(#mask3_4059_1417)">
<path d="M383.701 220.72C258.385 235.069 188.376 222.986 188.376 222.986C190.056 227.819 226.88 280.38 245.083 306.056L354.297 306.811C375.3 274.338 385.101 225.251 383.701 220.72Z" fill="url(#paint6_linear_4059_1417)"/>
<g filter="url(#filter4_f_4059_1417)">
<path d="M186.272 229.783C245.64 241.865 344.026 232.3 385.798 226.007L387.898 215.434C379.264 216.441 351.914 219.21 311.589 222.231C271.263 225.251 207.042 220.972 179.972 218.455L186.272 229.783Z" fill="#2DDDB2"/>
</g>
</g>
<g filter="url(#filter5_di_4059_1417)">
<mask id="mask4_4059_1417" style="mask-type:alpha" maskUnits="userSpaceOnUse" x="270" y="143" width="32" height="44">
<path d="M291.384 143.374C286.274 142.044 281.38 144.853 279.713 146.424C277.047 148.864 274.714 151.415 273.048 155.851C271.382 160.287 270.382 163.947 270.826 170.823C271.271 177.699 276.103 182.468 281.657 185.518C284.342 186.165 291.378 188.013 296.936 181.913C301.493 176.913 302.802 166.941 301.379 157.792C300.731 153.633 296.494 144.705 291.384 143.374Z" fill="#D9D9D9"/>
</mask>
<g mask="url(#mask4_4059_1417)">
<path d="M291.384 143.374C286.274 142.044 281.38 144.853 279.713 146.424C277.047 148.864 274.714 151.415 273.048 155.851C271.382 160.287 270.382 163.947 270.826 170.823C271.271 177.699 276.103 182.468 281.657 185.518C284.342 186.165 291.378 188.013 296.936 181.913C301.493 176.913 302.802 166.941 301.379 157.792C300.731 153.633 296.494 144.705 291.384 143.374Z" fill="#B1F3D0"/>
<mask id="mask5_4059_1417" style="mask-type:alpha" maskUnits="userSpaceOnUse" x="269" y="143" width="31" height="45">
<path d="M290.592 144.027C285.073 142.589 280.093 145.624 278.293 147.321C275.413 149.957 272.493 155.207 271.393 157.504C270.693 159.899 269.413 166.548 269.893 173.975C270.373 181.402 276.893 186.054 280.093 187.452C282.993 188.15 289.992 188.17 294.792 182.66C299.592 177.149 299.992 164.791 299.592 159.3C298.892 154.808 296.112 145.464 290.592 144.027Z" fill="#1D281A"/>
</mask>
<g mask="url(#mask5_4059_1417)">
<path d="M290.592 144.027C285.073 142.589 280.093 145.624 278.293 147.321C275.413 149.957 272.493 155.207 271.393 157.504C270.693 159.899 269.413 166.548 269.893 173.975C270.373 181.402 276.893 186.054 280.093 187.452C282.993 188.15 289.992 188.17 294.792 182.66C299.592 177.149 299.992 164.791 299.592 159.3C298.892 154.808 296.112 145.464 290.592 144.027Z" fill="#1D281A"/>
<g filter="url(#filter6_f_4059_1417)">
<path d="M286.524 142.605C281.243 142.595 277.485 146.468 276.266 148.406C274.297 151.435 272.9 156.817 272.448 159.13C272.378 161.439 272.775 167.694 274.931 174.24C277.087 180.785 284.012 183.444 287.204 183.956C289.966 183.911 296.244 182.307 299.265 176.257C302.286 170.207 299.773 159.038 298.139 154.209C296.468 150.345 291.805 142.615 286.524 142.605Z" fill="#594C3C"/>
</g>
<g filter="url(#filter7_f_4059_1417)">
<path d="M284.421 163.161C286.399 160.228 292.072 154.467 295.539 150.513L298.038 149.126C298.131 147.463 297.76 144.357 295.539 145.245C293.364 146.113 286.591 159.052 284.421 163.161C284.181 163.518 283.995 163.833 283.874 164.098C283.573 164.76 283.82 164.299 284.421 163.161Z" fill="#413A2C"/>
</g>
<g filter="url(#filter8_d_4059_1417)">
<ellipse cx="4.72109" cy="5.2681" rx="4.72109" ry="5.2681" transform="matrix(-0.98789 -0.155157 -0.155666 0.98781 299.736 155.772)" fill="#FBFFFF"/>
</g>
</g>
</g>
</g>
<g filter="url(#filter9_di_4059_1417)">
<mask id="mask6_4059_1417" style="mask-type:alpha" maskUnits="userSpaceOnUse" x="221" y="143" width="32" height="44">
<path d="M241.751 143.374C236.641 142.044 231.747 144.853 230.081 146.424C227.414 148.864 225.082 151.415 223.415 155.851C221.749 160.287 220.749 163.947 221.193 170.823C221.638 177.699 226.47 182.468 232.025 185.518C234.709 186.165 241.745 188.013 247.303 181.913C251.861 176.913 253.169 166.941 251.746 157.792C251.098 153.633 246.861 144.705 241.751 143.374Z" fill="#D9D9D9"/>
</mask>
<g mask="url(#mask6_4059_1417)">
<path d="M241.751 143.374C236.641 142.044 231.747 144.853 230.081 146.424C227.414 148.864 225.082 151.415 223.415 155.851C221.749 160.287 220.749 163.947 221.193 170.823C221.638 177.699 226.47 182.468 232.025 185.518C234.709 186.165 241.745 188.013 247.303 181.913C251.861 176.913 253.169 166.941 251.746 157.792C251.098 153.633 246.861 144.705 241.751 143.374Z" fill="#B1F3D0"/>
<mask id="mask7_4059_1417" style="mask-type:alpha" maskUnits="userSpaceOnUse" x="220" y="143" width="31" height="45">
<path d="M240.959 144.027C235.44 142.589 230.46 145.624 228.66 147.321C225.78 149.957 222.86 155.207 221.761 157.504C221.061 159.899 219.781 166.548 220.261 173.975C220.741 181.402 227.26 186.054 230.46 187.452C233.36 188.15 240.359 188.17 245.159 182.66C249.959 177.149 250.359 164.791 249.959 159.3C249.259 154.808 246.479 145.464 240.959 144.027Z" fill="#1D281A"/>
</mask>
<g mask="url(#mask7_4059_1417)">
<path d="M240.959 144.027C235.44 142.589 230.46 145.624 228.66 147.321C225.78 149.957 222.86 155.207 221.761 157.504C221.061 159.899 219.781 166.548 220.261 173.975C220.741 181.402 227.26 186.054 230.46 187.452C233.36 188.15 240.359 188.17 245.159 182.66C249.959 177.149 250.359 164.791 249.959 159.3C249.259 154.808 246.479 145.464 240.959 144.027Z" fill="#1D281A"/>
<g filter="url(#filter10_f_4059_1417)">
<path d="M236.891 142.605C231.61 142.595 227.852 146.468 226.633 148.406C224.664 151.435 223.268 156.817 222.815 159.13C222.745 161.439 223.143 167.694 225.299 174.24C227.455 180.785 234.379 183.444 237.572 183.956C240.333 183.911 246.611 182.307 249.632 176.257C252.654 170.207 250.14 159.038 248.506 154.209C246.835 150.345 242.172 142.615 236.891 142.605Z" fill="#594C3C"/>
</g>
<g filter="url(#filter11_f_4059_1417)">
<path d="M234.789 163.161C236.767 160.228 242.439 154.467 245.906 150.513L248.405 149.126C248.498 147.463 248.128 144.357 245.906 145.245C243.731 146.113 236.958 159.052 234.789 163.161C234.548 163.518 234.362 163.833 234.241 164.098C233.94 164.76 234.188 164.299 234.789 163.161Z" fill="#413A2C"/>
</g>
<g filter="url(#filter12_d_4059_1417)">
<ellipse cx="4.72109" cy="5.2681" rx="4.72109" ry="5.2681" transform="matrix(-0.98789 -0.155157 -0.155666 0.98781 250.104 155.772)" fill="#FBFFFF"/>
</g>
</g>
</g>
</g>
<ellipse cx="15.8854" cy="10.5725" rx="15.8854" ry="10.5725" transform="matrix(-1 0 0 1 380.664 536.387)" fill="url(#paint7_radial_4059_1417)"/>
<path d="M381.42 543.184C381.42 549.023 432.407 553.001 441.18 553.001C449.953 553.001 460.848 528.633 460.848 522.794C460.848 516.955 453.736 512.221 444.962 512.221C436.189 512.221 381.42 537.345 381.42 543.184Z" fill="black"/>
<mask id="mask8_4059_1417" style="mask-type:alpha" maskUnits="userSpaceOnUse" x="368" y="501" width="72" height="50">
<path d="M369.947 541.673C365.711 533.819 370.703 520.78 373.729 515.242L376.756 508.445C379.529 509.2 386.892 510.56 394.154 509.955C401.416 509.351 415.839 504.166 422.143 501.648C425.672 507.186 433.64 519.471 437.271 524.304C441.81 530.345 438.784 541.673 437.271 544.694C436.061 547.11 409.03 549.728 395.666 550.735C388.858 550.987 374.183 549.527 369.947 541.673Z" fill="#D9D9D9"/>
</mask>
<g mask="url(#mask8_4059_1417)">
<path d="M369.947 541.673C365.711 533.819 370.703 520.78 373.729 515.242L376.756 508.445C379.529 509.2 386.892 510.56 394.154 509.955C401.416 509.351 415.839 504.166 422.143 501.648C425.672 507.186 433.64 519.471 437.271 524.304C441.81 530.345 438.784 541.673 437.271 544.694C436.061 547.11 409.03 549.728 395.666 550.735C388.858 550.987 374.183 549.527 369.947 541.673Z" fill="url(#paint8_linear_4059_1417)"/>
<path d="M369.947 541.673C365.711 533.819 370.703 520.78 373.729 515.242L376.756 508.445C379.529 509.2 386.892 510.56 394.154 509.955C401.416 509.351 415.839 504.166 422.143 501.648C425.672 507.186 433.64 519.471 437.271 524.304C441.81 530.345 438.784 541.673 437.271 544.694C436.061 547.11 409.03 549.728 395.666 550.735C388.858 550.987 374.183 549.527 369.947 541.673Z" fill="url(#paint9_linear_4059_1417)"/>
<path d="M369.947 541.673C365.711 533.819 370.703 520.78 373.729 515.242L376.756 508.445C379.529 509.2 386.892 510.56 394.154 509.955C401.416 509.351 415.839 504.166 422.143 501.648C425.672 507.186 433.64 519.471 437.271 524.304C441.81 530.345 438.784 541.673 437.271 544.694C436.061 547.11 409.03 549.728 395.666 550.735C388.858 550.987 374.183 549.527 369.947 541.673Z" fill="url(#paint10_linear_4059_1417)"/>
<path d="M369.947 541.673C365.711 533.819 370.703 520.78 373.729 515.242L376.756 508.445C379.529 509.2 386.892 510.56 394.154 509.955C401.416 509.351 415.839 504.166 422.143 501.648C425.672 507.186 433.64 519.471 437.271 524.304C441.81 530.345 438.784 541.673 437.271 544.694C436.061 547.11 409.03 549.728 395.666 550.735C388.858 550.987 374.183 549.527 369.947 541.673Z" fill="url(#paint11_linear_4059_1417)"/>
<g filter="url(#filter13_f_4059_1417)">
<path d="M373.729 515.242C370.703 520.78 359.031 517.96 363.267 525.814C367.503 533.668 393.525 532.863 400.333 532.611C410.35 531.856 428.893 528.075 438.064 525.211C442.167 529.138 444.872 519.952 443.449 522.794C443.146 523.399 441.128 524.254 438.064 525.211C437.805 524.963 437.54 524.663 437.27 524.304C433.639 519.471 425.672 507.186 422.142 501.648C415.838 504.166 401.415 509.351 394.153 509.955C386.892 510.56 379.529 509.2 376.755 508.445L373.729 515.242Z" fill="black"/>
</g>
<g filter="url(#filter14_f_4059_1417)">
<path d="M410.165 546.205C416.216 545.601 431.849 542.932 438.91 541.674C439.666 543.687 440.725 548.47 438.91 551.491C436.64 555.267 416.973 546.205 411.678 549.225C406.383 552.246 386.715 549.225 378.394 546.205C371.738 543.788 363.517 539.408 361.752 534.877C366.291 537.142 375.822 541.674 377.637 541.674C379.907 541.674 402.6 546.96 410.165 546.205Z" fill="#20BA7B"/>
</g>
</g>
<path d="M255.098 531.858C255.098 537.697 286.417 540.165 295.19 540.165C303.964 540.165 321.666 528.634 321.666 522.795C321.666 516.956 314.554 512.222 305.781 512.222C297.007 512.222 255.098 526.019 255.098 531.858Z" fill="black"/>
<mask id="mask9_4059_1417" style="mask-type:alpha" maskUnits="userSpaceOnUse" x="249" y="501" width="52" height="38">
<path d="M250.561 534.122C246.325 526.268 260.395 528.333 263.42 522.795L257.369 510.712C260.142 511.467 261.454 502.254 268.716 501.65C275.977 501.046 276.657 504.167 282.961 501.649C286.491 507.187 296.098 511.165 299.729 515.998C304.268 522.04 293.677 528.081 292.164 531.102C290.954 533.519 286.617 536.137 273.253 537.143C266.445 537.395 254.797 541.976 250.561 534.122Z" fill="#D9D9D9"/>
</mask>
<g mask="url(#mask9_4059_1417)">
<path d="M248.606 531.517C245.448 525.651 249.17 515.913 251.426 511.777L253.683 506.701C255.751 507.265 261.24 508.28 266.655 507.829C272.069 507.377 282.823 503.505 287.523 501.625C290.155 505.761 296.095 514.935 298.803 518.545C302.187 523.057 299.931 531.517 298.803 533.773C297.9 535.578 277.746 537.533 267.782 538.285C262.706 538.473 251.765 537.382 248.606 531.517Z" fill="url(#paint12_linear_4059_1417)"/>
<path d="M248.606 531.517C245.448 525.651 249.17 515.913 251.426 511.777L253.683 506.701C255.751 507.265 261.24 508.28 266.655 507.829C272.069 507.377 282.823 503.505 287.523 501.625C290.155 505.761 296.095 514.935 298.803 518.545C302.187 523.057 299.931 531.517 298.803 533.773C297.9 535.578 277.746 537.533 267.782 538.285C262.706 538.473 251.765 537.382 248.606 531.517Z" fill="url(#paint13_linear_4059_1417)"/>
<path d="M248.606 531.517C245.448 525.651 249.17 515.913 251.426 511.777L253.683 506.701C255.751 507.265 261.24 508.28 266.655 507.829C272.069 507.377 282.823 503.505 287.523 501.625C290.155 505.761 296.095 514.935 298.803 518.545C302.187 523.057 299.931 531.517 298.803 533.773C297.9 535.578 277.746 537.533 267.782 538.285C262.706 538.473 251.765 537.382 248.606 531.517Z" fill="url(#paint14_linear_4059_1417)"/>
<path d="M248.606 531.517C245.448 525.651 249.17 515.913 251.426 511.777L253.683 506.701C255.751 507.265 261.24 508.28 266.655 507.829C272.069 507.377 282.823 503.505 287.523 501.625C290.155 505.761 296.095 514.935 298.803 518.545C302.187 523.057 299.931 531.517 298.803 533.773C297.9 535.578 277.746 537.533 267.782 538.285C262.706 538.473 251.765 537.382 248.606 531.517Z" fill="url(#paint15_linear_4059_1417)"/>
<g filter="url(#filter15_f_4059_1417)">
<path d="M251.425 511.777C249.169 515.913 240.466 513.807 243.625 519.673C246.783 525.538 266.185 524.937 271.261 524.749C278.729 524.185 292.555 521.361 299.392 519.222C302.452 522.155 304.469 515.295 303.408 517.417C303.182 517.869 301.677 518.507 299.392 519.222C299.199 519.037 299.002 518.813 298.801 518.545C296.094 514.935 290.153 505.761 287.521 501.625C282.821 503.505 272.068 507.377 266.653 507.829C261.239 508.28 255.749 507.265 253.681 506.701L251.425 511.777Z" fill="black"/>
</g>
<g filter="url(#filter16_f_4059_1417)">
<path d="M278.592 534.901C283.104 534.449 294.76 532.456 300.024 531.516C300.588 533.02 301.378 536.593 300.024 538.849C298.332 541.669 283.668 534.901 279.72 537.157C275.772 539.413 261.108 537.157 254.904 534.901C249.941 533.096 243.812 529.824 242.496 526.44C245.88 528.132 252.986 531.516 254.34 531.516C256.032 531.516 272.952 535.465 278.592 534.901Z" fill="#20BA7B"/>
</g>
</g>
<mask id="mask10_4059_1417" style="mask-type:alpha" maskUnits="userSpaceOnUse" x="233" y="525" width="39" height="22">
<path d="M233.92 539.409C233.92 545.248 241.788 546.205 250.562 546.205C259.335 546.205 271.742 545.248 271.742 539.409C271.742 533.57 257.066 525.815 248.292 525.815C239.519 525.815 233.92 533.57 233.92 539.409Z" fill="url(#paint16_radial_4059_1417)"/>
</mask>
<g mask="url(#mask10_4059_1417)">
<ellipse cx="22.6935" cy="15.1036" rx="22.6935" ry="15.1036" transform="matrix(-1 0 0 1 273.254 521.285)" fill="url(#paint17_radial_4059_1417)"/>
<g filter="url(#filter17_f_4059_1417)">
<ellipse cx="15.8854" cy="10.5725" rx="15.8854" ry="10.5725" transform="matrix(-1 0 0 1 282.332 518.264)" fill="black"/>
</g>
</g>
<mask id="mask11_4059_1417" style="mask-type:alpha" maskUnits="userSpaceOnUse" x="221" y="310" width="183" height="259">
<path d="M319.571 568.119C400.749 568.119 408.422 549.143 402.112 539.655L394.538 317.638C342.288 312.578 236.575 305.494 231.729 317.638C226.882 329.783 222.642 402.397 221.127 437.186V548.194C220.118 554.836 238.394 568.119 319.571 568.119Z" fill="url(#paint18_linear_4059_1417)"/>
</mask>
<g mask="url(#mask11_4059_1417)">
<path d="M319.571 574.887C400.749 574.887 408.422 555.412 402.112 545.674L394.538 317.815C342.288 312.621 236.575 305.351 231.729 317.815C226.882 330.279 222.642 404.804 221.127 440.508V554.438C220.118 561.255 238.394 574.887 319.571 574.887Z" fill="url(#paint19_linear_4059_1417)"/>
</g>
<path d="M221.811 506.18V498.628L217.272 429.907L214.246 412.538C212.229 431.417 208.043 472.65 207.438 486.545C206.833 500.441 209.203 513.984 210.464 519.018L221.811 506.18Z" fill="url(#paint20_linear_4059_1417)"/>
<g filter="url(#filter18_d_4059_1417)">
<path d="M224.777 556.231C221.871 460.02 229.137 344.657 233.496 310.932C228.265 310.932 222.597 333.839 220.417 345.293C217.027 380.927 210.39 457.157 210.972 477.01C211.553 496.863 217.995 547.323 220.417 559.095L224.777 556.231Z" fill="#00D29F"/>
</g>
<mask id="mask12_4059_1417" style="mask-type:alpha" maskUnits="userSpaceOnUse" x="345" y="311" width="161" height="266">
<path d="M345.111 461.125V313.345C381.42 311.834 458.427 309.72 475.976 313.345C493.526 316.97 503.583 500.923 505.348 549.507C502.826 551.772 454.343 545.485 399.879 572.067C345.414 598.649 349.901 483.277 345.111 461.125Z" fill="#03C087"/>
</mask>
<g mask="url(#mask12_4059_1417)">
<path d="M345.111 550.635V313.345C381.42 311.834 458.427 309.72 475.976 313.345C493.526 316.97 523.323 509.383 525.088 557.967C522.566 560.232 482.028 557.28 427.564 583.863C373.099 610.445 349.902 572.787 345.111 550.635Z" fill="#03C087"/>
<g filter="url(#filter19_f_4059_1417)">
<path d="M349.652 444.255V300.771H342.087V364.961V438.214C341.078 448.535 339.666 470.687 342.087 476.728C345.113 484.28 351.614 564.171 359.935 570.212C366.592 575.046 389.437 581.288 400.027 583.806C406.583 583.554 410.769 579.275 375.064 564.171C349.652 539.355 355.887 501.002 349.652 444.255Z" fill="#4ADEB6"/>
</g>
</g>
<g filter="url(#filter20_d_4059_1417)">
<path d="M480.425 302.282C480.425 302.282 321.4 310.05 230.982 302.282C230.982 302.282 223.961 310.049 230.982 316.263C342.446 325.584 480.425 316.263 480.425 316.263C487.436 310.049 480.425 302.282 480.425 302.282Z" fill="#D9D9D9"/>
</g>
<g filter="url(#filter21_d_4059_1417)">
<path d="M480.425 302.282C480.425 302.282 321.4 310.05 230.982 302.282C230.982 302.282 223.961 310.049 230.982 316.263C342.446 325.584 480.425 316.263 480.425 316.263C487.436 310.049 480.425 302.282 480.425 302.282Z" fill="url(#paint21_linear_4059_1417)"/>
</g>
<mask id="mask13_4059_1417" style="mask-type:alpha" maskUnits="userSpaceOnUse" x="227" y="302" width="257" height="19">
<path d="M480.425 302.282C480.425 302.282 321.4 310.05 230.982 302.282C230.982 302.282 223.961 310.049 230.982 316.263C342.446 325.584 480.425 316.263 480.425 316.263C487.436 310.049 480.425 302.282 480.425 302.282Z" fill="#D9D9D9"/>
</mask>
<g mask="url(#mask13_4059_1417)">
<g filter="url(#filter22_f_4059_1417)">
<path d="M377.637 312.854C431.497 314.062 473.706 307.819 488.079 304.547C490.096 299.764 493.677 289.594 491.861 287.178C489.592 284.157 452.526 283.402 421.511 290.198C396.7 295.636 273.499 292.464 215.001 290.198C212.984 294.981 210.613 305 217.27 306.812C225.591 309.078 310.313 311.344 377.637 312.854Z" fill="#69FCDE"/>
</g>
</g>
<mask id="mask14_4059_1417" style="mask-type:alpha" maskUnits="userSpaceOnUse" x="246" y="346" width="75" height="81">
<rect x="-0.572584" y="0.53441" width="71.0647" height="75.5767" transform="matrix(-0.99863 -0.052336 -0.0165799 0.999863 319.118 349.817)" fill="#0D7458" stroke="#FBE7B0" stroke-width="1.12801"/>
</mask>
<g mask="url(#mask14_4059_1417)">
<rect x="-0.572584" y="0.53441" width="71.0647" height="75.5767" transform="matrix(-0.99863 -0.052336 -0.0165799 0.999863 319.118 349.817)" fill="#0D7458" stroke="#FBE7B0" stroke-width="1.12801"/>
<path d="M297.519 361.072C289.052 361.757 282.274 362.531 281.167 361.344C280.059 360.157 269.893 361.318 269.311 362.416C268.729 363.514 265.941 361.675 264.27 360.459M309.723 373C300.139 373.062 288.79 377.547 284.312 375.619C279.834 373.692 274.155 376.216 269.086 375.95C264.017 375.685 261.717 378.386 258.948 375.419M309.564 382.587C301.67 382.738 299.417 382.62 293.193 383.987C286.969 385.354 282.999 386.839 277.948 385.445C272.898 384.052 269.556 381.619 262.76 383.521M309.396 392.738C303.2 392.413 300.422 390.01 294.189 391.941C287.956 393.872 286.829 393.813 280.652 392.36C274.475 390.908 273.368 389.721 269.97 390.671M308.157 399.446C301.943 400.249 304.215 399.239 298.582 398.944C289.552 399.6 288.388 401.796 285.581 401.085C282.774 400.373 276.025 399.455 274.316 400.494C272.608 401.534 268.074 402.989 266.994 400.111C265.915 397.232 261.963 397.589 260.264 398.065M309.143 407.964C305.773 407.223 308.571 408.498 303.492 408.796C298.414 409.095 297.879 407.373 297.306 407.908C296.734 408.442 293.917 408.295 292.791 408.236C291.664 408.177 295.044 408.354 289.412 408.059C284.906 407.822 282.653 407.704 282.09 407.675L279.245 409.219L275.303 409.012L269.67 408.717" stroke="#4BBD85" stroke-width="1.12801"/>
</g>
<rect width="135.361" height="166.946" transform="matrix(0.866025 -0.5 2.20305e-08 1 4.51172 330.783)" fill="#3F3931"/>
<rect width="122.537" height="140.061" transform="matrix(0.866025 -0.5 2.20305e-08 1 10.0664 335.485)" fill="#2AB18D"/>
<rect width="5.21006" height="166.946" transform="matrix(-0.866025 -0.5 -2.20305e-08 1 4.51172 330.783)" fill="#15130F"/>
<rect width="135.361" height="5.06259" transform="matrix(0.866025 -0.5 -0.866025 -0.5 4.51172 330.783)" fill="#534D44"/>
<path d="M40.698 390.269C40.698 392.451 40.2759 394.453 39.4318 396.274C38.5878 398.095 37.4449 399.422 36.0033 400.254C34.5317 401.104 33.3739 401.22 32.5299 400.603L32.5299 407.507L30.457 408.704L30.457 388.854L32.3506 387.761L32.4514 389.293C33.2955 387.569 34.4682 386.273 35.9697 385.406C37.4262 384.565 38.5766 384.55 39.4206 385.362C40.2722 386.169 40.698 387.729 40.698 390.044L40.698 390.269ZM38.6251 391.188C38.6251 389.571 38.3338 388.463 37.7512 387.863C37.1685 387.263 36.3693 387.256 35.3534 387.842C34.0985 388.567 33.1573 389.768 32.5299 391.447L32.5299 398.298C33.1499 399.247 34.0985 399.353 35.3758 398.616C36.3693 398.042 37.1573 397.123 37.74 395.859C38.3301 394.582 38.6251 393.025 38.6251 391.188Z" fill="white"/>
<path d="M49.2022 380.231C48.8885 380.35 48.5486 380.516 48.1826 380.727C46.8231 381.512 45.9006 382.729 45.4151 384.379L45.4151 394.555L43.3422 395.752L43.3422 381.415L45.359 380.25L45.3927 381.887C46.0724 380.214 47.036 379.017 48.2834 378.297C48.6868 378.064 48.993 377.949 49.2022 377.952L49.2022 380.231Z" fill="white"/>
<path d="M58.1546 387.2C58.0351 386.986 57.938 386.539 57.8633 385.858C56.8997 387.598 55.7494 388.854 54.4123 389.626C53.2171 390.316 52.2349 390.485 51.4655 390.134C50.7036 389.77 50.3226 388.975 50.3226 387.747C50.3226 386.254 50.8007 384.82 51.7568 383.447C52.7204 382.06 54.0724 380.864 55.8129 379.86L57.8297 378.695L57.8297 377.569C57.8297 376.712 57.613 376.157 57.1798 375.903C56.7466 375.641 56.1079 375.754 55.2638 376.241C54.5243 376.668 53.9043 377.247 53.4039 377.978C52.9034 378.708 52.6532 379.387 52.6532 380.014L50.5691 381.217C50.5691 380.502 50.782 379.69 51.2078 378.782C51.641 377.86 52.2237 376.994 52.9557 376.182C53.6952 375.367 54.5057 374.704 55.3871 374.196C56.7839 373.389 57.8782 373.173 58.67 373.546C59.4618 373.91 59.8726 374.808 59.9025 376.24L59.9025 382.838C59.9025 384.155 60.0444 385.12 60.3283 385.733L60.3283 385.945L58.1546 387.2ZM54.7148 387.318C55.3647 386.942 55.9809 386.388 56.5636 385.654C57.1462 384.92 57.5682 384.16 57.8297 383.373L57.8297 380.431L56.205 381.369C53.6653 382.835 52.3955 384.447 52.3955 386.205C52.3955 386.974 52.6121 387.45 53.0453 387.632C53.4786 387.815 54.0351 387.71 54.7148 387.318Z" fill="white"/>
<path d="M66.9389 378.537L69.7625 366.161L71.981 364.88L67.107 384.244C66.3526 387.065 65.1537 388.95 63.5103 389.899L63.1182 390.085L62.3451 390.359L62.3451 388.372L62.9053 388.101C63.6075 387.696 64.1527 387.213 64.5412 386.653C64.9371 386.089 65.262 385.287 65.516 384.249L65.9753 382.526L61.6504 370.844L63.9137 369.538L66.9389 378.537Z" fill="white"/>
<path d="M78.7149 375.595C77.0716 376.543 75.7345 376.679 74.7037 376.002C73.6728 375.317 73.1574 373.905 73.1574 371.767L73.1574 371.317C73.1574 369.894 73.3853 368.495 73.8409 367.119C74.304 365.73 74.9464 364.484 75.7681 363.383C76.5972 362.268 77.4936 361.432 78.4572 360.876C80.0333 359.966 81.2583 359.873 82.1323 360.596C83.0062 361.319 83.4432 362.825 83.4432 365.113L83.4432 366.133L75.2303 370.875C75.2602 372.271 75.6075 373.215 76.2723 373.705C76.9446 374.183 77.7961 374.124 78.8269 373.529C79.559 373.106 80.1789 372.572 80.6869 371.925C81.1948 371.279 81.6393 370.554 82.0202 369.751L83.2863 370.186C82.2705 372.619 80.7466 374.422 78.7149 375.595ZM78.4572 362.89C77.6206 363.373 76.9184 364.141 76.3507 365.193C75.783 366.236 75.432 367.446 75.2975 368.822L81.3703 365.316L81.3703 365.13C81.3106 363.919 81.0267 363.12 80.5188 362.733C80.0109 362.338 79.3237 362.39 78.4572 362.89Z" fill="white"/>
<path d="M92.8435 355.182C92.3843 355.493 91.0585 355.973 90.6925 356.184C89.333 356.969 88.103 358.162 87.8292 359.476C87.5555 360.789 87.5326 369.096 87.5326 369.096C87.5326 369.096 88.6005 369.091 89.1345 368.851C89.6685 368.61 89.6091 369.305 89.6091 369.305L85.8522 371.474C85.8522 371.474 85.5154 360.379 85.8522 358.528C86.189 356.677 87.8886 355.499 89.4905 354.506C91.0924 353.513 92.3843 353.491 92.8435 353.434C93.3026 353.378 93.4411 353.693 93.9351 353.503C94.4291 353.314 94.6761 353.639 93.9351 354.183C93.1941 354.727 93.3026 354.87 92.8435 355.182Z" fill="white"/>
<path d="M95.8817 352.819C95.8817 353.266 95.5291 353.615 95.0376 353.916C95.0032 353.937 94.9088 354.128 94.873 354.149C94.8386 354.169 94.8638 354.017 94.8302 354.035C94.7158 354.095 94.6066 354.141 94.5061 354.172C94.4938 354.176 94.3614 354.206 94.3498 354.208C94.0963 354.244 93.9283 354.143 93.9283 353.854C93.9283 353.375 94.3706 352.731 94.9163 352.416C95.4619 352.101 95.8817 352.34 95.8817 352.819Z" fill="white"/>
<rect width="58.6132" height="136.111" transform="matrix(0.866025 -0.5 2.20305e-08 1 60.9102 105.147)" fill="#3F3931"/>
<rect width="45.6872" height="110.084" transform="matrix(0.866025 -0.5 2.20305e-08 1 66.4648 109.85)" fill="#2AB18D"/>
<rect width="5.21006" height="136.058" transform="matrix(-0.866025 -0.5 -2.20305e-08 1 60.9102 105.147)" fill="#15130F"/>
<rect width="58.5908" height="5.06259" transform="matrix(0.866025 -0.5 -0.866025 -0.5 60.9102 105.147)" fill="#534D44"/>
<path d="M80.6552 158.621C80.6552 159.223 80.5387 159.775 80.3059 160.277C80.073 160.78 79.7578 161.146 79.3601 161.375C78.9541 161.61 78.6347 161.642 78.4019 161.472L78.4019 163.376L77.8301 163.706L77.8301 158.231L78.3524 157.929L78.3803 158.352C78.6131 157.876 78.9366 157.519 79.3508 157.279C79.7526 157.048 80.07 157.043 80.3028 157.267C80.5377 157.49 80.6552 157.92 80.6552 158.559L80.6552 158.621ZM80.0833 158.874C80.0833 158.428 80.003 158.123 79.8423 157.957C79.6815 157.792 79.461 157.79 79.1808 157.952C78.8346 158.151 78.575 158.483 78.4019 158.946L78.4019 160.836C78.5729 161.098 78.8346 161.127 79.187 160.923C79.461 160.765 79.6784 160.512 79.8392 160.163C80.002 159.811 80.0833 159.381 80.0833 158.874Z" fill="white"/>
<path d="M83.0012 155.852C82.9146 155.885 82.8209 155.93 82.7199 155.989C82.3449 156.205 82.0904 156.541 81.9564 156.996L81.9564 159.803L81.3846 160.134L81.3846 156.178L81.941 155.857L81.9502 156.309C82.1378 155.847 82.4036 155.517 82.7477 155.318C82.859 155.254 82.9435 155.222 83.0012 155.223L83.0012 155.852Z" fill="white"/>
<path d="M85.4708 157.774C85.4378 157.715 85.411 157.592 85.3904 157.404C85.1246 157.884 84.8073 158.231 84.4384 158.443C84.1087 158.634 83.8378 158.681 83.6255 158.584C83.4153 158.483 83.3102 158.264 83.3102 157.925C83.3102 157.513 83.4421 157.118 83.7059 156.739C83.9717 156.356 84.3447 156.027 84.8248 155.749L85.3811 155.428L85.3811 155.117C85.3811 154.881 85.3214 154.728 85.2019 154.658C85.0824 154.586 84.9062 154.617 84.6733 154.751C84.4693 154.869 84.2983 155.029 84.1602 155.23C84.0222 155.432 83.9532 155.619 83.9532 155.792L83.3782 156.124C83.3782 155.927 83.437 155.703 83.5544 155.452C83.6739 155.198 83.8347 154.959 84.0366 154.735C84.2406 154.51 84.4642 154.327 84.7073 154.187C85.0927 153.964 85.3945 153.905 85.613 154.008C85.8314 154.108 85.9447 154.356 85.953 154.751L85.953 156.571C85.953 156.934 85.9921 157.2 86.0704 157.37L86.0704 157.428L85.4708 157.774ZM84.5219 157.807C84.7012 157.703 84.8712 157.55 85.0319 157.348C85.1926 157.145 85.309 156.936 85.3811 156.719L85.3811 155.907L84.933 156.166C84.2324 156.57 83.8821 157.015 83.8821 157.5C83.8821 157.712 83.9418 157.843 84.0613 157.894C84.1808 157.944 84.3344 157.915 84.5219 157.807Z" fill="white"/>
<path d="M87.8941 155.385L88.673 151.97L89.285 151.617L87.9404 156.959C87.7323 157.737 87.4016 158.257 86.9482 158.519L86.8401 158.57L86.6268 158.646L86.6268 158.098L86.7813 158.023C86.975 157.911 87.1254 157.778 87.2326 157.623C87.3418 157.468 87.4314 157.247 87.5015 156.96L87.6282 156.485L86.4351 153.262L87.0595 152.902L87.8941 155.385Z" fill="white"/>
<path d="M91.1426 154.573C90.6893 154.835 90.3204 154.872 90.036 154.685C89.7517 154.496 89.6095 154.107 89.6095 153.517L89.6095 153.393C89.6095 153 89.6724 152.614 89.798 152.235C89.9258 151.851 90.103 151.508 90.3297 151.204C90.5584 150.897 90.8057 150.666 91.0715 150.513C91.5063 150.262 91.8442 150.236 92.0853 150.435C92.3264 150.635 92.447 151.05 92.447 151.681L92.447 151.963L90.1813 153.271C90.1896 153.656 90.2854 153.916 90.4688 154.052C90.6542 154.183 90.8891 154.167 91.1735 154.003C91.3754 153.886 91.5465 153.739 91.6866 153.561C91.8267 153.382 91.9493 153.182 92.0544 152.961L92.4037 153.081C92.1234 153.752 91.7031 154.249 91.1426 154.573ZM91.0715 151.068C90.8407 151.201 90.647 151.413 90.4904 151.703C90.3338 151.991 90.237 152.325 90.1999 152.705L91.8751 151.737L91.8751 151.686C91.8586 151.352 91.7803 151.132 91.6402 151.025C91.5001 150.916 91.3105 150.93 91.0715 151.068Z" fill="white"/>
<path d="M95.0401 148.942C94.9135 149.028 94.5477 149.16 94.4468 149.218C94.0717 149.435 93.7324 149.764 93.6569 150.126C93.5814 150.489 93.5751 152.78 93.5751 152.78C93.5751 152.78 93.8697 152.779 94.017 152.712C94.1643 152.646 94.1479 152.838 94.1479 152.838L93.1115 153.436C93.1115 153.436 93.0186 150.375 93.1115 149.865C93.2044 149.354 93.6733 149.029 94.1152 148.755C94.5571 148.481 94.9135 148.475 95.0401 148.46C95.1668 148.444 95.205 148.531 95.3413 148.479C95.4775 148.426 95.5457 148.516 95.3413 148.666C95.1369 148.816 95.1668 148.856 95.0401 148.942Z" fill="white"/>
<path d="M95.8783 148.29C95.8783 148.413 95.781 148.51 95.6454 148.593C95.6359 148.598 95.6099 148.651 95.6 148.657C95.5905 148.662 95.5975 148.62 95.5882 148.625C95.5566 148.642 95.5265 148.655 95.4988 148.663C95.4954 148.664 95.4589 148.673 95.4557 148.673C95.3857 148.683 95.3394 148.655 95.3394 148.575C95.3394 148.443 95.4614 148.266 95.6119 148.179C95.7625 148.092 95.8783 148.158 95.8783 148.29Z" fill="white"/>
<defs>
<filter id="filter0_f_4059_1417" x="201.26" y="484.109" width="377.737" height="121.493" filterUnits="userSpaceOnUse" color-interpolation-filters="sRGB">
<feFlood flood-opacity="0" result="BackgroundImageFix"/>
<feBlend mode="normal" in="SourceGraphic" in2="BackgroundImageFix" result="shape"/>
<feGaussianBlur stdDeviation="16.614" result="effect1_foregroundBlur_4059_1417"/>
</filter>
<filter id="filter1_f_4059_1417" x="296.826" y="-99.335" width="436.231" height="406.285" filterUnits="userSpaceOnUse" color-interpolation-filters="sRGB">
<feFlood flood-opacity="0" result="BackgroundImageFix"/>
<feBlend mode="normal" in="SourceGraphic" in2="BackgroundImageFix" result="shape"/>
<feGaussianBlur stdDeviation="17.3692" result="effect1_foregroundBlur_4059_1417"/>
</filter>
<filter id="filter2_f_4059_1417" x="43.9933" y="96.4606" width="243.494" height="275.861" filterUnits="userSpaceOnUse" color-interpolation-filters="sRGB">
<feFlood flood-opacity="0" result="BackgroundImageFix"/>
<feBlend mode="normal" in="SourceGraphic" in2="BackgroundImageFix" result="shape"/>
<feGaussianBlur stdDeviation="15.8588" result="effect1_foregroundBlur_4059_1417"/>
</filter>
<filter id="filter3_f_4059_1417" x="116.723" y="-22.9953" width="284.186" height="181.003" filterUnits="userSpaceOnUse" color-interpolation-filters="sRGB">
<feFlood flood-opacity="0" result="BackgroundImageFix"/>
<feBlend mode="normal" in="SourceGraphic" in2="BackgroundImageFix" result="shape"/>
<feGaussianBlur stdDeviation="11.3277" result="effect1_foregroundBlur_4059_1417"/>
</filter>
<filter id="filter4_f_4059_1417" x="173.929" y="209.393" width="220.011" height="32.2308" filterUnits="userSpaceOnUse" color-interpolation-filters="sRGB">
<feFlood flood-opacity="0" result="BackgroundImageFix"/>
<feBlend mode="normal" in="SourceGraphic" in2="BackgroundImageFix" result="shape"/>
<feGaussianBlur stdDeviation="3.02072" result="effect1_foregroundBlur_4059_1417"/>
</filter>
<filter id="filter5_di_4059_1417" x="261.736" y="140.631" width="41.9864" height="54.0455" filterUnits="userSpaceOnUse" color-interpolation-filters="sRGB">
<feFlood flood-opacity="0" result="BackgroundImageFix"/>
<feColorMatrix in="SourceAlpha" type="matrix" values="0 0 0 0 0 0 0 0 0 0 0 0 0 0 0 0 0 0 127 0" result="hardAlpha"/>
<feOffset dx="-3.59376" dy="2.9948"/>
<feGaussianBlur stdDeviation="2.69532"/>
<feComposite in2="hardAlpha" operator="out"/>
<feColorMatrix type="matrix" values="0 0 0 0 0.67451 0 0 0 0 0.427451 0 0 0 0 0.294118 0 0 0 0.74 0"/>
<feBlend mode="normal" in2="BackgroundImageFix" result="effect1_dropShadow_4059_1417"/>
<feBlend mode="normal" in="SourceGraphic" in2="effect1_dropShadow_4059_1417" result="shape"/>
<feColorMatrix in="SourceAlpha" type="matrix" values="0 0 0 0 0 0 0 0 0 0 0 0 0 0 0 0 0 0 127 0" result="hardAlpha"/>
<feOffset dx="0.554514"/>
<feGaussianBlur stdDeviation="0.554514"/>
<feComposite in2="hardAlpha" operator="arithmetic" k2="-1" k3="1"/>
<feColorMatrix type="matrix" values="0 0 0 0 0 0 0 0 0 0 0 0 0 0 0 0 0 0 0.67 0"/>
<feBlend mode="normal" in2="shape" result="effect2_innerShadow_4059_1417"/>
</filter>
<filter id="filter6_f_4059_1417" x="269.114" y="139.277" width="34.8924" height="48.0057" filterUnits="userSpaceOnUse" color-interpolation-filters="sRGB">
<feFlood flood-opacity="0" result="BackgroundImageFix"/>
<feBlend mode="normal" in="SourceGraphic" in2="BackgroundImageFix" result="shape"/>
<feGaussianBlur stdDeviation="1.66354" result="effect1_foregroundBlur_4059_1417"/>
</filter>
<filter id="filter7_f_4059_1417" x="282.083" y="143.425" width="17.6318" height="22.642" filterUnits="userSpaceOnUse" color-interpolation-filters="sRGB">
<feFlood flood-opacity="0" result="BackgroundImageFix"/>
<feBlend mode="normal" in="SourceGraphic" in2="BackgroundImageFix" result="shape"/>
<feGaussianBlur stdDeviation="0.831771" result="effect1_foregroundBlur_4059_1417"/>
</filter>
<filter id="filter8_d_4059_1417" x="287.298" y="154.433" width="13.9088" height="14.9478" filterUnits="userSpaceOnUse" color-interpolation-filters="sRGB">
<feFlood flood-opacity="0" result="BackgroundImageFix"/>
<feColorMatrix in="SourceAlpha" type="matrix" values="0 0 0 0 0 0 0 0 0 0 0 0 0 0 0 0 0 0 127 0" result="hardAlpha"/>
<feOffset dy="1.66354"/>
<feGaussianBlur stdDeviation="1.10903"/>
<feComposite in2="hardAlpha" operator="out"/>
<feColorMatrix type="matrix" values="0 0 0 0 0 0 0 0 0 0 0 0 0 0 0 0 0 0 0.68 0"/>
<feBlend mode="normal" in2="BackgroundImageFix" result="effect1_dropShadow_4059_1417"/>
<feBlend mode="normal" in="SourceGraphic" in2="effect1_dropShadow_4059_1417" result="shape"/>
</filter>
<filter id="filter9_di_4059_1417" x="212.103" y="140.631" width="41.9864" height="54.0455" filterUnits="userSpaceOnUse" color-interpolation-filters="sRGB">
<feFlood flood-opacity="0" result="BackgroundImageFix"/>
<feColorMatrix in="SourceAlpha" type="matrix" values="0 0 0 0 0 0 0 0 0 0 0 0 0 0 0 0 0 0 127 0" result="hardAlpha"/>
<feOffset dx="-3.59376" dy="2.9948"/>
<feGaussianBlur stdDeviation="2.69532"/>
<feComposite in2="hardAlpha" operator="out"/>
<feColorMatrix type="matrix" values="0 0 0 0 0.67451 0 0 0 0 0.427451 0 0 0 0 0.294118 0 0 0 0.74 0"/>
<feBlend mode="normal" in2="BackgroundImageFix" result="effect1_dropShadow_4059_1417"/>
<feBlend mode="normal" in="SourceGraphic" in2="effect1_dropShadow_4059_1417" result="shape"/>
<feColorMatrix in="SourceAlpha" type="matrix" values="0 0 0 0 0 0 0 0 0 0 0 0 0 0 0 0 0 0 127 0" result="hardAlpha"/>
<feOffset dx="0.554514"/>
<feGaussianBlur stdDeviation="0.554514"/>
<feComposite in2="hardAlpha" operator="arithmetic" k2="-1" k3="1"/>
<feColorMatrix type="matrix" values="0 0 0 0 0 0 0 0 0 0 0 0 0 0 0 0 0 0 0.67 0"/>
<feBlend mode="normal" in2="shape" result="effect2_innerShadow_4059_1417"/>
</filter>
<filter id="filter10_f_4059_1417" x="219.482" y="139.277" width="34.8924" height="48.0057" filterUnits="userSpaceOnUse" color-interpolation-filters="sRGB">
<feFlood flood-opacity="0" result="BackgroundImageFix"/>
<feBlend mode="normal" in="SourceGraphic" in2="BackgroundImageFix" result="shape"/>
<feGaussianBlur stdDeviation="1.66354" result="effect1_foregroundBlur_4059_1417"/>
</filter>
<filter id="filter11_f_4059_1417" x="232.45" y="143.425" width="17.6318" height="22.642" filterUnits="userSpaceOnUse" color-interpolation-filters="sRGB">
<feFlood flood-opacity="0" result="BackgroundImageFix"/>
<feBlend mode="normal" in="SourceGraphic" in2="BackgroundImageFix" result="shape"/>
<feGaussianBlur stdDeviation="0.831771" result="effect1_foregroundBlur_4059_1417"/>
</filter>
<filter id="filter12_d_4059_1417" x="237.665" y="154.433" width="13.9088" height="14.9478" filterUnits="userSpaceOnUse" color-interpolation-filters="sRGB">
<feFlood flood-opacity="0" result="BackgroundImageFix"/>
<feColorMatrix in="SourceAlpha" type="matrix" values="0 0 0 0 0 0 0 0 0 0 0 0 0 0 0 0 0 0 127 0" result="hardAlpha"/>
<feOffset dy="1.66354"/>
<feGaussianBlur stdDeviation="1.10903"/>
<feComposite in2="hardAlpha" operator="out"/>
<feColorMatrix type="matrix" values="0 0 0 0 0 0 0 0 0 0 0 0 0 0 0 0 0 0 0.68 0"/>
<feBlend mode="normal" in2="BackgroundImageFix" result="effect1_dropShadow_4059_1417"/>
<feBlend mode="normal" in="SourceGraphic" in2="effect1_dropShadow_4059_1417" result="shape"/>
</filter>
<filter id="filter13_f_4059_1417" x="357.82" y="497.117" width="90.5426" height="40.1745" filterUnits="userSpaceOnUse" color-interpolation-filters="sRGB">
<feFlood flood-opacity="0" result="BackgroundImageFix"/>
<feBlend mode="normal" in="SourceGraphic" in2="BackgroundImageFix" result="shape"/>
<feGaussianBlur stdDeviation="2.26554" result="effect1_foregroundBlur_4059_1417"/>
</filter>
<filter id="filter14_f_4059_1417" x="355.711" y="528.836" width="90.2431" height="29.6337" filterUnits="userSpaceOnUse" color-interpolation-filters="sRGB">
<feFlood flood-opacity="0" result="BackgroundImageFix"/>
<feBlend mode="normal" in="SourceGraphic" in2="BackgroundImageFix" result="shape"/>
<feGaussianBlur stdDeviation="3.02072" result="effect1_foregroundBlur_4059_1417"/>
</filter>
<filter id="filter15_f_4059_1417" x="239.557" y="498.24" width="67.52" height="30.0039" filterUnits="userSpaceOnUse" color-interpolation-filters="sRGB">
<feFlood flood-opacity="0" result="BackgroundImageFix"/>
<feBlend mode="normal" in="SourceGraphic" in2="BackgroundImageFix" result="shape"/>
<feGaussianBlur stdDeviation="1.69202" result="effect1_foregroundBlur_4059_1417"/>
</filter>
<filter id="filter16_f_4059_1417" x="237.984" y="521.928" width="67.2995" height="22.1315" filterUnits="userSpaceOnUse" color-interpolation-filters="sRGB">
<feFlood flood-opacity="0" result="BackgroundImageFix"/>
<feBlend mode="normal" in="SourceGraphic" in2="BackgroundImageFix" result="shape"/>
<feGaussianBlur stdDeviation="2.25602" result="effect1_foregroundBlur_4059_1417"/>
</filter>
<filter id="filter17_f_4059_1417" x="244.519" y="512.222" width="43.8544" height="33.2279" filterUnits="userSpaceOnUse" color-interpolation-filters="sRGB">
<feFlood flood-opacity="0" result="BackgroundImageFix"/>
<feBlend mode="normal" in="SourceGraphic" in2="BackgroundImageFix" result="shape"/>
<feGaussianBlur stdDeviation="3.02072" result="effect1_foregroundBlur_4059_1417"/>
</filter>
<filter id="filter18_d_4059_1417" x="207.915" y="309.422" width="25.5813" height="251.183" filterUnits="userSpaceOnUse" color-interpolation-filters="sRGB">
<feFlood flood-opacity="0" result="BackgroundImageFix"/>
<feColorMatrix in="SourceAlpha" type="matrix" values="0 0 0 0 0 0 0 0 0 0 0 0 0 0 0 0 0 0 127 0" result="hardAlpha"/>
<feOffset dx="-1.51036"/>
<feGaussianBlur stdDeviation="0.755181"/>
<feComposite in2="hardAlpha" operator="out"/>
<feColorMatrix type="matrix" values="0 0 0 0 0 0 0 0 0 0 0 0 0 0 0 0 0 0 0.25 0"/>
<feBlend mode="normal" in2="BackgroundImageFix" result="effect1_dropShadow_4059_1417"/>
<feBlend mode="normal" in="SourceGraphic" in2="effect1_dropShadow_4059_1417" result="shape"/>
</filter>
<filter id="filter19_f_4059_1417" x="336.219" y="296.24" width="72.7477" height="292.097" filterUnits="userSpaceOnUse" color-interpolation-filters="sRGB">
<feFlood flood-opacity="0" result="BackgroundImageFix"/>
<feBlend mode="normal" in="SourceGraphic" in2="BackgroundImageFix" result="shape"/>
<feGaussianBlur stdDeviation="2.26554" result="effect1_foregroundBlur_4059_1417"/>
</filter>
<filter id="filter20_d_4059_1417" x="220.31" y="300.771" width="270.783" height="33.2281" filterUnits="userSpaceOnUse" color-interpolation-filters="sRGB">
<feFlood flood-opacity="0" result="BackgroundImageFix"/>
<feColorMatrix in="SourceAlpha" type="matrix" values="0 0 0 0 0 0 0 0 0 0 0 0 0 0 0 0 0 0 127 0" result="hardAlpha"/>
<feOffset dy="6.04145"/>
<feGaussianBlur stdDeviation="3.7759"/>
<feComposite in2="hardAlpha" operator="out"/>
<feColorMatrix type="matrix" values="0 0 0 0 0 0 0 0 0 0 0 0 0 0 0 0 0 0 0.44 0"/>
<feBlend mode="normal" in2="BackgroundImageFix" result="effect1_dropShadow_4059_1417"/>
<feBlend mode="normal" in="SourceGraphic" in2="effect1_dropShadow_4059_1417" result="shape"/>
</filter>
<filter id="filter21_d_4059_1417" x="224.841" y="297.751" width="261.721" height="24.166" filterUnits="userSpaceOnUse" color-interpolation-filters="sRGB">
<feFlood flood-opacity="0" result="BackgroundImageFix"/>
<feColorMatrix in="SourceAlpha" type="matrix" values="0 0 0 0 0 0 0 0 0 0 0 0 0 0 0 0 0 0 127 0" result="hardAlpha"/>
<feOffset dy="-1.51036"/>
<feGaussianBlur stdDeviation="1.51036"/>
<feComposite in2="hardAlpha" operator="out"/>
<feColorMatrix type="matrix" values="0 0 0 0 0 0 0 0 0 0 0 0 0 0 0 0 0 0 0.41 0"/>
<feBlend mode="normal" in2="BackgroundImageFix" result="effect1_dropShadow_4059_1417"/>
<feBlend mode="normal" in="SourceGraphic" in2="effect1_dropShadow_4059_1417" result="shape"/>
</filter>
<filter id="filter22_f_4059_1417" x="205.331" y="277.405" width="294.58" height="43.1539" filterUnits="userSpaceOnUse" color-interpolation-filters="sRGB">
<feFlood flood-opacity="0" result="BackgroundImageFix"/>
<feBlend mode="normal" in="SourceGraphic" in2="BackgroundImageFix" result="shape"/>
<feGaussianBlur stdDeviation="3.7759" result="effect1_foregroundBlur_4059_1417"/>
</filter>
<linearGradient id="paint0_linear_4059_1417" x1="359.809" y1="-14.8944" x2="448.214" y2="305.019" gradientUnits="userSpaceOnUse">
<stop stop-color="#40E3B8"/>
<stop offset="1" stop-color="#005840"/>
</linearGradient>
<linearGradient id="paint1_linear_4059_1417" x1="359.809" y1="-14.8945" x2="448.214" y2="305.019" gradientUnits="userSpaceOnUse">
<stop stop-color="#40E3B8"/>
<stop offset="1" stop-color="#005840"/>
</linearGradient>
<linearGradient id="paint2_linear_4059_1417" x1="175.812" y1="71.3787" x2="358.384" y2="324.002" gradientUnits="userSpaceOnUse">
<stop stop-color="#1DB084"/>
<stop offset="1" stop-color="#003A28"/>
</linearGradient>
<linearGradient id="paint3_linear_4059_1417" x1="162.353" y1="70.9849" x2="341.323" y2="334.283" gradientUnits="userSpaceOnUse">
<stop stop-color="#1DB084"/>
<stop offset="1" stop-color="#003A28"/>
</linearGradient>
<linearGradient id="paint4_linear_4059_1417" x1="275.995" y1="132.075" x2="354.316" y2="298.58" gradientUnits="userSpaceOnUse">
<stop stop-color="#FDECCA"/>
<stop offset="1" stop-color="#E3A578"/>
</linearGradient>
<linearGradient id="paint5_linear_4059_1417" x1="203.077" y1="256.97" x2="379.514" y2="260.864" gradientUnits="userSpaceOnUse">
<stop stop-color="#04764E"/>
<stop offset="0.510682" stop-color="#009968"/>
<stop offset="1" stop-color="#04764E"/>
</linearGradient>
<linearGradient id="paint6_linear_4059_1417" x1="203.077" y1="256.97" x2="379.514" y2="260.864" gradientUnits="userSpaceOnUse">
<stop stop-color="#04764E"/>
<stop offset="0.510682" stop-color="#009968"/>
<stop offset="1" stop-color="#04764E"/>
</linearGradient>
<radialGradient id="paint7_radial_4059_1417" cx="0" cy="0" r="1" gradientUnits="userSpaceOnUse" gradientTransform="translate(15.8854 10.5725) rotate(90) scale(10.5725 15.8854)">
<stop stop-color="#A3784E"/>
<stop offset="1" stop-color="#62482A"/>
</radialGradient>
<linearGradient id="paint8_linear_4059_1417" x1="432.86" y1="528.835" x2="371.594" y2="540.199" gradientUnits="userSpaceOnUse">
<stop stop-color="#001708"/>
<stop offset="1" stop-color="#006B3D"/>
</linearGradient>
<linearGradient id="paint9_linear_4059_1417" x1="432.86" y1="528.835" x2="371.594" y2="540.199" gradientUnits="userSpaceOnUse">
<stop stop-color="#001708"/>
<stop offset="1" stop-color="#006B3D"/>
</linearGradient>
<linearGradient id="paint10_linear_4059_1417" x1="432.86" y1="528.835" x2="371.594" y2="540.199" gradientUnits="userSpaceOnUse">
<stop stop-color="#001708"/>
<stop offset="1" stop-color="#006B3D"/>
</linearGradient>
<linearGradient id="paint11_linear_4059_1417" x1="432.86" y1="528.835" x2="371.594" y2="540.199" gradientUnits="userSpaceOnUse">
<stop stop-color="#001708"/>
<stop offset="1" stop-color="#006B3D"/>
</linearGradient>
<linearGradient id="paint12_linear_4059_1417" x1="295.514" y1="521.929" x2="249.829" y2="530.389" gradientUnits="userSpaceOnUse">
<stop stop-color="#001708"/>
<stop offset="1" stop-color="#006B3D"/>
</linearGradient>
<linearGradient id="paint13_linear_4059_1417" x1="295.514" y1="521.929" x2="249.829" y2="530.389" gradientUnits="userSpaceOnUse">
<stop stop-color="#001708"/>
<stop offset="1" stop-color="#006B3D"/>
</linearGradient>
<linearGradient id="paint14_linear_4059_1417" x1="295.514" y1="521.929" x2="249.829" y2="530.389" gradientUnits="userSpaceOnUse">
<stop stop-color="#001708"/>
<stop offset="1" stop-color="#006B3D"/>
</linearGradient>
<linearGradient id="paint15_linear_4059_1417" x1="295.514" y1="521.929" x2="249.829" y2="530.389" gradientUnits="userSpaceOnUse">
<stop stop-color="#001708"/>
<stop offset="1" stop-color="#006B3D"/>
</linearGradient>
<radialGradient id="paint16_radial_4059_1417" cx="0" cy="0" r="1" gradientUnits="userSpaceOnUse" gradientTransform="translate(250.562 539.409) rotate(90) scale(10.5725 15.8854)">
<stop stop-color="#A3784E"/>
<stop offset="1" stop-color="#62482A"/>
</radialGradient>
<radialGradient id="paint17_radial_4059_1417" cx="0" cy="0" r="1" gradientUnits="userSpaceOnUse" gradientTransform="translate(22.6935 15.1036) rotate(90) scale(15.1036 22.6935)">
<stop stop-color="#A3784E"/>
<stop offset="1" stop-color="#62482A"/>
</radialGradient>
<linearGradient id="paint18_linear_4059_1417" x1="225.115" y1="363.116" x2="408.867" y2="518.752" gradientUnits="userSpaceOnUse">
<stop stop-color="#4F433B"/>
<stop offset="1" stop-color="#141B13"/>
</linearGradient>
<linearGradient id="paint19_linear_4059_1417" x1="225.115" y1="364.489" x2="412.836" y2="519.41" gradientUnits="userSpaceOnUse">
<stop stop-color="#4F433B"/>
<stop offset="1" stop-color="#141B13"/>
</linearGradient>
<linearGradient id="paint20_linear_4059_1417" x1="214.246" y1="497.873" x2="208.967" y2="516.002" gradientUnits="userSpaceOnUse">
<stop stop-color="#004A2D"/>
<stop offset="1" stop-color="#00724D"/>
</linearGradient>
<linearGradient id="paint21_linear_4059_1417" x1="229.374" y1="309.078" x2="483.541" y2="313.625" gradientUnits="userSpaceOnUse">
<stop stop-color="#11CA8A"/>
<stop offset="1" stop-color="#006C4D"/>
</linearGradient>
</defs>
</svg>
