<svg width="579" height="606" viewBox="0 0 579 606" fill="none" xmlns="http://www.w3.org/2000/svg">
<g filter="url(#filter0_f_31_1984)">
<ellipse cx="155.828" cy="26.4314" rx="155.828" ry="26.4314" transform="matrix(-0.998764 -0.049707 -0.0498737 0.998756 547.082 526.203)" fill="black"/>
</g>
<mask id="mask0_31_1984" style="mask-type:alpha" maskUnits="userSpaceOnUse" x="178" y="0" width="364" height="307">
<path d="M540.413 198.209C535.774 256.811 494.986 295.124 475.172 306.955H248.28C239.339 294.62 217.689 264.665 202.611 243.52C164.917 203.646 179.173 139.305 191.013 112.118C200.195 90.218 240.74 29.2232 329.377 6.53674C424.13 -17.7152 481.938 30.3071 510.692 72.0938C522.532 89.7147 545.052 139.607 540.413 198.209Z" fill="url(#paint0_linear_31_1984)"/>
</mask>
<g mask="url(#mask0_31_1984)">
<path d="M540.413 198.209C535.774 256.811 494.986 295.124 475.172 306.955H248.28C239.339 294.62 217.689 264.665 202.611 243.519C164.917 203.646 179.173 139.304 191.013 112.118C200.195 90.2178 239.146 36.449 321.494 -3.42456C403.843 -43.2981 481.938 30.3069 510.692 72.0936C522.532 89.7144 545.052 139.607 540.413 198.209Z" fill="url(#paint1_linear_31_1984)"/>
<g filter="url(#filter1_f_31_1984)">
<path d="M502.612 105.179C518.079 181.489 596.218 282.779 648.315 271.319C700.413 259.859 706.295 139.955 690.829 63.6441C675.363 -12.6665 392.334 -74.6862 340.236 -63.2265C288.138 -51.7668 487.146 28.8684 502.612 105.179Z" fill="#7AE1EE"/>
</g>
</g>
<mask id="mask1_31_1984" style="mask-type:alpha" maskUnits="userSpaceOnUse" x="182" y="66" width="149" height="213">
<path d="M237.035 274.737C226.853 272.925 213.294 253.444 206.149 244.885C180.695 204.105 182.778 186.378 182.777 175.809C182.775 165.239 184.592 133.984 204.139 104.422C231.603 62.887 257.726 65.9097 274.472 67.4192C301.936 71.1951 318.085 82.1629 327.463 93.4906C336.84 104.818 323.444 254.348 320.095 269.451C316.745 284.555 249.762 277.003 237.035 274.737Z" fill="#011003"/>
</mask>
<g mask="url(#mask1_31_1984)">
<path d="M237.035 274.737C226.853 272.925 210.018 255.354 202.873 246.796C183.582 217.193 182.778 186.378 182.777 175.808C182.776 165.239 184.311 127.53 201.46 99.1353C222.896 63.642 259.067 60.6179 274.472 61.3763C289.878 62.1348 325.381 77.2351 334.759 88.5628C344.136 99.8905 323.444 254.347 320.095 269.451C316.745 284.555 249.762 277.003 237.035 274.737Z" fill="#011003"/>
<g filter="url(#filter2_f_31_1984)">
<path d="M181.659 339.206C172.82 343.248 151.418 337.571 141.822 334.227C112.89 319.69 97.9092 293.995 92.9869 285.032C88.0645 276.068 75.469 247.292 75.7138 213.812C76.0199 171.962 105.302 155.068 117.753 147.269C130.204 139.471 173.968 118.77 177.347 133.118C208.822 266.787 251.028 256.968 255.718 290.195C257.873 305.467 192.708 334.154 181.659 339.206Z" fill="#004054"/>
</g>
</g>
<mask id="mask2_31_1984" style="mask-type:alpha" maskUnits="userSpaceOnUse" x="196" y="74" width="193" height="234">
<path d="M366.834 130.805C411.767 189.335 374.415 274.399 354.04 306.589H245.295C233.449 294.266 233.604 281.755 210.404 237.571C179.106 177.967 208.247 104.032 255.892 81.4012C304.959 61.0333 339.909 95.7335 366.834 130.805Z" fill="#D9D9D9" stroke="url(#paint2_linear_31_1984)" stroke-width="1.51036"/>
</mask>
<g mask="url(#mask2_31_1984)">
<path d="M365.628 130.466C406.779 193.901 373.697 274.202 352.012 306.423H236.276C223.669 294.088 217.297 279.628 184.838 240.722C131.609 176.923 183.257 79.5046 236.276 68.5409C262.247 62.7512 324.477 67.0305 365.628 130.466Z" stroke="url(#paint3_linear_31_1984)" stroke-width="1.51036"/>
<path d="M367.425 130.168C405.955 193.77 374.98 274.283 354.676 306.589H246.312C234.507 294.221 246.893 282.386 216.501 243.378C166.662 179.411 218.562 87.037 268.205 76.0444C292.522 70.2394 328.895 66.5655 367.425 130.168Z" fill="url(#paint4_linear_31_1984)"/>
<g filter="url(#filter3_f_31_1984)">
<path d="M203.683 119.529C253.306 74.8225 334.801 92.8462 369.345 107.446C378.927 90.5806 387.954 47.938 347.408 12.2935C306.862 -23.3511 192.336 29.6626 140.141 60.6251C140.645 98.8876 154.06 164.236 203.683 119.529Z" fill="#492B18"/>
<path d="M203.683 119.529C253.306 74.8225 334.801 92.8462 369.345 107.446C378.927 90.5806 387.954 47.938 347.408 12.2935C306.862 -23.3511 192.336 29.6626 140.141 60.6251C140.645 98.8876 154.06 164.236 203.683 119.529Z" stroke="black" stroke-width="1.51036"/>
</g>
</g>
<mask id="mask3_31_1984" style="mask-type:alpha" maskUnits="userSpaceOnUse" x="188" y="220" width="196" height="87">
<path d="M383.701 220.72C258.385 235.07 188.376 222.986 188.376 222.986C190.056 227.819 226.881 280.38 245.083 306.056L354.297 306.811C375.3 274.338 385.101 225.252 383.701 220.72Z" fill="url(#paint5_linear_31_1984)"/>
</mask>
<g mask="url(#mask3_31_1984)">
<path d="M383.701 220.72C258.385 235.07 188.376 222.986 188.376 222.986C190.056 227.819 226.881 280.38 245.083 306.056L354.297 306.811C375.3 274.338 385.101 225.252 383.701 220.72Z" fill="url(#paint6_linear_31_1984)"/>
<g filter="url(#filter4_f_31_1984)">
<path d="M186.273 229.783C245.641 241.866 344.027 232.3 385.799 226.007L387.899 215.435C379.265 216.441 351.915 219.21 311.589 222.231C271.264 225.252 207.042 220.973 179.972 218.455L186.273 229.783Z" fill="#2DBDDD"/>
</g>
</g>
<g filter="url(#filter5_di_31_1984)">
<mask id="mask4_31_1984" style="mask-type:alpha" maskUnits="userSpaceOnUse" x="270" y="143" width="32" height="44">
<path d="M291.384 143.375C286.274 142.044 281.38 144.853 279.713 146.424C277.047 148.864 274.714 151.415 273.048 155.851C271.382 160.287 270.382 163.947 270.826 170.823C271.271 177.699 276.103 182.468 281.657 185.518C284.342 186.165 291.378 188.013 296.936 181.913C301.493 176.913 302.802 166.941 301.379 157.792C300.731 153.633 296.494 144.705 291.384 143.375Z" fill="#D9D9D9"/>
</mask>
<g mask="url(#mask4_31_1984)">
<path d="M291.384 143.375C286.274 142.044 281.38 144.853 279.713 146.424C277.047 148.864 274.714 151.415 273.048 155.851C271.382 160.287 270.382 163.947 270.826 170.823C271.271 177.699 276.103 182.468 281.657 185.518C284.342 186.165 291.378 188.013 296.936 181.913C301.493 176.913 302.802 166.941 301.379 157.792C300.731 153.633 296.494 144.705 291.384 143.375Z" fill="#B1E7F3"/>
<mask id="mask5_31_1984" style="mask-type:alpha" maskUnits="userSpaceOnUse" x="269" y="143" width="31" height="45">
<path d="M290.592 144.027C285.073 142.589 280.093 145.624 278.293 147.321C275.413 149.957 272.493 155.208 271.393 157.504C270.693 159.899 269.413 166.548 269.893 173.975C270.373 181.402 276.893 186.054 280.093 187.452C282.993 188.15 289.992 188.17 294.792 182.66C299.592 177.15 299.992 164.791 299.592 159.301C298.892 154.808 296.112 145.464 290.592 144.027Z" fill="#1D281A"/>
</mask>
<g mask="url(#mask5_31_1984)">
<path d="M290.592 144.027C285.073 142.589 280.093 145.624 278.293 147.321C275.413 149.957 272.493 155.208 271.393 157.504C270.693 159.899 269.413 166.548 269.893 173.975C270.373 181.402 276.893 186.054 280.093 187.452C282.993 188.15 289.992 188.17 294.792 182.66C299.592 177.15 299.992 164.791 299.592 159.301C298.892 154.808 296.112 145.464 290.592 144.027Z" fill="#1D281A"/>
<g filter="url(#filter6_f_31_1984)">
<path d="M286.523 142.605C281.242 142.595 277.484 146.468 276.265 148.406C274.296 151.435 272.899 156.817 272.447 159.13C272.377 161.439 272.774 167.694 274.93 174.24C277.086 180.785 284.011 183.444 287.203 183.956C289.965 183.911 296.243 182.307 299.264 176.257C302.285 170.207 299.772 159.038 298.138 154.209C296.467 150.345 291.804 142.615 286.523 142.605Z" fill="#594C3C"/>
</g>
<g filter="url(#filter7_f_31_1984)">
<path d="M284.421 163.161C286.399 160.228 292.072 154.467 295.538 150.513L298.037 149.126C298.13 147.463 297.76 144.358 295.538 145.245C293.363 146.113 286.59 159.052 284.421 163.161C284.18 163.518 283.994 163.833 283.873 164.098C283.572 164.76 283.82 164.299 284.421 163.161Z" fill="#413A2C"/>
</g>
<g filter="url(#filter8_d_31_1984)">
<ellipse cx="4.72109" cy="5.2681" rx="4.72109" ry="5.2681" transform="matrix(-0.98789 -0.155157 -0.155666 0.98781 299.735 155.772)" fill="#FBFFFF"/>
</g>
</g>
</g>
</g>
<g filter="url(#filter9_di_31_1984)">
<mask id="mask6_31_1984" style="mask-type:alpha" maskUnits="userSpaceOnUse" x="221" y="143" width="32" height="44">
<path d="M241.752 143.375C236.642 142.044 231.747 144.853 230.081 146.424C227.415 148.864 225.082 151.415 223.416 155.851C221.749 160.287 220.75 163.947 221.194 170.823C221.638 177.699 226.471 182.468 232.025 185.518C234.71 186.165 241.745 188.013 247.304 181.913C251.861 176.913 253.169 166.941 251.746 157.792C251.098 153.633 246.862 144.705 241.752 143.375Z" fill="#D9D9D9"/>
</mask>
<g mask="url(#mask6_31_1984)">
<path d="M241.752 143.375C236.642 142.044 231.747 144.853 230.081 146.424C227.415 148.864 225.082 151.415 223.416 155.851C221.749 160.287 220.75 163.947 221.194 170.823C221.638 177.699 226.471 182.468 232.025 185.518C234.71 186.165 241.745 188.013 247.304 181.913C251.861 176.913 253.169 166.941 251.746 157.792C251.098 153.633 246.862 144.705 241.752 143.375Z" fill="#B1E7F3"/>
<mask id="mask7_31_1984" style="mask-type:alpha" maskUnits="userSpaceOnUse" x="220" y="143" width="31" height="45">
<path d="M240.96 144.027C235.441 142.59 230.461 145.624 228.661 147.321C225.781 149.957 222.861 155.208 221.762 157.504C221.062 159.9 219.782 166.548 220.262 173.975C220.742 181.402 227.261 186.054 230.461 187.452C233.361 188.151 240.36 188.171 245.16 182.66C249.96 177.15 250.36 164.791 249.96 159.301C249.26 154.808 246.48 145.465 240.96 144.027Z" fill="#1D281A"/>
</mask>
<g mask="url(#mask7_31_1984)">
<path d="M240.96 144.027C235.441 142.59 230.461 145.624 228.661 147.321C225.781 149.957 222.861 155.208 221.762 157.504C221.062 159.9 219.782 166.548 220.262 173.975C220.742 181.402 227.261 186.054 230.461 187.452C233.361 188.151 240.36 188.171 245.16 182.66C249.96 177.15 250.36 164.791 249.96 159.301C249.26 154.808 246.48 145.465 240.96 144.027Z" fill="#1D281A"/>
<g filter="url(#filter10_f_31_1984)">
<path d="M236.891 142.605C231.61 142.595 227.852 146.468 226.633 148.406C224.664 151.435 223.268 156.817 222.815 159.13C222.745 161.439 223.143 167.694 225.299 174.24C227.455 180.785 234.379 183.444 237.572 183.956C240.333 183.911 246.611 182.307 249.632 176.257C252.654 170.207 250.14 159.038 248.506 154.209C246.835 150.345 242.172 142.615 236.891 142.605Z" fill="#594C3C"/>
</g>
<g filter="url(#filter11_f_31_1984)">
<path d="M234.789 163.161C236.767 160.228 242.44 154.467 245.906 150.513L248.405 149.126C248.498 147.463 248.128 144.358 245.906 145.245C243.731 146.113 236.958 159.052 234.789 163.161C234.548 163.518 234.362 163.833 234.241 164.098C233.94 164.76 234.188 164.299 234.789 163.161Z" fill="#413A2C"/>
</g>
<g filter="url(#filter12_d_31_1984)">
<ellipse cx="4.72109" cy="5.2681" rx="4.72109" ry="5.2681" transform="matrix(-0.98789 -0.155157 -0.155666 0.98781 250.104 155.772)" fill="#FBFFFF"/>
</g>
</g>
</g>
</g>
<ellipse cx="15.8854" cy="10.5725" rx="15.8854" ry="10.5725" transform="matrix(-1 0 0 1 380.663 536.386)" fill="url(#paint7_radial_31_1984)"/>
<path d="M381.42 543.183C381.42 549.022 432.406 553 441.179 553C449.953 553 460.847 528.632 460.847 522.793C460.847 516.954 453.735 512.221 444.961 512.221C436.188 512.221 381.42 537.344 381.42 543.183Z" fill="black"/>
<mask id="mask8_31_1984" style="mask-type:alpha" maskUnits="userSpaceOnUse" x="368" y="501" width="72" height="50">
<path d="M369.947 541.673C365.711 533.819 370.703 520.779 373.729 515.241L376.755 508.445C379.529 509.2 386.892 510.559 394.154 509.955C401.416 509.351 415.839 504.165 422.142 501.648C425.672 507.186 433.64 519.47 437.271 524.304C441.809 530.345 438.783 541.673 437.271 544.694C436.06 547.11 409.03 549.728 395.666 550.735C388.858 550.987 374.183 549.527 369.947 541.673Z" fill="#D9D9D9"/>
</mask>
<g mask="url(#mask8_31_1984)">
<path d="M369.947 541.673C365.711 533.819 370.703 520.779 373.729 515.241L376.755 508.445C379.529 509.2 386.892 510.559 394.154 509.955C401.416 509.351 415.839 504.165 422.142 501.648C425.672 507.186 433.64 519.47 437.271 524.304C441.809 530.345 438.783 541.673 437.271 544.694C436.06 547.11 409.03 549.728 395.666 550.735C388.858 550.987 374.183 549.527 369.947 541.673Z" fill="url(#paint8_linear_31_1984)"/>
<path d="M369.947 541.673C365.711 533.819 370.703 520.779 373.729 515.241L376.755 508.445C379.529 509.2 386.892 510.559 394.154 509.955C401.416 509.351 415.839 504.165 422.142 501.648C425.672 507.186 433.64 519.47 437.271 524.304C441.809 530.345 438.783 541.673 437.271 544.694C436.06 547.11 409.03 549.728 395.666 550.735C388.858 550.987 374.183 549.527 369.947 541.673Z" fill="url(#paint9_linear_31_1984)"/>
<path d="M369.947 541.673C365.711 533.819 370.703 520.779 373.729 515.241L376.755 508.445C379.529 509.2 386.892 510.559 394.154 509.955C401.416 509.351 415.839 504.165 422.142 501.648C425.672 507.186 433.64 519.47 437.271 524.304C441.809 530.345 438.783 541.673 437.271 544.694C436.06 547.11 409.03 549.728 395.666 550.735C388.858 550.987 374.183 549.527 369.947 541.673Z" fill="url(#paint10_linear_31_1984)"/>
<path d="M369.947 541.673C365.711 533.819 370.703 520.779 373.729 515.241L376.755 508.445C379.529 509.2 386.892 510.559 394.154 509.955C401.416 509.351 415.839 504.165 422.142 501.648C425.672 507.186 433.64 519.47 437.271 524.304C441.809 530.345 438.783 541.673 437.271 544.694C436.06 547.11 409.03 549.728 395.666 550.735C388.858 550.987 374.183 549.527 369.947 541.673Z" fill="url(#paint11_linear_31_1984)"/>
<g filter="url(#filter13_f_31_1984)">
<path d="M373.728 515.241C370.703 520.779 359.031 517.96 363.267 525.814C367.503 533.668 393.525 532.862 400.333 532.611C410.35 531.856 428.893 528.075 438.063 525.21C442.167 529.137 444.872 519.952 443.449 522.793C443.145 523.399 441.128 524.253 438.063 525.21C437.804 524.963 437.54 524.662 437.27 524.304C433.639 519.47 425.672 507.186 422.142 501.648C415.838 504.165 401.415 509.351 394.153 509.955C386.891 510.559 379.529 509.2 376.755 508.445L373.728 515.241Z" fill="black"/>
</g>
<g filter="url(#filter14_f_31_1984)">
<path d="M410.165 546.204C416.216 545.6 431.85 542.932 438.91 541.673C439.666 543.687 440.725 548.47 438.91 551.491C436.641 555.266 416.974 546.204 411.678 549.225C406.383 552.246 386.716 549.225 378.395 546.204C371.738 543.788 363.517 539.408 361.752 534.877C366.291 537.142 375.822 541.673 377.638 541.673C379.907 541.673 402.6 546.959 410.165 546.204Z" fill="#209EBA"/>
</g>
</g>
<path d="M255.098 531.857C255.098 537.696 286.416 540.164 295.19 540.164C303.963 540.164 321.665 528.633 321.665 522.794C321.665 516.955 314.553 512.222 305.78 512.222C297.007 512.222 255.098 526.018 255.098 531.857Z" fill="black"/>
<mask id="mask9_31_1984" style="mask-type:alpha" maskUnits="userSpaceOnUse" x="249" y="501" width="52" height="38">
<path d="M250.559 534.122C246.323 526.268 260.393 528.333 263.419 522.795L257.367 510.712C260.141 511.467 261.452 502.254 268.714 501.65C275.976 501.045 276.656 504.166 282.959 501.649C286.489 507.187 296.096 511.165 299.727 515.998C304.266 522.04 293.676 528.081 292.163 531.102C290.952 533.518 286.615 536.136 273.251 537.143C266.443 537.395 254.795 541.976 250.559 534.122Z" fill="#D9D9D9"/>
</mask>
<g mask="url(#mask9_31_1984)">
<path d="M248.604 531.516C245.445 525.651 249.168 515.912 251.424 511.776L253.68 506.7C255.748 507.264 261.238 508.279 266.653 507.828C272.067 507.377 282.821 503.504 287.521 501.624C290.153 505.76 296.093 514.935 298.8 518.544C302.184 523.056 299.928 531.516 298.8 533.772C297.898 535.577 277.744 537.532 267.78 538.285C262.704 538.473 251.762 537.382 248.604 531.516Z" fill="url(#paint12_linear_31_1984)"/>
<path d="M248.604 531.516C245.445 525.651 249.168 515.912 251.424 511.776L253.68 506.7C255.748 507.264 261.238 508.279 266.653 507.828C272.067 507.377 282.821 503.504 287.521 501.624C290.153 505.76 296.093 514.935 298.8 518.544C302.184 523.056 299.928 531.516 298.8 533.772C297.898 535.577 277.744 537.532 267.78 538.285C262.704 538.473 251.762 537.382 248.604 531.516Z" fill="url(#paint13_linear_31_1984)"/>
<path d="M248.604 531.516C245.445 525.651 249.168 515.912 251.424 511.776L253.68 506.7C255.748 507.264 261.238 508.279 266.653 507.828C272.067 507.377 282.821 503.504 287.521 501.624C290.153 505.76 296.093 514.935 298.8 518.544C302.184 523.056 299.928 531.516 298.8 533.772C297.898 535.577 277.744 537.532 267.78 538.285C262.704 538.473 251.762 537.382 248.604 531.516Z" fill="url(#paint14_linear_31_1984)"/>
<path d="M248.604 531.516C245.445 525.651 249.168 515.912 251.424 511.776L253.68 506.7C255.748 507.264 261.238 508.279 266.653 507.828C272.067 507.377 282.821 503.504 287.521 501.624C290.153 505.76 296.093 514.935 298.8 518.544C302.184 523.056 299.928 531.516 298.8 533.772C297.898 535.577 277.744 537.532 267.78 538.285C262.704 538.473 251.762 537.382 248.604 531.516Z" fill="url(#paint15_linear_31_1984)"/>
<g filter="url(#filter15_f_31_1984)">
<path d="M251.423 511.776C249.167 515.912 240.465 513.807 243.623 519.672C246.782 525.538 266.183 524.936 271.259 524.748C278.728 524.185 292.554 521.361 299.391 519.222C302.45 522.154 304.467 515.294 303.406 517.416C303.18 517.868 301.676 518.507 299.391 519.222C299.198 519.036 299 518.812 298.8 518.544C296.092 514.935 290.152 505.76 287.52 501.624C282.82 503.504 272.066 507.377 266.652 507.828C261.237 508.279 255.748 507.264 253.68 506.7L251.423 511.776Z" fill="black"/>
</g>
<g filter="url(#filter16_f_31_1984)">
<path d="M278.591 534.901C283.103 534.449 294.759 532.456 300.023 531.516C300.587 533.02 301.377 536.593 300.023 538.849C298.331 541.669 283.667 534.901 279.719 537.157C275.771 539.413 261.107 537.157 254.903 534.901C249.94 533.096 243.811 529.824 242.495 526.44C245.879 528.132 252.985 531.516 254.339 531.516C256.031 531.516 272.951 535.465 278.591 534.901Z" fill="#209EBA"/>
</g>
</g>
<mask id="mask10_31_1984" style="mask-type:alpha" maskUnits="userSpaceOnUse" x="233" y="525" width="39" height="22">
<path d="M233.919 539.408C233.919 545.247 241.788 546.205 250.561 546.205C259.334 546.205 271.741 545.247 271.741 539.408C271.741 533.569 257.065 525.815 248.292 525.815C239.518 525.815 233.919 533.569 233.919 539.408Z" fill="url(#paint16_radial_31_1984)"/>
</mask>
<g mask="url(#mask10_31_1984)">
<ellipse cx="22.6935" cy="15.1036" rx="22.6935" ry="15.1036" transform="matrix(-1 0 0 1 273.253 521.284)" fill="url(#paint17_radial_31_1984)"/>
<g filter="url(#filter17_f_31_1984)">
<ellipse cx="15.8854" cy="10.5725" rx="15.8854" ry="10.5725" transform="matrix(-1 0 0 1 282.332 518.263)" fill="black"/>
</g>
</g>
<mask id="mask11_31_1984" style="mask-type:alpha" maskUnits="userSpaceOnUse" x="221" y="310" width="183" height="259">
<path d="M319.572 568.119C400.75 568.119 408.423 549.143 402.113 539.655L394.539 317.638C342.289 312.578 236.576 305.493 231.73 317.638C226.883 329.783 222.643 402.397 221.128 437.186V548.194C220.119 554.836 238.395 568.119 319.572 568.119Z" fill="url(#paint18_linear_31_1984)"/>
</mask>
<g mask="url(#mask11_31_1984)">
<path d="M319.572 574.887C400.75 574.887 408.423 555.412 402.113 545.674L394.539 317.814C342.289 312.621 236.576 305.35 231.73 317.814C226.883 330.279 222.643 404.804 221.128 440.508V554.438C220.119 561.254 238.395 574.887 319.572 574.887Z" fill="url(#paint19_linear_31_1984)"/>
</g>
<path d="M221.811 506.18V498.628L217.273 429.907L214.247 412.537C212.23 431.417 208.044 472.65 207.439 486.545C206.834 500.441 209.204 513.983 210.465 519.018L221.811 506.18Z" fill="url(#paint20_linear_31_1984)"/>
<g filter="url(#filter18_d_31_1984)">
<path d="M224.778 556.231C221.871 460.021 229.137 344.657 233.497 310.932C228.265 310.932 222.598 333.84 220.418 345.293C217.027 380.927 210.391 457.157 210.972 477.01C211.554 496.863 217.996 547.323 220.418 559.095L224.778 556.231Z" fill="#00C5D2"/>
</g>
<mask id="mask12_31_1984" style="mask-type:alpha" maskUnits="userSpaceOnUse" x="345" y="311" width="161" height="266">
<path d="M345.11 461.125V313.345C381.42 311.834 458.426 309.72 475.976 313.345C493.526 316.969 503.582 500.923 505.347 549.507C502.826 551.772 454.343 545.484 399.878 572.067C345.414 598.649 349.901 483.277 345.11 461.125Z" fill="#03C087"/>
</mask>
<g mask="url(#mask12_31_1984)">
<path d="M345.111 550.634V313.344C381.42 311.834 458.427 309.72 475.976 313.344C493.526 316.969 523.323 509.383 525.088 557.967C522.566 560.232 482.028 557.28 427.564 583.862C373.099 610.445 349.902 572.786 345.111 550.634Z" fill="#03A9C0"/>
<g filter="url(#filter19_f_31_1984)">
<path d="M349.651 444.255V300.771H342.086V364.961V438.214C341.077 448.534 339.665 470.686 342.086 476.728C345.112 484.28 351.613 564.171 359.934 570.212C366.591 575.045 389.436 581.288 400.026 583.805C406.582 583.553 410.768 579.274 375.063 564.171C349.651 539.354 355.886 501.002 349.651 444.255Z" fill="#4AC3DE"/>
</g>
</g>
<g filter="url(#filter20_d_31_1984)">
<path d="M480.425 302.282C480.425 302.282 321.399 310.05 230.981 302.282C230.981 302.282 223.96 310.049 230.981 316.263C342.446 325.584 480.425 316.263 480.425 316.263C487.435 310.049 480.425 302.282 480.425 302.282Z" fill="#D9D9D9"/>
</g>
<g filter="url(#filter21_d_31_1984)">
<path d="M480.425 302.282C480.425 302.282 321.399 310.05 230.981 302.282C230.981 302.282 223.96 310.049 230.981 316.263C342.446 325.584 480.425 316.263 480.425 316.263C487.435 310.049 480.425 302.282 480.425 302.282Z" fill="url(#paint21_linear_31_1984)"/>
</g>
<mask id="mask13_31_1984" style="mask-type:alpha" maskUnits="userSpaceOnUse" x="227" y="302" width="257" height="19">
<path d="M480.425 302.281C480.425 302.281 321.399 310.05 230.981 302.281C230.981 302.281 223.96 310.049 230.981 316.263C342.446 325.584 480.425 316.263 480.425 316.263C487.435 310.049 480.425 302.281 480.425 302.281Z" fill="#D9D9D9"/>
</mask>
<g mask="url(#mask13_31_1984)">
<g filter="url(#filter22_f_31_1984)">
<path d="M377.638 312.854C431.497 314.062 473.707 307.819 488.08 304.547C490.097 299.764 493.677 289.594 491.862 287.178C489.593 284.157 452.527 283.402 421.512 290.198C396.701 295.636 273.5 292.464 215.001 290.198C212.984 294.981 210.614 305 217.271 306.812C225.592 309.078 310.314 311.343 377.638 312.854Z" fill="#69E1FC"/>
</g>
</g>
<mask id="mask14_31_1984" style="mask-type:alpha" maskUnits="userSpaceOnUse" x="246" y="346" width="75" height="81">
<rect x="-0.572584" y="0.53441" width="71.0647" height="75.5767" transform="matrix(-0.99863 -0.052336 -0.0165799 0.999863 319.119 349.817)" fill="#0D7458" stroke="#FBE7B0" stroke-width="1.12801"/>
</mask>
<g mask="url(#mask14_31_1984)">
<rect x="-0.572584" y="0.53441" width="71.0647" height="75.5767" transform="matrix(-0.99863 -0.052336 -0.0165799 0.999863 319.119 349.817)" fill="#0D6874" stroke="#FBE7B0" stroke-width="1.12801"/>
<path d="M297.52 361.072C289.052 361.757 282.275 362.531 281.167 361.344C280.059 360.157 269.893 361.318 269.311 362.416C268.729 363.514 265.941 361.675 264.27 360.458M309.724 373C300.139 373.062 288.791 377.547 284.313 375.619C279.835 373.691 274.156 376.216 269.087 375.95C264.018 375.685 261.718 378.386 258.949 375.419M309.565 382.587C301.67 382.738 299.417 382.619 293.194 383.987C286.97 385.354 282.999 386.839 277.949 385.445C272.898 384.052 269.556 381.619 262.76 383.52M309.396 392.738C303.201 392.413 300.422 390.01 294.189 391.941C287.956 393.872 286.83 393.813 280.653 392.36C274.476 390.907 273.368 389.721 269.97 390.671M308.158 399.446C301.943 400.249 304.215 399.239 298.583 398.944C289.552 399.599 288.388 401.796 285.582 401.085C282.775 400.373 276.025 399.455 274.317 400.494C272.609 401.534 268.075 402.989 266.995 400.111C265.915 397.232 261.963 397.589 260.264 398.065M309.144 407.964C305.774 407.223 308.571 408.498 303.493 408.796C298.414 409.095 297.879 407.373 297.307 407.908C296.734 408.442 293.918 408.295 292.791 408.235C291.665 408.176 295.044 408.354 289.412 408.058C284.906 407.822 282.653 407.704 282.09 407.675L279.246 409.219L275.303 409.012L269.671 408.717" stroke="#4BBDBD" stroke-width="1.12801"/>
</g>
<rect width="135.361" height="166.946" transform="matrix(0.866025 -0.5 2.20305e-08 1 4.51196 330.783)" fill="#3F3931"/>
<rect width="122.537" height="140.061" transform="matrix(0.866025 -0.5 2.20305e-08 1 10.0662 335.485)" fill="#2A99B1"/>
<rect width="5.21006" height="166.946" transform="matrix(-0.866025 -0.5 -2.20305e-08 1 4.51196 330.783)" fill="#15130F"/>
<rect width="135.361" height="5.06259" transform="matrix(0.866025 -0.5 -0.866025 -0.5 4.51196 330.783)" fill="#534D44"/>
<path d="M40.6972 390.269C40.6972 392.451 40.2752 394.453 39.4311 396.274C38.587 398.095 37.4442 399.422 36.0025 400.254C34.531 401.104 33.3732 401.22 32.5291 400.603L32.5291 407.507L30.4563 408.704L30.4563 388.854L32.3499 387.761L32.4507 389.293C33.2948 387.569 34.4675 386.273 35.9689 385.406C37.4255 384.565 38.5758 384.55 39.4199 385.362C40.2715 386.169 40.6972 387.729 40.6972 390.044L40.6972 390.269ZM38.6244 391.188C38.6244 389.571 38.3331 388.463 37.7504 387.863C37.1678 387.263 36.3685 387.256 35.3527 387.842C34.0978 388.567 33.1566 389.768 32.5291 391.447L32.5291 398.298C33.1491 399.247 34.0978 399.353 35.3751 398.616C36.3685 398.042 37.1566 397.123 37.7392 395.859C38.3293 394.582 38.6244 393.025 38.6244 391.188Z" fill="white"/>
<path d="M49.2015 380.231C48.8877 380.35 48.5479 380.516 48.1818 380.727C46.8224 381.512 45.8999 382.729 45.4143 384.379L45.4143 394.555L43.3415 395.752L43.3415 381.415L45.3583 380.25L45.3919 381.887C46.0717 380.214 47.0352 379.017 48.2827 378.297C48.686 378.064 48.9923 377.949 49.2015 377.952L49.2015 380.231Z" fill="white"/>
<path d="M58.1539 387.2C58.0343 386.986 57.9372 386.539 57.8625 385.858C56.899 387.598 55.7486 388.854 54.4116 389.626C53.2164 390.316 52.2341 390.485 51.4648 390.134C50.7029 389.77 50.3219 388.975 50.3219 387.747C50.3219 386.254 50.8 384.82 51.7561 383.447C52.7197 382.06 54.0717 380.864 55.8121 379.86L57.8289 378.695L57.8289 377.569C57.8289 376.712 57.6123 376.157 57.1791 375.903C56.7458 375.641 56.1072 375.754 55.2631 376.241C54.5236 376.668 53.9036 377.247 53.4031 377.978C52.9027 378.708 52.6524 379.387 52.6524 380.014L50.5684 381.217C50.5684 380.502 50.7813 379.69 51.2071 378.782C51.6403 377.86 52.2229 376.994 52.955 376.182C53.6945 375.367 54.5049 374.704 55.3863 374.196C56.7832 373.389 57.8775 373.173 58.6693 373.546C59.4611 373.91 59.8719 374.808 59.9018 376.24L59.9018 382.838C59.9018 384.155 60.0437 385.12 60.3275 385.733L60.3275 385.945L58.1539 387.2ZM54.7141 387.318C55.3639 386.942 55.9802 386.388 56.5628 385.654C57.1455 384.92 57.5675 384.16 57.8289 383.373L57.8289 380.431L56.2043 381.369C53.6646 382.835 52.3947 384.447 52.3947 386.205C52.3947 386.974 52.6114 387.45 53.0446 387.632C53.4778 387.815 54.0343 387.71 54.7141 387.318Z" fill="white"/>
<path d="M66.9382 378.537L69.7617 366.161L71.9802 364.88L67.1063 384.244C66.3518 387.065 65.1529 388.95 63.5096 389.899L63.1175 390.085L62.3444 390.359L62.3444 388.372L62.9046 388.101C63.6067 387.696 64.152 387.213 64.5404 386.653C64.9363 386.089 65.2613 385.287 65.5152 384.249L65.9746 382.526L61.6497 370.844L63.913 369.538L66.9382 378.537Z" fill="white"/>
<path d="M78.7142 375.595C77.0708 376.543 75.7337 376.679 74.7029 376.002C73.6721 375.317 73.1567 373.905 73.1567 371.767L73.1567 371.317C73.1567 369.894 73.3845 368.495 73.8402 367.119C74.3033 365.73 74.9457 364.484 75.7674 363.383C76.5965 362.268 77.4929 361.432 78.4564 360.876C80.0325 359.966 81.2576 359.873 82.1315 360.596C83.0055 361.319 83.4425 362.825 83.4425 365.113L83.4425 366.133L75.2295 370.875C75.2594 372.271 75.6068 373.215 76.2716 373.705C76.9438 374.183 77.7954 374.124 78.8262 373.529C79.5582 373.106 80.1782 372.572 80.6861 371.925C81.1941 371.279 81.6385 370.554 82.0195 369.751L83.2856 370.186C82.2697 372.619 80.7459 374.422 78.7142 375.595ZM78.4564 362.89C77.6198 363.373 76.9177 364.141 76.35 365.193C75.7823 366.236 75.4312 367.446 75.2968 368.822L81.3696 365.316L81.3696 365.13C81.3099 363.919 81.026 363.12 80.5181 362.733C80.0101 362.338 79.3229 362.39 78.4564 362.89Z" fill="white"/>
<path d="M92.8428 355.182C92.3836 355.493 91.0578 355.973 90.6918 356.184C89.3323 356.969 88.1023 358.162 87.8285 359.476C87.5547 360.789 87.5318 369.096 87.5318 369.096C87.5318 369.096 88.5998 369.091 89.1338 368.851C89.6677 368.61 89.6084 369.305 89.6084 369.305L85.8514 371.474C85.8514 371.474 85.5146 360.379 85.8514 358.528C86.1882 356.677 87.8878 355.499 89.4897 354.506C91.0917 353.513 92.3836 353.491 92.8428 353.434C93.3019 353.378 93.4404 353.693 93.9343 353.503C94.4283 353.314 94.6753 353.639 93.9343 354.183C93.1934 354.727 93.3019 354.87 92.8428 355.182Z" fill="white"/>
<path d="M95.8809 352.819C95.8809 353.266 95.5284 353.615 95.0369 353.916C95.0025 353.937 94.908 354.128 94.8723 354.149C94.8379 354.169 94.8631 354.017 94.8294 354.035C94.7151 354.095 94.6059 354.141 94.5054 354.172C94.4931 354.176 94.3606 354.206 94.3491 354.208C94.0955 354.244 93.9276 354.143 93.9276 353.854C93.9276 353.375 94.3699 352.731 94.9155 352.416C95.4612 352.101 95.8809 352.34 95.8809 352.819Z" fill="white"/>
<rect width="58.6132" height="136.111" transform="matrix(0.866025 -0.5 2.20305e-08 1 60.9106 105.147)" fill="#3F3931"/>
<rect width="45.6872" height="110.084" transform="matrix(0.866025 -0.5 2.20305e-08 1 66.4648 109.85)" fill="#2A99B1"/>
<rect width="5.21006" height="136.058" transform="matrix(-0.866025 -0.5 -2.20305e-08 1 60.9106 105.147)" fill="#15130F"/>
<rect width="58.5908" height="5.06259" transform="matrix(0.866025 -0.5 -0.866025 -0.5 60.9106 105.147)" fill="#534D44"/>
<path d="M80.6559 158.621C80.6559 159.223 80.5395 159.775 80.3066 160.278C80.0738 160.78 79.7585 161.146 79.3608 161.376C78.9549 161.61 78.6355 161.642 78.4026 161.472L78.4026 163.377L77.8308 163.707L77.8308 158.231L78.3532 157.929L78.381 158.352C78.6138 157.876 78.9374 157.519 79.3515 157.28C79.7534 157.048 80.0707 157.044 80.3035 157.268C80.5384 157.49 80.6559 157.921 80.6559 158.559L80.6559 158.621ZM80.0841 158.875C80.0841 158.429 80.0037 158.123 79.843 157.957C79.6823 157.792 79.4618 157.79 79.1815 157.952C78.8354 158.152 78.5757 158.483 78.4026 158.946L78.4026 160.836C78.5737 161.098 78.8354 161.127 79.1877 160.924C79.4618 160.766 79.6792 160.512 79.8399 160.163C80.0027 159.811 80.0841 159.382 80.0841 158.875Z" fill="white"/>
<path d="M83.0019 155.852C82.9153 155.885 82.8216 155.931 82.7206 155.989C82.3456 156.206 82.0911 156.541 81.9572 156.996L81.9572 159.804L81.3853 160.134L81.3853 156.179L81.9417 155.858L81.951 156.309C82.1385 155.847 82.4043 155.517 82.7484 155.319C82.8597 155.254 82.9442 155.223 83.0019 155.224L83.0019 155.852Z" fill="white"/>
<path d="M85.4715 157.775C85.4385 157.716 85.4118 157.592 85.3912 157.404C85.1253 157.884 84.808 158.231 84.4392 158.444C84.1095 158.634 83.8385 158.681 83.6262 158.584C83.4161 158.484 83.311 158.264 83.311 157.925C83.311 157.514 83.4429 157.118 83.7066 156.739C83.9724 156.357 84.3454 156.027 84.8255 155.75L85.3819 155.429L85.3819 155.118C85.3819 154.881 85.3221 154.728 85.2026 154.658C85.0831 154.586 84.9069 154.617 84.6741 154.752C84.4701 154.869 84.299 155.029 84.161 155.231C84.0229 155.432 83.9539 155.619 83.9539 155.792L83.379 156.124C83.379 155.927 83.4377 155.703 83.5552 155.452C83.6747 155.198 83.8354 154.959 84.0373 154.735C84.2413 154.51 84.4649 154.328 84.7081 154.187C85.0934 153.965 85.3953 153.905 85.6137 154.008C85.8321 154.109 85.9455 154.356 85.9537 154.751L85.9537 156.572C85.9537 156.935 85.9928 157.201 86.0712 157.37L86.0712 157.429L85.4715 157.775ZM84.5226 157.807C84.7019 157.704 84.8719 157.551 85.0326 157.348C85.1933 157.146 85.3098 156.936 85.3819 156.719L85.3819 155.907L84.9337 156.166C84.2331 156.571 83.8828 157.015 83.8828 157.5C83.8828 157.712 83.9426 157.844 84.0621 157.894C84.1816 157.944 84.3351 157.915 84.5226 157.807Z" fill="white"/>
<path d="M87.8948 155.385L88.6737 151.971L89.2857 151.617L87.9411 156.959C87.733 157.737 87.4023 158.257 86.949 158.519L86.8408 158.571L86.6275 158.646L86.6275 158.098L86.7821 158.023C86.9758 157.911 87.1262 157.778 87.2333 157.624C87.3425 157.468 87.4322 157.247 87.5022 156.961L87.629 156.485L86.4359 153.263L87.0602 152.902L87.8948 155.385Z" fill="white"/>
<path d="M91.1433 154.573C90.69 154.835 90.3211 154.872 90.0368 154.686C89.7524 154.497 89.6102 154.107 89.6102 153.517L89.6102 153.393C89.6102 153.001 89.6731 152.615 89.7988 152.235C89.9265 151.852 90.1037 151.508 90.3304 151.204C90.5591 150.897 90.8064 150.666 91.0722 150.513C91.507 150.262 91.845 150.236 92.086 150.436C92.3271 150.635 92.4477 151.051 92.4477 151.682L92.4477 151.963L90.1821 153.271C90.1903 153.656 90.2861 153.917 90.4695 154.052C90.655 154.184 90.8899 154.168 91.1742 154.003C91.3762 153.887 91.5472 153.739 91.6873 153.561C91.8274 153.383 91.95 153.183 92.0551 152.961L92.4044 153.081C92.1242 153.752 91.7038 154.25 91.1433 154.573ZM91.0722 151.069C90.8414 151.202 90.6477 151.414 90.4911 151.704C90.3345 151.992 90.2377 152.325 90.2006 152.705L91.8759 151.738L91.8759 151.687C91.8594 151.352 91.7811 151.132 91.641 151.025C91.5008 150.916 91.3113 150.931 91.0722 151.069Z" fill="white"/>
<path d="M95.0409 148.942C94.9142 149.028 94.5485 149.16 94.4475 149.219C94.0725 149.435 93.7331 149.764 93.6576 150.127C93.5821 150.489 93.5758 152.78 93.5758 152.78C93.5758 152.78 93.8704 152.779 94.0177 152.713C94.165 152.646 94.1486 152.838 94.1486 152.838L93.1122 153.436C93.1122 153.436 93.0193 150.376 93.1122 149.865C93.2051 149.355 93.674 149.03 94.1159 148.756C94.5578 148.482 94.9142 148.476 95.0409 148.46C95.1675 148.445 95.2057 148.531 95.342 148.479C95.4783 148.427 95.5464 148.516 95.342 148.667C95.1376 148.817 95.1675 148.856 95.0409 148.942Z" fill="white"/>
<path d="M95.879 148.29C95.879 148.414 95.7817 148.51 95.6461 148.593C95.6367 148.599 95.6106 148.651 95.6007 148.657C95.5912 148.663 95.5982 148.621 95.5889 148.626C95.5574 148.642 95.5272 148.655 95.4995 148.664C95.4961 148.665 95.4596 148.673 95.4564 148.673C95.3865 148.683 95.3401 148.656 95.3401 148.576C95.3401 148.444 95.4621 148.266 95.6127 148.179C95.7632 148.092 95.879 148.158 95.879 148.29Z" fill="white"/>
<defs>
<filter id="filter0_f_31_1984" x="201.26" y="484.109" width="377.738" height="121.493" filterUnits="userSpaceOnUse" color-interpolation-filters="sRGB">
<feFlood flood-opacity="0" result="BackgroundImageFix"/>
<feBlend mode="normal" in="SourceGraphic" in2="BackgroundImageFix" result="shape"/>
<feGaussianBlur stdDeviation="16.614" result="effect1_foregroundBlur_31_1984"/>
</filter>
<filter id="filter1_f_31_1984" x="296.825" y="-99.3348" width="436.231" height="406.285" filterUnits="userSpaceOnUse" color-interpolation-filters="sRGB">
<feFlood flood-opacity="0" result="BackgroundImageFix"/>
<feBlend mode="normal" in="SourceGraphic" in2="BackgroundImageFix" result="shape"/>
<feGaussianBlur stdDeviation="17.3692" result="effect1_foregroundBlur_31_1984"/>
</filter>
<filter id="filter2_f_31_1984" x="43.9926" y="96.4605" width="243.495" height="275.861" filterUnits="userSpaceOnUse" color-interpolation-filters="sRGB">
<feFlood flood-opacity="0" result="BackgroundImageFix"/>
<feBlend mode="normal" in="SourceGraphic" in2="BackgroundImageFix" result="shape"/>
<feGaussianBlur stdDeviation="15.8588" result="effect1_foregroundBlur_31_1984"/>
</filter>
<filter id="filter3_f_31_1984" x="116.725" y="-22.9949" width="284.185" height="181.002" filterUnits="userSpaceOnUse" color-interpolation-filters="sRGB">
<feFlood flood-opacity="0" result="BackgroundImageFix"/>
<feBlend mode="normal" in="SourceGraphic" in2="BackgroundImageFix" result="shape"/>
<feGaussianBlur stdDeviation="11.3277" result="effect1_foregroundBlur_31_1984"/>
</filter>
<filter id="filter4_f_31_1984" x="173.931" y="209.393" width="220.01" height="32.2311" filterUnits="userSpaceOnUse" color-interpolation-filters="sRGB">
<feFlood flood-opacity="0" result="BackgroundImageFix"/>
<feBlend mode="normal" in="SourceGraphic" in2="BackgroundImageFix" result="shape"/>
<feGaussianBlur stdDeviation="3.02072" result="effect1_foregroundBlur_31_1984"/>
</filter>
<filter id="filter5_di_31_1984" x="261.736" y="140.631" width="41.9864" height="54.0456" filterUnits="userSpaceOnUse" color-interpolation-filters="sRGB">
<feFlood flood-opacity="0" result="BackgroundImageFix"/>
<feColorMatrix in="SourceAlpha" type="matrix" values="0 0 0 0 0 0 0 0 0 0 0 0 0 0 0 0 0 0 127 0" result="hardAlpha"/>
<feOffset dx="-3.59376" dy="2.9948"/>
<feGaussianBlur stdDeviation="2.69532"/>
<feComposite in2="hardAlpha" operator="out"/>
<feColorMatrix type="matrix" values="0 0 0 0 0.67451 0 0 0 0 0.427451 0 0 0 0 0.294118 0 0 0 0.74 0"/>
<feBlend mode="normal" in2="BackgroundImageFix" result="effect1_dropShadow_31_1984"/>
<feBlend mode="normal" in="SourceGraphic" in2="effect1_dropShadow_31_1984" result="shape"/>
<feColorMatrix in="SourceAlpha" type="matrix" values="0 0 0 0 0 0 0 0 0 0 0 0 0 0 0 0 0 0 127 0" result="hardAlpha"/>
<feOffset dx="0.554514"/>
<feGaussianBlur stdDeviation="0.554514"/>
<feComposite in2="hardAlpha" operator="arithmetic" k2="-1" k3="1"/>
<feColorMatrix type="matrix" values="0 0 0 0 0 0 0 0 0 0 0 0 0 0 0 0 0 0 0.67 0"/>
<feBlend mode="normal" in2="shape" result="effect2_innerShadow_31_1984"/>
</filter>
<filter id="filter6_f_31_1984" x="269.113" y="139.278" width="34.8929" height="48.0055" filterUnits="userSpaceOnUse" color-interpolation-filters="sRGB">
<feFlood flood-opacity="0" result="BackgroundImageFix"/>
<feBlend mode="normal" in="SourceGraphic" in2="BackgroundImageFix" result="shape"/>
<feGaussianBlur stdDeviation="1.66354" result="effect1_foregroundBlur_31_1984"/>
</filter>
<filter id="filter7_f_31_1984" x="282.081" y="143.425" width="17.6323" height="22.6419" filterUnits="userSpaceOnUse" color-interpolation-filters="sRGB">
<feFlood flood-opacity="0" result="BackgroundImageFix"/>
<feBlend mode="normal" in="SourceGraphic" in2="BackgroundImageFix" result="shape"/>
<feGaussianBlur stdDeviation="0.831771" result="effect1_foregroundBlur_31_1984"/>
</filter>
<filter id="filter8_d_31_1984" x="287.297" y="154.433" width="13.9085" height="14.9477" filterUnits="userSpaceOnUse" color-interpolation-filters="sRGB">
<feFlood flood-opacity="0" result="BackgroundImageFix"/>
<feColorMatrix in="SourceAlpha" type="matrix" values="0 0 0 0 0 0 0 0 0 0 0 0 0 0 0 0 0 0 127 0" result="hardAlpha"/>
<feOffset dy="1.66354"/>
<feGaussianBlur stdDeviation="1.10903"/>
<feComposite in2="hardAlpha" operator="out"/>
<feColorMatrix type="matrix" values="0 0 0 0 0 0 0 0 0 0 0 0 0 0 0 0 0 0 0.68 0"/>
<feBlend mode="normal" in2="BackgroundImageFix" result="effect1_dropShadow_31_1984"/>
<feBlend mode="normal" in="SourceGraphic" in2="effect1_dropShadow_31_1984" result="shape"/>
</filter>
<filter id="filter9_di_31_1984" x="212.104" y="140.631" width="41.9864" height="54.0456" filterUnits="userSpaceOnUse" color-interpolation-filters="sRGB">
<feFlood flood-opacity="0" result="BackgroundImageFix"/>
<feColorMatrix in="SourceAlpha" type="matrix" values="0 0 0 0 0 0 0 0 0 0 0 0 0 0 0 0 0 0 127 0" result="hardAlpha"/>
<feOffset dx="-3.59376" dy="2.9948"/>
<feGaussianBlur stdDeviation="2.69532"/>
<feComposite in2="hardAlpha" operator="out"/>
<feColorMatrix type="matrix" values="0 0 0 0 0.67451 0 0 0 0 0.427451 0 0 0 0 0.294118 0 0 0 0.74 0"/>
<feBlend mode="normal" in2="BackgroundImageFix" result="effect1_dropShadow_31_1984"/>
<feBlend mode="normal" in="SourceGraphic" in2="effect1_dropShadow_31_1984" result="shape"/>
<feColorMatrix in="SourceAlpha" type="matrix" values="0 0 0 0 0 0 0 0 0 0 0 0 0 0 0 0 0 0 127 0" result="hardAlpha"/>
<feOffset dx="0.554514"/>
<feGaussianBlur stdDeviation="0.554514"/>
<feComposite in2="hardAlpha" operator="arithmetic" k2="-1" k3="1"/>
<feColorMatrix type="matrix" values="0 0 0 0 0 0 0 0 0 0 0 0 0 0 0 0 0 0 0.67 0"/>
<feBlend mode="normal" in2="shape" result="effect2_innerShadow_31_1984"/>
</filter>
<filter id="filter10_f_31_1984" x="219.481" y="139.278" width="34.8929" height="48.0055" filterUnits="userSpaceOnUse" color-interpolation-filters="sRGB">
<feFlood flood-opacity="0" result="BackgroundImageFix"/>
<feBlend mode="normal" in="SourceGraphic" in2="BackgroundImageFix" result="shape"/>
<feGaussianBlur stdDeviation="1.66354" result="effect1_foregroundBlur_31_1984"/>
</filter>
<filter id="filter11_f_31_1984" x="232.449" y="143.425" width="17.6323" height="22.6419" filterUnits="userSpaceOnUse" color-interpolation-filters="sRGB">
<feFlood flood-opacity="0" result="BackgroundImageFix"/>
<feBlend mode="normal" in="SourceGraphic" in2="BackgroundImageFix" result="shape"/>
<feGaussianBlur stdDeviation="0.831771" result="effect1_foregroundBlur_31_1984"/>
</filter>
<filter id="filter12_d_31_1984" x="237.665" y="154.433" width="13.9085" height="14.9477" filterUnits="userSpaceOnUse" color-interpolation-filters="sRGB">
<feFlood flood-opacity="0" result="BackgroundImageFix"/>
<feColorMatrix in="SourceAlpha" type="matrix" values="0 0 0 0 0 0 0 0 0 0 0 0 0 0 0 0 0 0 127 0" result="hardAlpha"/>
<feOffset dy="1.66354"/>
<feGaussianBlur stdDeviation="1.10903"/>
<feComposite in2="hardAlpha" operator="out"/>
<feColorMatrix type="matrix" values="0 0 0 0 0 0 0 0 0 0 0 0 0 0 0 0 0 0 0.68 0"/>
<feBlend mode="normal" in2="BackgroundImageFix" result="effect1_dropShadow_31_1984"/>
<feBlend mode="normal" in="SourceGraphic" in2="effect1_dropShadow_31_1984" result="shape"/>
</filter>
<filter id="filter13_f_31_1984" x="357.82" y="497.117" width="90.5424" height="40.1742" filterUnits="userSpaceOnUse" color-interpolation-filters="sRGB">
<feFlood flood-opacity="0" result="BackgroundImageFix"/>
<feBlend mode="normal" in="SourceGraphic" in2="BackgroundImageFix" result="shape"/>
<feGaussianBlur stdDeviation="2.26554" result="effect1_foregroundBlur_31_1984"/>
</filter>
<filter id="filter14_f_31_1984" x="355.711" y="528.835" width="90.2431" height="29.6334" filterUnits="userSpaceOnUse" color-interpolation-filters="sRGB">
<feFlood flood-opacity="0" result="BackgroundImageFix"/>
<feBlend mode="normal" in="SourceGraphic" in2="BackgroundImageFix" result="shape"/>
<feGaussianBlur stdDeviation="3.02072" result="effect1_foregroundBlur_31_1984"/>
</filter>
<filter id="filter15_f_31_1984" x="239.557" y="498.24" width="67.5193" height="30.004" filterUnits="userSpaceOnUse" color-interpolation-filters="sRGB">
<feFlood flood-opacity="0" result="BackgroundImageFix"/>
<feBlend mode="normal" in="SourceGraphic" in2="BackgroundImageFix" result="shape"/>
<feGaussianBlur stdDeviation="1.69202" result="effect1_foregroundBlur_31_1984"/>
</filter>
<filter id="filter16_f_31_1984" x="237.983" y="521.928" width="67.3" height="22.1318" filterUnits="userSpaceOnUse" color-interpolation-filters="sRGB">
<feFlood flood-opacity="0" result="BackgroundImageFix"/>
<feBlend mode="normal" in="SourceGraphic" in2="BackgroundImageFix" result="shape"/>
<feGaussianBlur stdDeviation="2.25602" result="effect1_foregroundBlur_31_1984"/>
</filter>
<filter id="filter17_f_31_1984" x="244.52" y="512.222" width="43.8536" height="33.2279" filterUnits="userSpaceOnUse" color-interpolation-filters="sRGB">
<feFlood flood-opacity="0" result="BackgroundImageFix"/>
<feBlend mode="normal" in="SourceGraphic" in2="BackgroundImageFix" result="shape"/>
<feGaussianBlur stdDeviation="3.02072" result="effect1_foregroundBlur_31_1984"/>
</filter>
<filter id="filter18_d_31_1984" x="207.916" y="309.422" width="25.581" height="251.183" filterUnits="userSpaceOnUse" color-interpolation-filters="sRGB">
<feFlood flood-opacity="0" result="BackgroundImageFix"/>
<feColorMatrix in="SourceAlpha" type="matrix" values="0 0 0 0 0 0 0 0 0 0 0 0 0 0 0 0 0 0 127 0" result="hardAlpha"/>
<feOffset dx="-1.51036"/>
<feGaussianBlur stdDeviation="0.755181"/>
<feComposite in2="hardAlpha" operator="out"/>
<feColorMatrix type="matrix" values="0 0 0 0 0 0 0 0 0 0 0 0 0 0 0 0 0 0 0.25 0"/>
<feBlend mode="normal" in2="BackgroundImageFix" result="effect1_dropShadow_31_1984"/>
<feBlend mode="normal" in="SourceGraphic" in2="effect1_dropShadow_31_1984" result="shape"/>
</filter>
<filter id="filter19_f_31_1984" x="336.218" y="296.24" width="72.7472" height="292.097" filterUnits="userSpaceOnUse" color-interpolation-filters="sRGB">
<feFlood flood-opacity="0" result="BackgroundImageFix"/>
<feBlend mode="normal" in="SourceGraphic" in2="BackgroundImageFix" result="shape"/>
<feGaussianBlur stdDeviation="2.26554" result="effect1_foregroundBlur_31_1984"/>
</filter>
<filter id="filter20_d_31_1984" x="220.309" y="300.771" width="270.784" height="33.228" filterUnits="userSpaceOnUse" color-interpolation-filters="sRGB">
<feFlood flood-opacity="0" result="BackgroundImageFix"/>
<feColorMatrix in="SourceAlpha" type="matrix" values="0 0 0 0 0 0 0 0 0 0 0 0 0 0 0 0 0 0 127 0" result="hardAlpha"/>
<feOffset dy="6.04145"/>
<feGaussianBlur stdDeviation="3.7759"/>
<feComposite in2="hardAlpha" operator="out"/>
<feColorMatrix type="matrix" values="0 0 0 0 0 0 0 0 0 0 0 0 0 0 0 0 0 0 0.44 0"/>
<feBlend mode="normal" in2="BackgroundImageFix" result="effect1_dropShadow_31_1984"/>
<feBlend mode="normal" in="SourceGraphic" in2="effect1_dropShadow_31_1984" result="shape"/>
</filter>
<filter id="filter21_d_31_1984" x="224.84" y="297.751" width="261.721" height="24.1658" filterUnits="userSpaceOnUse" color-interpolation-filters="sRGB">
<feFlood flood-opacity="0" result="BackgroundImageFix"/>
<feColorMatrix in="SourceAlpha" type="matrix" values="0 0 0 0 0 0 0 0 0 0 0 0 0 0 0 0 0 0 127 0" result="hardAlpha"/>
<feOffset dy="-1.51036"/>
<feGaussianBlur stdDeviation="1.51036"/>
<feComposite in2="hardAlpha" operator="out"/>
<feColorMatrix type="matrix" values="0 0 0 0 0 0 0 0 0 0 0 0 0 0 0 0 0 0 0.41 0"/>
<feBlend mode="normal" in2="BackgroundImageFix" result="effect1_dropShadow_31_1984"/>
<feBlend mode="normal" in="SourceGraphic" in2="effect1_dropShadow_31_1984" result="shape"/>
</filter>
<filter id="filter22_f_31_1984" x="205.331" y="277.404" width="294.58" height="43.154" filterUnits="userSpaceOnUse" color-interpolation-filters="sRGB">
<feFlood flood-opacity="0" result="BackgroundImageFix"/>
<feBlend mode="normal" in="SourceGraphic" in2="BackgroundImageFix" result="shape"/>
<feGaussianBlur stdDeviation="3.7759" result="effect1_foregroundBlur_31_1984"/>
</filter>
<linearGradient id="paint0_linear_31_1984" x1="359.809" y1="-14.8944" x2="448.214" y2="305.019" gradientUnits="userSpaceOnUse">
<stop stop-color="#40E3B8"/>
<stop offset="1" stop-color="#005840"/>
</linearGradient>
<linearGradient id="paint1_linear_31_1984" x1="359.809" y1="-14.8944" x2="448.214" y2="305.019" gradientUnits="userSpaceOnUse">
<stop stop-color="#40C6E3"/>
<stop offset="1" stop-color="#004D58"/>
</linearGradient>
<linearGradient id="paint2_linear_31_1984" x1="175.813" y1="71.3789" x2="358.384" y2="324.002" gradientUnits="userSpaceOnUse">
<stop stop-color="#1DB084"/>
<stop offset="1" stop-color="#003A28"/>
</linearGradient>
<linearGradient id="paint3_linear_31_1984" x1="162.354" y1="70.9849" x2="341.323" y2="334.283" gradientUnits="userSpaceOnUse">
<stop stop-color="#1D9EB0"/>
<stop offset="1" stop-color="#00333A"/>
</linearGradient>
<linearGradient id="paint4_linear_31_1984" x1="275.996" y1="132.075" x2="354.316" y2="298.58" gradientUnits="userSpaceOnUse">
<stop stop-color="#FDECCA"/>
<stop offset="1" stop-color="#E3A578"/>
</linearGradient>
<linearGradient id="paint5_linear_31_1984" x1="203.078" y1="256.97" x2="379.514" y2="260.864" gradientUnits="userSpaceOnUse">
<stop stop-color="#04764E"/>
<stop offset="0.510682" stop-color="#009968"/>
<stop offset="1" stop-color="#04764E"/>
</linearGradient>
<linearGradient id="paint6_linear_31_1984" x1="203.078" y1="256.97" x2="379.514" y2="260.864" gradientUnits="userSpaceOnUse">
<stop stop-color="#046176"/>
<stop offset="0.510682" stop-color="#009099"/>
<stop offset="1" stop-color="#046176"/>
</linearGradient>
<radialGradient id="paint7_radial_31_1984" cx="0" cy="0" r="1" gradientUnits="userSpaceOnUse" gradientTransform="translate(15.8854 10.5725) rotate(90) scale(10.5725 15.8854)">
<stop stop-color="#A3784E"/>
<stop offset="1" stop-color="#62482A"/>
</radialGradient>
<linearGradient id="paint8_linear_31_1984" x1="432.86" y1="528.835" x2="371.594" y2="540.199" gradientUnits="userSpaceOnUse">
<stop stop-color="#001317"/>
<stop offset="1" stop-color="#00586B"/>
</linearGradient>
<linearGradient id="paint9_linear_31_1984" x1="432.86" y1="528.835" x2="371.594" y2="540.199" gradientUnits="userSpaceOnUse">
<stop stop-color="#001317"/>
<stop offset="1" stop-color="#00586B"/>
</linearGradient>
<linearGradient id="paint10_linear_31_1984" x1="432.86" y1="528.835" x2="371.594" y2="540.199" gradientUnits="userSpaceOnUse">
<stop stop-color="#001317"/>
<stop offset="1" stop-color="#00586B"/>
</linearGradient>
<linearGradient id="paint11_linear_31_1984" x1="432.86" y1="528.835" x2="371.594" y2="540.199" gradientUnits="userSpaceOnUse">
<stop stop-color="#001317"/>
<stop offset="1" stop-color="#00586B"/>
</linearGradient>
<linearGradient id="paint12_linear_31_1984" x1="295.512" y1="521.928" x2="249.827" y2="530.388" gradientUnits="userSpaceOnUse">
<stop stop-color="#001317"/>
<stop offset="1" stop-color="#00586B"/>
</linearGradient>
<linearGradient id="paint13_linear_31_1984" x1="295.512" y1="521.928" x2="249.827" y2="530.388" gradientUnits="userSpaceOnUse">
<stop stop-color="#001317"/>
<stop offset="1" stop-color="#00586B"/>
</linearGradient>
<linearGradient id="paint14_linear_31_1984" x1="295.512" y1="521.928" x2="249.827" y2="530.388" gradientUnits="userSpaceOnUse">
<stop stop-color="#001317"/>
<stop offset="1" stop-color="#00586B"/>
</linearGradient>
<linearGradient id="paint15_linear_31_1984" x1="295.512" y1="521.928" x2="249.827" y2="530.388" gradientUnits="userSpaceOnUse">
<stop stop-color="#001317"/>
<stop offset="1" stop-color="#00586B"/>
</linearGradient>
<radialGradient id="paint16_radial_31_1984" cx="0" cy="0" r="1" gradientUnits="userSpaceOnUse" gradientTransform="translate(250.561 539.408) rotate(90) scale(10.5725 15.8854)">
<stop stop-color="#A3784E"/>
<stop offset="1" stop-color="#62482A"/>
</radialGradient>
<radialGradient id="paint17_radial_31_1984" cx="0" cy="0" r="1" gradientUnits="userSpaceOnUse" gradientTransform="translate(22.6935 15.1036) rotate(90) scale(15.1036 22.6935)">
<stop stop-color="#A3784E"/>
<stop offset="1" stop-color="#62482A"/>
</radialGradient>
<linearGradient id="paint18_linear_31_1984" x1="225.116" y1="363.116" x2="408.867" y2="518.751" gradientUnits="userSpaceOnUse">
<stop stop-color="#4F433B"/>
<stop offset="1" stop-color="#141B13"/>
</linearGradient>
<linearGradient id="paint19_linear_31_1984" x1="225.116" y1="364.489" x2="412.837" y2="519.41" gradientUnits="userSpaceOnUse">
<stop stop-color="#4F433B"/>
<stop offset="1" stop-color="#141B13"/>
</linearGradient>
<linearGradient id="paint20_linear_31_1984" x1="214.247" y1="497.873" x2="208.968" y2="516.002" gradientUnits="userSpaceOnUse">
<stop stop-color="#004A2D"/>
<stop offset="0.0001" stop-color="#00464B"/>
<stop offset="1" stop-color="#005D72"/>
</linearGradient>
<linearGradient id="paint21_linear_31_1984" x1="229.374" y1="309.078" x2="483.54" y2="313.625" gradientUnits="userSpaceOnUse">
<stop stop-color="#11B4CA"/>
<stop offset="1" stop-color="#00596C"/>
</linearGradient>
</defs>
</svg>
