<svg width="98" height="98" viewBox="0 0 98 98" fill="none" xmlns="http://www.w3.org/2000/svg">
<path d="M8.16602 19.0281C8.16602 14.169 12.1267 10.494 16.9859 10.9023C25.5609 11.5965 38.5459 15.9249 45.8142 20.4574L46.8351 21.0698C48.0192 21.8048 49.9795 21.8048 51.1636 21.0698L51.8577 20.6207C54.4302 19.0282 57.6968 17.4357 61.2493 16.0065V32.6666L69.416 27.2357L77.5827 32.6666V11.3517C78.6852 11.1475 79.7469 11.0249 80.7269 10.9432H80.9719C85.8311 10.5349 89.8327 14.169 89.8327 19.069V68.3549C89.8327 72.2749 86.6477 75.9498 82.7277 76.4398L81.3801 76.6033C72.4785 77.7874 58.7584 82.3198 50.9184 86.6481C49.8567 87.2606 48.1011 87.2606 46.9986 86.6481L46.8351 86.5666C38.9951 82.2791 25.3161 77.7874 16.4553 76.6033L15.271 76.4398C11.351 75.9498 8.16602 72.2749 8.16602 68.3549V36.1373" stroke="#ECD79F" stroke-width="5" stroke-linecap="round" stroke-linejoin="round"/>
<path d="M49 22.4175V83.6675" stroke="#ECD79F" stroke-width="5" stroke-linecap="round" stroke-linejoin="round"/>
<path d="M77.5833 11.3518V32.6667L69.4167 27.2358L61.25 32.6667V16.0066C66.5992 13.8833 72.5608 12.1685 77.5833 11.3518Z" stroke="#ECD79F" stroke-width="5" stroke-linecap="round" stroke-linejoin="round"/>
</svg>
