<svg width="146" height="145" viewBox="0 0 146 145" fill="none" xmlns="http://www.w3.org/2000/svg">
<circle cx="83.1277" cy="38.3638" r="8.11112" transform="rotate(46.616 83.1277 38.3638)" fill="#1A534E"/>
<circle cx="100.039" cy="24.7312" r="4.05556" transform="rotate(46.616 100.039 24.7312)" fill="#1A534E"/>
<circle cx="109.833" cy="46.9832" r="5.37435" transform="rotate(46.616 109.833 46.9832)" fill="#1A534E"/>
<circle cx="88.5662" cy="16.6545" r="1.54684" transform="rotate(46.616 88.5662 16.6545)" fill="#1A534E"/>
<path fill-rule="evenodd" clip-rule="evenodd" d="M55.1857 110.869C49.9538 107.647 45.4147 103.066 43.2495 97.3156C41.3115 92.1689 45.4475 86.4751 44.0025 81.1689C41.9075 73.476 31.5846 68.1871 33.1902 60.3774C34.6634 53.2113 43.7926 50.1181 50.8108 48.0523C57.1594 46.1836 64.1309 46.8648 70.2098 49.4807C75.4285 51.7264 76.8683 58.7502 81.8818 61.4227C88.6357 65.023 100.213 60.4181 103.601 67.2807C106.804 73.7669 96.1893 79.3938 94.1882 86.3453C92.3301 92.8 96.0935 100.367 92.4521 106.011C88.6253 111.942 81.6377 115.734 74.6383 116.646C67.7922 117.539 61.0643 114.489 55.1857 110.869Z" fill="#1A534E"/>
</svg>
