<svg width="126" height="34" viewBox="0 0 126 34" fill="none" xmlns="http://www.w3.org/2000/svg">
<path d="M19.7112 12.6636C19.7112 16.3006 18.8989 19.2309 17.2743 21.4544C15.6496 23.6778 13.4499 24.7896 10.6751 24.7896C7.84279 24.7896 5.61432 23.8693 3.98969 22.0286V33.5362H0V0.449235H3.64463L3.83872 3.09974C5.46335 1.03825 7.72058 0.00749299 10.6104 0.00749299C13.414 0.00749299 15.6281 1.08977 17.2527 3.25434C18.8917 5.41891 19.7112 8.43017 19.7112 12.2881V12.6636ZM15.7215 12.1997C15.7215 9.50507 15.1608 7.37734 14.0394 5.81649C12.918 4.25565 11.3796 3.47522 9.42429 3.47522C7.00891 3.47522 5.19737 4.57222 3.98969 6.76624V18.1854C5.183 20.3647 7.00891 21.4544 9.46742 21.4544C11.3796 21.4544 12.8964 20.6813 14.0178 19.1352C15.1536 17.5743 15.7215 15.2625 15.7215 12.1997Z" fill="white"/>
<path d="M36.0797 4.11577C35.4759 4.01269 34.8217 3.96115 34.1172 3.96115C31.5005 3.96115 29.725 5.10233 28.7904 7.3847V24.3478H24.8008V0.449235H28.6826L28.7473 3.21017C30.0556 1.07505 31.9103 0.00749299 34.3113 0.00749299C35.0877 0.00749299 35.6771 0.110562 36.0797 0.316711V4.11577Z" fill="white"/>
<path d="M53.3108 24.3478C53.0808 23.8766 52.8939 23.0373 52.7501 21.8298C50.8955 23.803 48.6814 24.7896 46.1078 24.7896C43.8075 24.7896 41.9169 24.1269 40.436 22.8017C38.9695 21.4617 38.2363 19.7684 38.2363 17.7216C38.2363 15.2331 39.1564 13.3041 40.9967 11.9347C42.8514 10.5505 45.4537 9.8585 48.8036 9.8585H52.6854V7.98106C52.6854 6.55274 52.2685 5.41892 51.4346 4.5796C50.6007 3.72555 49.3715 3.29853 47.7468 3.29853C46.3235 3.29853 45.1302 3.66666 44.1669 4.40291C43.2036 5.13915 42.722 6.03 42.722 7.07547H38.7107C38.7107 5.88275 39.1205 4.73421 39.94 3.62984C40.7739 2.51074 41.8953 1.62723 43.3043 0.979332C44.7276 0.331434 46.2875 0.00749299 47.9841 0.00749299C50.6726 0.00749299 52.7789 0.699564 54.3029 2.08371C55.8268 3.45313 56.6176 5.3453 56.6751 7.7602V18.7597C56.6751 20.9537 56.9483 22.6986 57.4946 23.9944V24.3478H53.3108ZM46.6901 21.2335C47.9409 21.2335 49.127 20.9022 50.2485 20.2395C51.3699 19.5769 52.1822 18.7155 52.6854 17.6553V12.7519H49.5584C44.6701 12.7519 42.226 14.217 42.226 17.1473C42.226 18.4284 42.6429 19.4297 43.4768 20.1512C44.3107 20.8727 45.3818 21.2335 46.6901 21.2335Z" fill="white"/>
<path d="M70.2185 18.3621L75.6531 0.449235H79.9231L70.542 28.0364C69.0899 32.0121 66.7823 34 63.6193 34L62.8645 33.9337L61.3765 33.6466V30.3335L62.4548 30.4218C63.8062 30.4218 64.8558 30.1421 65.6034 29.5825C66.3654 29.023 66.9908 27.9996 67.4796 26.5124L68.3638 24.0828L60.0394 0.449235H64.3957L70.2185 18.3621Z" fill="white"/>
<path d="M92.8842 24.7896C89.7212 24.7896 87.1477 23.7294 85.1636 21.609C83.1796 19.4738 82.1875 16.6246 82.1875 13.0611V12.3102C82.1875 9.93947 82.626 7.82644 83.5031 5.9711C84.3944 4.10103 85.6309 2.64326 87.2124 1.59778C88.8083 0.537586 90.5335 0.00749299 92.3882 0.00749299C95.4218 0.00749299 97.7797 1.03088 99.4618 3.07765C101.144 5.12442 101.985 8.05466 101.985 11.8684V13.5692H86.1772C86.2347 15.9252 86.9033 17.832 88.1828 19.2898C89.4768 20.7328 91.1158 21.4544 93.0999 21.4544C94.5088 21.4544 95.7021 21.1598 96.6798 20.5708C97.6575 19.9818 98.5129 19.2015 99.2461 18.2296L101.683 20.1733C99.7278 23.2508 96.7948 24.7896 92.8842 24.7896ZM92.3882 3.36479C90.7779 3.36479 89.4265 3.9685 88.3338 5.17595C87.2411 6.36867 86.5654 8.04732 86.3066 10.2119H97.9953V9.90265C97.8803 7.82643 97.334 6.22143 96.3563 5.08761C95.3787 3.93906 94.0559 3.36479 92.3882 3.36479Z" fill="white"/>
<path d="M120.078 4.36107C119.194 4.43836 116.643 3.96115 115.938 3.96115C113.321 3.96115 110.954 4.76645 110.427 6.69269C109.9 8.61893 109.856 22.4425 109.856 22.4425C109.856 22.4425 111.912 23.4623 112.939 23.5756C113.967 23.6889 113.853 24.7896 113.853 24.7896H106.622C106.622 24.7896 105.973 5.9711 106.622 3.21017C107.27 0.44925 110.541 0.12079 113.625 0.00748194C116.708 -0.105826 119.194 1.09999 120.078 1.44823C120.962 1.79647 121.228 2.45449 122.179 2.61359C123.13 2.77269 123.605 3.55266 122.179 3.74667C120.753 3.94069 120.962 4.28378 120.078 4.36107Z" fill="white"/>
<path d="M125.926 3.34581C125.926 4.0916 125.247 4.33408 124.301 4.36263C124.235 4.36463 124.053 4.5922 123.985 4.5922C123.918 4.5922 123.967 4.36408 123.902 4.36107C123.682 4.35084 123.472 4.32316 123.278 4.27759C123.255 4.27201 123 4.19519 122.978 4.18682C122.489 4.00267 122.166 3.67406 122.166 3.19104C122.166 2.39301 123.018 1.74609 124.068 1.74609C125.118 1.74609 125.926 2.54778 125.926 3.34581Z" fill="white"/>
</svg>
