<svg width="98" height="98" viewBox="0 0 98 98" fill="none" xmlns="http://www.w3.org/2000/svg">
<path d="M8.16602 47.2042V54.8403C8.16602 67.0903 16.3327 75.2569 28.5827 75.2569H44.916L63.0869 87.3434C65.7819 89.1401 69.416 87.2211 69.416 83.9544V75.2569C81.666 75.2569 89.8327 67.0903 89.8327 54.8403V30.34C89.8327 18.09 81.666 9.92334 69.416 9.92334H28.5827C16.3327 9.92334 8.16602 18.09 8.16602 30.34" stroke="#ECD79F" stroke-width="5" stroke-miterlimit="10" stroke-linecap="round" stroke-linejoin="round"/>
<path d="M48.9989 46.3862V45.5289C48.9989 42.7522 50.714 41.2822 52.429 40.098C54.1032 38.9547 55.7771 37.4847 55.7771 34.7897C55.7771 31.033 52.7556 28.0112 48.9989 28.0112C45.2423 28.0112 42.2207 31.033 42.2207 34.7897" stroke="#ECD79F" stroke-width="5" stroke-linecap="round" stroke-linejoin="round"/>
<path d="M48.9823 56.1459H49.019" stroke="#ECD79F" stroke-width="5" stroke-linecap="round" stroke-linejoin="round"/>
</svg>
