<svg width="98" height="98" viewBox="0 0 98 98" fill="none" xmlns="http://www.w3.org/2000/svg">
<path d="M13.9238 46.4278V59.4128C13.9238 64.2311 17.1089 70.5603 20.988 73.4594L38.5463 86.567C44.3038 90.8953 53.7771 90.8953 59.5346 86.567L77.093 73.4594C80.9722 70.5603 84.1571 64.2311 84.1571 59.4128V29.0736C84.1571 24.0511 80.3188 18.4978 75.6229 16.7419L55.2471 9.10611C51.858 7.84028 46.3047 7.84028 42.9155 9.10611L22.5396 16.7419C17.8438 18.4978 14.0054 24.0511 14.0054 29.0736" stroke="#ECD79F" stroke-width="5" stroke-linecap="round" stroke-linejoin="round"/>
<path d="M65.3346 46.9583C65.3346 37.9342 58.0255 30.625 49.0013 30.625C39.9771 30.625 32.668 37.9342 32.668 46.9583C32.668 55.9825 39.9771 63.2917 49.0013 63.2917C51.9005 63.2917 54.5955 62.5567 56.9639 61.2092" stroke="#ECD79F" stroke-width="5" stroke-miterlimit="10" stroke-linecap="round" stroke-linejoin="round"/>
<path d="M50.0221 41.8542V45.6517C50.0221 47.0809 49.2872 48.4284 48.0213 49.1634L44.918 51.0417" stroke="#ECD79F" stroke-width="5" stroke-miterlimit="10" stroke-linecap="round" stroke-linejoin="round"/>
</svg>
