<svg width="71" height="71" viewBox="0 0 71 71" fill="none" xmlns="http://www.w3.org/2000/svg">
<g clip-path="url(#clip0_6300_8524)">
<path fill-rule="evenodd" clip-rule="evenodd" d="M36.3855 58.6911C36.792 58.4776 37.2415 58.3591 37.6995 58.3264C49.7608 57.4663 60.1269 48.4771 62.2326 36.025C64.7042 21.4092 54.8594 7.55716 40.2436 5.08556C25.6278 2.61397 11.7757 12.4588 9.30409 27.0746C7.64836 36.8658 11.5199 46.3142 18.6503 52.2282C19.1603 52.6511 19.5482 53.2065 19.7353 53.842L22.1238 61.9549C22.6813 63.8483 24.8315 64.7586 26.5789 63.8409L36.3855 58.6911Z" fill="#1A534E"/>
<g clip-path="url(#clip1_6300_8524)">
<path d="M35.8713 41.5195C35.6959 42.5564 34.7132 43.2549 33.6762 43.0796C32.6392 42.9042 31.9407 41.9214 32.1161 40.8844C32.2914 39.8475 33.2742 39.149 34.3112 39.3243C35.3482 39.4997 36.0466 40.4825 35.8713 41.5195Z" fill="white"/>
<path d="M41.1498 21.4439C39.8851 20.5302 38.3779 20.012 36.8188 19.9548C35.2596 19.8977 33.7185 20.3042 32.3904 21.123C31.5281 21.6545 30.7808 22.3443 30.1848 23.151C29.6493 23.8761 30.0217 24.8586 30.8413 25.2338L31.336 25.4603C32.1556 25.8355 33.1095 25.4378 33.7743 24.829C33.9631 24.656 34.1687 24.5004 34.3888 24.3647C35.0758 23.9413 35.8729 23.731 36.6793 23.7605C37.4858 23.7901 38.2654 24.0581 38.9195 24.5307C39.5737 25.0033 40.073 25.6593 40.3543 26.4157C40.6356 27.1721 40.6863 27.9949 40.5 28.7801C40.3137 29.5653 39.8987 30.2776 39.3076 30.827C38.7164 31.3763 37.9757 31.738 37.1789 31.8664C36.5238 31.9752 36.3572 31.947 35.7191 31.8391L35.1827 31.7484C34.2939 31.5981 33.4516 32.1968 33.3013 33.0856L32.8478 35.7677C32.6975 36.6564 33.2961 37.4988 34.1849 37.6491L34.7213 37.7398C35.6101 37.8901 36.4524 37.2914 36.6027 36.4026C36.6693 36.0089 37.011 35.7241 37.4077 35.6785C37.5291 35.6646 37.6545 35.6471 37.7846 35.6262C39.325 35.378 40.7571 34.6787 41.9 33.6166C43.0429 32.5545 43.8452 31.1773 44.2054 29.6593C44.5656 28.1412 44.4675 26.5505 43.9236 25.0881C43.3797 23.6258 42.4144 22.3576 41.1498 21.4439Z" fill="white"/>
</g>
</g>
<defs>
<clipPath id="clip0_6300_8524">
<rect width="61" height="61" fill="white" transform="translate(10.1709) rotate(9.59814)"/>
</clipPath>
<clipPath id="clip1_6300_8524">
<rect width="25.0261" height="25.0261" fill="white" transform="translate(25.5576 16.8789) rotate(9.59814)"/>
</clipPath>
</defs>
</svg>
