<svg width="248" height="318" viewBox="0 0 248 318" fill="none" xmlns="http://www.w3.org/2000/svg">
<g opacity="0.3">
<path d="M-2.78955 305.651C15.5368 304.075 33.5458 299.526 50.4959 292.412C67.4338 285.294 83.2972 275.577 97.3358 263.695C105.224 257.012 112.511 249.628 119.102 241.647C119.763 240.851 118.394 239.982 117.733 240.778C106.101 254.858 92.1694 267.056 76.7475 276.85C61.3965 286.6 44.5855 294.054 27.0159 298.762C17.1496 301.415 7.0637 303.187 -3.11418 304.07C-4.15547 304.162 -3.81864 305.747 -2.78955 305.651Z" fill="#465B78"/>
<path d="M110.527 253.162C109.217 251.251 107.446 249.699 105.686 248.191C101.669 251.734 98.8536 256.609 97.7818 261.854L98.729 261.908C100.944 262.655 103.372 262.582 105.656 262.07C107.936 261.57 110.108 260.645 112.258 259.74C112.658 257.455 111.844 255.089 110.539 253.166L110.527 253.162Z" fill="#FAF1EA"/>
<path d="M111.124 252.619C109.79 250.699 108.039 249.168 106.283 247.648C105.946 247.36 105.497 247.267 105.143 247.594C101.024 251.266 98.141 256.213 96.9996 261.612C96.9004 262.115 97.1661 262.639 97.724 262.662C99.2413 262.742 100.669 263.259 102.225 263.271C104.406 263.274 106.533 262.774 108.589 262.055C109.678 261.677 110.761 261.241 111.82 260.796C112.272 260.615 112.813 260.493 113.007 259.997C113.162 259.57 113.158 258.934 113.153 258.49C113.131 256.453 112.373 254.507 111.246 252.815C110.673 251.958 109.225 252.676 109.798 253.533C111.024 255.372 111.783 257.469 111.43 259.702C111.579 259.48 111.733 259.246 111.87 259.019C109.263 260.118 106.622 261.233 103.797 261.562C102.586 261.703 101.322 261.687 100.125 261.447C99.3161 261.278 98.6393 261.088 97.8152 261.038C98.0607 261.389 98.3063 261.741 98.5396 262.087C99.617 256.941 102.288 252.276 106.217 248.784C105.836 248.77 105.459 248.744 105.077 248.73C106.832 250.249 108.579 251.793 109.917 253.7C110.507 254.549 111.714 253.468 111.124 252.619Z" fill="#465B78"/>
<path d="M102.253 253.934C102.413 253.149 102.519 252.36 102.585 251.569C102.601 251.409 102.351 251.415 102.339 251.562C102.074 254.352 101.317 257.088 100.103 259.602C99.764 260.308 99.3889 261.001 98.9815 261.668C98.9041 261.805 99.1061 261.934 99.1957 261.801C100.679 259.383 101.717 256.708 102.257 253.921L102.253 253.934Z" fill="#465B78"/>
<path d="M107.499 250.049C107.515 249.889 107.264 249.895 107.252 250.043C107.136 251.851 106.712 253.63 106.012 255.295C105.308 256.973 104.322 258.549 103.113 259.906C102.436 260.669 101.687 261.364 100.883 261.984C100.753 262.075 100.933 262.264 101.055 262.157C102.509 261.04 103.78 259.665 104.781 258.122C105.794 256.583 106.548 254.882 107.013 253.104C107.281 252.097 107.435 251.062 107.503 250.037L107.499 250.049Z" fill="#465B78"/>
<path d="M110.788 254.651C109.929 256.908 108.501 258.945 106.689 260.553C106.169 260.999 105.628 261.425 105.052 261.796C104.922 261.887 105.04 262.095 105.169 262.004C107.233 260.653 108.956 258.792 110.158 256.618C110.49 256.007 110.79 255.37 111.041 254.715C111.094 254.569 110.858 254.497 110.805 254.643L110.788 254.651Z" fill="#465B78"/>
<path d="M107.67 255.482C106.89 257.56 105.719 259.497 104.218 261.162C103.799 261.632 103.344 262.088 102.873 262.511C102.751 262.619 102.923 262.792 103.045 262.684C104.727 261.167 106.126 259.327 107.135 257.304C107.424 256.732 107.678 256.147 107.894 255.549C107.947 255.403 107.711 255.331 107.658 255.478L107.67 255.482Z" fill="#465B78"/>
<path d="M105.63 257.38C104.915 259.123 103.912 260.748 102.693 262.17C102.596 262.287 102.763 262.472 102.865 262.343C104.114 260.876 105.131 259.215 105.87 257.44C105.923 257.293 105.699 257.226 105.634 257.368L105.63 257.38Z" fill="#465B78"/>
<path d="M110.375 257.622C109.293 259.121 107.929 260.408 106.375 261.419C106.246 261.51 106.364 261.719 106.493 261.628C108.08 260.601 109.469 259.282 110.577 257.75C110.666 257.617 110.46 257.501 110.362 257.617L110.375 257.622Z" fill="#465B78"/>
<path d="M110.674 258.434C109.754 259.371 108.831 260.321 107.895 261.266C107.785 261.378 107.957 261.55 108.067 261.438C108.991 260.489 109.91 259.552 110.846 258.607C110.956 258.495 110.784 258.322 110.674 258.434Z" fill="#465B78"/>
<path d="M104.851 254.765C103.817 256.668 102.644 258.494 101.335 260.201C101.199 260.386 101.055 260.555 100.907 260.736C101.904 259.316 102.724 257.777 103.325 256.158C103.563 255.499 103.773 254.843 103.939 254.158C103.98 254.007 103.743 253.935 103.703 254.086C103.109 256.411 102.099 258.627 100.714 260.583C100.317 261.144 99.8888 261.679 99.4403 262.193C99.3428 262.309 99.5105 262.494 99.6124 262.366C99.7985 262.157 99.9645 261.927 100.143 261.702C100.132 261.808 100.248 261.906 100.337 261.814C101.744 260.142 103.009 258.363 104.129 256.491C104.447 255.957 104.752 255.419 105.046 254.876C105.123 254.739 104.909 254.606 104.831 254.743L104.851 254.765Z" fill="#465B78"/>
<path d="M152.49 271.747C152.13 270.567 151.497 269.496 151.092 268.327C150.021 265.261 150.434 261.683 148.677 258.947C147.47 257.06 145.402 255.869 144.098 254.058C141.861 250.969 142.06 246.457 139.429 243.696C130.522 248.352 121.145 252.093 111.485 254.862L108.487 256.275C111.667 260.685 114.958 265.205 119.552 268.112C123.188 270.424 127.425 271.572 131.577 272.689C136.181 273.929 140.785 275.169 145.389 276.409C146.596 276.736 147.832 277.059 149.086 276.989C150.34 276.919 151.627 276.377 152.291 275.306C152.934 274.255 152.859 272.902 152.494 271.735L152.49 271.747Z" fill="#FAF1EA"/>
<path d="M153.278 271.591C152.81 270.178 152.051 268.882 151.661 267.443C151.323 266.202 151.163 264.929 150.974 263.659C150.582 261.046 149.882 258.749 147.976 256.843C146.883 255.743 145.594 254.807 144.69 253.527C143.934 252.452 143.49 251.2 143.099 249.954C142.352 247.557 141.763 245.066 140.022 243.165C139.787 242.9 139.374 242.82 139.054 242.98C133.202 246.023 127.166 248.697 120.965 250.951C117.835 252.082 114.669 253.047 111.494 254.037C110.326 254.401 109.221 255.05 108.112 255.559C107.596 255.8 107.58 256.416 107.874 256.826C110.197 260.056 112.564 263.316 115.508 266.012C118.308 268.573 121.539 270.364 125.112 271.631C128.77 272.929 132.566 273.807 136.314 274.82C138.365 275.369 140.4 275.927 142.451 276.477C144.225 276.954 146.016 277.575 147.846 277.782C149.582 277.983 151.481 277.581 152.646 276.194C153.723 274.9 153.723 273.146 153.274 271.603C152.988 270.602 151.407 270.926 151.693 271.928C152.111 273.404 152.093 275.055 150.541 275.832C149.056 276.578 147.302 276.122 145.793 275.713C142.282 274.773 138.775 273.82 135.28 272.871C128.666 271.082 121.768 269.619 116.59 264.816C113.707 262.142 111.392 258.929 109.092 255.749C109.007 256.174 108.939 256.591 108.854 257.016C110.002 256.478 111.152 255.818 112.385 255.464C115.537 254.577 118.64 253.519 121.707 252.408C127.909 250.153 133.944 247.48 139.796 244.436C139.474 244.374 139.151 244.313 138.828 244.251C140.577 246.169 141.006 248.795 141.823 251.19C142.189 252.275 142.626 253.317 143.258 254.278C144.073 255.498 145.186 256.426 146.249 257.419C147.259 258.365 148.137 259.373 148.633 260.671C149.083 261.828 149.265 263.081 149.442 264.306C149.625 265.518 149.774 266.745 150.117 267.932C150.512 269.318 151.248 270.565 151.693 271.928C152.017 272.901 153.606 272.593 153.274 271.603L153.278 271.591Z" fill="#465B78"/>
<path d="M110.989 218.081C111.576 216.346 112.226 214.552 112.014 212.736C111.802 210.92 110.425 209.081 108.598 209.055C107.761 209.041 106.955 209.398 106.129 209.582C105.303 209.766 104.323 209.729 103.776 209.103C103.198 208.451 103.317 207.473 103.397 206.604C103.477 205.736 103.422 204.708 102.695 204.237C102.177 203.912 101.469 204 100.947 204.336C100.429 204.659 100.046 205.183 99.7208 205.7C98.3426 207.866 97.4705 210.311 96.8313 212.8C96.0508 215.831 95.5799 218.96 95.8155 222.083C96.28 228.422 99.5109 234.177 102.678 239.687L106.088 248.53C106.018 238.205 107.694 227.863 110.989 218.081Z" fill="#FAF1EA"/>
<path d="M111.759 218.318C112.603 215.835 113.539 212.985 112.108 210.533C111.558 209.575 110.696 208.752 109.621 208.404C108.273 207.97 107.128 208.577 105.816 208.806C105.02 208.946 104.264 208.824 104.132 207.892C104.028 207.15 104.253 206.376 104.195 205.623C104.109 204.487 103.46 203.382 102.232 203.228C99.3746 202.883 97.878 207.09 97.0887 209.193C94.9506 214.866 94.2051 221.154 95.8679 227.044C96.6688 229.903 97.892 232.624 99.2615 235.246C100.185 237.003 101.418 238.706 102.126 240.564C103.192 243.339 104.258 246.113 105.336 248.893C105.628 249.648 106.868 249.351 106.871 248.579C106.825 238.304 108.473 228.076 111.738 218.338C112.067 217.353 110.524 216.849 110.19 217.846C106.881 227.707 105.204 238.089 105.243 248.5C105.751 248.394 106.259 248.288 106.779 248.187C105.924 245.972 105.062 243.74 104.208 241.525C103.888 240.692 103.623 239.823 103.2 239.048C101.937 236.74 100.599 234.488 99.4906 232.098C97.07 226.928 95.9634 221.598 96.9437 215.919C97.4272 213.098 98.2201 210.224 99.5179 207.67C99.9074 206.9 101.068 204.269 102.233 204.94C102.872 205.31 102.543 206.599 102.516 207.169C102.481 207.722 102.5 208.281 102.667 208.811C103.079 210.037 104.268 210.565 105.489 210.51C106.784 210.441 108.135 209.494 109.405 210.106C112.362 211.509 110.958 215.612 110.194 217.875C109.864 218.861 111.396 219.36 111.741 218.367L111.759 218.318Z" fill="#465B78"/>
<path d="M143.085 244.468C142.441 242.509 140.151 241.665 138.795 240.111C136.645 237.661 137.114 233.965 136.445 230.782C135.76 227.566 133.749 224.656 130.987 222.868C128.365 221.186 125.228 220.547 122.264 219.542C119.313 218.542 116.295 216.965 114.867 214.198C114.504 213.486 114.257 212.72 113.806 212.06C113.355 211.399 112.646 210.839 111.849 210.867C110.871 210.9 110.155 211.731 109.556 212.508C105.978 217.163 102.292 222.04 101.158 227.801C99.7095 235.229 102.74 242.719 105.714 249.678L108.49 256.193C119.126 259.646 131.434 257.381 140.156 250.379C141.07 249.647 141.97 248.841 142.571 247.83C143.172 246.819 143.459 245.57 143.094 244.443L143.085 244.468Z" fill="#FAF1EA"/>
<path d="M143.796 244.104C142.831 241.587 139.881 240.849 138.685 238.511C137.555 236.293 137.752 233.616 137.337 231.216C136.903 228.642 135.701 226.205 133.911 224.286C132.061 222.304 129.681 221.097 127.15 220.235C124.471 219.32 121.645 218.738 119.164 217.314C117.906 216.596 116.722 215.67 115.924 214.443C115.213 213.357 114.94 212.015 114.016 211.059C113.264 210.276 112.195 209.874 111.127 210.192C110.043 210.517 109.332 211.488 108.673 212.354C107.008 214.512 105.362 216.691 103.939 219.02C101.225 223.462 99.6702 228.325 100.052 233.558C100.418 238.496 102.136 243.205 104.014 247.737C105.109 250.357 106.232 252.973 107.343 255.584C107.479 255.896 107.576 256.276 107.761 256.564C108.235 257.316 109.775 257.446 110.587 257.643C112.922 258.213 115.32 258.529 117.724 258.6C123.137 258.752 128.59 257.648 133.53 255.407C135.994 254.284 138.33 252.866 140.455 251.192C142.56 249.538 144.677 247.198 143.873 244.311C143.599 243.315 142.006 243.635 142.292 244.636C142.833 246.572 141.54 248.16 140.158 249.344C138.957 250.373 137.656 251.296 136.296 252.115C133.572 253.765 130.62 255.015 127.548 255.835C121.379 257.466 114.824 257.383 108.735 255.44C108.891 255.579 109.052 255.707 109.209 255.846C107.862 252.666 106.47 249.497 105.16 246.289C102.67 240.168 100.468 233.364 102.232 226.741C103.164 223.254 105.015 220.127 107.074 217.187C108.106 215.711 109.191 214.24 110.324 212.828C110.876 212.144 111.578 211.349 112.512 211.895C113.313 212.351 113.609 213.479 113.991 214.253C117.496 221.501 127.184 219.875 132.365 225.01C133.826 226.464 134.945 228.292 135.493 230.285C135.992 232.109 136.004 234.019 136.28 235.886C136.528 237.605 137.038 239.322 138.198 240.654C139.494 242.145 141.622 242.902 142.361 244.827C142.738 245.806 144.178 245.071 143.809 244.109L143.796 244.104Z" fill="#465B78"/>
<path d="M131.755 252.113C129.061 253.567 126.178 254.662 123.204 255.366C120.229 256.069 117.161 256.38 114.1 256.293C113.637 256.277 113.178 256.248 112.718 256.22C112.85 256.199 112.99 256.194 113.118 256.185C114.468 256.039 115.808 255.848 117.132 255.624C119.817 255.147 122.478 254.509 125.082 253.686C126.548 253.222 127.99 252.709 129.414 252.134C129.559 252.076 129.495 251.833 129.35 251.89C126.832 252.897 124.235 253.738 121.602 254.413C118.973 255.076 116.291 255.581 113.585 255.885C112.836 255.973 112.074 256.056 111.313 256.098C110.543 256.012 109.782 255.902 109.018 255.763C109.027 255.739 109.036 255.714 109.02 255.681C108.997 255.631 108.99 255.574 108.967 255.524C109.654 253.55 110.395 251.582 111.18 249.643C111.233 249.497 110.997 249.425 110.944 249.571C110.194 251.412 109.505 253.275 108.841 255.147C109.148 252.013 109.602 248.892 110.219 245.816C110.412 244.864 110.622 243.904 110.839 242.961C110.88 242.811 110.644 242.739 110.603 242.89C109.817 246.278 109.219 249.72 108.81 253.175C108.756 253.666 108.707 254.145 108.653 254.637C107.645 251.855 106.856 249.002 106.348 246.098C105.767 242.822 105.501 239.481 105.562 236.148C105.602 234.285 105.741 232.416 105.981 230.57C105.998 230.41 105.747 230.416 105.735 230.564C105.309 233.875 105.197 237.231 105.423 240.571C105.641 243.895 106.189 247.186 107.05 250.411C107.484 252.032 108.01 253.631 108.597 255.21C108.564 255.53 108.523 255.833 108.503 256.156C108.486 256.316 108.737 256.31 108.749 256.163C108.758 256.138 108.759 256.097 108.756 256.069C108.777 256.049 108.793 256.041 108.807 256.004C108.815 255.98 108.824 255.955 108.833 255.931C108.832 255.972 108.86 256.01 108.909 256.027C109.064 256.056 109.224 256.072 109.367 256.097C109.195 256.076 109.026 256.084 108.859 256.051C108.699 256.034 108.709 256.273 108.852 256.297C109.654 256.408 110.455 256.408 111.269 256.372C113.55 256.632 115.849 256.65 118.129 256.454C121.195 256.184 124.234 255.532 127.127 254.482C128.76 253.9 130.343 253.189 131.859 252.358C131.997 252.283 131.883 252.063 131.742 252.149L131.755 252.113Z" fill="#465B78"/>
<path d="M114.271 213.443C113.29 215.808 112.321 218.177 111.345 220.529C111.292 220.675 111.516 220.743 111.581 220.601C112.562 218.236 113.543 215.872 114.507 213.515C114.56 213.368 114.336 213.301 114.271 213.443Z" fill="#465B78"/>
<path d="M115.133 214.874C114.49 216.726 113.842 218.59 113.199 220.441C113.146 220.588 113.382 220.66 113.435 220.513C114.079 218.661 114.726 216.797 115.37 214.946C115.423 214.799 115.186 214.727 115.133 214.874Z" fill="#465B78"/>
<path d="M137.441 237.37C136.399 239.105 135.041 240.642 133.44 241.898C132.979 242.256 132.51 242.597 132.013 242.901C131.872 242.987 132.002 243.2 132.131 243.109C133.88 242.017 135.411 240.611 136.657 238.963C137.01 238.484 137.339 237.995 137.643 237.498C137.721 237.361 137.519 237.232 137.429 237.365L137.441 237.37Z" fill="#465B78"/>
<path d="M137.504 239.215C136.597 240.461 135.51 241.558 134.279 242.479C134.149 242.57 134.275 242.795 134.396 242.687C135.677 241.743 136.791 240.614 137.723 239.336C137.813 239.203 137.606 239.086 137.509 239.203L137.504 239.215Z" fill="#465B78"/>
<path d="M130.888 268.491C127.595 268.168 124.301 267.582 121.215 266.381C119.69 265.787 118.223 265.035 116.871 264.117C115.532 263.204 114.312 262.113 113.167 260.966C112.835 260.625 112.532 260.281 112.212 259.944C112.526 260.182 112.852 260.424 113.171 260.65C114.728 261.725 116.435 262.578 118.23 263.187C119.252 263.53 120.288 263.795 121.355 263.974C121.51 264.003 121.582 263.767 121.427 263.738C119.579 263.427 117.77 262.855 116.079 262.035C114.371 261.223 112.793 260.168 111.38 258.925C111.211 258.781 111.059 258.629 110.895 258.473C110.671 258.212 110.444 257.964 110.233 257.708C111.408 258.465 112.652 259.109 113.936 259.643C115.809 260.419 117.77 260.95 119.771 261.219C120.901 261.38 122.049 261.45 123.199 261.439C123.351 261.439 123.357 261.193 123.205 261.193C121.197 261.211 119.187 260.966 117.241 260.468C115.295 259.97 113.409 259.232 111.647 258.262C111.498 258.18 111.364 258.091 111.215 258.009C112.503 258.531 113.839 258.959 115.194 259.257C117.215 259.699 119.296 259.901 121.359 259.848C122.518 259.812 123.679 259.694 124.826 259.502C124.986 259.477 124.923 259.233 124.762 259.258C122.75 259.592 120.702 259.679 118.661 259.519C116.621 259.36 114.603 258.946 112.661 258.284C111.688 257.959 110.729 257.557 109.801 257.11C109.724 257.054 109.655 257.016 109.579 256.96C109.566 256.956 109.546 256.935 109.539 256.918C109.511 256.881 109.486 256.872 109.453 256.887C109.377 256.832 109.308 256.793 109.231 256.738C109.199 256.712 109.183 256.679 109.151 256.654C109.123 256.616 109.082 256.615 109.054 256.618C108.965 256.558 108.876 256.499 108.792 256.427C108.663 256.325 108.542 256.543 108.659 256.641C108.788 256.743 108.921 256.832 109.054 256.922C109.548 257.502 110.068 258.049 110.621 258.581C112.34 260.543 114.122 262.445 116.226 263.994C118.922 265.965 122.073 267.175 125.315 267.908C127.152 268.325 129.005 268.582 130.873 268.762C131.033 268.778 131.027 268.528 130.88 268.516L130.888 268.491Z" fill="#465B78"/>
<path d="M144.07 254.476C142.82 255.679 141.349 256.652 139.746 257.341C139.29 257.535 138.813 257.707 138.345 257.855C138.192 257.896 138.256 258.14 138.409 258.099C140.102 257.58 141.688 256.747 143.091 255.654C143.494 255.344 143.88 255.001 144.243 254.649C144.352 254.536 144.18 254.364 144.07 254.476Z" fill="#465B78"/>
<path d="M147.847 258.039C146.151 258.985 144.314 259.672 142.41 260.087C142.257 260.129 142.313 260.356 142.474 260.331C144.394 259.909 146.248 259.213 147.972 258.264C148.11 258.19 147.996 257.969 147.854 258.056L147.847 258.039Z" fill="#465B78"/>
<path d="M149.151 260.803C147.621 261.52 146.011 262.041 144.344 262.334C144.183 262.359 144.247 262.603 144.407 262.578C146.091 262.277 147.73 261.752 149.264 261.024C149.414 260.954 149.284 260.741 149.147 260.816L149.151 260.803Z" fill="#465B78"/>
<path d="M149.386 261.676C148.663 262.187 147.869 262.589 147.04 262.896C146.895 262.954 146.946 263.193 147.103 263.14C147.961 262.829 148.76 262.415 149.512 261.901C149.642 261.81 149.524 261.601 149.394 261.692L149.386 261.676Z" fill="#465B78"/>
<path d="M143.243 265.221C141.295 265.413 139.343 265.507 137.38 265.513C135.412 265.532 133.439 265.453 131.485 265.283C130.387 265.189 129.285 265.066 128.192 264.919C128.033 264.902 128.039 265.153 128.186 265.165C130.122 265.424 132.076 265.594 134.033 265.681C136.001 265.773 137.964 265.767 139.929 265.678C141.04 265.624 142.142 265.554 143.245 265.443C143.402 265.431 143.408 265.185 143.252 265.197L143.243 265.221Z" fill="#465B78"/>
<path d="M149.709 273.211C147.402 273.024 145.088 272.78 142.801 272.462C140.514 272.144 138.237 271.761 135.973 271.3C134.699 271.045 133.433 270.766 132.172 270.475C132.021 270.434 131.949 270.67 132.1 270.711C134.353 271.237 136.628 271.703 138.913 272.103C141.199 272.502 143.498 272.825 145.807 273.081C147.105 273.234 148.404 273.346 149.703 273.457C149.863 273.474 149.857 273.223 149.709 273.211Z" fill="#465B78"/>
<path d="M151.902 270.816C149.347 271.161 146.758 271.258 144.183 271.126C143.453 271.082 142.715 271.022 141.982 270.95C141.822 270.934 141.828 271.184 141.976 271.196C144.568 271.473 147.195 271.499 149.783 271.291C150.508 271.236 151.228 271.152 151.954 271.056C152.114 271.031 152.046 270.799 151.89 270.812L151.902 270.816Z" fill="#465B78"/>
<path d="M152.658 271.78C151.207 272.124 149.721 272.263 148.22 272.216C148.055 272.211 148.061 272.462 148.213 272.462C149.727 272.513 151.234 272.355 152.713 272.007C152.866 271.966 152.811 271.739 152.65 271.763L152.658 271.78Z" fill="#465B78"/>
<path d="M100.808 235.475C100.703 235.23 100.603 234.973 100.503 234.716C100.216 233.107 100.049 231.472 100.021 229.833C99.9891 227.902 100.133 225.98 100.466 224.071C100.65 222.992 100.895 221.935 101.205 220.887C101.258 220.741 101.01 220.665 100.969 220.815C100.428 222.69 100.074 224.619 99.8966 226.557C99.7148 228.507 99.7338 230.475 99.9258 232.422C99.9573 232.792 100.022 233.147 100.07 233.51C99.6584 232.284 99.313 231.026 99.0875 229.743C98.7358 227.78 98.6191 225.777 98.7199 223.784C98.7818 222.66 98.9091 221.547 99.114 220.447C99.1427 220.292 98.9064 220.22 98.8777 220.375C98.5063 222.353 98.3635 224.386 98.4635 226.397C98.5591 228.42 98.8809 230.428 99.4422 232.385C99.6761 233.187 99.9554 233.979 100.264 234.767C100.267 234.796 100.278 234.841 100.281 234.87C99.4249 232.737 98.8045 230.524 98.4402 228.252C98.0257 225.7 97.9372 223.086 98.1637 220.517C98.2873 219.071 98.5173 217.635 98.8539 216.211C98.8947 216.06 98.6584 215.988 98.6176 216.139C98.0262 218.686 97.7576 221.295 97.8051 223.908C97.8648 226.525 98.2328 229.13 98.9312 231.661C99.3177 233.071 99.8074 234.464 100.397 235.809C100.459 235.942 100.63 235.852 100.609 235.72C100.63 235.7 100.651 235.68 100.659 235.656C100.745 235.687 100.85 235.587 100.808 235.475Z" fill="#465B78"/>
<path d="M102.724 204.386C101.922 205.835 101.121 207.285 100.32 208.734C100.242 208.872 100.457 209.005 100.534 208.867C101.335 207.418 102.137 205.968 102.938 204.519C103.015 204.381 102.801 204.248 102.724 204.386Z" fill="#465B78"/>
<path d="M103.155 205.633C102.35 207.551 101.631 209.499 101.021 211.487C100.846 212.045 100.679 212.62 100.517 213.182C100.464 213.329 100.713 213.405 100.753 213.254C101.314 211.248 101.973 209.278 102.729 207.343C102.94 206.798 103.168 206.245 103.392 205.705C103.445 205.558 103.221 205.491 103.155 205.633Z" fill="#465B78"/>
<path d="M103.746 209.492C103.432 210.51 103.118 211.529 102.804 212.547C102.751 212.694 103 212.77 103.041 212.619C103.354 211.601 103.668 210.582 103.982 209.564C104.035 209.417 103.786 209.341 103.746 209.492Z" fill="#465B78"/>
<path d="M104.632 209.827L103.844 212.689C103.791 212.836 104.039 212.912 104.08 212.761L104.868 209.899C104.921 209.752 104.673 209.676 104.632 209.827Z" fill="#465B78"/>
<path d="M108.196 209.213C107.018 210.94 105.945 212.719 104.969 214.574C104.892 214.712 105.106 214.845 105.184 214.707C106.155 212.864 107.232 211.073 108.41 209.345C108.5 209.212 108.281 209.092 108.196 209.213Z" fill="#465B78"/>
<path d="M110.216 209.544C108.874 211.267 107.544 212.994 106.202 214.717C106.1 214.846 106.319 214.966 106.416 214.85C107.758 213.127 109.088 211.4 110.43 209.677C110.532 209.548 110.313 209.427 110.216 209.544Z" fill="#465B78"/>
<path d="M110.513 210.135C109.05 211.924 107.647 213.777 106.313 215.668C105.937 216.209 105.562 216.75 105.199 217.295C105.109 217.428 105.323 217.561 105.413 217.427C106.682 215.526 108.027 213.68 109.437 211.885C109.849 211.358 110.256 210.843 110.676 210.332C110.773 210.215 110.606 210.03 110.504 210.159L110.513 210.135Z" fill="#465B78"/>
<path d="M106.36 221.291C106.989 220.014 107.723 218.789 108.521 217.614C108.611 217.481 108.392 217.361 108.307 217.482C106.869 219.584 105.697 221.866 104.801 224.261C103.91 226.644 103.32 229.15 103.025 231.681C102.864 233.114 102.799 234.553 102.839 236.004C102.839 236.156 103.085 236.162 103.085 236.01C103.023 233.475 103.266 230.939 103.818 228.461C104.371 225.983 105.218 223.57 106.356 221.304L106.36 221.291Z" fill="#465B78"/>
<path d="M114.047 228.163C114.578 227.154 115.146 226.158 115.753 225.205C115.843 225.072 115.629 224.939 115.539 225.072C114.448 226.789 113.494 228.584 112.686 230.431C111.879 232.279 111.202 234.187 110.675 236.136C110.383 237.246 110.129 238.369 109.922 239.509C109.894 239.664 110.13 239.736 110.159 239.581C110.506 237.594 111.008 235.636 111.661 233.719C112.31 231.814 113.11 229.949 114.035 228.158L114.047 228.163Z" fill="#465B78"/>
<path d="M135.021 244.584C132.658 246.227 130.129 247.644 127.5 248.804C124.883 249.968 122.149 250.883 119.356 251.542C117.786 251.912 116.189 252.203 114.587 252.396C114.431 252.409 114.432 252.671 114.581 252.642C117.456 252.29 120.281 251.656 123.031 250.775C125.78 249.893 128.446 248.746 130.991 247.362C132.419 246.582 133.805 245.731 135.151 244.797C135.281 244.706 135.163 244.497 135.033 244.588L135.021 244.584Z" fill="#465B78"/>
<path d="M127.81 228.703C125.165 230.63 122.734 232.843 120.596 235.313C118.447 237.779 116.582 240.486 115.05 243.382C114.187 245.003 113.429 246.675 112.793 248.391C112.74 248.538 112.977 248.61 113.03 248.463C114.172 245.425 115.68 242.52 117.474 239.815C119.277 237.127 121.365 234.639 123.714 232.424C125.04 231.165 126.458 229.994 127.935 228.928C128.065 228.837 127.939 228.612 127.817 228.72L127.81 228.703Z" fill="#465B78"/>
</g>
<g opacity="0.3">
<path d="M-97.315 386.117C-56.6587 360.557 -20.2524 328.474 10.5763 291.664C41.4006 254.867 66.6307 213.35 84.9901 168.999C95.3298 144.04 103.402 118.177 109.167 91.7826C109.741 89.1324 105.529 88.7526 104.96 91.3906C94.767 138.01 77.0039 182.964 52.9201 224.136C28.9437 265.127 -1.20219 302.529 -36.3443 334.477C-56.0873 352.425 -77.3906 368.621 -99.9729 382.821C-102.277 384.264 -99.5979 387.54 -97.315 386.117Z" fill="#465B78"/>
<path d="M103.038 128.746C97.7046 125.861 91.7428 124.405 85.842 122.972C80.7504 135.997 80.026 150.687 83.8096 164.139L86.0532 163.129C92.0842 162.222 97.6336 159.137 102.321 155.23C107.021 151.327 110.949 146.62 114.869 141.937C113.072 136.15 108.364 131.614 103.03 128.729L103.038 128.746Z" fill="#FAF1EA"/>
<path d="M103.796 126.77C98.3955 123.916 92.5002 122.429 86.5994 120.996C85.4811 120.729 84.3314 121.044 83.8781 122.219C78.7016 135.669 77.9055 150.596 81.7351 164.492C82.0959 165.783 83.3458 166.677 84.6837 166.071C88.2984 164.44 92.2449 163.95 95.8449 162.093C100.918 159.485 105.243 155.778 109.16 151.674C111.249 149.49 113.226 147.196 115.171 144.877C115.992 143.905 117.1 142.981 116.956 141.589C116.839 140.387 116.022 138.945 115.47 137.916C112.963 133.211 108.893 129.583 104.269 127.024C101.913 125.715 99.3943 129.124 101.775 130.442C106.835 133.242 111.09 137.2 112.937 142.811C113.012 142.107 113.088 141.403 113.152 140.694C108.423 146.354 103.61 152.093 97.4494 156.254C94.7998 158.042 91.8625 159.518 88.7726 160.387C86.7127 160.966 84.8843 161.325 82.9312 162.219C83.9156 162.742 84.8955 163.276 85.8799 163.798C82.2341 150.576 82.8638 136.528 87.7937 123.72C86.8881 124.124 85.9781 124.54 85.0725 124.944C90.9733 126.377 96.8686 127.864 102.269 130.718C104.667 131.987 106.145 128.021 103.771 126.761L103.796 126.77Z" fill="#465B78"/>
<path d="M84.7417 140.453C84.1648 138.463 83.4726 136.486 82.7051 134.565C82.5549 134.179 81.9763 134.481 82.1309 134.854C84.8673 141.631 86.3755 148.901 86.5562 156.215C86.6141 158.266 86.5611 160.317 86.4016 162.358C86.3744 162.776 87.0221 162.818 87.0493 162.4C87.5972 155.018 86.8086 147.553 84.7417 140.453Z" fill="#465B78"/>
<path d="M92.2739 125.15C92.1071 124.772 91.533 125.061 91.6998 125.439C93.5959 129.771 94.7327 134.408 95.0955 139.123C95.4616 143.867 95.0581 148.678 93.8714 153.287C93.2135 155.865 92.3027 158.38 91.1566 160.781C90.9784 161.158 91.5975 161.355 91.7712 160.99C93.8133 156.649 95.1009 151.951 95.6142 147.181C96.1153 142.406 95.8466 137.545 94.7974 132.857C94.1964 130.209 93.3516 127.625 92.2661 125.133L92.2739 125.15Z" fill="#465B78"/>
<path d="M105.417 131.9C106.125 138.176 105.257 144.613 102.932 150.495C102.273 152.161 101.492 153.784 100.606 155.354C100.408 155.71 100.941 156.069 101.143 155.701C104.323 150.087 106.109 143.707 106.28 137.252C106.336 135.422 106.239 133.592 106.044 131.768C106.001 131.352 105.369 131.496 105.417 131.9Z" fill="#465B78"/>
<path d="M99.1926 137.57C99.8605 143.348 99.4495 149.247 97.9779 154.872C97.5628 156.475 97.0578 158.059 96.4719 159.6C96.3304 159.991 96.9329 160.195 97.0865 159.809C99.176 154.27 100.22 148.339 100.143 142.415C100.125 140.752 100.007 139.094 99.8202 137.438C99.7775 137.022 99.1333 137.162 99.1926 137.57Z" fill="#465B78"/>
<path d="M96.7165 144.405C97.1238 149.302 96.7616 154.265 95.6239 159.044C95.5312 159.453 96.1337 159.657 96.2385 159.253C97.396 154.343 97.7604 149.298 97.344 144.273C97.3136 143.862 96.6738 143.989 96.7165 144.405Z" fill="#465B78"/>
<path d="M108.018 139.276C107.295 144.054 105.69 148.677 103.273 152.869C103.063 153.221 103.608 153.584 103.811 153.215C106.287 148.935 107.932 144.202 108.666 139.317C108.73 138.913 108.082 138.871 108.018 139.276Z" fill="#465B78"/>
<path d="M109.674 140.842C108.661 144.134 107.631 147.434 106.618 150.725C106.489 151.12 107.103 151.329 107.233 150.934C108.246 147.643 109.275 144.343 110.288 141.051C110.406 140.652 109.803 140.447 109.674 140.842Z" fill="#465B78"/>
<path d="M91.7861 139.263C91.6731 144.911 91.1209 150.551 90.1317 156.102C90.0303 156.687 89.8924 157.258 89.7788 157.838C90.4078 153.358 90.48 148.814 89.9268 144.32C89.7106 142.515 89.379 140.725 88.9732 138.948C88.8851 138.544 88.2409 138.683 88.3456 139.08C89.7648 145.186 90.0485 151.529 89.1776 157.745C88.9346 159.52 88.5896 161.273 88.1503 163.019C88.0454 163.423 88.6601 163.632 88.765 163.228C88.9438 162.506 89.0527 161.786 89.2071 161.055C89.3072 161.312 89.7155 161.405 89.7816 161.07C91.0382 155.505 91.8698 149.856 92.2345 144.162C92.338 142.542 92.4003 140.922 92.4339 139.305C92.4445 138.894 91.7967 138.853 91.7861 139.263Z" fill="#465B78"/>
<path d="M222.682 121.751C220.433 119.459 217.703 117.697 215.37 115.485C209.209 109.663 205.897 100.855 198.566 96.5842C193.505 93.6324 187.295 93.357 182.071 90.7049C173.17 86.1961 168.268 75.4874 158.834 72.2214C143.706 93.6643 126.409 113.589 107.289 131.57L102.004 138.423C114.654 144.856 127.711 151.422 141.845 152.691C153.05 153.699 164.252 151.323 175.261 148.946C187.434 146.329 199.607 143.711 211.768 141.089C214.973 140.4 218.239 139.692 221.054 138.019C223.881 136.351 226.225 133.541 226.482 130.279C226.716 127.078 224.935 124.031 222.674 121.734L222.682 121.751Z" fill="#FAF1EA"/>
<path d="M224.322 120.426C221.546 117.722 218.246 115.588 215.605 112.739C213.336 110.274 211.458 107.495 209.504 104.771C205.48 99.1855 201.104 94.6868 194.392 92.5178C190.536 91.2725 186.421 90.6242 182.799 88.7321C179.769 87.1509 177.21 84.7606 174.842 82.3424C170.245 77.6532 165.887 72.6089 159.562 70.2487C158.696 69.9347 157.641 70.2155 157.104 70.9736C147.161 85.0439 136.323 98.4588 124.617 111.104C118.716 117.485 112.491 123.5 106.298 129.582C104.022 131.822 102.229 134.638 100.279 137.163C99.3655 138.35 100.059 139.789 101.239 140.382C110.509 145.093 119.888 149.844 129.964 152.597C139.526 155.205 149.181 155.5 158.972 154.16C168.998 152.78 178.893 150.317 188.791 148.187C194.196 147.025 199.606 145.851 205.023 144.693C209.71 143.685 214.619 142.978 219.118 141.267C223.377 139.648 227.312 136.448 228.363 131.831C229.329 127.528 227.22 123.478 224.33 120.401C222.476 118.432 219.172 121.073 221.034 123.059C223.788 125.976 225.693 129.828 223.027 133.488C220.469 137.006 215.852 138.012 211.862 138.887C202.595 140.914 193.309 142.879 184.039 144.878C166.535 148.643 148.781 153.478 131.001 148.514C121.111 145.745 111.881 141.076 102.754 136.43C103.071 137.498 103.396 138.582 103.714 139.649C105.744 137.016 107.61 134.116 110.05 131.839C116.303 126.013 122.252 119.843 128.056 113.578C139.761 100.933 150.6 87.5186 160.543 73.4482C159.724 73.6899 158.905 73.9315 158.085 74.1732C164.451 76.5345 168.581 82.1314 173.317 86.705C175.464 88.7808 177.727 90.6912 180.35 92.1387C183.698 93.9868 187.385 94.8253 191.037 95.8723C194.502 96.8652 197.754 98.14 200.48 100.563C202.9 102.724 204.822 105.423 206.688 108.045C208.559 110.656 210.383 113.319 212.59 115.651C215.176 118.383 218.343 120.427 221.026 123.043C222.953 124.928 226.257 122.287 224.323 120.385L224.322 120.426Z" fill="#465B78"/>
<path d="M62.1666 46.7414C61.4511 42.0088 60.8064 37.0809 58.1576 33.1114C55.4967 29.1375 50.1024 26.5344 45.8184 28.6412C43.851 29.6129 42.4169 31.3991 40.7296 32.8173C39.0422 34.2356 36.7189 35.3131 34.6783 34.5048C32.5646 33.67 31.6578 31.2567 30.8168 29.1571C29.9803 27.0454 28.6034 24.7103 26.354 24.5166C24.7479 24.3766 23.2298 25.442 22.4096 26.8293C21.5895 28.2166 21.3419 29.8528 21.2019 31.4589C20.6065 38.1328 21.5085 44.8659 22.9781 51.4043C24.7721 59.3718 27.4521 67.2185 31.7071 74.186C40.3547 88.3505 54.7572 97.8346 68.6956 106.847L87.1922 123.323C74.6978 99.4254 66.2078 73.4304 62.1866 46.7624L62.1666 46.7414Z" fill="#FAF1EA"/>
<path d="M64.2578 46.3806C63.2415 39.6199 62.0167 31.8724 55.7757 27.8718C53.3439 26.3142 50.3572 25.4117 47.4576 25.9076C43.8118 26.5198 41.8754 29.3114 39.1075 31.3875C37.4365 32.6461 35.5397 33.2705 34.121 31.2792C32.9834 29.6935 32.5983 27.5935 31.5615 25.92C29.9881 23.4032 27.1645 21.5933 24.1503 22.7104C17.1098 25.3373 18.663 36.9041 19.3221 42.707C21.121 58.4357 26.9378 73.9356 37.8261 85.612C43.1164 91.284 49.2043 96.1266 55.5279 100.585C59.7748 103.573 64.6631 106.049 68.5323 109.508C74.3367 114.675 80.1288 119.839 85.9332 125.007C87.523 126.411 90.0469 124.247 89.1164 122.432C76.7186 98.6112 68.3232 72.9266 64.27 46.3851C63.8631 43.6972 59.6894 44.3943 60.0963 47.0821C64.1988 73.9452 72.7144 100.06 85.2568 124.168C86.3138 123.308 87.3708 122.449 88.44 121.593C83.7959 117.453 79.1473 113.325 74.5153 109.19C72.7811 107.65 71.1211 105.944 69.2041 104.642C63.5178 100.787 57.7109 97.1512 52.2637 92.9411C40.459 83.8321 31.5301 72.7689 27.0223 58.4197C24.7956 51.3034 23.1651 43.685 23.1284 36.2022C23.1168 33.9475 22.6498 26.4331 26.1768 26.6063C28.0922 26.6928 28.8793 30.0844 29.4931 31.4389C30.0791 32.7558 30.7727 34.0426 31.8142 35.055C34.2459 37.4133 37.6261 37.2296 40.4068 35.6137C43.3249 33.9233 45.3455 30.0991 49.003 29.9882C57.5635 29.7206 59.1717 40.9069 60.1085 47.0865C60.5155 49.7744 64.6847 49.0896 64.2822 46.3895L64.2578 46.3806Z" fill="#465B78"/>
<path d="M168.23 69.6471C164.382 65.8643 158.083 66.6338 153.059 64.648C145.149 61.5199 141.812 52.3997 136.438 45.8139C131.005 39.165 122.863 34.8072 114.315 33.9746C106.204 33.1902 98.1509 35.4502 90.0918 36.6587C82.0326 37.8673 73.1678 37.8313 66.5267 33.1058C64.8373 31.9001 63.3316 30.4158 61.4971 29.4198C59.6749 28.4283 57.3497 27.9863 55.5376 28.9867C53.3254 30.2148 52.6368 33.0304 52.1861 35.5319C49.4272 50.6173 46.6967 66.3481 50.9731 81.069C56.4779 100.059 72.4782 113.823 87.7029 126.449L101.934 138.273C130.755 133.568 156.64 113.606 168.515 86.9259C169.766 84.1207 170.88 81.197 171.071 78.118C171.269 75.0557 170.433 71.7983 168.23 69.6471Z" fill="#FAF1EA"/>
<path d="M169.486 67.9344C164.227 63.2405 156.497 65.0653 150.917 61.0694C145.631 57.2905 142.891 50.8302 139.084 45.7508C134.975 40.2859 129.274 36.0528 122.845 33.7514C116.185 31.3661 109.216 31.3955 102.286 32.4197C94.9778 33.4998 87.6981 35.5293 80.2459 35.1766C76.4605 34.9926 72.6234 34.2653 69.2928 32.3683C66.3507 30.6949 64.086 27.9139 60.813 26.811C58.118 25.9037 55.1572 26.2256 53.0679 28.2576C50.941 30.3175 50.4501 33.4257 49.9388 36.2089C48.6452 43.2097 47.4326 50.2537 46.9165 57.3567C45.9335 70.9316 48.1241 84.0547 55.2827 95.7744C62.0157 106.801 71.6585 115.666 81.4392 123.959C87.089 128.753 92.8273 133.455 98.5402 138.189C99.2196 138.753 99.9104 139.514 100.675 139.957C102.689 141.142 106.425 139.596 108.528 139.088C114.628 137.611 120.575 135.486 126.226 132.77C138.995 126.64 150.328 117.574 159.116 106.468C163.501 100.918 167.227 94.8262 170.169 88.3812C173.064 82.0295 175.212 74.0406 169.891 68.3021C168.045 66.308 164.749 68.9659 166.595 70.96C170.158 74.8053 169.05 80.0369 167.268 84.4586C165.716 88.2868 163.781 91.99 161.624 95.5028C157.278 102.585 151.921 109.025 145.766 114.582C133.392 125.756 118.058 133.4 101.594 136.162C102.129 136.286 102.664 136.411 103.199 136.536C96.26 130.764 89.2417 125.059 82.3962 119.183C69.2792 107.942 56.0479 94.7676 52.2206 77.2823C50.2122 68.0773 50.7653 58.5854 52.0518 49.3176C52.6983 44.6366 53.4557 39.9544 54.4006 35.3263C54.8571 33.0755 55.5382 30.3952 58.3598 30.5337C60.7632 30.6451 62.8033 32.9029 64.6038 34.2593C81.409 46.9057 101.951 31.5528 120.11 37.2616C125.255 38.8768 130.013 41.788 133.663 45.7751C137.01 49.4176 139.315 53.8422 142.188 57.8381C144.832 61.5159 148.051 64.9046 152.339 66.5963C157.131 68.4982 162.991 67.7214 167.016 71.3199C169.052 73.1341 171.522 69.7075 169.511 67.9022L169.486 67.9344Z" fill="#465B78"/>
<path d="M151.066 100.942C146.559 107.552 141.16 113.535 135.085 118.721C129.004 123.918 122.263 128.31 115.045 131.77C113.96 132.289 112.867 132.79 111.759 133.258C112.051 133.061 112.352 132.879 112.644 132.682C115.585 130.737 118.475 128.705 121.294 126.565C126.969 122.256 132.363 117.583 137.428 112.556C140.273 109.734 143.018 106.808 145.638 103.767C145.905 103.449 145.482 102.978 145.203 103.291C140.551 108.661 135.547 113.71 130.214 118.406C124.894 123.106 119.271 127.461 113.367 131.411C111.724 132.514 110.053 133.621 108.335 134.628C106.444 135.351 104.534 136.012 102.593 136.606C102.591 136.537 102.572 136.474 102.5 136.407C102.383 136.309 102.283 136.204 102.179 136.111C101.407 130.695 100.767 125.259 100.284 119.809C100.241 119.393 99.6135 119.525 99.6561 119.941C100.118 125.106 100.72 130.267 101.441 135.402C98.4112 127.76 95.7335 119.983 93.4737 112.082C92.7732 109.633 92.1137 107.185 91.4919 104.709C91.3871 104.312 90.7596 104.444 90.8643 104.84C93.0963 113.657 95.8039 122.342 98.9761 130.85C99.4256 132.049 99.9083 133.231 100.374 134.422C94.7075 129.18 89.4792 123.489 84.8005 117.348C79.522 110.424 74.926 102.987 71.0871 95.1765C68.9458 90.7972 67.0251 86.3045 65.3737 81.7161C65.2402 81.3225 64.6616 81.6238 64.7996 82.0051C67.7617 90.2164 71.5365 98.1283 76.0493 105.603C80.5344 113.041 85.7409 120.05 91.5779 126.499C94.5285 129.75 97.6642 132.833 100.918 135.779C101.219 136.55 101.502 137.33 101.819 138.093C101.97 138.479 102.548 138.178 102.394 137.804C102.367 137.726 102.328 137.643 102.301 137.564C102.323 137.503 102.374 137.438 102.348 137.36C102.333 137.285 102.331 137.216 102.316 137.141C102.38 137.233 102.464 137.305 102.621 137.252C103.011 137.131 103.396 136.98 103.785 136.859C103.379 137.029 102.975 137.228 102.548 137.377C102.155 137.511 102.456 138.089 102.837 137.951C104.831 137.251 106.712 136.29 108.534 135.224C114.124 133.094 119.503 130.403 124.579 127.216C131.391 122.933 137.655 117.76 143.134 111.861C146.213 108.545 149.043 105 151.6 101.26C151.834 100.917 151.302 100.558 151.063 100.913L151.066 100.942Z" fill="#465B78"/>
<path d="M64.2705 32.0538C64.8297 38.7042 65.3845 45.3667 65.9436 52.0171C65.9741 52.4285 66.6139 52.3013 66.5712 51.8854C66.012 45.2351 65.4573 38.5725 64.8981 31.9222C64.8677 31.5108 64.2279 31.638 64.2705 32.0538Z" fill="#465B78"/>
<path d="M67.961 34.3296C68.6757 39.4071 69.4027 44.4891 70.1175 49.5666C70.1768 49.9747 70.8043 49.843 70.7451 49.435C70.0303 44.3575 69.3033 39.2755 68.5885 34.198C68.5293 33.7899 67.9017 33.9216 67.961 34.3296Z" fill="#465B78"/>
<path d="M146.66 59.9C146.318 65.1884 145.002 70.3859 142.804 75.1952C142.169 76.5667 141.46 77.9118 140.684 79.2181C140.473 79.5699 141.006 79.9286 141.221 79.5645C143.96 74.9376 145.849 69.837 146.762 64.5346C147.023 63.0138 147.207 61.4786 147.308 59.9414C147.335 59.5232 146.688 59.4818 146.66 59.9Z" fill="#465B78"/>
<path d="M148.999 64.116C148.391 68.0794 147.178 71.9615 145.394 75.5536C145.208 75.9143 145.753 76.2774 145.931 75.9001C147.755 72.1981 149.012 68.2351 149.634 64.153C149.698 63.7481 149.05 63.7067 148.987 64.1116L148.999 64.116Z" fill="#465B78"/>
<path d="M168.65 140.021C160.63 143.218 152.273 145.782 143.659 146.693C139.41 147.142 135.098 147.153 130.857 146.625C126.641 146.106 122.513 145.038 118.473 143.726C117.313 143.347 116.166 142.891 115.019 142.475C116.041 142.666 117.067 142.844 118.111 142.974C123.006 143.601 127.996 143.545 132.881 142.83C135.655 142.413 138.398 141.777 141.077 140.939C141.466 140.818 141.351 140.182 140.945 140.311C136.267 141.792 131.396 142.623 126.489 142.751C121.566 142.886 116.624 142.352 111.842 141.145C111.288 140.999 110.725 140.837 110.179 140.666C109.358 140.341 108.537 140.016 107.72 139.679C111.354 140.015 115.016 140.044 118.646 139.744C123.913 139.305 129.108 138.191 134.093 136.434C136.911 135.44 139.648 134.25 142.296 132.848C142.671 132.652 142.369 132.074 142.007 132.274C137.365 134.72 132.407 136.555 127.301 137.729C122.195 138.903 116.921 139.436 111.685 139.293C111.246 139.286 110.808 139.237 110.377 139.206C114.003 138.876 117.592 138.271 121.114 137.352C126.336 135.971 131.402 133.955 136.142 131.35C138.8 129.883 141.36 128.229 143.801 126.407C144.128 126.153 143.705 125.682 143.366 125.932C139.103 129.123 134.439 131.783 129.529 133.828C124.597 135.894 119.406 137.34 114.117 138.144C111.458 138.548 108.771 138.762 106.071 138.819C105.846 138.793 105.609 138.762 105.384 138.736C105.335 138.718 105.286 138.7 105.249 138.687C105.152 138.652 105.065 138.662 104.999 138.693C104.774 138.667 104.548 138.64 104.311 138.61C104.213 138.574 104.128 138.543 104.03 138.508C103.92 138.468 103.83 138.49 103.759 138.534C103.485 138.49 103.202 138.47 102.928 138.426C102.511 138.358 102.486 138.998 102.886 139.074C103.304 139.142 103.729 139.186 104.147 139.254C105.979 140.028 107.847 140.664 109.754 141.23C116.079 143.743 122.512 146.032 129.256 147.081C137.87 148.42 146.649 147.472 155.033 145.291C159.787 144.058 164.428 142.454 168.979 140.637C169.365 140.487 169.064 139.908 168.69 140.063L168.65 140.021Z" fill="#465B78"/>
<path d="M182.509 91.7058C181.035 96.0041 178.791 100.024 175.892 103.53C175.057 104.539 174.174 105.489 173.247 106.41C172.948 106.702 173.383 107.177 173.682 106.885C176.986 103.636 179.696 99.8131 181.644 95.6174C182.205 94.4123 182.697 93.1684 183.124 91.9147C183.265 91.5241 182.65 91.3152 182.509 91.7058Z" fill="#465B78"/>
<path d="M195.536 95.4588C192.708 99.681 189.281 103.465 185.362 106.698C185.043 106.969 185.478 107.444 185.797 107.173C189.753 103.912 193.228 100.076 196.073 95.8053C196.308 95.4623 195.763 95.0992 195.536 95.4588Z" fill="#465B78"/>
<path d="M201.866 100.32C199.18 103.807 196.044 106.937 192.534 109.614C192.207 109.868 192.642 110.344 192.969 110.089C196.517 107.384 199.683 104.21 202.398 100.679C202.657 100.345 202.108 99.9936 201.861 100.332L201.866 100.32Z" fill="#465B78"/>
<path d="M203.443 102.065C202.359 104.102 201.021 106.006 199.453 107.703C199.179 108.003 199.597 108.486 199.889 108.178C201.498 106.441 202.879 104.498 203.992 102.416C204.182 102.043 203.645 101.696 203.459 102.057L203.443 102.065Z" fill="#465B78"/>
<path d="M193.415 117.624C189.114 120.387 184.691 122.954 180.162 125.318C175.613 127.701 170.945 129.876 166.205 131.831C163.54 132.937 160.832 133.971 158.121 134.936C157.728 135.07 158.029 135.648 158.41 135.51C163.226 133.803 167.957 131.872 172.612 129.734C177.283 127.588 181.848 125.238 186.308 122.684C188.817 121.246 191.278 119.749 193.709 118.186C194.051 117.964 193.762 117.39 193.42 117.611L193.415 117.624Z" fill="#465B78"/>
<path d="M217.995 128.475C212.412 130.815 206.762 132.994 201.044 134.981C195.351 136.978 189.608 138.805 183.804 140.457C180.552 141.392 177.281 142.264 174 143.091C173.603 143.196 173.734 143.823 174.131 143.718C180.009 142.244 185.837 140.6 191.616 138.787C197.396 136.973 203.126 134.99 208.783 132.828C211.968 131.621 215.134 130.352 218.289 129.037C218.679 128.875 218.377 128.296 217.999 128.463L217.995 128.475Z" fill="#465B78"/>
<path d="M220.223 120.267C214.699 124.119 208.823 127.458 202.674 130.215C200.925 131.003 199.153 131.742 197.369 132.435C196.983 132.585 197.272 133.159 197.658 133.009C204.005 130.545 210.124 127.487 215.905 123.879C217.512 122.874 219.091 121.831 220.642 120.75C220.977 120.512 220.541 120.037 220.207 120.274L220.223 120.267Z" fill="#465B78"/>
<path d="M223.108 121.602C220.136 124.128 216.853 126.253 213.336 127.92C212.954 128.099 213.255 128.677 213.625 128.494C217.197 126.791 220.521 124.627 223.532 122.073C223.851 121.802 223.415 121.326 223.096 121.597L223.108 121.602Z" fill="#465B78"/>
<path d="M59.3139 99.3197C58.7588 98.8701 58.2336 98.376 57.6996 97.9064C55.1059 94.5092 52.7715 90.9297 50.7418 87.1569C48.3598 82.718 46.4023 78.0601 44.9004 73.2497C44.0509 70.5258 43.35 67.7728 42.7899 64.9742C42.7018 64.5695 42.0742 64.7011 42.1623 65.1058C43.1543 70.1043 44.6252 75.0001 46.5318 79.7224C48.4584 84.4658 50.8294 89.0112 53.6139 93.2921C54.135 94.1022 54.6982 94.8723 55.2404 95.6624C52.8087 93.3042 50.5332 90.7816 48.4716 88.0879C45.3058 83.945 42.6298 79.441 40.498 74.6923C39.2982 72.0209 38.269 69.2595 37.4338 66.4579C37.3169 66.0566 36.6893 66.1882 36.8062 66.5895C38.3184 71.6384 40.4059 76.5091 43.0354 81.0652C45.6683 85.6503 48.8387 89.933 52.4555 93.7837C53.9624 95.3789 55.5579 96.882 57.2044 98.3207C57.2599 98.3961 57.3199 98.4592 57.3632 98.5301C52.8369 94.5984 48.7292 90.197 45.1744 85.3747C41.1675 79.9329 37.8388 73.9912 35.2738 67.7326C33.8411 64.2175 32.6534 60.5978 31.734 56.9235C31.6293 56.5266 31.0017 56.6582 31.1065 57.0551C32.7713 63.6642 35.2588 70.0605 38.5122 76.0577C41.7612 82.0671 45.7595 87.6853 50.3969 92.7204C52.9933 95.5387 55.7835 98.1649 58.7553 100.595C59.0529 100.84 59.3473 100.409 59.1452 100.128C59.1717 100.055 59.1938 99.9941 59.1793 99.9198C59.4022 99.8763 59.5592 99.519 59.3139 99.3197Z" fill="#465B78"/>
<path d="M26.6171 24.8191C26.4892 29.1357 26.3569 33.4645 26.2412 37.7855C26.2306 38.1959 26.8783 38.2373 26.8889 37.8269C27.0168 33.5103 27.1492 29.1815 27.2649 24.8605C27.2755 24.4501 26.6322 24.3965 26.6171 24.8191Z" fill="#465B78"/>
<path d="M29.0976 27.1951C29.5123 32.6057 30.1864 37.986 31.1244 43.3239C31.389 44.8419 31.6825 46.3565 31.9927 47.8633C32.0808 48.268 32.7083 48.1364 32.6202 47.7317C31.5336 42.4228 30.7032 37.0549 30.1322 31.6567C29.9707 30.1208 29.8379 28.5816 29.7174 27.0468C29.687 26.6354 29.0594 26.767 29.0899 27.1784L29.0976 27.1951Z" fill="#465B78"/>
<path d="M35.0687 35.4471C35.5566 38.1781 36.0401 40.9213 36.5281 43.6523C36.5995 44.0648 37.2271 43.9332 37.1556 43.5207C36.6721 40.7775 36.1842 38.0465 35.7007 35.3032C35.6292 34.8907 35.0016 35.0224 35.0731 35.4349L35.0687 35.4471Z" fill="#465B78"/>
<path d="M37.5272 35.1779L39.1012 42.762C39.1893 43.1667 39.8168 43.0351 39.7287 42.6304L38.1548 35.0463C38.0667 34.6416 37.4391 34.7732 37.5272 35.1779Z" fill="#465B78"/>
<path d="M45.0941 29.4971C44.433 34.9046 44.0668 40.3361 44.008 45.796C44.0096 46.2108 44.6451 46.2478 44.6557 45.8374C44.7102 40.3896 45.0807 34.9459 45.7419 29.5385C45.7935 29.1292 45.1458 29.0878 45.0941 29.4971Z" fill="#465B78"/>
<path d="M50.1506 27.8497C49.1026 33.4483 48.0668 39.0514 47.0188 44.6501C46.9383 45.0628 47.5905 45.0919 47.6665 44.6915C48.7145 39.0928 49.7503 33.4897 50.7983 27.891C50.8788 27.4784 50.2266 27.4492 50.1506 27.8497Z" fill="#465B78"/>
<path d="M51.5536 28.855C50.2963 34.7645 49.2432 40.7203 48.423 46.719C48.1944 48.4173 47.978 50.1199 47.7781 51.8148C47.7265 52.2241 48.3742 52.2655 48.4259 51.8562C49.1086 45.9319 50.0165 40.0339 51.133 34.1701C51.4603 32.4662 51.7999 30.7667 52.1682 29.0639C52.2565 28.6678 51.6462 28.4468 51.5536 28.855Z" fill="#465B78"/>
<path d="M55.2528 59.7279C55.2051 56.0104 55.408 52.287 55.8727 48.6033C55.9244 48.194 55.2766 48.1526 55.225 48.5619C54.4056 55.1684 54.3925 61.8738 55.2034 68.4773C55.9977 75.0885 57.6036 81.5934 59.96 87.818C61.294 91.3387 62.8686 94.7672 64.6803 98.0744C64.8804 98.4368 65.4545 98.1478 65.2544 97.7854C62.07 91.9788 59.606 85.7844 57.9281 79.3638C56.2457 72.9555 55.3406 66.3455 55.2528 59.7279Z" fill="#465B78"/>
<path d="M81.3304 66.4829C81.3457 63.5062 81.4885 60.5204 81.7578 57.5667C81.7972 57.153 81.1494 57.1116 81.11 57.5253C80.6328 62.8061 80.5615 68.1097 80.885 73.3907C81.213 78.6594 81.9401 83.8933 83.0554 89.0469C83.69 91.9829 84.4609 94.8855 85.3394 97.758C85.4608 98.1471 86.0961 98.0321 85.967 97.6264C84.4094 92.5887 83.2365 87.4418 82.4594 82.2313C81.6824 77.0208 81.2968 71.7587 81.3304 66.4829Z" fill="#465B78"/>
<path d="M149.643 79.5644C146.104 86.2075 141.946 92.5019 137.228 98.359C132.532 104.196 127.276 109.596 121.582 114.45C118.366 117.192 115.006 119.758 111.52 122.14C111.186 122.378 111.475 122.952 111.809 122.714C118.046 118.457 123.87 113.622 129.207 108.266C134.528 102.917 139.364 97.0755 143.603 90.8242C145.998 87.3012 148.186 83.6619 150.184 79.8987C150.375 79.5258 149.838 79.1794 149.652 79.54L149.643 79.5644Z" fill="#465B78"/>
<path d="M113.937 51.2897C110.086 58.9102 107.11 66.9722 105.072 75.2637C103.047 83.5597 101.948 92.0808 101.835 100.627C101.768 105.422 102.022 110.208 102.565 114.961C102.607 115.377 103.252 115.237 103.192 114.829C102.215 106.398 102.226 97.8697 103.183 89.4353C104.135 81.0541 106.044 72.7716 108.845 64.8118C110.436 60.3072 112.307 55.9042 114.462 51.6317C114.648 51.2711 114.103 50.9079 113.925 51.2852L113.937 51.2897Z" fill="#465B78"/>
</g>
</svg>
