<svg width="160" height="43" viewBox="0 0 160 43" fill="none" xmlns="http://www.w3.org/2000/svg">
<path d="M139.95 26.7821C133.315 21.642 124.833 20.3418 116.655 20.2567C107.809 20.1717 98.9747 21.484 90.1405 20.5605C85.1462 20.038 80.0911 18.8228 75.7409 16.2588L75.3763 17.1216C84.405 20.682 95.6816 21.9215 101.745 30.4033C103.191 32.4205 104.176 34.7536 104.394 37.2446C104.455 37.998 105.646 38.0102 105.585 37.2446C105.184 32.6149 102.499 28.6413 98.9747 25.7492C94.8918 22.3954 89.9096 20.6334 84.9032 19.1388C81.8045 18.2153 78.6694 17.3525 75.6315 16.2224C75.1333 16.028 74.8173 16.8178 75.267 17.0852C83.0561 21.5083 91.9754 21.8607 100.725 21.4719C109.474 21.083 118.101 20.0501 126.705 21.642C131.383 22.5169 135.903 24.206 139.719 27.0981C139.889 27.2317 140.132 26.9279 139.95 26.7943V26.7821Z" fill="#465B78"/>
<path d="M84.4171 20.2324C89.1076 21.5205 94.1019 19.9772 98.4522 18.2274C103.045 16.3803 107.614 14.0958 112.645 13.8042C113.229 13.7677 113.229 12.8564 112.645 12.8928C102.839 13.4154 94.673 21.3382 84.5751 19.6491C84.1984 19.5884 84.0282 20.1352 84.4171 20.2324Z" fill="#465B78"/>
<path d="M129.779 22.3346C132.829 27.9365 137.738 32.7121 143.134 36.0538C143.62 36.3576 144.045 35.6042 143.571 35.3004C140.934 33.5627 138.48 31.6063 136.256 29.3582C134.032 27.1102 132.124 24.607 130.326 22.0187C130.095 21.6784 129.572 21.9701 129.767 22.3468L129.779 22.3346Z" fill="#465B78"/>
<path d="M136.718 25.3239C138.2 25.2632 139.683 25.0444 141.165 24.9472C142.648 24.85 144.142 24.7771 145.637 24.7528C148.626 24.7042 151.615 24.8257 154.58 25.1052C155.127 25.1538 155.115 24.3153 154.58 24.2546C151.555 23.9508 148.529 23.8414 145.491 23.9386C142.453 24.0358 139.488 24.1452 136.657 24.8621C136.402 24.9229 136.45 25.3239 136.718 25.3239Z" fill="#465B78"/>
<path d="M124.056 20.9615C123.241 25.1052 123.873 29.4919 125.575 33.3318C125.781 33.7936 126.462 33.3926 126.255 32.9308C124.59 29.1638 124.153 25.1052 124.7 21.0465C124.748 20.682 124.141 20.6091 124.068 20.9615H124.056Z" fill="#465B78"/>
<path d="M143.608 36.3211C144.349 36.0173 145.297 36.0902 145.916 36.6249C146.536 37.1596 146.743 38.0709 146.475 38.8608C146.196 39.6871 145.418 40.1732 144.555 40.1367C143.632 40.0881 142.891 39.4562 142.696 38.557C142.49 37.5849 143.049 36.5277 143.984 36.1874C144.191 36.1145 144.324 35.9079 144.264 35.6892C144.203 35.4948 143.972 35.3368 143.765 35.4097C142.635 35.7986 141.712 36.953 141.785 38.1924C141.858 39.4319 142.757 40.5499 144.009 40.7686C145.139 40.9752 146.329 40.5377 146.937 39.5413C147.545 38.5448 147.508 37.2689 146.791 36.3697C145.989 35.3733 144.446 35.033 143.34 35.7014C143.024 35.8958 143.231 36.4669 143.595 36.3211H143.608Z" fill="#465B78"/>
<path d="M144.75 39.6263C144.932 39.5413 145.114 39.444 145.297 39.359C145.345 39.3347 145.394 39.2982 145.418 39.2496C145.455 39.2132 145.479 39.1524 145.491 39.1038C145.503 39.043 145.515 38.9823 145.491 38.9337C145.491 38.8729 145.467 38.8243 145.442 38.7757C145.382 38.6785 145.297 38.6056 145.187 38.5691C145.078 38.5327 144.944 38.5448 144.847 38.6177C144.677 38.7271 144.507 38.8365 144.337 38.9458C144.252 39.0066 144.179 39.0795 144.154 39.1889C144.142 39.2375 144.13 39.2982 144.154 39.3468C144.154 39.3954 144.166 39.444 144.203 39.4927C144.264 39.5777 144.337 39.6506 144.446 39.6749H144.555C144.628 39.6871 144.689 39.6749 144.762 39.6385L144.75 39.6263Z" fill="#465B78"/>
<path d="M154.872 24.85C155.662 24.4004 156.634 24.2424 157.509 24.5705C158.384 24.8986 158.894 25.6885 159.004 26.5512C159.113 27.414 158.785 28.4833 157.922 28.8357C157.144 29.1517 156.245 28.7264 155.735 28.1188C154.981 27.2074 155.006 25.8829 155.127 24.7771C155.152 24.5341 154.896 24.3275 154.678 24.3275C154.41 24.3275 154.252 24.5341 154.228 24.7771C154.094 26.0409 154.216 27.4626 155.018 28.5076C155.674 29.3582 156.877 29.9172 157.946 29.5891C159.101 29.2367 159.769 27.973 159.757 26.8186C159.745 25.6642 159.174 24.5705 158.165 24.048C157.047 23.4647 155.48 23.5255 154.605 24.5098C154.447 24.692 154.641 24.9715 154.86 24.85H154.872Z" fill="#465B78"/>
<path d="M158.165 27.6084C158.129 27.3532 158.092 27.098 158.056 26.855C158.044 26.77 157.959 26.6727 157.886 26.6363C157.801 26.5877 157.691 26.5755 157.606 26.5998C157.412 26.6606 157.302 26.855 157.351 27.0494C157.412 27.2925 157.472 27.5477 157.533 27.7907C157.558 27.8757 157.618 27.9487 157.691 27.9973C157.764 28.0459 157.873 28.058 157.946 28.0337C158.019 28.0094 158.104 27.9608 158.153 27.8757L158.189 27.7907C158.189 27.7907 158.202 27.6692 158.189 27.6084H158.165Z" fill="#465B78"/>
<path d="M126.425 33.7085C127.361 33.7571 128.211 34.6077 128.685 35.349C129.159 36.0902 129.329 36.9773 128.685 37.6578C128.139 38.2289 127.312 38.4598 126.571 38.156C125.83 37.8522 125.271 37.1109 125.113 36.3211C124.906 35.2761 125.356 34.1824 126.061 33.4169C126.449 32.9916 125.83 32.3718 125.429 32.785C124.578 33.6842 124.019 34.9237 124.165 36.1874C124.299 37.3175 124.991 38.3869 126.036 38.8851C127.081 39.3833 128.211 39.201 129.062 38.4719C129.998 37.6821 130.156 36.4426 129.633 35.3611C129.329 34.7414 128.843 34.1824 128.309 33.745C127.774 33.3075 127.142 32.9551 126.413 32.9308C125.915 32.9065 125.915 33.6842 126.413 33.7085H126.425Z" fill="#465B78"/>
<path d="M127.616 37.2203C127.798 37.0623 127.932 36.8193 127.993 36.5763C128.017 36.4548 128.029 36.3211 128.017 36.1996C128.017 36.1267 128.005 36.0416 127.981 35.9687C127.956 35.8958 127.932 35.8107 127.895 35.7378C127.859 35.6528 127.738 35.5677 127.64 35.5434C127.543 35.5191 127.409 35.5313 127.324 35.5799C127.13 35.7135 127.069 35.9444 127.179 36.151C127.179 36.1753 127.203 36.1996 127.215 36.2117L127.179 36.1145C127.203 36.1753 127.227 36.2482 127.239 36.3211V36.2117C127.239 36.2968 127.239 36.3697 127.227 36.4548V36.3454C127.227 36.4183 127.215 36.4912 127.179 36.5641L127.215 36.4669C127.191 36.5277 127.154 36.6006 127.106 36.6492L127.166 36.5763C127.166 36.5763 127.118 36.637 127.093 36.6613C126.948 36.8072 126.936 37.0624 127.093 37.2082C127.166 37.2811 127.264 37.3297 127.361 37.3175C127.458 37.3054 127.555 37.2811 127.628 37.2082L127.616 37.2203Z" fill="#465B78"/>
<path d="M122.099 20.6698C123.728 19.9529 125.295 19.1266 126.972 18.4947C128.649 17.8628 130.241 17.4132 131.942 17.0851C135.381 16.4289 138.917 16.3317 142.392 16.757C142.963 16.8299 142.963 15.9186 142.392 15.8578C138.844 15.469 135.247 15.6391 131.748 16.3803C128.248 17.1216 124.663 18.1666 121.82 20.1838C121.516 20.4025 121.771 20.8278 122.111 20.6698H122.099Z" fill="#465B78"/>
<path d="M142.635 16.4411C142.623 17.4618 142.635 18.5312 143.279 19.3818C143.802 20.0744 144.75 20.5483 145.625 20.3296C146.111 20.2081 146.475 19.8678 146.73 19.4425C146.986 19.0172 147.204 18.5069 147.314 18.0208C147.435 17.4983 147.423 16.9636 147.18 16.4775C146.986 16.0644 146.597 15.7241 146.196 15.5176C145.114 14.9707 143.887 15.2988 142.927 15.955C142.72 16.1008 142.623 16.3682 142.757 16.5991C142.878 16.8056 143.194 16.915 143.401 16.7692C144.009 16.356 144.786 15.9793 145.54 16.1738C146.244 16.3439 146.694 16.915 146.597 17.6562C146.548 18.0694 146.366 18.4582 146.171 18.8228C146.026 19.1023 145.819 19.3939 145.527 19.5033C144.993 19.6977 144.324 19.3818 143.972 18.9322C143.717 18.6041 143.571 18.1666 143.462 17.7656C143.34 17.316 143.255 16.8421 143.182 16.3803C143.134 16.0644 142.635 16.1494 142.635 16.4532V16.4411Z" fill="#465B78"/>
<path d="M145.746 18.7499C145.831 18.4826 145.904 18.2031 145.989 17.9357C146.014 17.8507 145.989 17.7413 145.953 17.6563C145.904 17.5833 145.819 17.5104 145.734 17.4861C145.54 17.4375 145.345 17.5469 145.284 17.7413C145.212 18.0208 145.139 18.2881 145.054 18.5676C145.029 18.6527 145.054 18.7621 145.09 18.835C145.139 18.9079 145.212 18.9808 145.297 18.9929C145.491 19.0415 145.673 18.9322 145.734 18.7499H145.746Z" fill="#465B78"/>
<path d="M95.4386 24.291C99.4608 28.2039 99.9347 34.4376 96.7631 39.0188L97.3342 39.2618C97.8568 36.9165 97.0426 34.7657 96.5079 32.5055C96.2285 31.3147 96.0583 30.063 96.3986 28.8722C96.7388 27.6813 97.553 26.6363 97.4193 25.3604C97.3829 25.008 96.8117 24.8622 96.751 25.2753C96.5565 26.5634 95.7302 27.5963 95.4751 28.86C95.2685 29.8808 95.3657 30.9258 95.5723 31.9465C96.0583 34.2553 97.3828 36.7221 96.7145 39.116C96.6173 39.4805 97.0791 39.6263 97.2856 39.359C100.943 34.6199 100.251 27.8758 95.9125 23.8171C95.5844 23.5133 95.0984 23.9994 95.4264 24.3032L95.4386 24.291Z" fill="#465B78"/>
<path d="M106.569 14.509C109.522 14.2659 112.329 12.2852 114.14 10.025C116.157 7.48536 117.19 4.27734 117.044 1.03286C117.044 0.777679 116.752 0.595405 116.522 0.729073C114.006 2.23587 111.442 3.71836 109.753 6.18514C108.951 7.35169 108.502 8.61545 108.246 10.0007C107.979 11.5075 107.663 12.7227 106.472 13.7556C106.193 13.9986 106.484 14.5211 106.837 14.3875C107.979 13.9622 108.526 12.747 108.793 11.629C109.146 10.1344 109.243 8.68836 109.996 7.31523C111.503 4.60543 114.274 2.86775 116.862 1.33665L116.339 1.03286C116.449 4.09506 115.477 7.16942 113.52 9.55113C111.564 11.9328 109.182 13.0022 106.509 14.0351C106.278 14.1201 106.278 14.5333 106.569 14.509Z" fill="#465B78"/>
<path d="M104.273 21.6906C105.622 21.8485 106.922 21.9701 108.222 22.3954C109.522 22.8207 110.737 23.4647 111.77 24.3396C113.654 25.9315 114.905 28.2889 114.954 30.7678L115.428 30.4883C114.225 29.8686 113.034 29.2489 111.843 28.6048C110.737 28.0094 109.632 27.414 108.672 26.612C106.91 25.1416 105.573 23.2217 104.492 21.2167L104.054 21.6541C105.889 22.9665 108.781 23.246 109.777 25.5183C109.948 25.9072 110.519 25.5669 110.349 25.1781C109.279 22.7599 106.339 22.4683 104.382 21.0951C104.103 20.9007 103.799 21.2774 103.945 21.5326C105.063 23.5862 106.363 25.5912 108.21 27.0859C109.158 27.8514 110.215 28.4347 111.284 28.9937C112.572 29.662 113.848 30.3425 115.124 31.0351C115.331 31.1445 115.598 31.0108 115.598 30.7557C115.598 28.0823 114.286 25.5669 112.256 23.8536C111.175 22.9422 109.923 22.2617 108.587 21.8121C107.25 21.3625 105.707 21.0344 104.285 21.1437C103.933 21.1681 103.945 21.6298 104.285 21.6784L104.273 21.6906Z" fill="#465B78"/>
<path d="M97.8446 32.1288C98.2213 29.9658 98.0512 27.7421 97.2735 25.6763C97.1277 25.2996 96.5201 25.4576 96.6659 25.8464C97.4072 27.8028 97.6623 29.9172 97.3586 31.9951C97.3099 32.3111 97.7838 32.4569 97.8446 32.1288Z" fill="#465B78"/>
<path d="M111.916 7.12081C110.993 9.50252 109.911 12.2002 107.493 13.4153C107.141 13.5855 107.457 14.1201 107.797 13.9378C110.312 12.6012 111.406 9.76985 112.317 7.23017C112.402 6.97499 112.013 6.87777 111.928 7.12081H111.916Z" fill="#465B78"/>
<path d="M20.2932 27.0981C27.1831 21.8729 36.0538 20.7428 44.4627 20.7671C52.8716 20.7914 62.0703 22.1767 70.8802 21.2896C75.7652 20.8035 80.4557 19.5033 84.7331 17.073C85.1827 16.8178 84.8789 16.028 84.3685 16.2102C74.793 19.8071 63.164 20.9615 56.9545 30.1603C55.5206 32.2746 54.6336 34.6928 54.4148 37.2325C54.3541 37.998 55.5328 37.9859 55.6057 37.2325C55.9945 32.7607 58.8016 28.9937 62.2405 26.296C66.2383 23.1488 71.1354 21.5083 75.9231 20.0137C78.8395 19.1023 81.7681 18.2274 84.6115 17.1094L84.247 16.2467C76.4457 20.84 66.9067 21.1195 58.0968 20.7914C49.2869 20.4633 40.9023 19.5519 32.4448 21.2896C27.9487 22.2131 23.6713 23.9508 20.038 26.77C19.8679 26.9036 20.0987 27.2074 20.2689 27.0738L20.2932 27.0981Z" fill="#465B78"/>
<path d="M75.4249 19.637C65.327 21.326 57.1611 13.3911 47.3548 12.8807C46.7715 12.8442 46.7715 13.7556 47.3548 13.7921C52.3734 14.0837 56.9545 16.3682 61.5478 18.2152C65.8981 19.9651 70.8924 21.5083 75.5829 20.2202C75.9717 20.1109 75.8016 19.5762 75.4249 19.637Z" fill="#465B78"/>
<path d="M29.662 22.0065C27.8636 24.5948 25.9436 27.098 23.7321 29.3461C21.5205 31.5941 19.0537 33.5627 16.4168 35.2882C15.955 35.592 16.3803 36.3454 16.8543 36.0416C22.2496 32.6999 27.1588 27.9244 30.2089 22.3225C30.4154 21.9579 29.8808 21.6541 29.6499 21.9944L29.662 22.0065Z" fill="#465B78"/>
<path d="M23.3554 24.8622C20.5362 24.1452 17.4254 24.0237 14.5211 23.9386C11.6169 23.8536 8.4575 23.9629 5.43176 24.2546C4.89709 24.3032 4.88493 25.1538 5.43176 25.1052C8.39674 24.8136 11.386 24.692 14.3753 24.7528C15.87 24.7771 17.3525 24.85 18.8471 24.9472C20.3418 25.0444 21.8121 25.2753 23.2946 25.3239C23.5619 25.3239 23.6105 24.9351 23.3554 24.8622Z" fill="#465B78"/>
<path d="M35.3125 21.0466C35.8472 25.1052 35.4219 29.1638 33.7571 32.9308C33.5505 33.3926 34.231 33.7936 34.4376 33.3318C36.1388 29.4919 36.7586 25.1052 35.9444 20.9615C35.8715 20.6091 35.2639 20.682 35.3125 21.0466Z" fill="#465B78"/>
<path d="M16.6598 35.7135C15.6512 35.106 14.351 35.3247 13.4883 36.0902C12.6255 36.8558 12.4311 38.1317 12.8685 39.1767C13.306 40.2218 14.3875 40.878 15.5419 40.8294C16.7813 40.7807 17.8507 39.9423 18.1423 38.7271C18.4826 37.3175 17.5955 35.8837 16.2467 35.4219C16.0401 35.349 15.8092 35.507 15.7485 35.7014C15.6877 35.9323 15.8214 36.1267 16.0279 36.1996C16.8664 36.5034 17.3768 37.3661 17.3525 38.2411C17.3282 39.201 16.6355 39.9544 15.712 40.1367C14.8614 40.3068 14.0108 39.9058 13.6219 39.1403C13.2695 38.4355 13.3303 37.4998 13.8528 36.8922C14.4725 36.1753 15.5419 36.0052 16.3925 36.3576C16.757 36.5034 16.9636 35.9323 16.6477 35.7378L16.6598 35.7135Z" fill="#465B78"/>
<path d="M15.6512 38.9459C15.4811 38.8365 15.311 38.7271 15.1409 38.6178C15.0923 38.5813 15.0315 38.5692 14.9829 38.5692C14.9222 38.557 14.8614 38.5692 14.8128 38.5692C14.752 38.5813 14.7034 38.6056 14.667 38.6421C14.6184 38.6785 14.5819 38.715 14.5576 38.7636C14.509 38.8608 14.4725 38.9823 14.509 39.1038C14.5455 39.2132 14.6062 39.3104 14.7156 39.359C14.8978 39.4441 15.0801 39.5413 15.2624 39.6263C15.311 39.6506 15.3596 39.6749 15.4082 39.6749C15.4568 39.6749 15.5176 39.6749 15.5662 39.6749C15.6148 39.6628 15.6634 39.6385 15.6999 39.602C15.7485 39.5777 15.7728 39.5413 15.7971 39.4927C15.8457 39.3955 15.87 39.2861 15.8335 39.1889L15.7971 39.0917C15.7971 39.0917 15.712 38.9823 15.6512 38.9459Z" fill="#465B78"/>
<path d="M5.38315 24.5098C4.6176 23.647 3.28093 23.4769 2.23589 23.8657C1.14225 24.2789 0.425302 25.251 0.267331 26.4054C0.109361 27.5598 0.583273 28.8722 1.65261 29.4312C2.66119 29.9658 3.91281 29.5891 4.69051 28.8236C5.7477 27.8028 5.90567 26.1624 5.75985 24.7771C5.73555 24.5341 5.56542 24.3275 5.31024 24.3275C5.09151 24.3275 4.83633 24.5341 4.86063 24.7771C4.97 25.8221 4.98215 26.9522 4.42318 27.8758C4.01002 28.5562 3.12296 29.0909 2.32095 28.9086C1.38528 28.7021 0.947821 27.6935 0.972124 26.8186C0.996427 25.9437 1.45819 25.1295 2.21159 24.7042C3.12296 24.1938 4.2409 24.3518 5.12797 24.8379C5.3467 24.9594 5.54112 24.6799 5.38315 24.4976V24.5098Z" fill="#465B78"/>
<path d="M2.49107 27.7785C2.55183 27.5355 2.61259 27.2803 2.67335 27.0373C2.69765 26.9401 2.6855 26.8429 2.63689 26.7578C2.58828 26.6849 2.50322 26.612 2.41816 26.5877C2.32095 26.5634 2.21158 26.5755 2.13868 26.6241C2.06577 26.6727 1.9807 26.7578 1.96855 26.8429C1.9321 27.0981 1.89564 27.3532 1.85919 27.5963C1.84704 27.6449 1.84704 27.6813 1.85919 27.7299C1.85919 27.7785 1.87134 27.815 1.89564 27.8514C1.9321 27.9244 2.01716 27.9851 2.10222 28.0094C2.18728 28.0337 2.28449 28.0216 2.3574 27.973C2.43031 27.9244 2.49107 27.8636 2.51537 27.7664L2.49107 27.7785Z" fill="#465B78"/>
<path d="M33.5748 32.9308C32.3232 32.9794 31.2296 33.9637 30.5855 34.9723C29.9415 35.9809 29.8443 37.2568 30.6706 38.2046C31.3632 39.0188 32.5541 39.3712 33.5748 39.0431C34.6563 38.6907 35.4948 37.7429 35.7621 36.6492C36.1024 35.2518 35.5434 33.8057 34.5713 32.7972C34.1703 32.384 33.5505 33.0037 33.9394 33.429C35.1181 34.705 35.4097 37.0016 33.7207 38.0102C33.028 38.4233 32.1896 38.3747 31.5455 37.8765C30.8529 37.3297 30.7192 36.4669 31.1081 35.6892C31.3511 35.2032 31.7035 34.79 32.1045 34.4255C32.5055 34.0609 33.0037 33.7328 33.5748 33.6964C34.0731 33.6721 34.0731 32.8944 33.5748 32.9187V32.9308Z" fill="#465B78"/>
<path d="M32.9308 36.6857C32.9308 36.6857 32.8822 36.6249 32.8579 36.6006L32.9187 36.6735C32.9187 36.6735 32.8457 36.552 32.8093 36.4912L32.8457 36.5885C32.8214 36.5155 32.7971 36.4426 32.785 36.3697V36.4791C32.785 36.394 32.785 36.3211 32.7971 36.2361V36.3454C32.7971 36.2725 32.8093 36.1996 32.8336 36.1388L32.7971 36.2361C32.7971 36.2361 32.8214 36.1875 32.8336 36.1753C32.8822 36.0781 32.9065 35.9687 32.87 35.8594C32.8457 35.7621 32.7728 35.6528 32.6756 35.6042C32.5784 35.5556 32.4569 35.5313 32.3597 35.5677C32.2625 35.6042 32.1531 35.6649 32.1045 35.7621C32.068 35.8351 32.0437 35.908 32.0194 35.9809C31.9951 36.0538 31.9951 36.1388 31.983 36.2118C31.9708 36.3333 31.983 36.4669 32.0073 36.6006C32.0559 36.8436 32.1896 37.0867 32.384 37.2446C32.4569 37.3176 32.5541 37.354 32.6513 37.354C32.7485 37.354 32.8579 37.3176 32.9187 37.2446C33.0645 37.0867 33.0766 36.8558 32.9187 36.6978L32.9308 36.6857Z" fill="#465B78"/>
<path d="M38.1924 20.1838C35.3368 18.1666 31.6306 17.0973 28.2646 16.3804C24.8986 15.6634 21.1802 15.469 17.6198 15.8578C17.0487 15.9186 17.0487 16.83 17.6198 16.7571C21.0952 16.3196 24.6313 16.4168 28.0702 17.0851C29.7228 17.4011 31.3389 17.8629 32.9065 18.4461C34.632 19.078 36.236 19.9286 37.9008 20.6699C38.2289 20.8157 38.4962 20.3904 38.1924 20.1838Z" fill="#465B78"/>
<path d="M16.8178 16.356C16.6963 17.1337 16.5748 17.9965 16.1738 18.6891C15.87 19.2117 15.2745 19.6127 14.667 19.5276C14.3875 19.4911 14.1323 19.2846 13.9622 19.0294C13.7434 18.7013 13.5612 18.3246 13.464 17.9479C13.3667 17.5955 13.3303 17.1823 13.5126 16.8543C13.6584 16.5748 13.8893 16.3803 14.1809 16.2588C15.0072 15.9064 15.9064 16.2953 16.5991 16.7692C16.8057 16.915 17.1216 16.8056 17.2431 16.5991C17.3768 16.3682 17.2796 16.1009 17.073 15.955C16.2224 15.3718 15.1287 15.0194 14.1201 15.3839C13.1845 15.7363 12.5161 16.5748 12.6255 17.6076C12.6863 18.1545 12.8807 18.6648 13.1237 19.1509C13.3303 19.5762 13.6341 19.9894 14.0715 20.2081C14.8979 20.6091 15.9064 20.2688 16.5262 19.637C17.3525 18.7864 17.4011 17.5712 17.3768 16.4532C17.3768 16.1495 16.8786 16.0522 16.83 16.3803L16.8178 16.356Z" fill="#465B78"/>
<path d="M14.9343 18.5676C14.8614 18.2881 14.7885 18.0208 14.7034 17.7413C14.6791 17.6563 14.6184 17.5712 14.5333 17.5226C14.4482 17.474 14.3389 17.4618 14.2538 17.4861C14.1688 17.5104 14.0837 17.5712 14.0351 17.6563C13.9865 17.7413 13.9743 17.8385 13.9986 17.9357C14.0837 18.2031 14.1566 18.4826 14.2417 18.7499C14.266 18.835 14.3267 18.92 14.3996 18.9565C14.4726 18.9929 14.5819 19.0172 14.667 18.9929C14.8493 18.9322 14.9586 18.7499 14.91 18.5555L14.9343 18.5676Z" fill="#465B78"/>
<path d="M64.0753 23.7928C59.7251 27.8514 59.0446 34.5956 62.7022 39.3347C62.9088 39.602 63.3706 39.4684 63.2733 39.0917C62.605 36.6978 63.9295 34.231 64.4156 31.9222C64.6343 30.9015 64.7315 29.8564 64.5128 28.8357C64.2576 27.5719 63.4313 26.5391 63.2369 25.251C63.1761 24.8378 62.605 24.9837 62.5685 25.3361C62.447 26.6241 63.2612 27.6692 63.5893 28.8479C63.9174 30.0266 63.7594 31.2903 63.4799 32.4812C62.9574 34.7414 62.1432 36.8922 62.6536 39.2375L63.2247 38.9944C60.0532 34.4133 60.5271 28.1674 64.5493 24.2667C64.8652 23.9508 64.3791 23.4769 64.0632 23.7806L64.0753 23.7928Z" fill="#465B78"/>
<path d="M53.4913 14.0351C50.8058 13.0022 48.339 11.8113 46.4798 9.55115C44.6206 7.29095 43.5513 4.09509 43.6607 1.03289L43.1382 1.33668C45.7386 2.86778 48.5092 4.60545 50.0038 7.31526C50.7572 8.67624 50.8544 10.1344 51.2068 11.6291C51.4741 12.747 52.021 13.9622 53.1632 14.3875C53.5156 14.5212 53.8072 13.9986 53.5278 13.7556C52.3369 12.7227 52.021 11.5197 51.7536 10.0008C51.5106 8.61548 51.0488 7.35171 50.2468 6.18516C48.5456 3.71839 45.9816 2.23589 43.4784 0.729096C43.2475 0.583277 42.968 0.777702 42.9559 1.03289C42.8101 4.26521 43.8308 7.48538 45.8601 10.0251C47.6707 12.2974 50.4656 14.266 53.4305 14.509C53.7222 14.5333 53.7343 14.1201 53.4913 14.0351Z" fill="#465B78"/>
<path d="M55.7272 21.1559C54.3055 21.0465 52.7622 21.3625 51.4255 21.8242C50.0889 22.286 48.8372 22.9543 47.7558 23.8657C45.7264 25.5791 44.4141 28.0945 44.4141 30.7678C44.4141 31.0108 44.6814 31.1567 44.888 31.0473C46.1274 30.379 47.3791 29.7106 48.6307 29.0544C49.7365 28.4833 50.8301 27.8757 51.8022 27.098C53.6493 25.6155 54.9373 23.6105 56.0674 21.5448C56.2133 21.2774 55.9095 20.9007 55.63 21.1073C53.6736 22.4926 50.7329 22.7721 49.6635 25.1902C49.4934 25.5791 50.0646 25.9193 50.2347 25.5305C51.2311 23.2581 54.111 22.9665 55.9581 21.6663L55.5206 21.2288C54.4391 23.2338 53.1025 25.1538 51.3405 26.6241C50.4048 27.4018 49.3233 27.9973 48.254 28.5805C47.0388 29.2367 45.8115 29.8808 44.5842 30.5126L45.0581 30.7921C45.1067 28.301 46.3583 25.9558 48.2418 24.3639C49.2504 23.5012 50.4534 22.8693 51.705 22.444C53.0295 21.9944 54.3662 21.8729 55.7393 21.7149C56.0796 21.6784 56.0917 21.2167 55.7393 21.1802L55.7272 21.1559Z" fill="#465B78"/>
<path d="M62.6536 31.9951C62.3498 29.9294 62.6172 27.8028 63.3462 25.8464C63.4921 25.4576 62.8723 25.2996 62.7387 25.6763C61.961 27.7421 61.7908 29.9658 62.1675 32.1288C62.2283 32.4447 62.7022 32.3111 62.6536 31.9951Z" fill="#465B78"/>
<path d="M47.7071 7.21804C48.6185 9.75772 49.7122 12.589 52.2275 13.9257C52.5678 14.108 52.8837 13.5733 52.5313 13.4032C50.1132 12.188 49.0195 9.49039 48.1081 7.10868C48.0109 6.86564 47.6221 6.96286 47.7193 7.21804H47.7071Z" fill="#465B78"/>
</svg>
